#File written by RizomUV 2025.0.101.g577a16f3. Compilation :Sep 18 2025,15:37:21
#begin vertices
v -27.7061 -14.5469 15.8629
v -27.7061 -14.5469 6.0204
v 27.846 -14.5469 6.0204
v 27.846 -14.5469 15.8629
v -27.7061 -10.6099 6.0204
v -23.1671 -10.6099 12.5821
v -14.0891 -10.6099 15.8629
v 27.846 -10.6099 15.8629
v 27.846 -10.6099 6.0204
v -23.1671 -11.9223 15.8629
v -27.7061 -11.9223 12.5821
v -23.9236 -10.8287 13.1289
v -26.941 -10.5403 10.6731
v -25.4366 -11.2661 14.2225
v -21.4374 -10.5896 15.2824
v -23.9494 -11.6666 15.5162
v -26.5713 -12.9065 15.0427
v -26.9496 -11.7035 13.1289
v -26.2953 -13.2927 26.8942
v -26.2953 -13.2927 17.0517
v 29.2359 -14.814 17.0517
v 29.2359 -14.814 26.8942
v -26.1875 -9.3572 26.8942
v 29.3437 -10.8784 26.8942
v 29.3437 -10.8784 17.0517
v -26.1875 -9.3572 17.0517
v -26.7874 -14.5469 4.8417
v -26.7874 -14.5469 -5.0008
v 28.7646 -14.5469 -5.0008
v 28.7646 -14.5469 4.8417
v -26.7874 -10.6099 4.8417
v 28.7646 -10.6099 4.8417
v 28.7646 -10.6099 -5.0008
v -26.7874 -11.9842 -5.0008
v -27.5447 -15.165 -6.2154
v -27.5447 -15.1072 -16.0579
v 29.445 -13.9182 -16.0579
v 29.445 -13.9182 -6.2154
v -27.6376 -11.229 -6.2154
v 29.3567 -9.9822 -6.2154
v 29.3567 -9.9793 -16.0579
v -29.445 -11.1834 -16.0579
v -26.7874 -14.5469 -17.2023
v -26.7874 -14.5469 -27.0448
v 28.7646 -14.5469 -27.0448
v 28.7646 -14.5469 -17.2023
v -26.7874 -10.6099 -17.2023
v 28.7646 -10.6099 -17.2023
v 28.7646 -10.6099 -27.0448
v -26.7874 -10.6099 -27.0448
v -26.3564 -20.8482 27.3841
v -26.3564 -20.8482 -27.3841
v -21.5215 -20.8482 -27.3841
v -21.5215 -20.8482 27.3841
v -26.3564 -12.0936 27.3841
v -21.5215 -12.0936 27.3841
v -21.5215 -12.0936 -27.3841
v -26.3564 -12.0936 -27.3841
v -26.6171 -20.157 -26.7236
v 28.1511 -20.157 -26.7236
v 28.1511 -20.157 -21.8888
v -26.6171 -20.157 -21.8888
v -26.6171 -11.4024 -26.7236
v -26.6171 -11.4024 -21.8888
v 28.1511 -11.4024 -21.8888
v 28.1511 -11.4024 -26.7236
v -26.6171 -20.157 21.435
v 28.1511 -20.157 21.435
v 28.1511 -20.157 26.2698
v -26.6171 -20.157 26.2698
v -26.6171 -11.4024 21.435
v -26.6171 -11.4024 26.2698
v 28.1511 -11.4024 26.2698
v 28.1511 -11.4024 21.435
v 23.6214 -20.8482 27.3841
v 23.6214 -20.8482 -27.3841
v 28.4562 -20.8482 -27.3841
v 28.4562 -20.8482 27.3841
v 23.6214 -12.0936 27.3841
v 28.4562 -12.0936 27.3841
v 28.4562 -12.0936 -27.3841
v 23.6214 -12.0936 -27.3841
v 28.3237 -10.344 -25.981
v 24.3867 -10.344 -25.981
v 24.3867 -6.4072 -26.0177
v 28.3237 -6.4072 -26.0177
v 28.3237 -9.8573 26.2078
v 28.3237 -5.9205 26.1711
v 24.3867 -5.9205 26.1711
v 24.3867 -9.8573 26.2078
v 28.0602 -20.4059 26.9629
v 21.4161 -20.4059 26.9629
v 21.4161 -20.4059 20.9625
v 28.0602 -20.4059 20.9625
v 28.0602 20.8482 26.9629
v 28.0602 20.8482 20.9625
v 21.4161 20.8482 20.9625
v 21.4161 20.8482 26.9629
v 27.8376 -12.4073 -24.5053
v 24.585 -12.4073 -24.5053
v 24.585 -8.9764 -26.4362
v 27.8376 -8.9764 -26.4362
v 27.8376 16.1821 26.2944
v 27.8376 19.6131 24.3635
v 24.585 19.6131 24.3635
v 24.585 16.1821 26.2944
v 28.5504 14.8645 -25.981
v 24.6134 14.8645 -25.981
v 24.6134 18.8014 -26.0177
v 28.5504 18.8014 -26.0177
v 28.5504 15.3513 26.2078
v 28.5504 19.2881 26.1711
v 24.6134 19.2881 26.1711
v 24.6134 15.3513 26.2078
v 28.0602 -20.4059 -21.1112
v 21.4161 -20.4059 -21.1112
v 21.4161 -20.4059 -27.1116
v 28.0602 -20.4059 -27.1116
v 28.0602 20.8482 -21.1112
v 28.0602 20.8482 -27.1116
v 21.4161 20.8482 -27.1116
v 21.4161 20.8482 -21.1112
v -26.9453 -10.344 -25.981
v -26.9453 -6.4072 -26.0177
v -23.0083 -6.4072 -26.0177
v -23.0083 -10.344 -25.981
v -26.9453 -9.8573 26.2078
v -23.0083 -9.8573 26.2078
v -23.0083 -5.9205 26.1711
v -26.9453 -5.9205 26.1711
v -26.6818 -20.4059 26.9629
v -26.6818 -20.4059 20.9625
v -20.0377 -20.4059 20.9625
v -20.0377 -20.4059 26.9629
v -26.6818 20.8482 26.9629
v -20.0377 20.8482 26.9629
v -20.0377 20.8482 20.9625
v -26.6818 20.8482 20.9625
v -26.4592 -12.4073 -24.5053
v -26.4592 -8.9764 -26.4362
v -23.2066 -8.9764 -26.4362
v -23.2066 -12.4073 -24.5053
v -26.4592 16.1821 26.2944
v -23.2066 16.1821 26.2944
v -23.2066 19.6131 24.3635
v -26.4592 19.6131 24.3635
v -27.172 14.8645 -25.981
v -27.172 18.8014 -26.0177
v -23.235 18.8014 -26.0177
v -23.235 14.8645 -25.981
v -27.172 15.3513 26.2078
v -23.235 15.3513 26.2078
v -23.235 19.2881 26.1711
v -27.172 19.2881 26.1711
v -26.6818 -20.4059 -21.1112
v -26.6818 -20.4059 -27.1116
v -20.0377 -20.4059 -27.1116
v -20.0377 -20.4059 -21.1112
v -26.6818 20.8482 -21.1112
v -20.0377 20.8482 -21.1112
v -20.0377 20.8482 -27.1116
v -26.6818 20.8482 -27.1116
#end vertices

#begin 483 textures vertices 
vt 0.2642663 0.2244413 0
vt 0.8025215 0.1358001 0
vt 0.003906271 0.2705709 0
vt 0.003906271 0.2244413 0
vt 0.8025215 0.1542519 0
vt 0.8263337 0.630172 0
vt 0.8715735 0.630172 0
vt 0.1160428 0.821197 0
vt 0.1621723 0.821197 0
vt 0.02812463 0.4877291 0
vt 0.1119501 0.4866948 0
vt 0.8237926 0.6264662 0
vt 0.8067099 0.6329835 0
vt 0.8187104 0.619055 0
vt 0.8382593 0.6210246 0
vt 0.02487384 0.4903793 0
vt 0.01124605 0.4903684 0
vt 0.1142161 0.4905645 0
vt 0.5333936 0.1139068 0
vt 0.5333936 0.1600363 0
vt 0.2730339 0.1600363 0
vt 0.2730339 0.1139068 0
vt 0.2730339 0.1689071 0
vt 0.5333935 0.1689071 0
vt 0.5333935 0.2150366 0
vt 0.2730339 0.2150366 0
vt 0.2642659 0.2794416 0
vt 0.2642659 0.3255711 0
vt 0.003906314 0.3255711 0
vt 0.003906314 0.2794416 0
vt 0.003986353 0.1139068 0
vt 0.2643455 0.1143543 0
vt 0.2643455 0.1604838 0
vt 0.003906308 0.1604838 0
vt 0.271068 0.05890654 0
vt 0.2710621 0.1050369 0
vt 0.003906276 0.1050361 0
vt 0.003906413 0.05890654 0
vt 0.01237072 0.003906251 0
vt 0.2795539 0.003907921 0
vt 0.2795542 0.05003747 0
vt 0.003906258 0.05003747 0
vt 0.5333934 0.2239073 0
vt 0.5333934 0.2700369 0
vt 0.2730339 0.2700369 0
vt 0.2730339 0.2239073 0
vt 0.2730339 0.2789076 0
vt 0.5333934 0.2789076 0
vt 0.5333934 0.3250372 0
vt 0.2730339 0.3250372 0
vt 0.07919795 0.7940416 0
vt 0.07919795 0.5373555 0
vt 0.101858 0.5373555 0
vt 0.101858 0.7940416 0
vt 0.110703 0.5373555 0
vt 0.133363 0.5373555 0
vt 0.133363 0.7940416 0
vt 0.110703 0.7940416 0
vt 0.236723 0.7940416 0
vt 0.236723 0.5373555 0
vt 0.2593826 0.5373555 0
vt 0.2593826 0.7940416 0
vt 0.205218 0.5373555 0
vt 0.2278776 0.5373555 0
vt 0.2278776 0.7940416 0
vt 0.205218 0.7940416 0
vt 0.3130826 0.7940416 0
vt 0.3130826 0.5373555 0
vt 0.3357422 0.5373555 0
vt 0.3357422 0.7940416 0
vt 0.173713 0.5373555 0
vt 0.1963726 0.5373555 0
vt 0.1963726 0.7940416 0
vt 0.173713 0.7940416 0
vt 0.3445876 0.7940416 0
vt 0.3445876 0.5373555 0
vt 0.3672472 0.5373555 0
vt 0.3672472 0.7940416 0
vt 0.1422079 0.5373555 0
vt 0.1648676 0.5373555 0
vt 0.1648676 0.7940416 0
vt 0.1422079 0.7940416 0
vt 0.8575077 0.3184224 0
vt 0.8575077 0.3368742 0
vt 0.8390561 0.3368742 0
vt 0.8390561 0.3184224 0
vt 0.8347842 0.003906256 0
vt 0.8532359 0.003906256 0
vt 0.8532359 0.02235808 0
vt 0.8347842 0.02235808 0
vt 0.8447513 0.4177433 0
vt 0.8447513 0.4488827 0
vt 0.8166288 0.4488827 0
vt 0.8166288 0.4177433 0
vt 0.8559649 0.8440303 0
vt 0.8278424 0.8440303 0
vt 0.8278424 0.8128909 0
vt 0.8559649 0.8128909 0
vt 0.1673051 0.4986674 0
vt 0.1673051 0.4834232 0
vt 0.1857567 0.4834232 0
vt 0.1857567 0.4986674 0
vt 0.1585239 0.4986674 0
vt 0.140072 0.4986674 0
vt 0.140072 0.4834232 0
vt 0.1585239 0.4834232 0
vt 0.04395502 0.8377505 0
vt 0.04395502 0.8192987 0
vt 0.06240717 0.8192987 0
vt 0.06240717 0.8377505 0
vt 0.332306 0.8299784 0
vt 0.3507576 0.8299784 0
vt 0.3507576 0.8484302 0
vt 0.332306 0.8484302 0
vt 0.5280992 0.8176967 0
vt 0.5280992 0.8488361 0
vt 0.4999767 0.8488361 0
vt 0.4999767 0.8176967 0
vt 0.4912544 0.8488361 0
vt 0.4631319 0.8488361 0
vt 0.4631319 0.8176967 0
vt 0.4912544 0.8176967 0
vt 0.3235246 0.8299784 0
vt 0.3235246 0.84843 0
vt 0.3050728 0.84843 0
vt 0.3050728 0.8299784 0
vt 0.1833246 0.8299784 0
vt 0.2017764 0.8299784 0
vt 0.2017764 0.84843 0
vt 0.1833246 0.84843 0
vt 0.4542225 0.8176967 0
vt 0.4542225 0.8458192 0
vt 0.4230831 0.8458192 0
vt 0.4230831 0.8176967 0
vt 0.003906257 0.8192987 0
vt 0.03504564 0.8192987 0
vt 0.03504564 0.8474212 0
vt 0.003906257 0.8474212 0
vt 0.8427939 0.1040572 0
vt 0.8427939 0.08560569 0
vt 0.8580381 0.08560569 0
vt 0.8580381 0.1040572 0
vt 0.553909 0.4828892 0
vt 0.5691532 0.4828892 0
vt 0.5691532 0.5013411 0
vt 0.553909 0.5013411 0
vt 0.807551 0.02235841 0
vt 0.807551 0.003906253 0
vt 0.8260028 0.003906253 0
vt 0.8260028 0.02235841 0
vt 0.1560915 0.8299784 0
vt 0.1745433 0.8299784 0
vt 0.1745433 0.84843 0
vt 0.1560915 0.84843 0
vt 0.8589819 0.776046 0
vt 0.8589819 0.8041685 0
vt 0.8278425 0.8041685 0
vt 0.8278425 0.776046 0
vt 0.1160427 0.8299784 0
vt 0.1471821 0.8299784 0
vt 0.1471821 0.8581009 0
vt 0.1160427 0.8581009 0
vt 0.00390629 0.2155709 0
vt 0.02517935 0.1848175 0
vt 0.06772628 0.1694411 0
vt 0.2642665 0.1694414 0
vt 0.2642664 0.2155709 0
vt 0.003906913 0.2155709 0
vt 0.5346905 0.45886 0
vt 0.7950523 0.45886 0
vt 0.7950473 0.4773097 0
vt 0.598507 0.4773113 0
vt 0.5559605 0.4711608 0
vt 0.5346856 0.4588635 0
vt 0.7974123 0.4860931 0
vt 0.843538 0.4860931 0
vt 0.8435433 0.4860958 0
vt 0.8281644 0.4983984 0
vt 0.7974107 0.5045467 0
vt 0.7974053 0.5045435 0
vt 0.003906308 0.4834232 0
vt 0.08026586 0.4866948 0
vt 0.8339486 0.1762969 0
vt 0.00390625 0.3754727 0
vt 0.2642663 0.2705709 0
vt 0.811289 0.1849266 0
vt 0.5452054 0.00390625 0
vt 0.1621723 0.8027452 0
vt 0.5421615 0.1358001 0
vt 0.8339486 0.08560569 0
vt 0.2885193 0.00390625 0
vt 0.1160428 0.8027452 0
vt 0.5421615 0.1542519 0
vt 0.1017418 0.4925429 0
vt 0.8302112 0.3184224 0
vt 0.00390625 0.4337628 0
vt 0.7963374 0.6524998 0
vt 0.01814523 0.4976224 0
vt 0.1188134 0.4990983 0
vt 0.03723423 0.4934705 0
vt 0.07164169 0.4877291 0
vt 0.1248581 0.4910603 0
vt 0.2605923 0.4337628 0
vt 0.2260433 0.8027452 0
vt 0.1315076 0.4834232 0
vt 0.8025211 0.108567 0
vt 0.7990074 0.03113939 0
vt 0.5421614 0.108567 0
vt 0.8499428 0.45886 0
vt 0.7987832 0.3339079 0
vt 0.8038132 0.45886 0
vt 0.8451369 0.03113939 0
vt 0.5384235 0.3339079 0
vt 0.7987833 0.3523596 0
vt 0.8038132 0.4773117 0
vt 0.5421613 0.1270187 0
vt 0.8499428 0.4773117 0
vt 0.802521 0.1270192 0
vt 0.7990074 0.04959156 0
vt 0.8451369 0.04959156 0
vt 0.5384236 0.3523601 0
vt 0.8025209 0.2174996 0
vt 0.7990074 0.05837255 0
vt 0.5421614 0.2174996 0
vt 0.8388198 0.5629867 0
vt 0.6368288 0.5437946 0
vt 0.7931335 0.5693659 0
vt 0.8451369 0.05837255 0
vt 0.3765489 0.5373555 0
vt 0.6365318 0.5558017 0
vt 0.7947944 0.5812613 0
vt 0.5421614 0.2359514 0
vt 0.8413715 0.5812613 0
vt 0.8025209 0.2359514 0
vt 0.7990074 0.07682437 0
vt 0.8451369 0.07682437 0
vt 0.3760926 0.5558017 0
vt 0.8018791 0.4316273 0
vt 0.7963373 0.6906223 0
vt 0.5347175 0.4316268 0
vt 0.8434015 0.6631979 0
vt 0.5364518 0.4828892 0
vt 0.7973128 0.6612396 0
vt 0.8424669 0.6906087 0
vt 0.269296 0.4829923 0
vt 0.5449797 0.5014577 0
vt 0.7963375 0.6816495 0
vt 0.5346857 0.4500791 0
vt 0.8432388 0.6816495 0
vt 0.8018689 0.4500791 0
vt 0.7963428 0.7090741 0
vt 0.8424723 0.7090741 0
vt 0.2693318 0.5014577 0
vt 0.8025209 0.1902664 0
vt 0.1710431 0.8027452 0
vt 0.5421614 0.1902664 0
vt 0.3512024 0.8027452 0
vt 0.8025209 0.1630333 0
vt 0.3050729 0.8027452 0
vt 0.2171726 0.8027452 0
vt 0.5421614 0.1630333 0
vt 0.8025209 0.1814851 0
vt 0.3050729 0.821197 0
vt 0.5421614 0.2087182 0
vt 0.3512024 0.821197 0
vt 0.8025209 0.2087182 0
vt 0.1710431 0.821197 0
vt 0.2171726 0.821197 0
vt 0.5421614 0.1814851 0
vt 0.8075511 0.3184224 0
vt 0.525982 0.4332288 0
vt 0.2487034 0.8027452 0
vt 0.2692959 0.4332288 0
vt 0.2487034 0.843776 0
vt 0.2692959 0.4742596 0
vt 0.8075511 0.3594532 0
vt 0.525982 0.4742596 0
vt 0.8302112 0.3594532 0
vt 0.00390625 0.4747936 0
vt 0.2605923 0.4747936 0
vt 0.2260433 0.843776 0
vt 0.8392884 0.3680828 0
vt 0.2730338 0.3339079 0
vt 0.8166288 0.3680828 0
vt 0.2605923 0.3344419 0
vt 0.8339486 0.1352661 0
vt 0.00390625 0.3344419 0
vt 0.5297199 0.3339079 0
vt 0.811289 0.1352661 0
vt 0.8166288 0.4091136 0
vt 0.2605923 0.3754727 0
vt 0.8392884 0.4091136 0
vt 0.2730338 0.3749387 0
vt 0.5297199 0.3749387 0
vt 0.811289 0.1762969 0
vt 0.8339486 0.1849266 0
vt 0.2799756 0.05890653 0
vt 0.5366616 0.05890653 0
vt 0.811289 0.08560569 0
vt 0.8339486 0.1266365 0
vt 0.2885193 0.04493706 0
vt 0.811289 0.2259574 0
vt 0.5452054 0.04493706 0
vt 0.8339486 0.2259574 0
vt 0.2799756 0.09993734 0
vt 0.5366616 0.09993734 0
vt 0.811289 0.1266365 0
vt 0.4142377 0.8176967 0
vt 0.2692959 0.3835683 0
vt 0.3915781 0.8176967 0
vt 0.2605923 0.3841023 0
vt 0.3827327 0.8176967 0
vt 0.00390625 0.3841023 0
vt 0.525982 0.3835683 0
vt 0.3600731 0.8176967 0
vt 0.3827327 0.8587275 0
vt 0.00390625 0.4251331 0
vt 0.3915781 0.8587275 0
vt 0.2605923 0.4251331 0
vt 0.4142377 0.8587275 0
vt 0.2692959 0.4245992 0
vt 0.525982 0.4245992 0
vt 0.3600731 0.8587275 0
vt 0.7899729 0.08079984 0
vt 0.8385654 0.6102735 0
vt 0.8385654 0.5918218 0
vt 0.7899729 0.07201852 0
vt 0.7899729 0.0535667 0
vt 0.5394914 0.5645887 0
vt 0.5394915 0.5830404 0
vt 0.7899729 0.09925166 0
vt 0.7840991 0.5645887 0
vt 0.5453653 0.0535667 0
vt 0.5453653 0.07201852 0
vt 0.5939578 0.5918218 0
vt 0.5939577 0.6102735 0
vt 0.5453653 0.08079984 0
vt 0.5453653 0.09925166 0
vt 0.7840991 0.5830404 0
vt 0.7883743 0.4860931 0
vt 0.8391027 0.5542644 0
vt 0.8391027 0.5261419 0
vt 0.7873064 0.7302918 0
vt 0.7873064 0.6991525 0
vt 0.9475013 0.7673237 0
vt 0.9475013 0.7392012 0
vt 0.7883743 0.5172325 0
vt 0.7541528 0.7673237 0
vt 0.5939578 0.6991525 0
vt 0.5939578 0.7302918 0
vt 0.6457542 0.5261419 0
vt 0.6457542 0.5542644 0
vt 0.5950258 0.4860931 0
vt 0.5950258 0.5172325 0
vt 0.7541528 0.7392012 0
vt 0.8078874 0.3835684 0
vt 0.5862844 0.5285743 0
vt 0.5862842 0.5101228 0
vt 0.8078872 0.4228418 0
vt 0.8078872 0.4075976 0
vt 0.003906413 0.5101228 0
vt 0.003906299 0.5285743 0
vt 0.8078874 0.3988125 0
vt 0.2771079 0.5101224 0
vt 0.5346857 0.4075976 0
vt 0.5346857 0.4228418 0
vt 0.3130827 0.5101224 0
vt 0.3130826 0.5285743 0
vt 0.5346856 0.3835684 0
vt 0.5346856 0.3988125 0
vt 0.2771081 0.5285743 0
vt 0.7985167 0.003906256 0
vt 0.786769 0.2631849 0
vt 0.7867691 0.2447327 0
vt 0.786769 0.3176508 0
vt 0.786769 0.299199 0
vt 0.5421613 0.2719658 0
vt 0.5421614 0.290418 0
vt 0.7985167 0.02235808 0
vt 0.786769 0.2719658 0
vt 0.5421614 0.299199 0
vt 0.5421614 0.3176508 0
vt 0.5421615 0.2447327 0
vt 0.5421614 0.2631844 0
vt 0.553909 0.003906256 0
vt 0.553909 0.02235808 0
vt 0.7867691 0.2904175 0
vt 0.7873064 0.619055 0
vt 0.989152 0.3097001 0
vt 0.989152 0.2815776 0
vt 0.7873064 0.6902431 0
vt 0.7873064 0.6591037 0
vt 0.989152 0.2728552 0
vt 0.989152 0.2447327 0
vt 0.7873064 0.6501944 0
vt 0.7958035 0.2728552 0
vt 0.5939578 0.6591037 0
vt 0.5939578 0.6902431 0
vt 0.7958035 0.2815776 0
vt 0.7958035 0.3097001 0
vt 0.5939578 0.619055 0
vt 0.5939578 0.6501944 0
vt 0.7958035 0.2447327 0
vt 0.5307101 0.5645887 0
vt 0.5394915 0.5918218 0
vt 0.5122583 0.5645887 0
vt 0.5667246 0.8364295 0
vt 0.503477 0.5645887 0
vt 0.5851763 0.8364294 0
vt 0.5579431 0.5918219 0
vt 0.4850252 0.5645887 0
vt 0.503477 0.8091963 0
vt 0.5851763 0.5918218 0
vt 0.5122583 0.8091963 0
vt 0.5667246 0.5918219 0
vt 0.5307101 0.8091963 0
vt 0.5394915 0.8364294 0
vt 0.5579431 0.8364295 0
vt 0.4850252 0.8091963 0
vt 0.6250972 0.7392012 0
vt 0.7541528 0.776046 0
vt 0.5939578 0.7392012 0
vt 0.8191201 0.776046 0
vt 0.6651459 0.7392012 0
vt 0.7909976 0.776046 0
vt 0.7822753 0.776046 0
vt 0.6340066 0.7392012 0
vt 0.6651459 0.9325497 0
vt 0.7909976 0.9693946 0
vt 0.5939578 0.9325497 0
vt 0.8191201 0.9693946 0
vt 0.6250972 0.9325497 0
vt 0.7541528 0.9693946 0
vt 0.7822753 0.9693946 0
vt 0.6340066 0.9325497 0
vt 0.07041287 0.5373555 0
vt 0.02235777 0.8105572 0
vt 0.05516868 0.5373555 0
vt 0.3043009 0.5101225 0
vt 0.04638363 0.5373555 0
vt 0.2858494 0.5101224 0
vt 0.003906262 0.8105573 0
vt 0.03113943 0.5373555 0
vt 0.04638363 0.8105573 0
vt 0.2858494 0.7833242 0
vt 0.05516868 0.8105571 0
vt 0.3043013 0.783324 0
vt 0.07041287 0.8105571 0
vt 0.02235818 0.5373556 0
vt 0.003906262 0.5373555 0
vt 0.03113943 0.8105573 0
vt 0.4490107 0.5645887 0
vt 0.4033258 0.5645887 0
vt 0.4305589 0.5645887 0
vt 0.3760926 0.8091964 0
vt 0.4762438 0.5645887 0
vt 0.3945448 0.8091963 0
vt 0.4217779 0.5645888 0
vt 0.457792 0.5645887 0
vt 0.4762438 0.8091963 0
vt 0.3945443 0.5645887 0
vt 0.4305589 0.8091963 0
vt 0.3760926 0.5645888 0
vt 0.4490107 0.8091963 0
vt 0.4033258 0.8091963 0
vt 0.4217775 0.8091964 0
vt 0.457792 0.8091963 0
vt 0.7051947 0.7392012 0
vt 0.07919792 0.8027452 0
vt 0.6740553 0.7392012 0
vt 0.2963505 0.7920655 0
vt 0.7452434 0.7392012 0
vt 0.268228 0.7920655 0
vt 0.1073204 0.8027452 0
vt 0.7141041 0.7392012 0
vt 0.7452434 0.9325497 0
vt 0.268228 0.9854141 0
vt 0.6740553 0.9325497 0
vt 0.2963505 0.9854141 0
vt 0.7051947 0.9325497 0
vt 0.07919792 0.9960938 0
vt 0.1073204 0.9960938 0
vt 0.7141041 0.9325497 0
#end 483 textures vertices 

#begin 61 normals 
vn 1 0 -0
vn -0.5774 -0.5774 -0.5774
vn 0.5774 -0.5774 -0.5774
vn 0.5774 -0.5774 0.5774
vn -0.5691 0.0819 -0.8182
vn -0.0802 0.9893 0.1222
vn -0.0023 0.7071 0.7071
vn 0.5774 0.5774 0.5774
vn 0.5774 0.5774 -0.5774
vn -0.0816 0.3646 0.9276
vn -0.7384 -0.5439 0.3987
vn -0.8218 0.5327 0.2024
vn 0.3371 0.858 -0.3875
vn -0.5128 0.8493 0.125
vn -0.3994 0.7619 0.5099
vn -0.075 0.8614 0.5024
vn -0.4101 0.77 0.4888
vn -0.4899 0.6367 0.5955
vn -0.011 0.8673 0.4977
vn -0.5929 -0.5613 0.5774
vn -0.5929 -0.5613 -0.5774
vn 0.5613 -0.5929 -0.5774
vn 0.5613 -0.5929 0.5774
vn -0.5613 0.5929 0.5774
vn 0.5929 0.5613 0.5774
vn 0.5929 0.5613 -0.5774
vn -0.5613 0.5929 -0.5774
vn -0.5774 -0.5774 0.5774
vn -0.5704 0.6196 0.5391
vn 0.5708 0.5851 -0.5761
vn -0.591 0.5247 -0.6127
vn -0.5637 -0.5921 0.5759
vn -0.4164 -0.6784 -0.6053
vn 0.5898 -0.5648 -0.5773
vn 0.59 -0.5644 0.5774
vn -0.5315 0.5727 0.6242
vn 0.5645 0.5899 0.5774
vn 0.5648 0.5897 -0.5774
vn -0.7578 0.4204 -0.499
vn -0.5774 0.5774 0.5774
vn -0.5774 0.5774 -0.5774
vn 0.5774 -0.5826 -0.572
vn -0.5774 -0.5826 -0.572
vn -0.5774 0.5719 -0.5828
vn 0.5774 0.5719 -0.5828
vn 0.5774 -0.5719 0.5828
vn 0.5774 0.5826 0.572
vn -0.5774 0.5826 0.572
vn -0.5774 -0.5719 0.5828
vn 0.5774 -0.7863 -0.22
vn -0.5774 -0.7863 -0.22
vn -0.5774 0.22 -0.7863
vn 0.5774 0.22 -0.7863
vn 0.5774 -0.22 0.7863
vn 0.5774 0.7863 0.22
vn -0.5774 0.7863 0.22
vn -0.5774 -0.22 0.7863
vn 0.5774 -0.5719 0.5827
vn 0.5775 0.5826 0.5719
vn -0.5775 0.5826 0.5719
vn -0.5774 -0.5719 0.5827
#end 61 normals 

#begin 123 faces
o bridge_H_barrier
g bridge_H_barrier
s 1
f 1/1/1 2/185/2 3/3/3 4/4/4 
f 5/163/5 6/164/6 7/165/7 8/166/8 9/167/9 5/168/1 
s 2
f 1/169/1 4/170/4 8/171/8 7/172/7 10/173/10 1/174/11 
s 4
f 4/192/4 3/188/3 9/9/9 8/8/8 
s 2
f 3/189/3 2/2/2 5/5/1 9/193/9 
s 4
f 2/175/2 1/176/1 1/177/11 11/178/12 5/179/5 5/180/1 
s 1
f 12/12/13 13/13/14 14/14/15 15/15/16 
f 12/12/13 6/6/6 5/197/5 13/13/14 
f 12/12/13 15/15/16 7/7/7 6/6/6 
s 2
f 16/16/17 15/200/16 14/198/15 17/17/18 
f 16/16/17 10/10/10 7/201/7 15/200/16 
f 16/16/17 17/17/18 1/181/11 10/10/10 
f 18/18/19 17/202/18 14/199/15 13/194/14 
f 18/18/19 11/11/12 1/205/11 17/202/18 
f 18/18/19 13/194/14 5/182/5 11/11/12 
f 19/19/20 20/20/21 21/21/22 22/22/23 
s 4
f 23/23/24 24/24/25 25/25/26 26/26/27 
s 8
f 19/208/20 22/206/23 24/218/25 23/216/24 
s 16
f 22/207/23 21/212/22 25/220/26 24/219/25 
s 32
f 21/213/22 20/210/21 26/214/27 25/221/26 
s 64
f 20/211/21 19/209/20 23/217/24 26/215/27 
s 2
f 27/27/28 28/28/2 29/29/3 30/30/4 
s 4
f 31/31/29 32/32/8 33/33/30 34/34/31 
s 8
f 27/224/28 30/222/4 32/234/8 31/232/29 
s 16
f 30/223/4 29/228/3 33/236/30 32/235/8 
s 32
f 29/229/3 28/226/2 34/230/31 33/237/30 
s 64
f 28/227/2 27/225/28 31/233/29 34/231/31 
s 2
f 35/35/32 36/36/33 37/37/34 38/38/35 
s 4
f 39/39/36 40/40/37 41/41/38 42/42/39 
s 8
f 35/240/32 38/238/35 40/250/37 39/248/36 
s 16
f 38/239/35 37/244/34 41/252/38 40/251/37 
s 32
f 37/245/34 36/242/33 42/246/39 41/253/38 
s 64
f 36/243/33 35/241/32 39/249/36 42/247/39 
s 2
f 43/43/28 44/44/2 45/45/3 46/46/4 
s 4
f 47/47/40 48/48/8 49/49/9 50/50/41 
s 8
f 43/256/28 46/254/4 48/266/8 47/264/40 
s 16
f 46/255/4 45/260/3 49/268/9 48/267/8 
s 32
f 45/261/3 44/258/2 50/262/41 49/269/9 
s 64
f 44/259/2 43/257/28 47/265/40 50/263/41 
s 2
f 51/51/28 52/52/2 53/53/3 54/54/4 
s 4
f 55/55/40 56/56/8 57/57/9 58/58/41 
s 8
f 51/270/28 54/195/4 56/278/8 55/276/40 
s 16
f 54/196/4 53/203/3 57/280/9 56/279/8 
s 32
f 53/204/3 52/272/2 58/274/41 57/281/9 
s 64
f 52/273/2 51/271/28 55/277/40 58/275/41 
s 2
f 59/59/2 60/60/3 61/61/4 62/62/28 
s 4
f 63/63/41 64/64/40 65/65/8 66/66/9 
s 8
f 59/284/2 62/282/28 64/292/40 63/290/41 
s 16
f 62/283/28 61/288/4 65/294/8 64/293/40 
s 32
f 61/289/4 60/286/3 66/183/9 65/295/8 
s 64
f 60/287/3 59/285/2 63/291/41 66/184/9 
s 2
f 67/67/2 68/68/3 69/69/4 70/70/28 
s 4
f 71/71/41 72/72/40 73/73/8 74/74/9 
s 8
f 67/186/2 70/296/28 72/304/40 71/302/41 
s 16
f 70/297/28 69/298/4 73/306/8 72/305/40 
s 32
f 69/299/4 68/190/3 74/300/9 73/307/8 
s 64
f 68/191/3 67/187/2 71/303/41 74/301/9 
s 2
f 75/75/28 76/76/2 77/77/3 78/78/4 
s 4
f 79/79/40 80/80/8 81/81/9 82/82/41 
s 8
f 75/310/28 78/308/4 80/320/8 79/318/40 
s 16
f 78/309/4 77/314/3 81/322/9 80/321/8 
s 32
f 77/315/3 76/312/2 82/316/41 81/323/9 
s 64
f 76/313/2 75/311/28 79/319/40 82/317/41 
s 2
f 83/83/42 84/84/43 85/85/44 86/86/45 
s 4
f 87/87/46 88/88/47 89/89/48 90/90/49 
s 8
f 83/327/42 87/334/46 90/333/49 84/328/43 
s 16
f 84/329/43 90/332/49 89/339/48 85/330/44 
s 32
f 85/331/44 89/338/48 88/337/47 86/324/45 
s 64
f 86/325/45 88/336/47 87/335/46 83/326/42 
s 2
f 91/91/4 92/92/28 93/93/2 94/94/3 
s 4
f 95/95/8 96/96/9 97/97/41 98/98/40 
s 8
f 91/343/4 95/350/8 98/349/40 92/344/28 
s 16
f 92/345/28 98/348/40 97/355/41 93/346/2 
s 32
f 93/347/2 97/354/41 96/353/9 94/340/3 
s 64
f 94/341/3 96/352/9 95/351/8 91/342/4 
s 2
f 99/99/50 100/100/51 101/101/52 102/102/53 
s 4
f 103/103/54 104/104/55 105/105/56 106/106/57 
s 8
f 99/359/50 103/366/54 106/365/57 100/360/51 
s 16
f 100/361/51 106/364/57 105/371/56 101/362/52 
s 32
f 101/363/52 105/370/56 104/369/55 102/356/53 
s 64
f 102/357/53 104/368/55 103/367/54 99/358/50 
s 2
f 107/107/42 108/108/43 109/109/44 110/110/45 
s 4
f 111/111/58 112/112/59 113/113/60 114/114/61 
s 8
f 107/375/42 111/382/58 114/381/61 108/376/43 
s 16
f 108/377/43 114/380/61 113/387/60 109/378/44 
s 32
f 109/379/44 113/386/60 112/385/59 110/372/45 
s 64
f 110/373/45 112/384/59 111/383/58 107/374/42 
s 2
f 115/115/4 116/116/28 117/117/2 118/118/3 
s 4
f 119/119/8 120/120/9 121/121/41 122/122/40 
s 8
f 115/391/4 119/398/8 122/397/40 116/392/28 
s 16
f 116/393/28 122/396/40 121/403/41 117/394/2 
s 32
f 117/395/2 121/402/41 120/401/9 118/388/3 
s 64
f 118/389/3 120/400/9 119/399/8 115/390/4 
s 2
f 123/123/43 124/124/44 125/125/45 126/126/42 
s 4
f 127/127/49 128/128/46 129/129/47 130/130/48 
s 8
f 123/406/43 126/404/42 128/416/46 127/414/49 
s 16
f 126/405/42 125/410/45 129/418/47 128/417/46 
s 32
f 125/411/45 124/408/44 130/412/48 129/419/47 
s 64
f 124/409/44 123/407/43 127/415/49 130/413/48 
s 2
f 131/131/28 132/132/2 133/133/3 134/134/4 
s 4
f 135/135/40 136/136/8 137/137/9 138/138/41 
s 8
f 131/422/28 134/420/4 136/432/8 135/430/40 
s 16
f 134/421/4 133/426/3 137/434/9 136/433/8 
s 32
f 133/427/3 132/424/2 138/428/41 137/435/9 
s 64
f 132/425/2 131/423/28 135/431/40 138/429/41 
s 2
f 139/139/51 140/140/52 141/141/53 142/142/50 
s 4
f 143/143/57 144/144/54 145/145/55 146/146/56 
s 8
f 139/438/51 142/436/50 144/448/54 143/446/57 
s 16
f 142/437/50 141/442/53 145/450/55 144/449/54 
s 32
f 141/443/53 140/440/52 146/444/56 145/451/55 
s 64
f 140/441/52 139/439/51 143/447/57 146/445/56 
s 2
f 147/147/43 148/148/44 149/149/45 150/150/42 
s 4
f 151/151/61 152/152/58 153/153/59 154/154/60 
s 8
f 147/454/43 150/452/42 152/464/58 151/462/61 
s 16
f 150/453/42 149/458/45 153/466/59 152/465/58 
s 32
f 149/459/45 148/456/44 154/460/60 153/467/59 
s 64
f 148/457/44 147/455/43 151/463/61 154/461/60 
s 2
f 155/155/28 156/156/2 157/157/3 158/158/4 
s 4
f 159/159/40 160/160/8 161/161/9 162/162/41 
s 8
f 155/470/28 158/468/4 160/480/8 159/478/40 
s 16
f 158/469/4 157/474/3 161/482/9 160/481/8 
s 32
f 157/475/3 156/472/2 162/476/41 161/483/9 
s 64
f 156/473/2 155/471/28 159/479/40 162/477/41 
#end 123 faces

#ZOMPROPERTIES_04{
#ZOMPROPERTIES_04 table {Mesh table {SymPlane table {Point vector3d 0 0 0 Normal vector3d 1 0 0 Threshold double 0.01 
#ZOMPROPERTIES_04 Enabled bool false EdgeID int -1 SymEdgeID int -1 UPos double 0.5 LocalMode bool false } RootGroup C
#ZOMPROPERTIES_04 SubMeshGroup {Children table {Tile_0_0 CSubMeshGroup {Children table {} BBoxUV box3d 0 0 0 0 0 0 BBo
#ZOMPROPERTIES_04 x3D box3d 0 0 0 0 0 0 Area3D double 0 AreaUV double 0 IsRoot bool false Properties table {Selected b
#ZOMPROPERTIES_04 ool false Box box3d 0 1 0 1 0 1 U int 0 V int 0 NU int 0 NV int 0 Pack table {BoxFrameEdit bool fals
#ZOMPROPERTIES_04 e Behavior string "Free" Locked bool false Scaling table {Optimization string "Fill" } } Hotspot tab
#ZOMPROPERTIES_04 le {} } IsTile bool true PolyIDs ints { 75 105 76 106 12 13 14 9 10 11 94 82 93 64 112 63 111 81 5 6
#ZOMPROPERTIES_04  8 7 26 20 24 38 36 3 18 30 87 117 70 99 100 88 118 69 32 55 53 49 61 47 59 43 41 25 77 107 109 79 2
#ZOMPROPERTIES_04  96 66 68 98 97 115 67 65 85 95 83 113 116 86 84 114 37 35 23 4 17 19 29 31 110 108 78 80 122 92 90 
#ZOMPROPERTIES_04 104 72 120 74 102 52 51 58 57 46 45 40 39 119 89 73 121 103 101 91 71 48 50 60 44 62 42 56 54 1 33 2
#ZOMPROPERTIES_04 1 34 16 15 0 22 27 28 } } } BBoxUV box3d 0 0 0 0 0 0 BBox3D box3d 0 0 0 0 0 0 Area3D double 0 AreaUV
#ZOMPROPERTIES_04  double 0 IsRoot bool true Properties table {Selected bool false Box box3d 0 1 0 1 0 1 U int 0 V int
#ZOMPROPERTIES_04  0 NU int 1 NV int 1 Pack table {Rotate table {Initial string "Automatic" Min double 0 Max double 90
#ZOMPROPERTIES_04  Step double 0 } ResolutionDivisor int 0 MapResolution int 2048 UsePixelUnit bool true PaddingSize d
#ZOMPROPERTIES_04 ouble 0.0078125 MarginSize double 0.00390625 PaddingSizePx int 16 MarginSizePx int 8 Scaling table {
#ZOMPROPERTIES_04 TexelDensity double 1024 Mode int 2 Optimization string "Fill" } MaxMutations int 1 Strategy string 
#ZOMPROPERTIES_04 "Efficient" Sides string "Closed" } Hotspot table {} Tiling vector3d 1 1 1 TileRatioMode string "1:1
#ZOMPROPERTIES_04 " } IsTile bool false PolyIDs ints { } } Maps table {Pin CDataMap {PrimType string "Vertex" Size int
#ZOMPROPERTIES_04  1 DefaultValue double 0 ScaleType string "Normalized" MergeMode string "Max" MinValue double 0 MaxV
#ZOMPROPERTIES_04 alue double 1 Data doubles { r 483 0 } } Density CDataMap {PrimType string "Polygon" Size int 1 Defa
#ZOMPROPERTIES_04 ultValue double 1 ScaleType string "Log" MergeMode string "Average" MinValue double 0.1 MaxValue dou
#ZOMPROPERTIES_04 ble 4 Data doubles { r 123 1 } } Protect CDataMap {PrimType string "Vertex" Size int 1 DefaultValue 
#ZOMPROPERTIES_04 double 0 ScaleType string "Normalized" MergeMode string "Average" MinValue double -1 MaxValue double
#ZOMPROPERTIES_04  1 Data doubles { r 483 0 } } } } }
#ZOMPROPERTIES_04}


#ZOMSCENE_01{
#ZOMSCENE_01 CScene {Settings table {AxisSystem table {UpVector string "y" } Unit string "cm" TexelDensityDisplay
#ZOMSCENE_01 Unit string "tx/cm" } Root CXForm {bridge_H_barrier CPrim {PolyRange table {Low int 0 High int 122 }
#ZOMSCENE_01  } } }
#ZOMSCENE_01}

#begin 0 fatal error vertex (that RizomUV cannot handle)
#end 0 fatal error vertex (that RizomUV cannot handle)

#begin 0 error vertex
#end 0 error vertex
