#File written by RizomUV 2025.0.101.g577a16f3. Compilation :Sep 18 2025,15:37:21
#begin vertices
v -27.7061 -14.5469 16.1898
v -27.7061 -14.5469 6.3473
v 27.846 -14.5469 6.3473
v 27.846 -14.5469 16.1898
v -27.7061 -10.6099 6.3473
v -23.1671 -10.6099 12.909
v -14.0891 -10.6099 16.1898
v 27.846 -10.6099 16.1898
v 27.846 -10.6099 6.3473
v -23.1671 -11.9223 16.1898
v -27.7061 -11.9223 12.909
v -23.9236 -10.8287 13.4558
v -26.941 -10.5403 11
v -25.4366 -11.2661 14.5494
v -21.4374 -10.5896 15.6093
v -23.9494 -11.6666 15.8431
v -26.5713 -12.9065 15.3696
v -26.9496 -11.7035 13.4558
v -26.2953 -13.2927 27.2211
v -26.2953 -13.2927 17.3786
v 29.2359 -14.814 17.3786
v 29.2359 -14.814 27.2211
v -26.1875 -9.3572 27.2211
v 29.3437 -10.8784 27.2211
v 29.3437 -10.8784 17.3786
v -26.1875 -9.3572 17.3786
v -26.7874 -14.5469 5.1686
v -26.7874 -14.5469 -4.6739
v 28.7646 -14.5469 -4.6739
v 28.7646 -14.5469 5.1686
v -26.7874 -10.6099 5.1686
v 28.7646 -10.6099 5.1686
v 28.7646 -10.6099 -4.6739
v -26.7874 -11.9842 -4.6739
v -27.5447 -15.165 -5.8885
v -27.5447 -15.1072 -15.731
v 29.445 -13.9182 -15.731
v 29.445 -13.9182 -5.8885
v -27.6376 -11.229 -5.8885
v 29.3567 -9.9822 -5.8885
v 29.3567 -9.9793 -15.731
v -29.445 -11.1834 -15.731
v -26.7874 -14.5469 -16.8754
v -26.7874 -14.5469 -26.7179
v 28.7646 -14.5469 -26.7179
v 28.7646 -14.5469 -16.8754
v -26.7874 -10.6099 -16.8754
v 28.7646 -10.6099 -16.8754
v 28.7646 -10.6099 -26.7179
v -26.7874 -10.6099 -26.7179
v -26.3564 -20.8482 27.711
v -26.3564 -20.8482 -27.0572
v -21.5215 -20.8482 -27.0572
v -21.5215 -20.8482 27.711
v -26.3564 -12.0936 27.711
v -21.5215 -12.0936 27.711
v -21.5215 -12.0936 -27.0572
v -26.3564 -12.0936 -27.0572
v -26.6171 -20.157 -26.3967
v 28.1511 -20.157 -26.3967
v 28.1511 -20.157 -21.5619
v -26.6171 -20.157 -21.5619
v -26.6171 -11.4024 -26.3967
v -26.6171 -11.4024 -21.5619
v 28.1511 -11.4024 -21.5619
v 28.1511 -11.4024 -26.3967
v -26.6171 -20.157 21.7619
v 28.1511 -20.157 21.7619
v 28.1511 -20.157 26.5967
v -26.6171 -20.157 26.5967
v -26.6171 -11.4024 21.7619
v -26.6171 -11.4024 26.5967
v 28.1511 -11.4024 26.5967
v 28.1511 -11.4024 21.7619
v 23.6214 -20.8482 27.711
v 23.6214 -20.8482 -27.0572
v 28.4562 -20.8482 -27.0572
v 28.4562 -20.8482 27.711
v 23.6214 -12.0936 27.711
v 28.4562 -12.0936 27.711
v 28.4562 -12.0936 -27.0572
v 23.6214 -12.0936 -27.0572
v -26.9453 -10.344 -25.6541
v -26.9453 -6.4072 -25.6908
v -23.0083 -6.4072 -25.6908
v -23.0083 -10.344 -25.6541
v -26.9453 -9.8573 26.5347
v -23.0083 -9.8573 26.5347
v -23.0083 -5.9205 26.498
v -26.9453 -5.9205 26.498
v -26.6818 -20.4059 27.2898
v -26.6818 -20.4059 21.2894
v -20.0377 -20.4059 21.2894
v -20.0377 -20.4059 27.2898
v -26.6818 20.8482 27.2898
v -20.0377 20.8482 27.2898
v -20.0377 20.8482 21.2894
v -26.6818 20.8482 21.2894
v -26.4592 -12.4073 -24.1784
v -26.4592 -8.9764 -26.1093
v -23.2066 -8.9764 -26.1093
v -23.2066 -12.4073 -24.1784
v -26.4592 16.1821 26.6213
v -23.2066 16.1821 26.6213
v -23.2066 19.6131 24.6904
v -26.4592 19.6131 24.6904
v -27.172 14.8645 -25.6541
v -27.172 18.8014 -25.6908
v -23.235 18.8014 -25.6908
v -23.235 14.8645 -25.6541
v -27.172 15.3513 26.5347
v -23.235 15.3513 26.5347
v -23.235 19.2881 26.498
v -27.172 19.2881 26.498
v -26.6818 -20.4059 -20.7843
v -26.6818 -20.4059 -26.7847
v -20.0377 -20.4059 -26.7847
v -20.0377 -20.4059 -20.7843
v -26.6818 20.8482 -20.7843
v -20.0377 20.8482 -20.7843
v -20.0377 20.8482 -26.7847
v -26.6818 20.8482 -26.7847
v 27.1787 -10.344 -26.8791
v 27.2154 -6.4072 -26.8787
v 27.1697 -6.4072 -22.9419
v 27.133 -10.344 -22.9424
v -25.0066 -9.8573 -27.4843
v -25.0523 -9.8573 -23.5476
v -25.0156 -5.9205 -23.5472
v -24.9699 -5.9205 -27.4839
v -25.7647 -20.4059 -27.2296
v -19.7647 -20.4059 -27.16
v -19.8418 -20.4059 -20.5163
v -25.8418 -20.4059 -20.5859
v -25.7647 20.8482 -27.2296
v -25.8418 20.8482 -20.5859
v -19.8418 20.8482 -20.5163
v -19.7647 20.8482 -27.16
v 25.6974 -12.4073 -26.4102
v 27.6282 -8.9764 -26.3878
v 27.5905 -8.9764 -23.1354
v 25.6597 -12.4073 -23.1577
v -25.0988 16.1821 -26.9993
v -25.1365 16.1821 -23.7468
v -23.2058 19.6131 -23.7245
v -23.168 19.6131 -26.9769
v 27.1813 14.8645 -27.1058
v 27.218 18.8014 -27.1054
v 27.1724 18.8014 -23.1686
v 27.1356 14.8645 -23.169
v -25.004 15.3513 -27.711
v -25.0497 15.3513 -23.7743
v -25.013 19.2881 -23.7738
v -24.9673 19.2881 -27.7106
v 22.3061 -20.4059 -26.6721
v 28.3061 -20.4059 -26.6025
v 28.2291 -20.4059 -19.9588
v 22.2291 -20.4059 -20.0284
v 22.3061 20.8482 -26.6721
v 22.2291 20.8482 -20.0284
v 28.2291 20.8482 -19.9588
v 28.3061 20.8482 -26.6025
#end vertices

#begin 483 textures vertices 
vt 0.2622987 0.219636 0
vt 0.7940406 0.4999378 0
vt 0.003906306 0.2654169 0
vt 0.003906306 0.219636 0
vt 0.7940406 0.5182502 0
vt 0.5668854 0.1704995 0
vt 0.6117833 0.1704995 0
vt 0.5659775 0.4918343 0
vt 0.6117585 0.4918343 0
vt 0.553158 0.4591708 0
vt 0.2330571 0.4772393 0
vt 0.5643634 0.1668217 0
vt 0.5474098 0.1732898 0
vt 0.5593196 0.1594665 0
vt 0.5787208 0.1614212 0
vt 0.5499322 0.4618094 0
vt 0.5365058 0.4618212 0
vt 0.235299 0.4810848 0
vt 0.5289031 0.1115265 0
vt 0.5289031 0.1573075 0
vt 0.270511 0.1573075 0
vt 0.270511 0.1115265 0
vt 0.270511 0.1653367 0
vt 0.5289031 0.1653367 0
vt 0.5289031 0.2111176 0
vt 0.270511 0.2111176 0
vt 0.2622982 0.2734461 0
vt 0.2622982 0.319227 0
vt 0.003906295 0.319227 0
vt 0.003906295 0.2734461 0
vt 0.003985734 0.1115265 0
vt 0.2623772 0.1119706 0
vt 0.2623772 0.1577515 0
vt 0.003906295 0.1577515 0
vt 0.269049 0.0577164 0
vt 0.2690431 0.1034981 0
vt 0.00390626 0.1034973 0
vt 0.003906396 0.0577164 0
vt 0.01230677 0.00390625 0
vt 0.2774707 0.003907907 0
vt 0.277471 0.04968884 0
vt 0.003906276 0.04968884 0
vt 0.5289029 0.2729569 0
vt 0.5289029 0.3187379 0
vt 0.270511 0.3187379 0
vt 0.270511 0.2729569 0
vt 0.270511 0.2191468 0
vt 0.5289029 0.2191468 0
vt 0.5289029 0.2649277 0
vt 0.270511 0.2649277 0
vt 0.5053188 0.754684 0
vt 0.5053188 0.4999378 0
vt 0.5278077 0.4999378 0
vt 0.5278077 0.754684 0
vt 0.4749895 0.4999378 0
vt 0.4974783 0.4999378 0
vt 0.4974783 0.754684 0
vt 0.4749895 0.754684 0
vt 0.2925242 0.7810999 0
vt 0.2925242 0.5263537 0
vt 0.3150126 0.5263537 0
vt 0.3150126 0.7810999 0
vt 0.2015362 0.5263537 0
vt 0.2240245 0.5263537 0
vt 0.2240245 0.7810999 0
vt 0.2015362 0.7810999 0
vt 0.3228536 0.7810999 0
vt 0.3228536 0.5263537 0
vt 0.3453419 0.5263537 0
vt 0.3453419 0.7810999 0
vt 0.2318655 0.5263537 0
vt 0.2543539 0.5263537 0
vt 0.2543539 0.7810999 0
vt 0.2318655 0.7810999 0
vt 0.3531829 0.7810999 0
vt 0.3531829 0.5263537 0
vt 0.3756713 0.5263537 0
vt 0.3756713 0.7810999 0
vt 0.2621949 0.5263537 0
vt 0.2846832 0.5263537 0
vt 0.2846832 0.7810999 0
vt 0.2621949 0.7810999 0
vt 0.7119667 0.003906263 0
vt 0.7119667 0.0222185 0
vt 0.6936543 0.0222185 0
vt 0.6936543 0.003906263 0
vt 0.6936543 0.03032215 0
vt 0.7119667 0.03032215 0
vt 0.7119667 0.04863438 0
vt 0.6936543 0.04863438 0
vt 0.7059694 0.2798055 0
vt 0.7059694 0.3077154 0
vt 0.6750653 0.3077154 0
vt 0.6750653 0.2798055 0
vt 0.6828923 0.1594664 0
vt 0.7137963 0.1594664 0
vt 0.7137963 0.1873764 0
vt 0.6828923 0.1873764 0
vt 0.7141999 0.2399048 0
vt 0.7141999 0.2215927 0
vt 0.7293289 0.2215927 0
vt 0.7293289 0.2399048 0
vt 0.7141999 0.1951768 0
vt 0.7293289 0.1951768 0
vt 0.7293289 0.2134893 0
vt 0.7141999 0.2134893 0
vt 0.593861 0.09755315 0
vt 0.593861 0.07924045 0
vt 0.6121733 0.07924045 0
vt 0.6121733 0.09755315 0
vt 0.6936543 0.3531829 0
vt 0.7119667 0.3531829 0
vt 0.7119667 0.3714952 0
vt 0.6936543 0.3714952 0
vt 0.7059694 0.2083847 0
vt 0.7059694 0.2362947 0
vt 0.6750653 0.2362947 0
vt 0.6750653 0.2083847 0
vt 0.6750653 0.2440951 0
vt 0.7059694 0.2440951 0
vt 0.7059694 0.2720051 0
vt 0.6750653 0.2720051 0
vt 0.6728322 0.07532698 0
vt 0.6728324 0.09363922 0
vt 0.6545197 0.09363922 0
vt 0.65452 0.07532698 0
vt 0.7163692 0.4732452 0
vt 0.698057 0.4732453 0
vt 0.698057 0.4549331 0
vt 0.7163692 0.454933 0
vt 0.6898266 0.454933 0
vt 0.6898268 0.482843 0
vt 0.6589225 0.482843 0
vt 0.6589224 0.454933 0
vt 0.6545199 0.03961663 0
vt 0.6854241 0.03961663 0
vt 0.685424 0.06752662 0
vt 0.6545197 0.06752662 0
vt 0.7073515 0.07505022 0
vt 0.7073515 0.05673809 0
vt 0.7224806 0.05673801 0
vt 0.722481 0.07505014 0
vt 0.6192986 0.2274629 0
vt 0.6344281 0.227463 0
vt 0.6344276 0.2457753 0
vt 0.6192986 0.2457754 0
vt 0.6111953 0.227463 0
vt 0.6111953 0.2457757 0
vt 0.5928826 0.2457756 0
vt 0.5928826 0.2274629 0
vt 0.6809356 0.07532698 0
vt 0.6992478 0.07532698 0
vt 0.6992482 0.09363922 0
vt 0.6809355 0.09363922 0
vt 0.6854242 0.003906272 0
vt 0.6854239 0.03181626 0
vt 0.6545197 0.03181626 0
vt 0.6545199 0.003906272 0
vt 0.6197877 0.454933 0
vt 0.6506919 0.454933 0
vt 0.6506922 0.482843 0
vt 0.6197879 0.482843 0
vt 0.00390625 0.211607 0
vt 0.02501854 0.1810861 0
vt 0.06724392 0.1658258 0
vt 0.2622988 0.1658261 0
vt 0.2622988 0.2116071 0
vt 0.003906868 0.2116071 0
vt 0.5292936 0.4021012 0
vt 0.7876877 0.4021012 0
vt 0.7876827 0.4204115 0
vt 0.5926278 0.4204131 0
vt 0.5504028 0.414309 0
vt 0.5292888 0.4021047 0
vt 0.5371226 0.281273 0
vt 0.5828997 0.281273 0
vt 0.582905 0.2812757 0
vt 0.5676423 0.2934853 0
vt 0.537121 0.2995871 0
vt 0.5371157 0.2995839 0
vt 0.5292889 0.454933 0
vt 0.2015362 0.4772393 0
vt 0.6466787 0.04462699 0
vt 0.003906313 0.4658135 0
vt 0.2622987 0.2654169 0
vt 0.6241903 0.05282456 0
vt 0.2586525 0.3761745 0
vt 0.6117585 0.4735219 0
vt 0.5356482 0.4999378 0
vt 0.6672243 0.2083848 0
vt 0.003906313 0.3761745 0
vt 0.5659775 0.4735219 0
vt 0.5356482 0.5182502 0
vt 0.2228997 0.4830398 0
vt 0.6163498 0.03032215 0
vt 0.270511 0.326767 0
vt 0.5371157 0.1926585 0
vt 0.543292 0.4690049 0
vt 0.2398584 0.4895571 0
vt 0.5622583 0.4648641 0
vt 0.5965863 0.4591708 0
vt 0.2458319 0.4815863 0
vt 0.5252572 0.326767 0
vt 0.5919042 0.1785446 0
vt 0.2524224 0.4740111 0
vt 0.7915944 0.326767 0
vt 0.5400508 0.05282456 0
vt 0.5332024 0.326767 0
vt 0.6367068 0.2548571 0
vt 0.7876809 0.4285171 0
vt 0.5909259 0.2548571 0
vt 0.5858318 0.05282456 0
vt 0.5292889 0.4285171 0
vt 0.787681 0.4468294 0
vt 0.5909259 0.2731694 0
vt 0.5332023 0.3450793 0
vt 0.6367068 0.2731694 0
vt 0.7915943 0.3450798 0
vt 0.5400508 0.07113728 0
vt 0.5858318 0.07113728 0
vt 0.529289 0.4468298 0
vt 0.7955076 0.1330506 0
vt 0.5767395 0.3003512 0
vt 0.5371157 0.1330506 0
vt 0.5824569 0.2289304 0
vt 0.7880546 0.3820757 0
vt 0.5371158 0.2352614 0
vt 0.6225205 0.3003512 0
vt 0.5297417 0.3756853 0
vt 0.7877598 0.3939921 0
vt 0.5387642 0.2470669 0
vt 0.5371157 0.1513629 0
vt 0.5849892 0.2470669 0
vt 0.7955076 0.1513629 0
vt 0.5767395 0.3186635 0
vt 0.6225205 0.3186635 0
vt 0.5292888 0.3939921 0
vt 0.4667104 0.4999383 0
vt 0.5371158 0.2548706 0
vt 0.2015678 0.4999378 0
vt 0.5838242 0.2025013 0
vt 0.5317344 0.4735219 0
vt 0.5380837 0.2005578 0
vt 0.5828967 0.2548571 0
vt 0.2665976 0.4736243 0
vt 0.5401978 0.49195 0
vt 0.5371158 0.2208134 0
vt 0.2015362 0.5182506 0
vt 0.5836627 0.2208134 0
vt 0.4667002 0.5182506 0
vt 0.5371212 0.2731829 0
vt 0.5829021 0.2731829 0
vt 0.2666331 0.49195 0
vt 0.79404 0.5263537 0
vt 0.5483669 0.003906256 0
vt 0.5356482 0.5263537 0
vt 0.5858318 0.07924044 0
vt 0.7955076 0.1066347 0
vt 0.5400508 0.07924044 0
vt 0.5941479 0.003906256 0
vt 0.5371157 0.1066347 0
vt 0.7955076 0.1249471 0
vt 0.5400508 0.09755281 0
vt 0.5356482 0.5446661 0
vt 0.5858318 0.09755281 0
vt 0.79404 0.5446661 0
vt 0.5483669 0.02221863 0
vt 0.5941479 0.02221863 0
vt 0.5371157 0.1249471 0
vt 0.593861 0.03032215 0
vt 0.5404219 0.003906263 0
vt 0.6143931 0.1785446 0
vt 0.2856757 0.003906263 0
vt 0.6143931 0.2192653 0
vt 0.2856757 0.04462699 0
vt 0.593861 0.07104287 0
vt 0.5404219 0.04462699 0
vt 0.6163498 0.07104287 0
vt 0.270511 0.3674878 0
vt 0.5252572 0.3674878 0
vt 0.5919042 0.2192653 0
vt 0.6447219 0.1594665 0
vt 0.2665976 0.3756853 0
vt 0.6222336 0.1594665 0
vt 0.2586525 0.4250928 0
vt 0.6466787 0.003906263 0
vt 0.003906313 0.4250928 0
vt 0.5213437 0.3756853 0
vt 0.6241903 0.003906263 0
vt 0.6222336 0.2001872 0
vt 0.2586525 0.4658135 0
vt 0.6447219 0.2001872 0
vt 0.2665976 0.4164061 0
vt 0.5213437 0.4164061 0
vt 0.6241903 0.04462699 0
vt 0.6466787 0.05282456 0
vt 0.2665976 0.4246036 0
vt 0.5213437 0.4246036 0
vt 0.644736 0.2083848 0
vt 0.6672243 0.2491055 0
vt 0.003906313 0.4168952 0
vt 0.6241903 0.09354529 0
vt 0.2586525 0.4168952 0
vt 0.6466787 0.09354529 0
vt 0.2665976 0.4653244 0
vt 0.5213437 0.4653244 0
vt 0.644736 0.2491055 0
vt 0.6750513 0.1594665 0
vt 0.003906313 0.3272562 0
vt 0.6525629 0.1594665 0
vt 0.5321058 0.05771639 0
vt 0.6672243 0.2573031 0
vt 0.2773596 0.05771639 0
vt 0.2586525 0.3272562 0
vt 0.644736 0.2573031 0
vt 0.6672243 0.2980238 0
vt 0.2773596 0.09843712 0
vt 0.6525629 0.2001872 0
vt 0.5321058 0.09843712 0
vt 0.6750513 0.2001872 0
vt 0.003906313 0.3679769 0
vt 0.2586525 0.3679769 0
vt 0.644736 0.2980238 0
vt 0.7652876 0.5527696 0
vt 0.05673804 0.7533346 0
vt 0.7469752 0.5527696 0
vt 0.08315392 0.9960937 0
vt 0.7388717 0.5527696 0
vt 0.1014662 0.9960936 0
vt 0.07505028 0.7533347 0
vt 0.7205594 0.5527696 0
vt 0.7388717 0.7955286 0
vt 0.1014662 0.7533346 0
vt 0.7469752 0.7955286 0
vt 0.08315392 0.7533347 0
vt 0.7652876 0.7955286 0
vt 0.05673804 0.9960936 0
vt 0.07505028 0.9960937 0
vt 0.7205594 0.7955286 0
vt 0.4144163 0.7773046 0
vt 0.799807 0.1594665 0
vt 0.3835123 0.7773046 0
vt 0.5298045 0.8037205 0
vt 0.8042952 0.7528454 0
vt 0.5018946 0.8037205 0
vt 0.827717 0.1594665 0
vt 0.7733911 0.7528454 0
vt 0.8042952 0.9447328 0
vt 0.5018946 0.9956078 0
vt 0.3835123 0.9691919 0
vt 0.5298045 0.9956078 0
vt 0.4144163 0.9691919 0
vt 0.799807 0.3513538 0
vt 0.827717 0.3513538 0
vt 0.7733911 0.9447328 0
vt 0.1936736 0.4740111 0
vt 0.02221834 0.7451481 0
vt 0.1785446 0.4740111 0
vt 0.04863423 0.4740112 0
vt 0.170682 0.4740111 0
vt 0.03032216 0.4740111 0
vt 0.003906278 0.7451482 0
vt 0.155553 0.4740111 0
vt 0.170682 0.7451482 0
vt 0.03032216 0.7451482 0
vt 0.1785446 0.745148 0
vt 0.04863463 0.7451481 0
vt 0.1936736 0.745148 0
vt 0.02221875 0.4740113 0
vt 0.003906278 0.4740111 0
vt 0.155553 0.7451482 0
vt 0.68604 0.5527696 0
vt 0.6148958 0.5527696 0
vt 0.6677276 0.5527696 0
vt 0.58848 0.7955287 0
vt 0.7124559 0.5527696 0
vt 0.6067927 0.7955286 0
vt 0.6332085 0.5527697 0
vt 0.6941435 0.5527696 0
vt 0.7124559 0.7955286 0
vt 0.6067922 0.5527696 0
vt 0.6677276 0.7955286 0
vt 0.58848 0.5527697 0
vt 0.68604 0.7955286 0
vt 0.6148958 0.7955286 0
vt 0.6332081 0.7955287 0
vt 0.6941435 0.7955286 0
vt 0.2187431 0.789045 0
vt 0.5742936 0.8037205 0
vt 0.1878391 0.789045 0
vt 0.5660041 0.8037205 0
vt 0.453551 0.7773046 0
vt 0.5380941 0.8037205 0
vt 0.6022036 0.8037205 0
vt 0.4226469 0.7773046 0
vt 0.453551 0.9691919 0
vt 0.5380941 0.9956078 0
vt 0.1878391 0.9809323 0
vt 0.5660041 0.9956078 0
vt 0.2187431 0.9809323 0
vt 0.5742936 0.9956078 0
vt 0.6022036 0.9956078 0
vt 0.4226469 0.9691919 0
vt 0.659624 0.5527698 0
vt 0.003906275 0.7533346 0
vt 0.6413118 0.5527696 0
vt 0.03032216 0.9960937 0
vt 0.5356482 0.7955288 0
vt 0.04863439 0.9960937 0
vt 0.02221851 0.7533347 0
vt 0.5539609 0.7955287 0
vt 0.5356487 0.5527698 0
vt 0.04863439 0.7533346 0
vt 0.6413118 0.7955286 0
vt 0.03032216 0.7533347 0
vt 0.659624 0.7955289 0
vt 0.003906275 0.9960937 0
vt 0.02221851 0.9960938 0
vt 0.5539609 0.5527696 0
vt 0.1404741 0.7533346 0
vt 0.2631732 0.789045 0
vt 0.1095698 0.7533346 0
vt 0.3272828 0.789045 0
vt 0.1796087 0.7533346 0
vt 0.2993728 0.789045 0
vt 0.2910832 0.789045 0
vt 0.1487045 0.7533346 0
vt 0.1796087 0.945222 0
vt 0.2993728 0.9809323 0
vt 0.1095698 0.945222 0
vt 0.3272828 0.9809323 0
vt 0.1404741 0.945222 0
vt 0.2631732 0.9809323 0
vt 0.2910832 0.9809323 0
vt 0.1487045 0.945222 0
vt 0.1325614 0.7451477 0
vt 0.07505019 0.745148 0
vt 0.147691 0.7451476 0
vt 0.1014661 0.4740113 0
vt 0.1246989 0.4740112 0
vt 0.08315395 0.4740111 0
vt 0.05673806 0.7451482 0
vt 0.1095698 0.4740111 0
vt 0.1246989 0.7451479 0
vt 0.08315395 0.7451478 0
vt 0.147691 0.4740111 0
vt 0.1014665 0.7451478 0
vt 0.1325614 0.4740112 0
vt 0.07505037 0.4740115 0
vt 0.05673806 0.4740111 0
vt 0.1095698 0.7451483 0
vt 0.4546567 0.5263539 0
vt 0.401825 0.7691128 0
vt 0.4363441 0.5263537 0
vt 0.5620641 0.7955287 0
vt 0.4282409 0.526354 0
vt 0.5803768 0.7955286 0
vt 0.3835123 0.7691133 0
vt 0.4099282 0.5263537 0
vt 0.4282409 0.769113 0
vt 0.5803763 0.5527696 0
vt 0.4363445 0.7691128 0
vt 0.5620641 0.5527697 0
vt 0.4546567 0.769113 0
vt 0.4018245 0.5263538 0
vt 0.3835123 0.5263537 0
vt 0.4099282 0.7691132 0
vt 0.4936642 0.7626291 0
vt 0.2269737 0.789045 0
vt 0.4627599 0.7626291 0
vt 0.3634823 0.789045 0
vt 0.8042954 0.5527696 0
vt 0.3355723 0.789045 0
vt 0.2548837 0.789045 0
vt 0.7733911 0.5527696 0
vt 0.8042954 0.7446569 0
vt 0.3355723 0.9809323 0
vt 0.4627599 0.9545164 0
vt 0.3634823 0.9809323 0
vt 0.4936642 0.9545164 0
vt 0.2269737 0.9809323 0
vt 0.2548837 0.9809323 0
vt 0.7733911 0.7446569 0
#end 483 textures vertices 

#begin 92 normals 
vn 1 0 -0
vn -0.5774 -0.5774 -0.5774
vn 0.5774 -0.5774 -0.5774
vn 0.5774 -0.5774 0.5774
vn -0.5691 0.0819 -0.8182
vn -0.0802 0.9893 0.1222
vn -0.0023 0.7071 0.7071
vn 0.5774 0.5774 0.5774
vn 0.5774 0.5774 -0.5774
vn -0.0816 0.3646 0.9276
vn -0.7384 -0.5439 0.3987
vn -0.8218 0.5327 0.2024
vn 0.3371 0.858 -0.3875
vn -0.5128 0.8493 0.125
vn -0.3994 0.7619 0.5099
vn -0.075 0.8614 0.5024
vn -0.4101 0.77 0.4888
vn -0.4899 0.6367 0.5955
vn -0.011 0.8673 0.4977
vn -0.5929 -0.5613 0.5774
vn -0.5929 -0.5613 -0.5774
vn 0.5613 -0.5929 -0.5774
vn 0.5613 -0.5929 0.5774
vn -0.5613 0.5929 0.5774
vn 0.5929 0.5613 0.5774
vn 0.5929 0.5613 -0.5774
vn -0.5613 0.5929 -0.5774
vn -0.5774 -0.5774 0.5774
vn -0.5704 0.6196 0.5391
vn 0.5708 0.5851 -0.5761
vn -0.591 0.5247 -0.6127
vn -0.5637 -0.5921 0.5759
vn -0.4164 -0.6784 -0.6053
vn 0.5898 -0.5648 -0.5773
vn 0.59 -0.5644 0.5774
vn -0.5315 0.5727 0.6242
vn 0.5645 0.5899 0.5774
vn 0.5648 0.5897 -0.5774
vn -0.7578 0.4204 -0.499
vn -0.5774 0.5774 0.5774
vn -0.5774 0.5774 -0.5774
vn -0.5774 -0.5826 -0.572
vn -0.5774 0.5719 -0.5828
vn 0.5774 0.5719 -0.5828
vn 0.5774 -0.5826 -0.572
vn -0.5774 -0.5719 0.5828
vn 0.5774 -0.5719 0.5828
vn 0.5774 0.5826 0.572
vn -0.5774 0.5826 0.572
vn -0.5774 -0.7863 -0.22
vn -0.5774 0.22 -0.7863
vn 0.5774 0.22 -0.7863
vn 0.5774 -0.7863 -0.22
vn -0.5774 -0.22 0.7863
vn 0.5774 -0.22 0.7863
vn 0.5774 0.7863 0.22
vn -0.5774 0.7863 0.22
vn -0.5774 -0.5719 0.5827
vn 0.5774 -0.5719 0.5827
vn 0.5775 0.5826 0.5719
vn -0.5775 0.5826 0.5719
vn 0.5786 -0.5826 -0.5707
vn 0.5894 0.5719 -0.5706
vn 0.5759 0.572 0.584
vn 0.5652 -0.5828 0.5839
vn -0.5761 -0.5719 -0.584
vn -0.5894 -0.572 0.5704
vn -0.5784 0.5828 0.5708
vn -0.5651 0.5826 -0.5841
vn -0.5706 -0.5774 -0.584
vn 0.584 -0.5774 -0.5706
vn 0.5706 -0.5774 0.584
vn -0.584 -0.5774 0.5706
vn -0.5706 0.5774 -0.584
vn -0.584 0.5774 0.5706
vn 0.5706 0.5774 0.584
vn 0.584 0.5774 -0.5706
vn 0.2267 -0.7863 -0.5748
vn 0.7929 0.22 -0.5682
vn 0.7796 0.22 0.5864
vn 0.2133 -0.7863 0.5799
vn -0.7796 -0.22 -0.5864
vn -0.7929 -0.22 0.5682
vn -0.2267 0.7863 0.5748
vn -0.2133 0.7863 -0.5799
vn 0.5785 -0.5826 -0.5708
vn 0.5895 0.5719 -0.5705
vn 0.5759 0.5721 0.584
vn 0.5652 -0.5827 0.5839
vn -0.5759 -0.572 -0.584
vn -0.5895 -0.5719 0.5705
vn -0.5653 0.5826 -0.584
#end 92 normals 

#begin 123 faces
o bridge_L_barrier
g bridge_L_barrier
s 1
f 1/1/1 2/185/2 3/3/3 4/4/4 
f 5/163/5 6/164/6 7/165/7 8/166/8 9/167/9 5/168/1 
s 2
f 1/169/1 4/170/4 8/171/8 7/172/7 10/173/10 1/174/11 
s 4
f 4/192/4 3/188/3 9/9/9 8/8/8 
s 2
f 3/189/3 2/2/2 5/5/1 9/193/9 
s 4
f 2/175/2 1/176/1 1/177/11 11/178/12 5/179/5 5/180/1 
s 1
f 12/12/13 13/13/14 14/14/15 15/15/16 
f 12/12/13 6/6/6 5/197/5 13/13/14 
f 12/12/13 15/15/16 7/7/7 6/6/6 
s 2
f 16/16/17 15/200/16 14/198/15 17/17/18 
f 16/16/17 10/10/10 7/201/7 15/200/16 
f 16/16/17 17/17/18 1/181/11 10/10/10 
f 18/18/19 17/202/18 14/199/15 13/194/14 
f 18/18/19 11/11/12 1/205/11 17/202/18 
f 18/18/19 13/194/14 5/182/5 11/11/12 
f 19/19/20 20/20/21 21/21/22 22/22/23 
s 4
f 23/23/24 24/24/25 25/25/26 26/26/27 
s 8
f 19/208/20 22/206/23 24/218/25 23/216/24 
s 16
f 22/207/23 21/212/22 25/220/26 24/219/25 
s 32
f 21/213/22 20/210/21 26/214/27 25/221/26 
s 64
f 20/211/21 19/209/20 23/217/24 26/215/27 
s 2
f 27/27/28 28/28/2 29/29/3 30/30/4 
s 4
f 31/31/29 32/32/8 33/33/30 34/34/31 
s 8
f 27/224/28 30/222/4 32/234/8 31/232/29 
s 16
f 30/223/4 29/228/3 33/236/30 32/235/8 
s 32
f 29/229/3 28/226/2 34/230/31 33/237/30 
s 64
f 28/227/2 27/225/28 31/233/29 34/231/31 
s 2
f 35/35/32 36/36/33 37/37/34 38/38/35 
s 4
f 39/39/36 40/40/37 41/41/38 42/42/39 
s 8
f 35/240/32 38/238/35 40/250/37 39/248/36 
s 16
f 38/239/35 37/244/34 41/252/38 40/251/37 
s 32
f 37/245/34 36/242/33 42/246/39 41/253/38 
s 64
f 36/243/33 35/241/32 39/249/36 42/247/39 
s 2
f 43/43/28 44/44/2 45/45/3 46/46/4 
s 4
f 47/47/40 48/48/8 49/49/9 50/50/41 
s 8
f 43/256/28 46/254/4 48/266/8 47/264/40 
s 16
f 46/255/4 45/260/3 49/268/9 48/267/8 
s 32
f 45/261/3 44/258/2 50/262/41 49/269/9 
s 64
f 44/259/2 43/257/28 47/265/40 50/263/41 
s 2
f 51/51/28 52/52/2 53/53/3 54/54/4 
s 4
f 55/55/40 56/56/8 57/57/9 58/58/41 
s 8
f 51/270/28 54/195/4 56/278/8 55/276/40 
s 16
f 54/196/4 53/203/3 57/280/9 56/279/8 
s 32
f 53/204/3 52/272/2 58/274/41 57/281/9 
s 64
f 52/273/2 51/271/28 55/277/40 58/275/41 
s 2
f 59/59/2 60/60/3 61/61/4 62/62/28 
s 4
f 63/63/41 64/64/40 65/65/8 66/66/9 
s 8
f 59/284/2 62/282/28 64/292/40 63/290/41 
s 16
f 62/283/28 61/288/4 65/294/8 64/293/40 
s 32
f 61/289/4 60/286/3 66/183/9 65/295/8 
s 64
f 60/287/3 59/285/2 63/291/41 66/184/9 
s 2
f 67/67/2 68/68/3 69/69/4 70/70/28 
s 4
f 71/71/41 72/72/40 73/73/8 74/74/9 
s 8
f 67/186/2 70/296/28 72/304/40 71/302/41 
s 16
f 70/297/28 69/298/4 73/306/8 72/305/40 
s 32
f 69/299/4 68/190/3 74/300/9 73/307/8 
s 64
f 68/191/3 67/187/2 71/303/41 74/301/9 
s 2
f 75/75/28 76/76/2 77/77/3 78/78/4 
s 4
f 79/79/40 80/80/8 81/81/9 82/82/41 
s 8
f 75/310/28 78/308/4 80/320/8 79/318/40 
s 16
f 78/309/4 77/314/3 81/322/9 80/321/8 
s 32
f 77/315/3 76/312/2 82/316/41 81/323/9 
s 64
f 76/313/2 75/311/28 79/319/40 82/317/41 
s 2
f 83/83/42 84/84/43 85/85/44 86/86/45 
s 4
f 87/87/46 88/88/47 89/89/48 90/90/49 
s 8
f 83/326/42 86/324/45 88/336/47 87/334/46 
s 16
f 86/325/45 85/330/44 89/338/48 88/337/47 
s 32
f 85/331/44 84/328/43 90/332/49 89/339/48 
s 64
f 84/329/43 83/327/42 87/335/46 90/333/49 
s 2
f 91/91/28 92/92/2 93/93/3 94/94/4 
s 4
f 95/95/40 96/96/8 97/97/9 98/98/41 
s 8
f 91/342/28 94/340/4 96/352/8 95/350/40 
s 16
f 94/341/4 93/346/3 97/354/9 96/353/8 
s 32
f 93/347/3 92/344/2 98/348/41 97/355/9 
s 64
f 92/345/2 91/343/28 95/351/40 98/349/41 
s 2
f 99/99/50 100/100/51 101/101/52 102/102/53 
s 4
f 103/103/54 104/104/55 105/105/56 106/106/57 
s 8
f 99/358/50 102/356/53 104/368/55 103/366/54 
s 16
f 102/357/53 101/362/52 105/370/56 104/369/55 
s 32
f 101/363/52 100/360/51 106/364/57 105/371/56 
s 64
f 100/361/51 99/359/50 103/367/54 106/365/57 
s 2
f 107/107/42 108/108/43 109/109/44 110/110/45 
s 4
f 111/111/58 112/112/59 113/113/60 114/114/61 
s 8
f 107/374/42 110/372/45 112/384/59 111/382/58 
s 16
f 110/373/45 109/378/44 113/386/60 112/385/59 
s 32
f 109/379/44 108/376/43 114/380/61 113/387/60 
s 64
f 108/377/43 107/375/42 111/383/58 114/381/61 
s 2
f 115/115/28 116/116/2 117/117/3 118/118/4 
s 4
f 119/119/40 120/120/8 121/121/9 122/122/41 
s 8
f 115/390/28 118/388/4 120/400/8 119/398/40 
s 16
f 118/389/4 117/394/3 121/402/9 120/401/8 
s 32
f 117/395/3 116/392/2 122/396/41 121/403/9 
s 64
f 116/393/2 115/391/28 119/399/40 122/397/41 
s 2
f 123/123/62 124/124/63 125/125/64 126/126/65 
s 4
f 127/127/66 128/128/67 129/129/68 130/130/69 
s 8
f 123/406/62 126/404/65 128/416/67 127/414/66 
s 16
f 126/405/65 125/410/64 129/418/68 128/417/67 
s 32
f 125/411/64 124/408/63 130/412/69 129/419/68 
s 64
f 124/409/63 123/407/62 127/415/66 130/413/69 
s 2
f 131/131/70 132/132/71 133/133/72 134/134/73 
s 4
f 135/135/74 136/136/75 137/137/76 138/138/77 
s 8
f 131/422/70 134/420/73 136/432/75 135/430/74 
s 16
f 134/421/73 133/426/72 137/434/76 136/433/75 
s 32
f 133/427/72 132/424/71 138/428/77 137/435/76 
s 64
f 132/425/71 131/423/70 135/431/74 138/429/77 
s 2
f 139/139/78 140/140/79 141/141/80 142/142/81 
s 4
f 143/143/82 144/144/83 145/145/84 146/146/85 
s 8
f 139/438/78 142/436/81 144/448/83 143/446/82 
s 16
f 142/437/81 141/442/80 145/450/84 144/449/83 
s 32
f 141/443/80 140/440/79 146/444/85 145/451/84 
s 64
f 140/441/79 139/439/78 143/447/82 146/445/85 
s 2
f 147/147/86 148/148/87 149/149/88 150/150/89 
s 4
f 151/151/90 152/152/91 153/153/68 154/154/92 
s 8
f 147/454/86 150/452/89 152/464/91 151/462/90 
s 16
f 150/453/89 149/458/88 153/466/68 152/465/91 
s 32
f 149/459/88 148/456/87 154/460/92 153/467/68 
s 64
f 148/457/87 147/455/86 151/463/90 154/461/92 
s 2
f 155/155/70 156/156/71 157/157/72 158/158/73 
s 4
f 159/159/74 160/160/75 161/161/76 162/162/77 
s 8
f 155/470/70 158/468/73 160/480/75 159/478/74 
s 16
f 158/469/73 157/474/72 161/482/76 160/481/75 
s 32
f 157/475/72 156/472/71 162/476/77 161/483/76 
s 64
f 156/473/71 155/471/70 159/479/74 162/477/77 
#end 123 faces

#ZOMPROPERTIES_04{
#ZOMPROPERTIES_04 table {Mesh table {SymPlane table {Point vector3d 0 0 0 Normal vector3d 1 0 0 Threshold double 0.01 
#ZOMPROPERTIES_04 Enabled bool false EdgeID int -1 SymEdgeID int -1 UPos double 0.5 LocalMode bool false } RootGroup C
#ZOMPROPERTIES_04 SubMeshGroup {Children table {Tile_0_0 CSubMeshGroup {Children table {} BBoxUV box3d 0 0 0 0 0 0 BBo
#ZOMPROPERTIES_04 x3D box3d 0 0 0 0 0 0 Area3D double 0 AreaUV double 0 IsRoot bool false Properties table {Selected b
#ZOMPROPERTIES_04 ool false Box box3d 0 1 0 1 0 1 U int 0 V int 0 NU int 0 NV int 0 Pack table {BoxFrameEdit bool fals
#ZOMPROPERTIES_04 e Behavior string "Free" Locked bool false Scaling table {Optimization string "Fill" } } Hotspot tab
#ZOMPROPERTIES_04 le {} } IsTile bool true PolyIDs ints { 75 76 105 106 12 13 14 9 10 11 94 82 63 64 112 93 81 111 5 6
#ZOMPROPERTIES_04  8 7 26 20 24 3 38 36 18 30 87 88 70 69 118 117 99 100 32 49 53 55 47 61 59 41 43 25 77 79 109 107 2
#ZOMPROPERTIES_04  95 68 66 98 96 85 67 65 83 97 113 84 86 116 114 115 35 37 23 4 19 17 29 31 108 80 78 110 92 90 74 7
#ZOMPROPERTIES_04 2 120 104 102 122 57 51 45 58 52 46 40 39 73 91 89 71 119 121 103 101 60 56 50 54 48 42 62 44 1 33 3
#ZOMPROPERTIES_04 4 21 16 15 0 22 27 28 } } } BBoxUV box3d 0 0 0 0 0 0 BBox3D box3d 0 0 0 0 0 0 Area3D double 0 AreaUV
#ZOMPROPERTIES_04  double 0 IsRoot bool true Properties table {Selected bool false Box box3d 0 1 0 1 0 1 U int 0 V int
#ZOMPROPERTIES_04  0 NU int 1 NV int 1 Pack table {Rotate table {Initial string "Automatic" Min double 0 Max double 90
#ZOMPROPERTIES_04  Step double 0 } ResolutionDivisor int 0 MapResolution int 2048 UsePixelUnit bool true PaddingSize d
#ZOMPROPERTIES_04 ouble 0.0078125 MarginSize double 0.00390625 PaddingSizePx int 16 MarginSizePx int 8 Scaling table {
#ZOMPROPERTIES_04 TexelDensity double 1024 Mode int 2 Optimization string "Fill" } MaxMutations int 1 Strategy string 
#ZOMPROPERTIES_04 "Efficient" Sides string "Closed" } Hotspot table {} Tiling vector3d 1 1 1 TileRatioMode string "1:1
#ZOMPROPERTIES_04 " } IsTile bool false PolyIDs ints { } } Maps table {Pin CDataMap {PrimType string "Vertex" Size int
#ZOMPROPERTIES_04  1 DefaultValue double 0 ScaleType string "Normalized" MergeMode string "Max" MinValue double 0 MaxV
#ZOMPROPERTIES_04 alue double 1 Data doubles { r 483 0 } } Density CDataMap {PrimType string "Polygon" Size int 1 Defa
#ZOMPROPERTIES_04 ultValue double 1 ScaleType string "Log" MergeMode string "Average" MinValue double 0.1 MaxValue dou
#ZOMPROPERTIES_04 ble 4 Data doubles { r 123 1 } } Protect CDataMap {PrimType string "Vertex" Size int 1 DefaultValue 
#ZOMPROPERTIES_04 double 0 ScaleType string "Normalized" MergeMode string "Average" MinValue double -1 MaxValue double
#ZOMPROPERTIES_04  1 Data doubles { r 483 0 } } } } }
#ZOMPROPERTIES_04}


#ZOMSCENE_01{
#ZOMSCENE_01 CScene {Settings table {AxisSystem table {UpVector string "y" } Unit string "cm" TexelDensityDisplay
#ZOMSCENE_01 Unit string "tx/cm" } Root CXForm {bridge_L_barrier CPrim {PolyRange table {Low int 0 High int 122 }
#ZOMSCENE_01  } } }
#ZOMSCENE_01}

#begin 0 fatal error vertex (that RizomUV cannot handle)
#end 0 fatal error vertex (that RizomUV cannot handle)

#begin 0 error vertex
#end 0 error vertex
