#File written by RizomUV 2025.0.101.g577a16f3. Compilation :Sep 18 2025,15:37:21
#begin vertices
v 40.646 1.9685 -40.6342
v 40.5229 1.9685 -21.0127
v 59.0551 1.9685 -21.3334
v 59.0551 1.9685 -40.9289
v 20.977 1.9685 -40.525
v 20.8496 1.9685 -20.9015
v 40.9594 1.9685 -59.0551
v 21.322 1.9685 -59.0551
v 59.0551 1.9685 -59.0551
v 20.889 1.9685 20.4105
v 0.1687 1.9685 20.3732
v 0.1112 1.9685 40.2184
v 21.0257 1.9685 40.2314
v 20.8579 1.9685 -0.2792
v 0.1761 1.9685 -0.316
v 40.5616 1.9685 20.5832
v 40.5223 1.9685 -0.251
v 40.7623 1.9685 40.4338
v 0.1423 1.9685 -20.9242
v -20.6055 1.9685 -20.9996
v -20.5429 1.9685 -0.3505
v -20.577 1.9685 20.3927
v -20.8295 1.9685 40.2907
v -20.7775 1.9685 -40.5971
v -40.5516 1.9685 -40.7949
v -40.3901 1.9685 -21.2102
v 0.1175 1.9685 -40.5338
v -40.3271 1.9685 -0.3812
v -40.3498 1.9685 20.511
v -59.0551 1.9685 -41.0452
v -59.0551 1.9685 -21.4766
v -40.8382 1.9685 -59.0551
v -59.0551 1.9685 -59.0551
v -21.0914 1.9685 -59.0551
v 59.0551 1.9685 -0.2694
v 0.1313 1.9685 -59.0551
v -40.5175 1.9685 40.359
v -59.0551 1.9685 40.671
v -59.0551 1.9685 59.0551
v -40.8142 1.9685 59.0551
v -59.0551 1.9685 20.8536
v -21.1068 1.9685 59.0551
v 21.3138 1.9685 59.0551
v 40.9834 1.9685 59.0551
v 59.0551 1.9685 40.6601
v 59.0551 1.9685 20.865
v 59.0551 1.9685 59.0551
v 40.7099 0 -40.6433
v 40.537 0 -21.032
v 20.8811 0 -20.9065
v 21.1302 0 -40.5751
v 59.0551 0 -40.932
v 59.0551 0 -21.3421
v 40.9877 0 -59.0551
v 59.0551 0 -59.0551
v 21.366 0 -59.0551
v 0.1753 0 -20.861
v 0.2105 0 -40.4977
v 0.1681 0 -59.0551
v -20.7563 0 -40.5156
v -40.537 0 -40.6671
v -40.8275 0 -59.0551
v -21.0778 0 -59.0551
v -20.5775 0 -20.87
v -40.3625 0 -21.0259
v -59.0551 0 -40.9893
v -59.0551 0 -59.0551
v -59.0551 0 -21.4039
v -20.5898 0 -0.2333
v -20.6558 0 20.4672
v -40.4639 0 20.7001
v -40.3708 0 -0.2046
v 0.1253 0 -0.2637
v 0.0833 0 20.4066
v 20.8014 0 -0.2866
v 20.7868 0 20.3986
v 20.9198 0 40.2252
v 0.0668 0 40.2296
v -20.7979 0 40.2744
v 0.0765 0 59.0551
v -21.1131 0 59.0551
v 21.2699 0 59.0551
v 40.4797 0 -0.2894
v 40.4812 -0 20.5292
v 40.6114 0 40.3442
v -40.5395 0 40.4425
v -40.8249 0 59.0551
v 59.0551 0 20.8415
v 59.0551 0 40.6362
v 40.9375 0 59.0551
v 59.0551 0 59.0551
v -59.0551 1.9685 -0.3501
v 59.0551 0 -0.2885
v 0.0998 1.9685 59.0551
v -59.0551 0 20.9177
v -59.0551 0 -0.2791
v -59.0551 0 40.7127
v -59.0551 0 59.0551
v -51.6136 -0.2009 38.8274
v -51.6136 2.8689 38.8274
v -39.4876 2.8689 24.9395
v -39.4876 -0.2009 24.9395
v -41.6753 -0.2009 47.5049
v -41.1802 2.8689 46.7641
v -29.5493 -0.2009 33.6169
v -31.481 2.8689 34.1128
v -9.6065 -0.2009 34.6548
v -9.6065 -0.2009 16.218
v 3.587 -0.2009 16.218
v 3.587 -0.2009 34.6548
v -8.4075 3.8624 34.6548
v -9.6065 2.8689 16.218
v 3.587 2.8689 34.6548
v 3.587 2.8689 16.218
v 1.8556 -0.2009 -13.6151
v 3.1726 2.8689 -13.25
v 16.9845 2.8689 -24.1523
v 16.9845 -0.2009 -24.1523
v 9.3961 -0.2009 -2.7888
v 9.3961 2.8689 -2.7888
v 24.525 -0.2009 -13.326
v 20.5977 2.8689 -13.981
v 37.3609 -0.2009 34.3231
v 37.3609 2.8689 34.3231
v 21.7405 2.8689 24.5292
v 21.7405 -0.2009 24.5292
v 44.3694 -0.2009 23.1451
v 44.0918 3.1734 22.986
v 28.7491 -0.2009 13.3512
v 28.7491 2.8689 13.3512
v 38.0683 -0.2009 -16.7654
v 39.1419 2.8689 -17.6767
v 36.7158 2.8689 -35.0599
v 35.674 -0.2009 -35.0461
v 51.15 -0.2009 -18.4788
v 49.6382 2.8689 -20.0316
v 48.7558 -0.2009 -36.7595
v 48.7558 2.8689 -36.7595
v -13.8067 -0.2009 -27.2692
v -18.1065 -0.2009 -45.1976
v -5.2768 -0.2009 -48.2746
v -0.977 -0.2009 -30.3461
v -12.5543 2.8689 -29.1546
v -18.1984 2.8689 -43.4121
v -1.8634 2.8689 -32.3888
v -5.2768 2.8689 -48.2746
v -40.8697 -0.2009 4.4825
v -35.4564 -0.2009 -13.1417
v -22.8444 -0.2009 -9.2679
v -28.2577 -0.2009 8.3563
v -39.9402 2.8689 3.3848
v -34.5457 2.8689 -11.5539
v -28.7083 2.8689 6.4363
v -22.8444 2.8689 -9.2679
v 9.5225 -0.2009 46.4457
v -4.4278 -0.2009 55.3191
v -10.7776 -0.2009 45.3362
v 3.1727 -0.2009 36.4628
v 7.5585 2.8689 45.9334
v 1.6989 2.8689 37.8101
v -10.7776 2.8689 45.3362
v -2.8868 2.8689 54.8765
v 45.3853 -0.2009 -7.8884
v 45.3853 2.8689 -7.8884
v 37.7131 2.8689 8.8763
v 37.7131 -0.2009 8.8763
v 25.7162 -0.2009 3.386
v 33.3885 -0.2009 -13.3787
v 33.1246 2.8689 -12.5276
v 27.4269 2.8689 2.3609
v 24.161 -0.2009 12.432
v 5.9339 -0.2009 15.2053
v 3.9494 -0.2009 2.1619
v 22.1764 -0.2009 -0.6113
v 22.1764 2.8689 -0.6113
v 23.9806 3.8624 11.2467
v 3.9494 2.8689 2.1619
v 5.9339 2.8689 15.2053
v -17.6785 -0.2009 -10.8697
v -30.3716 -0.2009 -24.2414
v -20.8027 -0.2009 -33.3246
v -8.1096 -0.2009 -19.9529
v -17.5157 2.8689 -12.2266
v -8.1096 2.8689 -19.9529
v -20.8594 2.8689 -29.3435
v -30.3716 2.8689 -24.2414
v 20.511 -0.2009 -44.9921
v 20.511 2.8689 -44.9921
v 13.1782 2.8689 -28.0762
v 13.1782 -0.2009 -28.0762
v 1.0731 -0.2009 -33.3237
v 8.4059 -0.2009 -50.2395
v 1.0731 2.8689 -33.3237
v -21.7735 -0.2009 -39.7156
v -39.4861 -0.2009 -34.5988
v -43.1477 -0.2009 -47.274
v -25.4351 -0.2009 -52.3908
v -22.8359 2.8689 -40.6399
v -26.7429 2.8689 -50.6626
v -43.1477 2.8689 -47.274
v -39.6564 2.8689 -35.6267
v 28.7734 -0.2009 48.4338
v 10.5355 -0.2009 45.7331
v 12.468 -0.2009 32.682
v 30.706 -0.2009 35.3826
v 27.5483 2.8689 47.68
v 28.8756 2.8689 36.1169
v 12.468 2.8689 32.682
v 11.9682 2.8689 44.5939
v 8.2904 3.1734 -49.9411
v 49.7947 -0.2009 49.3423
v 35.1047 -0.2009 56.9284
v 29.676 -0.2009 46.4161
v 44.366 -0.2009 38.83
v 47.8846 2.8689 48.6558
v 42.7773 2.8689 40.0396
v 29.676 2.8689 46.4161
v 36.6792 2.8689 56.6258
v 58.6202 -0.2009 20.5677
v 56.1211 -0.2009 36.911
v 44.4257 -0.2009 35.1226
v 46.9249 -0.2009 18.7793
v 56.942 2.8689 21.7093
v 46.9694 2.8689 20.7756
v 44.4257 2.8689 35.1226
v 56.8019 2.8689 35.4594
v 57.3419 -0.2009 -1.2307
v 54.8428 -0.2009 15.1126
v 43.1475 -0.2009 13.3242
v 45.6466 -0.2009 -3.0191
v 55.6637 2.8689 -0.0891
v 45.6911 2.8689 -1.0228
v 43.1475 2.8689 13.3242
v 55.5236 2.8689 13.661
v 28.4239 -0.2009 -20.7875
v 17.6186 -0.2009 -30.4395
v 24.5256 -0.2009 -38.1718
v 35.3309 -0.2009 -28.5198
v 28.3884 2.8689 -22.5659
v 33.8438 2.8689 -29.442
v 24.5256 2.8689 -38.1718
v 18.3589 2.8689 -29.2453
v 45.9086 -0.2009 -41.5899
v 27.4902 -0.2009 -40.7651
v 26.9 -0.2009 -53.9454
v 45.3183 -0.2009 -54.7702
v 44.2947 2.8689 -43.1769
v 43.1447 2.8689 -54.2869
v 26.9 2.8689 -53.9454
v 29.226 2.8689 -40.3365
v -10.0652 -0.2009 -48.7846
v -22.1218 -0.2009 -48.6618
v -22.2097 -0.2009 -57.2895
v -10.1531 -0.2009 -57.4123
v -11.0842 2.8689 -49.8583
v -11.5847 2.8689 -57.1456
v -22.2097 2.8689 -57.2895
v -20.997 2.8689 -48.3424
v -44.2349 -0.2009 -55.7758
v -46.734 -0.2009 -39.4326
v -58.4294 -0.2009 -41.221
v -55.9302 -0.2009 -57.5642
v -45.9131 2.8689 -54.6342
v -55.8857 2.8689 -55.5679
v -58.4294 2.8689 -41.221
v -46.0532 2.8689 -40.8841
v -37.5962 -0.2009 -13.7186
v -55.3227 -0.2009 -18.787
v -51.6957 -0.2009 -31.4722
v -33.9692 -0.2009 -26.4038
v -38.6224 2.8689 -15.736
v -36.1838 2.8689 -26.6359
v -51.6957 2.8689 -31.4722
v -53.8129 2.8689 -17.8293
v -38.4086 -0.2009 22.0474
v -56.135 -0.2009 16.979
v -52.508 -0.2009 4.2939
v -34.7816 -0.2009 9.3623
v -39.4348 2.8689 20.03
v -36.9961 2.8689 9.1301
v -52.508 2.8689 4.2939
v -54.6253 2.8689 17.9368
v -12.8668 -0.2009 20.8387
v -29.9445 -0.2009 27.7863
v -34.9162 -0.2009 15.5655
v -17.8386 -0.2009 8.6178
v -14.9191 2.8689 19.8842
v -19.7247 2.8689 9.8014
v -34.9162 2.8689 15.5655
v -28.1654 2.8689 27.6087
v 1.975 -0.2009 3.2976
v -15.1026 -0.2009 10.2453
v -20.0744 -0.2009 -1.9756
v -2.9967 -0.2009 -8.9232
v -0.0773 2.8689 2.3431
v -4.8828 2.8689 -7.7397
v -20.0744 2.8689 -1.9756
v -13.3235 2.8689 10.0676
v -12.9459 -0.2009 34.2366
v -15.445 -0.2009 50.5798
v -27.1404 -0.2009 48.7914
v -24.6412 -0.2009 32.4482
v -14.6241 2.8689 35.3782
v -24.5967 2.8689 34.4445
v -27.1404 2.8689 48.7914
v -14.7642 2.8689 49.1283
#end vertices

#begin 510 textures vertices 
vt 0.4109754 0.4109272 0
vt 0.4104728 0.3308147 0
vt 0.4861378 0.332124 0
vt 0.9043796 0.01194344 0
vt 0.3306689 0.4104813 0
vt 0.3301487 0.3303606 0
vt 0.9045042 0.02161306 0
vt 0.8243267 0.02161306 0
vt 0.978387 0.01194344 0
vt 0.3303096 0.1616881 0
vt 0.2457108 0.1618404 0
vt 0.245476 0.08081452 0
vt 0.3308677 0.08076144 0
vt 0.3301826 0.246162 0
vt 0.245741 0.2463122 0
vt 0.4106308 0.160983 0
vt 0.4104703 0.2460468 0
vt 0.4114502 0.07993506 0
vt 0.245603 0.3304533 0
vt 0.1608919 0.3307612 0
vt 0.1611475 0.2464531 0
vt 0.1610083 0.1617608 0
vt 0.1599774 0.08051932 0
vt 0.1601897 0.4107757 0
vt 0.07945409 0.4115833 0
vt 0.08011348 0.331621 0
vt 0.2455018 0.4105173 0
vt 0.0803707 0.2465784 0
vt 0.08027802 0.1612778 0
vt 0.4961555 0.1128524 0
vt 0.4961555 0.1927489 0
vt 0.5705332 0.02161306 0
vt 0.4961555 0.02161306 0
vt 0.6511573 0.02161306 0
vt 0.4861378 0.2461219 0
vt 0.7378073 0.02161306 0
vt 0.07959332 0.08024046 0
vt 0.4961555 0.446491 0
vt 0.4961555 0.5215514 0
vt 0.07838193 0.00390625 0
vt 0.4961555 0.3655787 0
vt 0.6688011 0.04735705 0
vt 0.842 0.04735705 0
vt 0.9223089 0.04735705 0
vt 0.5712603 0.01194344 0
vt 0.6520816 0.01194344 0
vt 0.9960937 0.04735705 0
vt 0.07880784 0.9026233 0
vt 0.07951377 0.8225524 0
vt 0.1597667 0.82204 0
vt 0.1587497 0.9023448 0
vt 0.003906315 0.903802 0
vt 0.003906315 0.8238185 0
vt 0.07767361 0.9777967 0
vt 0.003906315 0.9777967 0
vt 0.1577869 0.9777967 0
vt 0.2443063 0.8218542 0
vt 0.2441626 0.9020288 0
vt 0.2443357 0.9777967 0
vt 0.3297679 0.9021019 0
vt 0.4105304 0.9027205 0
vt 0.4117165 0.9777967 0
vt 0.3310805 0.9777967 0
vt 0.3290378 0.821891 0
vt 0.4098179 0.8225275 0
vt 0.4861378 0.904036 0
vt 0.4861378 0.9777967 0
vt 0.4861378 0.8240708 0
vt 0.3290881 0.7376335 0
vt 0.3293575 0.6531155 0
vt 0.4102319 0.6521646 0
vt 0.4098518 0.7375163 0
vt 0.2445105 0.7377576 0
vt 0.244682 0.653363 0
vt 0.1600922 0.7378511 0
vt 0.1601518 0.6533956 0
vt 0.1596087 0.5724457 0
vt 0.2447493 0.5724277 0
vt 0.3299377 0.5722448 0
vt 0.7552903 0.03931987 0
vt 0.6687754 0.03931987 0
vt 0.8418208 0.03931987 0
vt 0.07974772 0.7378626 0
vt 0.0797416 0.6528624 0
vt 0.07921 0.5719598 0
vt 0.4105406 0.5715585 0
vt 0.4117059 0.4955652 0
vt 0.003906315 0.6515873 0
vt 0.5713579 0.00390626 0
vt 0.9221215 0.03931987 0
vt 0.4961554 0.00390626 0
vt 0.4961555 0.2790062 0
vt 0.003906315 0.7378589 0
vt 0.7553855 0.04735705 0
vt 0.4861378 0.6512762 0
vt 0.4861378 0.7378205 0
vt 0.4861378 0.5704553 0
vt 0.4861378 0.4955652 0
vt 0.7443492 0.06771567 0
vt 0.7368989 0.05702667 0
vt 0.8288663 0.05702667 0
vt 0.8207631 0.06602415 0
vt 0.7418249 0.1267962 0
vt 0.8385535 0.1219516 0
vt 0.8226609 0.1190956 0
vt 0.9035087 0.1260946 0
vt 0.8846709 0.9814887 0
vt 0.7194182 0.4979261 0
vt 0.7967198 0.995804 0
vt 0.7410994 0.1645116 0
vt 0.6631896 0.8237359 0
vt 0.7194182 0.5104598 0
vt 0.7410994 0.151978 0
vt 0.7841861 0.995804 0
vt 0.5696417 0.4482242 0
vt 0.8497013 0.8284791 0
vt 0.656679 0.437723 0
vt 0.6477132 0.4461263 0
vt 0.5672969 0.5081955 0
vt 0.5528172 0.5047351 0
vt 0.649762 0.4981315 0
vt 0.6553734 0.5066469 0
vt 0.670401 0.7238426 0
vt 0.6534829 0.8278629 0
vt 0.5782072 0.8278629 0
vt 0.665914 0.8040104 0
vt 0.614119 0.7274352 0
vt 0.6023964 0.7210696 0
vt 0.6112966 0.8040469 0
vt 0.578197 0.8817305 0
vt 0.7662858 0.712997 0
vt 0.9550836 0.3627642 0
vt 0.8834219 0.3627642 0
vt 0.7677244 0.7887773 0
vt 0.7096131 0.7080965 0
vt 0.7208254 0.6938814 0
vt 0.7150461 0.7915162 0
vt 0.8833442 0.4124095 0
vt 0.7154235 0.2923429 0
vt 0.6370069 0.2881986 0
vt 0.6360009 0.2313558 0
vt 0.7112006 0.2350586 0
vt 0.9158091 0.8117707 0
vt 0.9261102 0.7500167 0
vt 0.7124381 0.2228804 0
vt 0.6283662 0.2228804 0
vt 0.6052865 0.5607204 0
vt 0.5939595 0.6327247 0
vt 0.5413837 0.6284006 0
vt 0.5482816 0.5443802 0
vt 0.8957389 0.2879068 0
vt 0.9605831 0.288609 0
vt 0.5608768 0.5321593 0
vt 0.5321592 0.635449 0
vt 0.8474392 0.3317179 0
vt 0.7770604 0.3273841 0
vt 0.7763526 0.2767347 0
vt 0.8436729 0.2804285 0
vt 0.9833735 0.4280733 0
vt 0.8453324 0.2683279 0
vt 0.7688401 0.2683279 0
vt 0.7701811 0.3368145 0
vt 0.6997837 0.9069533 0
vt 0.7123174 0.9069533 0
vt 0.4967457 0.5514009 0
vt 0.505999 0.5598548 0
vt 0.5500232 0.8325847 0
vt 0.5500232 0.9078606 0
vt 0.9007114 0.6304176 0
vt 0.8357559 0.6262748 0
vt 0.6016294 0.3149883 0
vt 0.5224997 0.3110017 0
vt 0.5219939 0.2571222 0
vt 0.5989396 0.2588272 0
vt 0.7269234 0.8851139 0
vt 0.5995674 0.3343231 0
vt 0.7222122 0.8099862 0
vt 0.7759743 0.8066147 0
vt 0.6098385 0.127289 0
vt 0.5274911 0.1351089 0
vt 0.518865 0.08362921 0
vt 0.5949752 0.06956996 0
vt 0.6066534 0.1437373 0
vt 0.9133081 0.4958461 0
vt 0.8490966 0.488314 0
vt 0.8349456 0.4465764 0
vt 0.67483 0.4251301 0
vt 0.6661408 0.4160889 0
vt 0.6336882 0.05702667 0
vt 0.7560575 0.4205307 0
vt 0.7512833 0.4786093 0
vt 0.6754671 0.4778371 0
vt 0.6336782 0.1108945 0
vt 0.6099577 0.2291229 0
vt 0.5269341 0.2232684 0
vt 0.542511 0.1645975 0
vt 0.6172397 0.1794569 0
vt 0.6095451 0.963347 0
vt 0.6229575 0.1714019 0
vt 0.5383444 0.1532336 0
vt 0.5138623 0.2131379 0
vt 0.756327 0.3795697 0
vt 0.675644 0.3893257 0
vt 0.6782255 0.3288222 0
vt 0.7539711 0.3275119 0
vt 0.7736634 0.9673708 0
vt 0.7263438 0.9630013 0
vt 0.7263438 0.8945585 0
vt 0.6850817 0.4033841 0
vt 0.7076586 0.1108568 0
vt 0.8580631 0.4208424 0
vt 0.7876848 0.4165085 0
vt 0.7869768 0.3658589 0
vt 0.8542968 0.3695527 0
vt 0.9739297 0.5874345 0
vt 0.9705752 0.6281916 0
vt 0.9110848 0.6281916 0
vt 0.7808054 0.4259388 0
vt 0.5747548 0.8080312 0
vt 0.504376 0.8036975 0
vt 0.5036679 0.7530477 0
vt 0.5709885 0.7567416 0
vt 0.9568137 0.9032058 0
vt 0.9534591 0.9439631 0
vt 0.8939683 0.9439631 0
vt 0.4974967 0.8131279 0
vt 0.8190215 0.6509997 0
vt 0.7459198 0.6604043 0
vt 0.7499858 0.6054176 0
vt 0.817045 0.6055437 0
vt 0.9762908 0.1872603 0
vt 0.9729366 0.2280176 0
vt 0.9134458 0.2280176 0
vt 0.7287049 0.6593549 0
vt 0.8553747 0.7360079 0
vt 0.793704 0.7314333 0
vt 0.7933081 0.6874382 0
vt 0.8521352 0.6911546 0
vt 0.8463316 0.7516239 0
vt 0.4961555 0.9697103 0
vt 0.4961555 0.9175773 0
vt 0.5399667 0.9241209 0
vt 0.7189647 0.1967263 0
vt 0.640548 0.1925817 0
vt 0.6395423 0.135739 0
vt 0.7147415 0.1394418 0
vt 0.7090156 0.2130005 0
vt 0.9225339 0.1127777 0
vt 0.8561938 0.1127777 0
vt 0.8645207 0.05702667 0
vt 0.8451694 0.8103399 0
vt 0.7939539 0.8054087 0
vt 0.7939212 0.7693303 0
vt 0.8425782 0.7731456 0
vt 0.8364065 0.8256086 0
vt 0.8145859 0.4883481 0
vt 0.7712012 0.4883481 0
vt 0.7766468 0.4518884 0
vt 0.8396788 0.5536123 0
vt 0.7665776 0.5630172 0
vt 0.7706432 0.5080301 0
vt 0.837702 0.5081562 0
vt 0.9656667 0.841232 0
vt 0.9623121 0.8819893 0
vt 0.9028217 0.8819893 0
vt 0.7493628 0.5619681 0
vt 0.7042093 0.6854341 0
vt 0.6257926 0.6812897 0
vt 0.6247867 0.6244468 0
vt 0.6999864 0.6281495 0
vt 0.8862976 0.2551872 0
vt 0.701224 0.6159714 0
vt 0.840848 0.1851059 0
vt 0.8965988 0.1934332 0
vt 0.5832121 0.7184863 0
vt 0.5047959 0.7143419 0
vt 0.5037901 0.6574995 0
vt 0.5789892 0.6612022 0
vt 0.9228917 0.7096611 0
vt 0.5802269 0.6490241 0
vt 0.4961554 0.6490241 0
vt 0.4983074 0.7241114 0
vt 0.6448331 0.4054066 0
vt 0.5632826 0.415356 0
vt 0.5674531 0.3539686 0
vt 0.6423837 0.3542573 0
vt 0.6522346 0.4137478 0
vt 0.9355187 0.353 0
vt 0.8691787 0.353 0
vt 0.8775054 0.297249 0
vt 0.7260476 0.5909974 0
vt 0.6476313 0.5868533 0
vt 0.6466252 0.5300105 0
vt 0.7218247 0.5337133 0
vt 0.7160986 0.6072715 0
vt 0.9231244 0.5572186 0
vt 0.856784 0.5572186 0
vt 0.641143 0.5966228 0
vt 0.8237425 0.2366605 0
vt 0.7506413 0.2460654 0
vt 0.754707 0.1910783 0
vt 0.8217658 0.1912045 0
vt 0.8314274 0.2448476 0
vt 0.8249913 0.1809743 0
vt 0.7477826 0.1809743 0
vt 0.6269799 0.9045924 0
vt 0.7122406 0.8207802 0
vt 0.7169516 0.8959081 0
vt 0.8674081 0.9825795 0
vt 0.6631896 0.8992794 0
vt 0.7841861 0.9205285 0
vt 0.9800192 0.4688303 0
vt 0.9205285 0.4688303 0
vt 0.9279957 0.4188357 0
vt 0.8379663 0.3476556 0
vt 0.8633665 0.320233 0
vt 0.6596482 0.3806328 0
vt 0.6719193 0.3184971 0
vt 0.7580485 0.3184971 0
vt 0.774365 0.9025268 0
vt 0.7636078 0.3879838 0
vt 0.7794643 0.3574521 0
vt 0.8559564 0.3574521 0
vt 0.9185522 0.578197 0
vt 0.8485903 0.4367803 0
vt 0.8739902 0.4093574 0
vt 0.4961554 0.7446409 0
vt 0.572648 0.7446409 0
vt 0.9014357 0.8939683 0
vt 0.5652822 0.823969 0
vt 0.590682 0.7965465 0
vt 0.6845697 0.7253086 0
vt 0.6744074 0.8127668 0
vt 0.6023964 0.8107033 0
vt 0.6521774 0.8816929 0
vt 0.6677636 0.7092273 0
vt 0.7430615 0.5953135 0
vt 0.8202705 0.5953135 0
vt 0.9209128 0.1780232 0
vt 0.8267063 0.6591869 0
vt 0.7568845 0.6732691 0
vt 0.8290435 0.5770165 0
vt 0.5289157 0.5134993 0
vt 0.9043192 0.5770165 0
vt 0.5297904 0.4484177 0
vt 0.7123174 0.982229 0
vt 0.1588452 0.00390625 0
vt 0.2454295 0.00390625 0
vt 0.332044 0.00390625 0
vt 0.4123529 0.00390625 0
vt 0.4861378 0.00390625 0
vt 0.6521776 0.00390626 0
vt 0.7384491 0.00390626 0
vt 0.4861378 0.0790111 0
vt 0.003906315 0.5707676 0
vt 0.8244088 0.00390626 0
vt 0.9043923 0.00390626 0
vt 0.4861378 0.4121304 0
vt 0.8243732 0.01194344 0
vt 0.4861378 0.1598324 0
vt 0.7383711 0.01194344 0
vt 0.4861378 0.4861378 0
vt 0.978387 0.02965024 0
vt 0.4122549 0.4861378 0
vt 0.9046197 0.02965024 0
vt 0.3320775 0.4861378 0
vt 0.8245064 0.02965024 0
vt 0.7379576 0.02965024 0
vt 0.2455581 0.4861378 0
vt 0.158908 0.4861378 0
vt 0.6512128 0.02965024 0
vt 0.5705769 0.02965024 0
vt 0.07828394 0.4861378 0
vt 0.00390625 0.4861378 0
vt 0.5041927 0.03931985 0
vt 0.00390625 0.4126052 0
vt 0.5041927 0.1130806 0
vt 0.00390625 0.3327087 0
vt 0.5041927 0.1930457 0
vt 0.00390625 0.2464514 0
vt 0.5041927 0.2792961 0
vt 0.00390625 0.159879 0
vt 0.5041927 0.3658404 0
vt 0.00390625 0.0789666 0
vt 0.5041927 0.4466613 0
vt 0.5041927 0.5215514 0
vt 0.5138622 0.04735705 0
vt 0.00390625 0.00390625 0
vt 0.5883379 0.04735705 0
vt 0.4961555 0.02965024 0
vt 0.4961555 0.03931985 0
vt 0.978387 0.00390626 0
vt 0.978387 0.02161306 0
vt 0.9960937 0.03931987 0
vt 0.4961554 0.01194344 0
vt 0.003906315 0.4955652 0
vt 0.07787857 0.4955652 0
vt 0.1581793 0.4955652 0
vt 0.2447097 0.4955652 0
vt 0.5138622 0.03931987 0
vt 0.3312246 0.4955652 0
vt 0.5882942 0.03931987 0
vt 0.6823579 0.9138299 0
vt 0.6790033 0.9545873 0
vt 0.6195128 0.9545873 0
vt 0.7334266 0.2450163 0
vt 0.7616056 0.2589303 0
vt 0.8278266 0.1267723 0
vt 0.910221 0.1753527 0
vt 0.7275243 0.1235866 0
vt 0.8349457 0.1753527 0
vt 0.7490156 0.1406582 0
vt 0.5747791 0.4282747 0
vt 0.5457345 0.4148505 0
vt 0.5603691 0.3438769 0
vt 0.9392593 0.30755 0
vt 0.6452146 0.3438769 0
vt 0.6389904 0.5215352 0
vt 0.8651112 0.5014675 0
vt 0.9268647 0.5117687 0
vt 0.7230623 0.5215352 0
vt 0.7422125 0.5790184 0
vt 0.5720413 0.5229821 0
vt 0.8989708 0.8219606 0
vt 0.8914385 0.8861722 0
vt 0.5633181 0.437723 0
vt 0.8497013 0.9003228 0
vt 0.7704481 0.4232226 0
vt 0.7573587 0.4885342 0
vt 0.6684419 0.4885342 0
vt 0.708964 0.05702667 0
vt 0.7542689 0.4070312 0
vt 0.7863589 0.7404442 0
vt 0.7859567 0.6791257 0
vt 0.5318718 0.9726497 0
vt 0.8542241 0.6791257 0
vt 0.8710867 0.7249824 0
vt 0.6340597 0.2023512 0
vt 0.6319076 0.1272637 0
vt 0.9262748 0.06732808 0
vt 0.7159791 0.1272637 0
vt 0.7351293 0.1847467 0
vt 0.8774419 0.7059207 0
vt 0.8774419 0.6395805 0
vt 0.9331929 0.6479071 0
vt 0.5732633 0.7347605 0
vt 0.5993768 0.7065073 0
vt 0.9001087 0.2405872 0
vt 0.6168253 0.5579462 0
vt 0.6015798 0.639809 0
vt 0.9685514 0.2405872 0
vt 0.5321592 0.5516392 0
vt 0.6942604 0.7017083 0
vt 0.6193044 0.6910591 0
vt 0.840848 0.2514462 0
vt 0.617152 0.6159714 0
vt 0.720374 0.6734548 0
vt 0.5186838 0.1437373 0
vt 0.5138623 0.07558937 0
vt 0.9067895 0.4465764 0
vt 0.5976384 0.05702667 0
vt 0.62385 0.1167315 0
vt 0.8703593 0.8080302 0
vt 0.7054744 0.3086171 0
vt 0.6305185 0.297968 0
vt 0.8703593 0.7416898 0
vt 0.7315884 0.2803636 0
vt 0.7859568 0.8137813 0
vt 0.7868218 0.7611672 0
vt 0.8170322 0.4586252 0
vt 0.8451211 0.7611672 0
vt 0.860658 0.7996452 0
vt 0.5657719 0.9597479 0
vt 0.5599 0.8916073 0
vt 0.5280993 0.2383059 0
vt 0.6095451 0.8916853 0
vt 0.6165487 0.2383059 0
vt 0.7637188 0.4979261 0
vt 0.8409275 0.4979261 0
vt 0.9102888 0.8319944 0
vt 0.8473637 0.5617994 0
vt 0.7775419 0.5758821 0
vt 0.7900717 0.1479216 0
vt 0.8674081 0.907036 0
vt 0.6655505 0.5104598 0
vt 0.5138622 0.3193353 0
vt 0.5152822 0.2482602 0
vt 0.6202476 0.3063291 0
vt 0.6046955 0.2482602 0
vt 0.7759743 0.8821583 0
vt 0.5141203 0.3972401 0
vt 0.7762405 0.7071028 0
vt 0.7762405 0.7963569 0
vt 0.7069441 0.7997417 0
vt 0.9514848 0.4065371 0
vt 0.6944716 0.7177704 0
vt 0.6997837 0.982229 0
vt 0.4961559 0.9078606 0
vt 0.5260691 0.393456 0
vt 0.5423327 0.4448095 0
vt 0.4961555 0.8325848 0
vt 0.5423327 0.5200855 0
vt 0.7859567 0.9108113 0
vt 0.7967198 0.9205285 0
vt 0.7859567 0.8355358 0
vt 0.7949671 0.1645116 0
vt 0.8398244 0.8355358 0
vt 0.8799237 0.906363 0
vt 0.8398244 0.9108113 0
vt 0.6655505 0.4979261 0
#end 510 textures vertices 

#begin 196 normals 
vn 0 1 -0
vn 0.7071 0.7071 -0
vn 0 0.7071 -0.7071
vn 0.5774 0.5774 -0.5774
vn -0.7071 0.7071 -0
vn -0 0.7071 -0.7071
vn -0.5774 0.5774 -0.5774
vn -0.7071 0.7071 0
vn -0.5774 0.5774 0.5774
vn -0 0.7071 0.7071
vn 0 0.7071 0.7071
vn 0.7071 0.7071 0
vn 0.5774 0.5774 0.5774
vn 0 -1 -0
vn -0 -1 -0
vn 0.7071 -0.7071 -0
vn 0 -0.7071 -0.7071
vn 0.5774 -0.5774 -0.5774
vn -0 -1 0
vn -0 -0.7071 -0.7071
vn 0 -1 0
vn -0.7071 -0.7071 -0
vn -0.5774 -0.5774 -0.5774
vn -0 -0.7071 0.7071
vn 0 -0.7071 0.7071
vn 0.7071 -0.7071 0
vn 0.5774 -0.5774 0.5774
vn -0.7071 -0.7071 0
vn -0.5774 -0.5774 0.5774
vn -0.8146 -0.5774 0.0553
vn -0.8147 0.5739 0.083
vn 0.0002 0.5706 -0.8212
vn -0.0551 -0.5774 -0.8146
vn 0.0006 -0.4889 0.8723
vn 0.173 0.6491 0.7408
vn 0.9261 -0.3654 -0.0937
vn 0.6136 0.7893 0.0237
vn -0.6615 -0.4945 0.5637
vn -0.4357 0.6842 0.5848
vn -0.6008 0.5573 -0.5731
vn 0.5984 0.5508 0.5819
vn -0.8901 -0.4222 -0.1717
vn -0.6669 0.737 -0.1097
vn 0.2291 0.5621 -0.7947
vn 0.1438 -0.5773 -0.8038
vn -0.1439 -0.5774 0.8037
vn -0.1026 0.5654 0.8184
vn 0.9562 -0.2393 0.1683
vn 0.4055 0.9083 0.1026
vn 0.1825 -0.5774 0.7958
vn 0.1903 0.5688 0.8001
vn -0.7958 0.5774 0.1825
vn -0.7958 -0.5774 0.1825
vn 0.8184 -0.5508 -0.164
vn 0.7604 0.6155 -0.2072
vn -0.1825 -0.5774 -0.7958
vn -0.1854 0.572 -0.799
vn -0.5752 -0.4198 0.7021
vn -0.3527 0.7228 0.5943
vn -0.5451 0.6651 -0.5105
vn -0.7371 -0.4746 -0.4811
vn 0.7269 -0.3504 0.5906
vn 0.4927 0.804 0.333
vn 0.4975 -0.5774 -0.6474
vn 0.521 0.5729 -0.6327
vn -0.4968 -0.3418 0.7977
vn -0.672 -0.4448 -0.592
vn 0.4268 -0.5774 -0.696
vn 0.7323 -0.3651 0.5748
vn -0.2268 0.807 0.5453
vn -0.7905 0.5967 -0.1382
vn 0.6361 0.743 0.2083
vn 0.3937 0.57 -0.7212
vn -0.7759 -0.4217 0.4692
vn -0.4383 -0.3779 -0.8155
vn 0.7214 -0.5774 -0.3825
vn 0.397 -0.369 0.8404
vn -0.6493 0.7161 0.2563
vn -0.3074 0.7805 -0.5443
vn 0.3315 0.78 0.5307
vn 0.7175 0.5692 -0.4016
vn 0.9091 -0.3607 0.2086
vn -0.3286 -0.4594 0.8252
vn -0.797 -0.5774 -0.1772
vn 0.2975 -0.3836 -0.8743
vn 0.6116 0.79 0.0423
vn 0.005 0.7319 -0.6814
vn -0.81 0.57 -0.1378
vn 0.1084 0.5993 0.7931
vn 0.7652 -0.5774 -0.2847
vn 0.7575 0.5739 -0.3113
vn 0.2337 0.5706 0.7873
vn 0.2847 -0.5774 0.7652
vn -0.8612 -0.3654 0.3534
vn -0.2488 -0.4889 -0.8361
vn -0.3767 0.6491 -0.6609
vn -0.5949 0.7893 0.1519
vn 0.6568 -0.4945 0.5692
vn -0.4839 -0.5774 0.6576
vn -0.6577 -0.5774 -0.4838
vn 0.484 -0.5774 -0.6575
vn 0.4853 0.5508 -0.679
vn 0.6437 0.6842 0.3428
vn -0.6577 0.5774 -0.4838
vn -0.4762 0.5573 0.6802
vn -0.0358 -0.4222 0.9058
vn -0.8162 -0.5774 -0.0213
vn 0.0226 -0.2393 -0.9707
vn 0.8162 -0.5774 0.0213
vn -0.0081 0.737 0.6758
vn 0.8245 0.5654 -0.0218
vn 0.0405 0.9083 -0.4163
vn -0.8201 0.5621 -0.1069
vn 0.7593 -0.5774 -0.3001
vn 0.7624 0.5688 -0.3085
vn 0.3001 0.5774 0.7593
vn 0.3001 -0.5774 0.7593
vn -0.7593 -0.5774 0.3001
vn -0.2852 -0.5508 -0.7844
vn -0.762 0.572 0.3035
vn 0.7806 -0.4198 0.463
vn -0.3647 -0.4746 0.8011
vn -0.7149 -0.5774 -0.3944
vn 0.4745 -0.3504 -0.8075
vn 0.6406 0.7228 0.2593
vn 0.255 0.804 -0.5372
vn -0.7039 0.5729 -0.42
vn -0.4227 0.6651 0.6157
vn 0.5805 -0.4217 0.6965
vn -0.7403 -0.3779 0.556
vn -0.4866 -0.5774 -0.6557
vn 0.7711 -0.369 -0.5189
vn 0.351 0.7161 0.6033
vn 0.4748 0.78 -0.4075
vn -0.505 0.5692 -0.6488
vn -0.4919 0.7805 0.3858
vn -0.3193 0.6155 -0.7206
vn 0.8867 -0.3607 0.2893
vn -0.4013 -0.4594 0.7924
vn -0.7778 -0.5775 -0.2481
vn 0.3747 -0.3836 -0.844
vn 0.6054 0.79 0.097
vn 0.0661 0.7319 -0.6782
vn -0.7944 0.57 -0.2099
vn 0.0368 0.5993 0.7997
vn 0.7553 -0.3607 -0.5472
vn 0.4051 -0.4594 0.7905
vn -0.6579 -0.5774 0.4835
vn -0.4625 -0.3838 -0.7993
vn 0.4344 0.79 -0.4327
vn -0.5098 0.7319 -0.4521
vn -0.6368 0.57 0.5193
vn 0.6685 0.5993 0.4403
vn 0.7553 -0.3605 -0.5473
vn 0.0463 -0.3825 0.9228
vn -0.8764 -0.4752 -0.0786
vn -0.046 -0.5774 -0.8152
vn 0.9135 -0.4048 0.041
vn 0.1264 0.77 0.6254
vn 0.6747 0.7188 -0.1676
vn -0.0875 0.57 -0.817
vn -0.7404 0.6011 0.3008
vn 0.6891 -0.3418 0.639
vn -0.7086 -0.4448 0.5477
vn -0.6026 -0.5774 -0.5509
vn 0.7032 -0.3651 -0.6101
vn 0.4924 0.807 0.326
vn 0.325 0.743 -0.5851
vn -0.6335 0.57 -0.5232
vn -0.2854 0.5967 0.75
vn 0.6478 -0.4106 0.6418
vn -0.6821 -0.494 0.5392
vn -0.5832 -0.5774 -0.5714
vn 0.6868 -0.4314 -0.585
vn 0.536 0.7439 0.3992
vn 0.4129 0.7013 -0.5811
vn -0.615 0.57 -0.5448
vn -0.3666 0.6018 0.7095
vn 0.4505 -0.3416 0.8248
vn -0.846 -0.4447 0.2943
vn -0.3963 -0.5774 -0.7138
vn 0.8606 -0.3651 -0.3551
vn 0.3634 0.807 0.4655
vn 0.494 0.743 -0.4516
vn -0.4346 0.57 -0.6973
vn -0.5089 0.5967 0.6205
vn 0.8634 -0.3418 0.3712
vn -0.4842 -0.4448 0.7535
vn -0.7524 -0.5774 -0.3172
vn 0.4582 -0.3651 -0.8104
vn 0.5732 0.807 0.1422
vn 0.1102 0.743 -0.6602
vn -0.7722 0.57 -0.2807
vn -0.0177 0.5967 0.8023
vn -0.658 -0.5774 0.4834
vn -0.4625 -0.3836 -0.7993
#end 196 normals 

#begin 252 faces
o pref_floor_lvl2
g pref_floor_lvl2
s 1
f 1/1/1 2/2/1 3/3/2 4/358/2 
f 1/1/1 5/5/1 6/6/1 2/2/1 
f 1/1/1 7/364/3 8/366/3 5/5/1 
f 1/1/1 4/358/2 9/362/4 7/364/3 
f 10/10/1 11/11/1 12/12/1 13/13/1 
f 10/10/1 14/14/1 15/15/1 11/11/1 
f 10/10/1 16/16/1 17/17/1 14/14/1 
f 10/10/1 13/13/1 18/18/1 16/16/1 
f 15/15/1 19/19/1 20/20/1 21/21/1 
f 15/15/1 14/14/1 6/6/1 19/19/1 
f 15/15/1 21/21/1 22/22/1 11/11/1 
f 11/11/1 22/22/1 23/23/1 12/12/1 
f 20/20/1 24/24/1 25/25/1 26/26/1 
f 20/20/1 19/19/1 27/27/1 24/24/1 
f 20/20/1 26/26/1 28/28/1 21/21/1 
f 21/21/1 28/28/1 29/29/1 22/22/1 
f 25/25/1 30/376/5 31/378/5 26/26/1 
f 25/25/1 32/373/6 33/374/7 30/376/5 
f 25/25/1 24/24/1 34/370/6 32/373/6 
f 2/2/1 6/6/1 14/14/1 17/17/1 
f 2/2/1 17/17/1 35/35/2 3/3/2 
f 5/5/1 27/27/1 19/19/1 6/6/1 
f 5/5/1 8/366/3 36/369/3 27/27/1 
f 27/27/1 36/369/3 34/370/6 24/24/1 
f 37/37/1 38/384/8 39/388/9 40/40/10 
f 37/37/1 29/29/1 41/382/8 38/384/8 
f 37/37/1 23/23/1 22/22/1 29/29/1 
f 37/37/1 40/40/10 42/347/10 23/23/1 
f 18/18/1 13/13/1 43/349/11 44/350/11 
f 18/18/1 45/354/12 46/360/12 16/16/1 
f 18/18/1 44/350/11 47/351/13 45/354/12 
f 48/48/14 49/49/14 50/50/14 51/51/15 
f 48/48/14 52/52/16 53/53/16 49/49/14 
f 48/48/14 54/54/17 55/55/18 52/52/16 
f 48/48/14 51/51/15 56/56/17 54/54/17 
f 51/51/15 50/50/14 57/57/15 58/58/19 
f 51/51/15 58/58/19 59/59/17 56/56/17 
f 60/60/14 61/61/19 62/62/20 63/63/20 
f 60/60/14 64/64/19 65/65/21 61/61/19 
f 60/60/14 58/58/19 57/57/15 64/64/19 
f 60/60/14 63/63/20 59/59/17 58/58/19 
f 61/61/19 66/66/22 67/67/23 62/62/20 
f 61/61/19 65/65/21 68/68/22 66/66/22 
f 69/69/14 70/70/14 71/71/21 72/72/14 
f 69/69/14 73/73/14 74/74/21 70/70/14 
f 69/69/14 64/64/19 57/57/15 73/73/14 
f 69/69/14 72/72/14 65/65/21 64/64/19 
f 73/73/14 75/75/21 76/76/15 74/74/21 
f 73/73/14 57/57/15 50/50/14 75/75/21 
f 74/74/21 76/76/15 77/77/14 78/78/14 
f 74/74/21 78/78/14 79/79/15 70/70/14 
f 78/78/14 80/399/24 81/401/25 79/79/15 
f 78/78/14 77/77/14 82/398/25 80/399/24 
f 50/50/14 49/49/14 83/83/15 75/75/21 
f 75/75/21 83/83/15 84/84/19 76/76/15 
f 76/76/15 84/84/19 85/85/19 77/77/14 
f 79/79/15 86/86/14 71/71/21 70/70/14 
f 79/79/15 81/401/25 87/87/24 86/86/14 
f 85/85/19 84/84/19 88/88/26 89/355/26 
f 85/85/19 90/397/25 82/398/25 77/77/14 
f 85/85/19 89/355/26 91/396/27 90/397/25 
f 26/26/1 31/378/5 92/380/8 28/28/1 
f 29/29/1 28/28/1 92/380/8 41/382/8 
f 49/49/14 53/53/16 93/93/26 83/83/15 
f 83/83/15 93/93/26 88/88/26 84/84/19 
f 13/13/1 12/12/1 94/348/10 43/349/11 
f 12/12/1 23/23/1 42/347/10 94/348/10 
f 17/17/1 16/16/1 46/360/12 35/35/2 
f 72/72/14 71/71/21 95/95/28 96/96/22 
f 72/72/14 96/96/22 68/68/22 65/65/21 
f 86/86/14 97/97/28 95/95/28 71/71/21 
f 86/86/14 87/87/24 98/98/29 97/97/28 
s 4
f 97/385/28 38/38/8 41/41/8 95/383/28 
f 97/385/28 98/386/29 39/39/9 38/38/8 
s 2
f 63/371/20 62/372/20 32/32/6 34/34/6 
f 63/371/20 34/34/6 36/36/3 59/368/17 
f 62/372/20 67/390/23 33/33/7 32/32/6 
f 44/44/11 90/90/25 91/394/27 47/47/13 
f 44/44/11 43/43/11 82/82/25 90/90/25 
s 4
f 92/92/8 96/381/22 95/383/28 41/41/8 
f 92/92/8 31/31/5 68/379/22 96/381/22 
f 31/31/5 30/30/5 66/377/22 68/379/22 
f 35/361/2 93/353/26 53/356/16 3/359/2 
f 35/361/2 46/46/12 88/352/26 93/353/26 
f 46/46/12 45/45/12 89/89/26 88/352/26 
s 2
f 43/43/11 94/94/10 80/80/24 82/82/25 
f 94/94/10 42/42/10 81/81/25 80/80/24 
s 4
f 4/4/2 52/357/16 55/392/18 9/9/4 
f 4/4/2 3/359/2 53/356/16 52/357/16 
f 66/377/22 30/30/5 33/391/7 67/375/23 
f 89/89/26 45/45/12 47/395/13 91/91/27 
s 2
f 54/365/17 56/367/17 8/8/3 7/7/3 
f 54/365/17 7/7/3 9/393/4 55/363/18 
f 56/367/17 59/368/17 36/36/3 8/8/3 
f 87/402/24 40/389/10 39/387/9 98/400/29 
f 87/402/24 81/81/25 42/42/10 40/389/10 
s 1
f 99/99/30 100/100/31 101/101/32 102/102/33 
f 99/99/30 103/103/34 104/410/35 100/100/31 
f 99/99/30 102/102/33 105/105/36 103/103/34 
f 103/103/34 105/105/36 106/408/37 104/412/35 
f 102/102/33 101/101/32 106/408/37 105/105/36 
f 100/411/31 104/104/35 106/106/37 101/409/32 
f 107/507/38 108/509/23 109/503/18 110/505/27 
f 107/107/38 111/309/39 112/484/40 108/508/23 
f 107/506/38 110/110/27 113/113/41 111/483/39 
f 110/504/27 109/109/18 114/114/4 113/311/41 
f 108/108/23 112/112/40 114/485/4 109/510/18 
f 111/111/39 113/307/41 114/308/4 112/310/40 
f 115/115/42 116/426/43 117/117/44 118/118/45 
f 115/115/42 119/119/46 120/120/47 116/426/43 
f 115/115/42 118/118/45 121/121/48 119/119/46 
f 119/119/46 121/121/48 122/122/49 120/423/47 
f 118/118/45 117/117/44 122/122/49 121/121/48 
f 116/116/43 120/424/47 122/425/49 117/427/44 
f 123/123/50 124/332/51 125/333/52 126/126/53 
f 123/123/50 127/127/54 128/128/55 124/336/51 
f 123/123/50 126/126/53 129/129/56 127/127/54 
f 127/127/54 129/129/56 130/334/57 128/128/55 
f 126/126/53 125/333/52 130/334/57 129/129/56 
f 124/124/51 128/335/55 130/130/57 125/125/52 
f 131/131/58 132/492/59 133/493/60 134/134/61 
f 131/131/58 135/135/62 136/136/63 132/492/59 
f 131/131/58 134/134/61 137/137/64 135/135/62 
f 135/135/62 137/137/64 138/494/65 136/496/63 
f 134/134/61 133/493/60 138/494/65 137/137/64 
f 132/132/59 136/495/63 138/138/65 133/133/60 
f 139/139/66 140/140/67 141/141/68 142/142/69 
f 139/139/66 143/464/70 144/465/71 140/140/67 
f 139/139/66 142/142/69 145/145/72 143/467/70 
f 142/142/69 141/141/68 146/146/73 145/145/72 
f 140/140/67 144/465/71 146/146/73 141/141/68 
f 143/143/70 145/463/72 146/466/73 144/144/71 
f 147/147/74 148/148/75 149/149/76 150/150/77 
f 147/147/74 151/449/78 152/450/79 148/148/75 
f 147/147/74 150/150/77 153/153/80 151/449/78 
f 150/150/77 149/149/76 154/154/81 153/452/80 
f 148/148/75 152/450/79 154/154/81 149/149/76 
f 151/151/78 153/448/80 154/451/81 152/152/79 
f 155/155/82 156/156/83 157/157/84 158/158/85 
f 159/159/86 160/312/87 161/313/88 162/314/89 
f 155/155/82 159/315/86 162/162/89 156/156/83 
f 155/155/82 158/158/85 160/160/87 159/316/86 
f 158/158/85 157/157/84 161/161/88 160/160/87 
f 156/156/83 162/162/89 161/161/88 157/157/84 
f 163/163/90 164/164/91 165/346/92 166/497/93 
f 163/498/90 166/501/93 167/167/94 168/168/95 
f 164/344/91 169/169/96 170/170/97 165/342/92 
f 171/171/98 172/172/99 173/173/100 174/174/101 
f 171/171/98 174/174/101 175/489/102 176/488/103 
f 174/174/101 173/173/100 177/487/104 175/489/102 
f 172/172/99 178/486/105 177/487/104 173/173/100 
f 179/179/106 180/180/107 181/181/108 182/182/109 
f 183/460/110 184/184/111 185/185/112 186/186/113 
f 187/187/114 188/188/115 189/432/116 190/190/117 
f 187/187/114 190/190/117 191/191/118 192/192/119 
f 190/190/117 189/428/116 193/429/120 191/191/118 
f 194/194/121 195/195/122 196/196/123 197/197/124 
f 198/198/125 199/473/126 200/474/127 201/476/128 
f 202/202/129 203/203/130 204/204/131 205/205/132 
f 206/206/133 207/207/134 208/208/135 209/320/136 
f 163/499/90 168/500/95 169/345/96 164/491/91 
f 168/500/95 167/502/94 170/343/97 169/345/96 
f 166/166/93 165/165/92 170/343/97 167/502/94 
f 171/171/98 176/176/103 178/486/105 172/172/99 
f 176/490/103 175/175/102 177/177/104 178/178/105 
f 179/179/106 183/183/110 186/458/113 180/180/107 
f 179/179/106 182/182/109 184/461/111 183/462/110 
f 182/182/109 181/181/108 185/459/112 184/461/111 
f 180/180/107 186/458/113 185/459/112 181/181/108 
f 187/187/114 192/192/119 210/430/137 188/188/115 
f 192/192/119 191/191/118 193/429/120 210/430/137 
f 188/431/115 210/210/137 193/193/120 189/189/116 
f 194/194/121 198/477/125 201/475/128 195/195/122 
f 194/194/121 197/197/124 199/199/126 198/477/125 
f 197/197/124 196/196/123 200/200/127 199/199/126 
f 195/195/122 201/201/128 200/200/127 196/196/123 
f 202/202/129 206/321/133 209/209/136 203/203/130 
f 202/202/129 205/205/132 207/319/134 206/321/133 
f 205/205/132 204/204/131 208/318/135 207/319/134 
f 203/203/130 209/317/136 208/318/135 204/204/131 
f 211/211/138 212/212/139 213/213/140 214/214/141 
f 215/215/142 216/216/143 217/217/144 218/324/145 
f 211/211/138 215/325/142 218/218/145 212/212/139 
f 211/211/138 214/214/141 216/323/143 215/326/142 
f 214/214/141 213/213/140 217/322/144 216/323/143 
f 212/212/139 218/218/145 217/322/144 213/213/140 
f 219/219/146 220/220/147 221/221/148 222/222/149 
f 223/223/150 224/224/151 225/225/152 226/329/153 
f 219/219/146 223/330/150 226/226/153 220/220/147 
f 219/219/146 222/222/149 224/328/151 223/331/150 
f 222/222/149 221/221/148 225/327/152 224/328/151 
f 220/220/147 226/226/153 225/327/152 221/221/148 
f 227/227/154 228/228/147 229/229/148 230/230/149 
f 231/231/150 232/232/151 233/233/152 234/339/153 
f 227/227/154 231/340/150 234/341/153 228/228/147 
f 227/227/154 230/230/149 232/338/151 231/340/150 
f 230/230/149 229/229/148 233/337/152 232/338/151 
f 228/228/147 234/234/153 233/337/152 229/229/148 
f 235/235/155 236/236/156 237/237/157 238/238/158 
f 239/435/159 240/240/160 241/241/161 242/242/162 
f 235/235/155 239/239/159 242/433/162 236/236/156 
f 235/235/155 238/238/158 240/436/160 239/437/159 
f 238/238/158 237/237/157 241/434/161 240/436/160 
f 236/236/156 242/433/162 241/434/161 237/237/157 
f 243/243/163 244/244/164 245/245/165 246/246/166 
f 247/440/167 248/248/168 249/249/169 250/250/170 
f 243/243/163 247/247/167 250/438/170 244/244/164 
f 243/243/163 246/246/166 248/441/168 247/442/167 
f 246/246/166 245/245/165 249/439/169 248/441/168 
f 244/244/164 250/438/170 249/439/169 245/245/165 
f 251/251/171 252/252/172 253/253/173 254/254/174 
f 255/470/175 256/256/176 257/257/177 258/258/178 
f 251/251/171 255/255/175 258/468/178 252/252/172 
f 251/251/171 254/254/174 256/471/176 255/472/175 
f 254/254/174 253/253/173 257/469/177 256/471/176 
f 252/252/172 258/468/178 257/469/177 253/253/173 
f 259/259/146 260/260/147 261/261/148 262/262/149 
f 263/263/150 264/264/151 265/265/152 266/480/153 
f 259/259/146 263/481/150 266/482/153 260/260/147 
f 259/259/146 262/262/149 264/479/151 263/481/150 
f 262/262/149 261/261/148 265/478/152 264/479/151 
f 260/260/147 266/266/153 265/478/152 261/261/148 
f 267/267/179 268/268/180 269/269/181 270/270/182 
f 271/271/183 272/455/184 273/273/185 274/274/186 
f 267/267/179 271/453/183 274/454/186 268/268/180 
f 267/267/179 270/270/182 272/272/184 271/457/183 
f 270/270/182 269/269/181 273/456/185 272/272/184 
f 268/268/180 274/454/186 273/456/185 269/269/181 
f 275/275/179 276/276/180 277/277/181 278/278/182 
f 279/279/183 280/443/184 281/444/185 282/445/186 
f 275/275/179 279/446/183 282/282/186 276/276/180 
f 275/275/179 278/278/182 280/280/184 279/447/183 
f 278/278/182 277/277/181 281/281/185 280/280/184 
f 276/276/180 282/282/186 281/281/185 277/277/181 
f 283/283/187 284/284/188 285/285/189 286/286/190 
f 287/416/191 288/288/192 289/289/193 290/290/194 
f 283/283/187 287/287/191 290/413/194 284/284/188 
f 283/283/187 286/286/190 288/417/192 287/287/191 
f 286/286/190 285/285/189 289/415/193 288/417/192 
f 284/284/188 290/414/194 289/415/193 285/285/189 
f 291/291/187 292/292/188 293/293/189 294/294/190 
f 295/420/191 296/296/192 297/297/193 298/419/194 
f 291/291/187 295/295/191 298/298/194 292/292/188 
f 291/291/187 294/294/190 296/421/192 295/422/191 
f 294/294/190 293/293/189 297/418/193 296/421/192 
f 292/292/188 298/298/194 297/418/193 293/293/189 
f 299/299/146 300/300/147 301/301/195 302/302/196 
f 303/403/150 304/404/151 305/405/152 306/306/153 
f 299/299/146 303/303/150 306/407/153 300/300/147 
f 299/299/146 302/302/196 304/304/151 303/303/150 
f 302/302/196 301/301/195 305/305/152 304/304/151 
f 300/300/147 306/406/153 305/305/152 301/301/195 
#end 252 faces

#ZOMPROPERTIES_04{
#ZOMPROPERTIES_04 table {Mesh table {SymPlane table {Point vector3d 0 0 0 Normal vector3d 1 0 0 Threshold double 0.01 
#ZOMPROPERTIES_04 Enabled bool false EdgeID int -1 SymEdgeID int -1 UPos double 0.5 LocalMode bool false } RootGroup C
#ZOMPROPERTIES_04 SubMeshGroup {Children table {Tile_0_0 CSubMeshGroup {Children table {} BBoxUV box3d 0 0 0 0 0 0 BBo
#ZOMPROPERTIES_04 x3D box3d 0 0 0 0 0 0 Area3D double 0 AreaUV double 0 IsRoot bool false Properties table {Selected b
#ZOMPROPERTIES_04 ool false Box box3d 0 1 0 1 0 1 U int 0 V int 0 NU int 0 NV int 0 Pack table {BoxFrameEdit bool fals
#ZOMPROPERTIES_04 e Behavior string "Free" Locked bool false Scaling table {Optimization string "Fill" } } Hotspot tab
#ZOMPROPERTIES_04 le {} } IsTile bool true PolyIDs ints { 106 104 105 144 103 211 199 160 161 162 181 139 193 247 217 
#ZOMPROPERTIES_04 187 113 152 159 137 157 125 223 205 229 241 235 131 101 146 210 214 215 213 212 72 79 80 81 89 73 82
#ZOMPROPERTIES_04  88 87 83 84 90 74 76 75 93 91 92 77 78 85 86 95 94 164 107 119 171 102 145 198 202 203 201 200 180 
#ZOMPROPERTIES_04 184 185 183 182 216 220 221 219 218 246 250 251 249 248 138 142 143 141 140 192 196 197 195 194 186 
#ZOMPROPERTIES_04 190 191 189 188 158 178 179 177 176 132 135 136 133 134 120 124 123 122 121 156 174 175 173 172 96 1
#ZOMPROPERTIES_04 00 99 98 97 228 232 233 231 230 240 244 245 243 242 234 238 239 237 236 204 208 209 207 206 126 129 
#ZOMPROPERTIES_04 130 128 127 222 226 227 225 224 114 118 117 115 116 153 169 170 155 154 108 112 111 110 109 151 167 
#ZOMPROPERTIES_04 168 166 165 147 149 150 148 163 31 35 39 40 36 37 41 42 69 68 70 71 57 51 52 59 60 58 64 63 32 53 54
#ZOMPROPERTIES_04  47 48 44 45 46 43 50 49 55 56 38 34 33 0 20 67 29 30 28 65 66 27 24 25 62 61 16 17 18 23 22 2 21 9 
#ZOMPROPERTIES_04 5 6 7 4 10 11 15 8 14 12 13 19 1 26 3 } } } BBoxUV box3d 0 0 0 0 0 0 BBox3D box3d 0 0 0 0 0 0 Area3D
#ZOMPROPERTIES_04  double 0 AreaUV double 0 IsRoot bool true Properties table {Selected bool false Box box3d 0 1 0 1 0
#ZOMPROPERTIES_04  1 U int 0 V int 0 NU int 1 NV int 1 Pack table {Rotate table {Initial string "Automatic" Min double
#ZOMPROPERTIES_04  0 Max double 90 Step double 0 } ResolutionDivisor int 0 MapResolution int 2048 UsePixelUnit bool tr
#ZOMPROPERTIES_04 ue PaddingSize double 0.0078125 MarginSize double 0.00390625 PaddingSizePx int 16 MarginSizePx int 8
#ZOMPROPERTIES_04  Scaling table {TexelDensity double 1024 Mode int 2 Optimization string "Fill" } MaxMutations int 1 
#ZOMPROPERTIES_04 Strategy string "Efficient" Sides string "Closed" } Hotspot table {} Tiling vector3d 1 1 1 TileRatio
#ZOMPROPERTIES_04 Mode string "1:1" } IsTile bool false PolyIDs ints { } } Maps table {Pin CDataMap {PrimType string "
#ZOMPROPERTIES_04 Vertex" Size int 1 DefaultValue double 0 ScaleType string "Normalized" MergeMode string "Max" MinVal
#ZOMPROPERTIES_04 ue double 0 MaxValue double 1 Data doubles { r 510 0 } } Density CDataMap {PrimType string "Polygon"
#ZOMPROPERTIES_04  Size int 1 DefaultValue double 1 ScaleType string "Log" MergeMode string "Average" MinValue double 
#ZOMPROPERTIES_04 0.1 MaxValue double 4 Data doubles { r 252 1 } } Protect CDataMap {PrimType string "Vertex" Size int
#ZOMPROPERTIES_04  1 DefaultValue double 0 ScaleType string "Normalized" MergeMode string "Average" MinValue double -1
#ZOMPROPERTIES_04  MaxValue double 1 Data doubles { r 510 0 } } } } }
#ZOMPROPERTIES_04}


#ZOMSCENE_01{
#ZOMSCENE_01 CScene {Settings table {AxisSystem table {UpVector string "y" } Unit string "cm" TexelDensityDisplay
#ZOMSCENE_01 Unit string "tx/cm" } Root CXForm {pref_floor_lvl2 CPrim {PolyRange table {Low int 0 High int 251 } 
#ZOMSCENE_01 } } }
#ZOMSCENE_01}

#begin 0 fatal error vertex (that RizomUV cannot handle)
#end 0 fatal error vertex (that RizomUV cannot handle)

#begin 0 error vertex
#end 0 error vertex
