#File written by RizomUV 2025.0.101.g577a16f3. Compilation :Sep 18 2025,15:37:21
#begin vertices
v -27.7061 -5.6602 15.8629
v -27.7061 -1.2411 6.0204
v 27.846 -1.2411 6.0204
v 27.8459 -5.6602 15.8629
v -27.7061 2.6959 6.0204
v -23.1671 -0.2449 12.5821
v -14.0891 -1.7232 15.8629
v 27.8459 -1.7232 15.8629
v 27.8459 2.6959 6.0204
v -23.1671 -3.0356 15.8629
v -27.7061 -1.5573 12.5821
v -23.9236 -0.7097 13.1289
v -26.941 0.6824 10.6731
v -25.4366 -1.6396 14.2225
v -21.4374 -1.4409 15.2824
v -23.9494 -2.6234 15.5162
v -26.5713 -3.6497 15.0427
v -26.9496 -1.5845 13.1289
v -26.2953 -9.4152 26.8942
v -26.2953 -4.9429 17.0517
v 29.2359 -6.4642 17.0517
v 29.2359 -10.9364 26.8942
v -26.1875 -5.4796 26.8942
v 29.3437 -7.0009 26.8942
v 29.3437 -2.5287 17.0517
v -26.1875 -1.0074 17.0517
v -26.7874 -0.7151 4.8417
v -26.7874 3.6509 -5.0008
v 28.7646 3.6509 -5.0008
v 28.7646 -0.7151 4.8417
v -26.7874 3.2219 4.8417
v 28.7646 3.2219 4.8417
v 28.7646 7.588 -5.0008
v -26.7874 6.2137 -5.0008
v -27.5447 3.5684 -6.2154
v -27.5447 7.939 -16.0579
v 29.445 9.128 -16.0579
v 29.445 4.8152 -6.2154
v -27.6376 7.5044 -6.2154
v 29.3567 8.7512 -6.2154
v 29.3566 13.0669 -16.0579
v -29.445 11.8628 -16.0579
v -26.7874 8.9976 -17.2023
v -26.7874 13.2575 -27.0448
v 28.7646 13.2575 -27.0448
v 28.7646 8.9976 -17.2023
v -26.7874 12.9346 -17.2023
v 28.7646 12.9346 -17.2023
v 28.7646 17.1945 -27.0448
v -26.7874 17.1945 -27.0448
v -26.3564 -17.1945 27.3841
v -26.3564 7.1022 -27.3841
v -21.5215 7.1022 -27.3841
v -21.5215 -17.1945 27.3841
v -26.3564 -8.4399 27.3841
v -21.5215 -8.4399 27.3841
v -21.5215 15.8569 -27.3841
v -26.3564 15.8569 -27.3841
v -26.6171 7.5091 -26.7236
v 28.1511 7.5092 -26.7236
v 28.1511 5.4218 -21.8888
v -26.6171 5.4218 -21.8888
v -26.6171 16.2638 -26.7236
v -26.6171 14.1764 -21.8888
v 28.1511 14.1764 -21.8888
v 28.1511 16.2638 -26.7236
v -26.6171 -13.7931 21.435
v 28.1511 -13.7931 21.435
v 28.1511 -15.9944 26.2698
v -26.6171 -15.9944 26.2698
v -26.6171 -5.0384 21.435
v -26.6171 -7.2397 26.2698
v 28.1511 -7.2397 26.2698
v 28.1511 -5.0385 21.435
v 23.6214 -17.1945 27.3841
v 23.6214 7.1022 -27.3841
v 28.4562 7.1022 -27.3841
v 28.4562 -17.1945 27.3841
v 23.6214 -8.4399 27.3841
v 28.4562 -8.4399 27.3841
v 28.4562 15.8569 -27.3841
v 23.6214 15.8569 -27.3841
#end vertices

#begin 243 textures vertices 
vt 0.7020184 0.003906263 0
vt 0.986543 0.5035838 0
vt 0.3799211 0.06646229 0
vt 0.3799217 0.003906263 0
vt 0.986543 0.5264109 0
vt 0.6505725 0.6988015 0
vt 0.7071922 0.6988015 0
vt 0.694406 0.3112662 0
vt 0.756962 0.3112662 0
vt 0.3997577 0.08248643 0
vt 0.2753026 0.5091875 0
vt 0.647892 0.6933822 0
vt 0.6257452 0.7025203 0
vt 0.6425312 0.6825427 0
vt 0.6662056 0.6865784 0
vt 0.39579 0.08631353 0
vt 0.3793921 0.08573881 0
vt 0.278047 0.5138543 0
vt 0.6648187 0.3306572 0
vt 0.6655288 0.3933361 0
vt 0.3434319 0.3933361 0
vt 0.3427218 0.3306574 0
vt 0.3539884 0.2230807 0
vt 0.6760853 0.2230807 0
vt 0.6753752 0.2857594 0
vt 0.3532783 0.2857594 0
vt 0.6567755 0.4015369 0
vt 0.6567755 0.4639675 0
vt 0.3346788 0.4639675 0
vt 0.3346788 0.4015369 0
vt 0.003906294 0.3676241 0
vt 0.325991 0.3648403 0
vt 0.3266171 0.427268 0
vt 0.004421794 0.427268 0
vt 0.3349651 0.2939605 0
vt 0.3344108 0.3563994 0
vt 0.00390625 0.3562642 0
vt 0.004453336 0.2939605 0
vt 0.01386599 0.2230807 0
vt 0.3444043 0.2232677 0
vt 0.344916 0.2855784 0
vt 0.003906308 0.2855784 0
vt 0.326003 0.4357201 0
vt 0.326003 0.4979038 0
vt 0.003906326 0.4979038 0
vt 0.003906326 0.4357201 0
vt 0.3341761 0.4724168 0
vt 0.6562728 0.4724168 0
vt 0.6562728 0.5346004 0
vt 0.3341761 0.5346004 0
vt 0.06813351 0.5060972 0
vt 0.06813351 0.8534949 0
vt 0.04010022 0.8534949 0
vt 0.04010022 0.5060972 0
vt 0.003906274 0.5060972 0
vt 0.03193957 0.5060972 0
vt 0.03193957 0.8534951 0
vt 0.003906274 0.8534951 0
vt 0.2576361 0.6604242 0
vt 0.2576361 0.9779764 0
vt 0.2271023 0.9779763 0
vt 0.2271025 0.6604242 0
vt 0.2658097 0.6604242 0
vt 0.2963435 0.6604242 0
vt 0.2963435 0.9779763 0
vt 0.2658097 0.9779763 0
vt 0.2186937 0.6604242 0
vt 0.2186937 0.9779763 0
vt 0.1878921 0.9779763 0
vt 0.1878921 0.6604242 0
vt 0.1486821 0.6604242 0
vt 0.1794836 0.6604242 0
vt 0.1794834 0.9779764 0
vt 0.1486821 0.9779763 0
vt 0.1405208 0.5060972 0
vt 0.1405208 0.8534949 0
vt 0.1124881 0.8534949 0
vt 0.1124881 0.5060972 0
vt 0.07629414 0.5060972 0
vt 0.1043269 0.5060972 0
vt 0.1043269 0.8534951 0
vt 0.07629414 0.8534951 0
vt 0.3638349 0.158958 0
vt 0.3901523 0.1172661 0
vt 0.4427881 0.0964019 0
vt 0.6859319 0.09640226 0
vt 0.6859318 0.1589583 0
vt 0.3638357 0.1589583 0
vt 0.6352956 0.6604242 0
vt 0.9573944 0.6604242 0
vt 0.9573882 0.6832487 0
vt 0.7142444 0.6832507 0
vt 0.6616091 0.6756417 0
vt 0.6352895 0.6604285 0
vt 0.696927 0.1607467 0
vt 0.7594811 0.1607467 0
vt 0.7594863 0.1607519 0
vt 0.7323841 0.1746626 0
vt 0.6875748 0.1815716 0
vt 0.6875697 0.1815658 0
vt 0.37037 0.07478607 0
vt 0.2296157 0.5091875 0
vt 0.6864461 0.7700378 0
vt 0.148682 0.593554 0
vt 0.7020184 0.06646229 0
vt 0.5642915 0.7423519 0
vt 0.7919797 0.5427939 0
vt 0.7476122 0.2904417 0
vt 0.6644457 0.5035838 0
vt 0.6004856 0.7043546 0
vt 0.4744276 0.5427944 0
vt 0.6850562 0.2904417 0
vt 0.6644463 0.5264109 0
vt 0.258803 0.5157821 0
vt 0.7039372 0.1909089 0
vt 0.3045171 0.6916066 0
vt 0.6111603 0.728424 0
vt 0.3879933 0.09690766 0
vt 0.2835568 0.5238616 0
vt 0.4111874 0.09093163 0
vt 0.4533916 0.08248643 0
vt 0.2943868 0.5147735 0
vt 0.3668232 0.6915912 0
vt 0.3432245 0.294088 0
vt 0.3056306 0.5060972 0
vt 0.9865427 0.4724173 0
vt 0.6845535 0.2220753 0
vt 0.6644458 0.4724167 0
vt 0.7556707 0.2612854 0
vt 0.9870454 0.4015369 0
vt 0.6929877 0.2612854 0
vt 0.7472363 0.2220753 0
vt 0.6649485 0.4015369 0
vt 0.9870455 0.424364 0
vt 0.6835481 0.2820692 0
vt 0.6644457 0.4952443 0
vt 0.7462309 0.2820698 0
vt 0.9865426 0.4952443 0
vt 0.693993 0.2428592 0
vt 0.7566757 0.2428592 0
vt 0.6649485 0.424364 0
vt 0.9955911 0.3251275 0
vt 0.6880724 0.0747866 0
vt 0.6734943 0.3251275 0
vt 0.7625605 0.1039423 0
vt 0.6270799 0.6683901 0
vt 0.70013 0.1039423 0
vt 0.750503 0.07478607 0
vt 0.3050817 0.6604242 0
vt 0.6267124 0.6832449 0
vt 0.6941047 0.1175253 0
vt 0.6734943 0.3479547 0
vt 0.7533045 0.1248087 0
vt 0.9955911 0.3479547 0
vt 0.6973286 0.09565289 0
vt 0.7597594 0.09565289 0
vt 0.3045171 0.6832449 0
vt 0.3734255 0.1909083 0
vt 0.2211703 0.508384 0
vt 0.673729 0.2939605 0
vt 0.1587708 0.5060972 0
vt 0.6842791 0.3169319 0
vt 0.1486821 0.529275 0
vt 0.3733861 0.213736 0
vt 0.2119685 0.529275 0
vt 0.7039245 0.213736 0
vt 0.3136814 0.7125133 0
vt 0.3759943 0.7125133 0
vt 0.3432694 0.3169319 0
vt 0.9870453 0.4327039 0
vt 0.3794184 0.6915912 0
vt 0.6649485 0.4327039 0
vt 0.5300946 0.6915912 0
vt 0.9960938 0.3562945 0
vt 0.467911 0.6915912 0
vt 0.4416021 0.6915912 0
vt 0.673997 0.3562945 0
vt 0.9960938 0.3791217 0
vt 0.458844 0.7125404 0
vt 0.6649485 0.4555311 0
vt 0.5210277 0.7125404 0
vt 0.9870453 0.4555311 0
vt 0.3884854 0.7125404 0
vt 0.450669 0.7125404 0
vt 0.673997 0.3791217 0
vt 0.3325504 0.7207474 0
vt 0.003906276 0.0587004 0
vt 0.3045171 0.7207474 0
vt 0.3718882 0.1682876 0
vt 0.7382242 0.00390625 0
vt 0.02449059 0.1682871 0
vt 0.3513039 0.05869987 0
vt 0.7101909 0.00390625 0
vt 0.7382242 0.05466698 0
vt 0.003906276 0.2146868 0
vt 0.3045171 0.7715076 0
vt 0.3513042 0.2146868 0
vt 0.3325504 0.7715076 0
vt 0.02449035 0.1050996 0
vt 0.3718882 0.1050996 0
vt 0.7101909 0.05466698 0
vt 0.7011424 0.7640055 0
vt 0.4744276 0.601609 0
vt 0.7291751 0.7519031 0
vt 0.4662343 0.5427939 0
vt 0.6864461 0.7192777 0
vt 0.1486821 0.5427939 0
vt 0.7919798 0.601609 0
vt 0.6584133 0.7071747 0
vt 0.7291751 0.7011424 0
vt 0.4662342 0.5935546 0
vt 0.7011424 0.7132454 0
vt 0.4744276 0.6523692 0
vt 0.7919798 0.6523692 0
vt 0.6584133 0.7579349 0
vt 0.5362588 0.7551153 0
vt 0.1486821 0.601609 0
vt 0.4662342 0.601609 0
vt 0.5724528 0.6915912 0
vt 0.6004856 0.7551147 0
vt 0.4744277 0.5935546 0
vt 0.5642915 0.6915912 0
vt 0.7919798 0.5935546 0
vt 0.5362588 0.7043546 0
vt 0.1486821 0.6523697 0
vt 0.4662342 0.6523697 0
vt 0.5724528 0.7423519 0
vt 0.4049377 0.7207474 0
vt 0.003906276 0.003906787 0
vt 0.376905 0.7207474 0
vt 0.3718882 0.113494 0
vt 0.3687437 0.7207474 0
vt 0.02449059 0.1134935 0
vt 0.3513039 0.003906257 0
vt 0.340711 0.7207474 0
vt 0.3687437 0.7715081 0
vt 0.003906276 0.1598932 0
vt 0.376905 0.7715076 0
vt 0.3513042 0.1598932 0
vt 0.4049377 0.7715076 0
vt 0.02449035 0.05030602 0
vt 0.3718882 0.05030602 0
vt 0.340711 0.7715081 0
#end 243 textures vertices 

#begin 74 normals 
vn -1 0 -0
vn -0.6028 -0.4335 -0.6698
vn 0.6028 -0.4335 -0.6698
vn 0.5583 -0.6965 0.4507
vn -0.5652 0.3946 -0.7245
vn -0.0709 0.8682 0.4911
vn -0.002 0.5427 0.8399
vn 0.6028 0.4335 0.6698
vn 0.5583 0.6965 -0.4507
vn -0.069 0.2858 0.9558
vn -0.7318 -0.6055 0.3128
vn -0.8094 0.4549 0.3714
vn 0.4453 0.8862 -0.1275
vn -0.4854 0.7528 0.4446
vn -0.3471 0.6283 0.6963
vn -0.0613 0.713 0.6985
vn -0.3411 0.6542 0.6751
vn -0.4113 0.5336 0.7389
vn 0 0.6986 0.7155
vn -0.574 -0.6832 0.4514
vn -0.6192 -0.4152 -0.6665
vn 0.5867 -0.4481 -0.6746
vn 0.5421 -0.7116 0.447
vn -0.5867 0.4481 0.6746
vn 0.6191 0.4151 0.6666
vn 0.574 0.6832 -0.4514
vn -0.542 0.7115 -0.4471
vn -0.5585 -0.6954 0.4523
vn -0.6025 -0.4351 -0.669
vn 0.6025 -0.4352 -0.669
vn 0.5586 -0.6953 0.4524
vn -0.5944 0.4789 0.646
vn 0.6026 0.4351 0.669
vn 0.5509 0.7028 -0.4501
vn -0.5707 0.656 -0.494
vn -0.5451 -0.707 0.4505
vn -0.4083 -0.5503 -0.7283
vn 0.615 -0.4236 -0.6651
vn 0.5715 -0.6826 0.4554
vn -0.5493 0.4226 0.7209
vn 0.5889 0.4499 0.6714
vn 0.5461 0.7052 -0.4522
vn -0.7212 0.5556 -0.4137
vn -0.5589 -0.6931 0.4553
vn -0.6019 -0.4384 -0.6674
vn 0.6019 -0.4384 -0.6674
vn 0.5589 -0.6931 0.4553
vn -0.6019 0.4384 0.6674
vn 0.6019 0.4384 0.6674
vn 0.5589 0.6931 -0.4553
vn -0.5589 0.6931 -0.4553
vn -0.5585 -0.6954 0.4522
vn 0.6025 -0.4351 -0.669
vn 0.5585 -0.6954 0.4522
vn -0.6025 0.4351 0.669
vn 0.6025 0.4351 0.669
vn 0.5585 0.6954 -0.4522
vn -0.5585 0.6954 -0.4522
vn -0.6019 -0.4387 -0.6673
vn 0.6019 -0.4387 -0.6673
vn 0.5589 -0.6929 0.4556
vn -0.5589 -0.6929 0.4556
vn -0.5589 0.6929 -0.4556
vn -0.6019 0.4387 0.6673
vn 0.6018 0.4388 0.6673
vn 0.5589 0.6928 -0.4557
vn -0.6032 -0.4315 -0.6707
vn 0.6032 -0.4316 -0.6707
vn 0.5581 -0.6978 0.449
vn -0.5581 -0.6979 0.4489
vn -0.5581 0.6978 -0.449
vn -0.6032 0.4316 0.6707
vn 0.6032 0.4315 0.6707
vn 0.5581 0.6979 -0.4489
#end 74 normals 

#begin 63 faces
o bridge_ramp
g bridge_ramp
s 1
f 1/1/1 2/105/2 3/3/3 4/4/4 
f 5/83/5 6/84/6 7/85/7 8/86/8 9/87/9 5/88/1 
s 2
f 1/89/1 4/90/4 8/91/8 7/92/7 10/93/10 1/94/11 
s 4
f 4/112/4 3/108/3 9/9/9 8/8/8 
s 2
f 3/109/3 2/2/2 5/5/1 9/113/9 
s 4
f 2/95/2 1/96/1 1/97/11 11/98/12 5/99/5 5/100/1 
s 1
f 12/12/13 13/13/14 14/14/15 15/15/16 
f 12/12/13 6/6/6 5/117/5 13/13/14 
f 12/12/13 15/15/16 7/7/7 6/6/6 
s 2
f 16/16/17 15/120/16 14/118/15 17/17/18 
f 16/16/17 10/10/10 7/121/7 15/120/16 
f 16/16/17 17/17/18 1/101/11 10/10/10 
f 18/18/19 17/122/18 14/119/15 13/114/14 
f 18/18/19 11/11/12 1/125/11 17/122/18 
f 18/18/19 13/114/14 5/102/5 11/11/12 
f 19/19/20 20/20/21 21/21/22 22/22/23 
s 4
f 23/23/24 24/24/25 25/25/26 26/26/27 
s 8
f 19/128/20 22/126/23 24/138/25 23/136/24 
s 16
f 22/127/23 21/132/22 25/140/26 24/139/25 
s 32
f 21/133/22 20/130/21 26/134/27 25/141/26 
s 64
f 20/131/21 19/129/20 23/137/24 26/135/27 
s 2
f 27/27/28 28/28/29 29/29/30 30/30/31 
s 4
f 31/31/32 32/32/33 33/33/34 34/34/35 
s 8
f 27/144/28 30/142/31 32/154/33 31/152/32 
s 16
f 30/143/31 29/148/30 33/156/34 32/155/33 
s 32
f 29/149/30 28/146/29 34/150/35 33/157/34 
s 64
f 28/147/29 27/145/28 31/153/32 34/151/35 
s 2
f 35/35/36 36/36/37 37/37/38 38/38/39 
s 4
f 39/39/40 40/40/41 41/41/42 42/42/43 
s 8
f 35/158/36 38/115/39 40/166/41 39/164/40 
s 16
f 38/116/39 37/123/38 41/168/42 40/167/41 
s 32
f 37/124/38 36/160/37 42/162/43 41/169/42 
s 64
f 36/161/37 35/159/36 39/165/40 42/163/43 
s 2
f 43/43/44 44/44/45 45/45/46 46/46/47 
s 4
f 47/47/48 48/48/49 49/49/50 50/50/51 
s 8
f 43/172/44 46/170/47 48/182/49 47/180/48 
s 16
f 46/171/47 45/176/46 49/184/50 48/183/49 
s 32
f 45/177/46 44/174/45 50/178/51 49/185/50 
s 64
f 44/175/45 43/173/44 47/181/48 50/179/51 
s 2
f 51/51/52 52/52/29 53/53/53 54/54/54 
s 4
f 55/55/55 56/56/56 57/57/57 58/58/58 
s 8
f 51/188/52 54/186/54 56/198/56 55/196/55 
s 16
f 54/187/54 53/192/53 57/200/57 56/199/56 
s 32
f 53/193/53 52/190/29 58/194/58 57/201/57 
s 64
f 52/191/29 51/189/52 55/197/55 58/195/58 
s 2
f 59/59/59 60/60/60 61/61/61 62/62/62 
s 4
f 63/63/63 64/64/64 65/65/65 66/66/66 
s 8
f 59/204/59 62/202/62 64/212/64 63/210/63 
s 16
f 62/203/62 61/208/61 65/214/65 64/213/64 
s 32
f 61/209/61 60/206/60 66/103/66 65/215/65 
s 64
f 60/207/60 59/205/59 63/211/63 66/104/66 
s 2
f 67/67/67 68/68/68 69/69/69 70/70/70 
s 4
f 71/71/71 72/72/72 73/73/73 74/74/74 
s 8
f 67/106/67 70/216/70 72/224/72 71/222/71 
s 16
f 70/217/70 69/218/69 73/226/73 72/225/72 
s 32
f 69/219/69 68/110/68 74/220/74 73/227/73 
s 64
f 68/111/68 67/107/67 71/223/71 74/221/74 
s 2
f 75/75/52 76/76/29 77/77/53 78/78/54 
s 4
f 79/79/55 80/80/56 81/81/57 82/82/58 
s 8
f 75/230/52 78/228/54 80/240/56 79/238/55 
s 16
f 78/229/54 77/234/53 81/242/57 80/241/56 
s 32
f 77/235/53 76/232/29 82/236/58 81/243/57 
s 64
f 76/233/29 75/231/52 79/239/55 82/237/58 
#end 63 faces

#ZOMPROPERTIES_04{
#ZOMPROPERTIES_04 table {Mesh table {SymPlane table {Point vector3d 0 0 0 Normal vector3d 1 0 0 Threshold double 0.01 
#ZOMPROPERTIES_04 Enabled bool false EdgeID int -1 SymEdgeID int -1 UPos double 0.5 LocalMode bool false } RootGroup C
#ZOMPROPERTIES_04 SubMeshGroup {Children table {Tile_0_0 CSubMeshGroup {Children table {} BBoxUV box3d 0 0 0 0 0 0 BBo
#ZOMPROPERTIES_04 x3D box3d 0 0 0 0 0 0 Area3D double 0 AreaUV double 0 IsRoot bool false Properties table {Selected b
#ZOMPROPERTIES_04 ool false Box box3d 0 1 0 1 0 1 U int 0 V int 0 NU int 0 NV int 0 Pack table {BoxFrameEdit bool fals
#ZOMPROPERTIES_04 e Behavior string "Free" Locked bool false Scaling table {Optimization string "Fill" } } Hotspot tab
#ZOMPROPERTIES_04 le {} } IsTile bool true PolyIDs ints { 12 13 14 9 10 11 5 6 8 7 26 38 36 3 24 18 20 30 32 59 49 47 
#ZOMPROPERTIES_04 55 53 61 41 43 25 2 19 37 23 35 4 17 29 31 45 46 57 58 39 40 52 51 48 60 50 42 44 62 56 54 1 22 34 3
#ZOMPROPERTIES_04 3 21 0 16 15 27 28 } } } BBoxUV box3d 0 0 0 0 0 0 BBox3D box3d 0 0 0 0 0 0 Area3D double 0 AreaUV do
#ZOMPROPERTIES_04 uble 0 IsRoot bool true Properties table {Selected bool false Box box3d 0 1 0 1 0 1 U int 0 V int 0 
#ZOMPROPERTIES_04 NU int 1 NV int 1 Pack table {Rotate table {Initial string "Automatic" Min double 0 Max double 90 St
#ZOMPROPERTIES_04 ep double 0 } ResolutionDivisor int 0 MapResolution int 2048 UsePixelUnit bool true PaddingSize doub
#ZOMPROPERTIES_04 le 0.0078125 MarginSize double 0.00390625 PaddingSizePx int 16 MarginSizePx int 8 Scaling table {Tex
#ZOMPROPERTIES_04 elDensity double 1024 Mode int 2 Optimization string "Fill" } MaxMutations int 1 Strategy string "Ef
#ZOMPROPERTIES_04 ficient" Sides string "Closed" } Hotspot table {} Tiling vector3d 1 1 1 TileRatioMode string "1:1" }
#ZOMPROPERTIES_04  IsTile bool false PolyIDs ints { } } Maps table {Pin CDataMap {PrimType string "Vertex" Size int 1 
#ZOMPROPERTIES_04 DefaultValue double 0 ScaleType string "Normalized" MergeMode string "Max" MinValue double 0 MaxValu
#ZOMPROPERTIES_04 e double 1 Data doubles { r 243 0 } } Density CDataMap {PrimType string "Polygon" Size int 1 Default
#ZOMPROPERTIES_04 Value double 1 ScaleType string "Log" MergeMode string "Average" MinValue double 0.1 MaxValue double
#ZOMPROPERTIES_04  4 Data doubles { r 63 1 } } Protect CDataMap {PrimType string "Vertex" Size int 1 DefaultValue doub
#ZOMPROPERTIES_04 le 0 ScaleType string "Normalized" MergeMode string "Average" MinValue double -1 MaxValue double 1 D
#ZOMPROPERTIES_04 ata doubles { r 243 0 } } } } }
#ZOMPROPERTIES_04}


#ZOMSCENE_01{
#ZOMSCENE_01 CScene {Settings table {AxisSystem table {UpVector string "y" } Unit string "cm" TexelDensityDisplay
#ZOMSCENE_01 Unit string "tx/cm" } Root CXForm {bridge_ramp CPrim {PolyRange table {Low int 0 High int 62 } } } }
#ZOMSCENE_01 
#ZOMSCENE_01}

#begin 0 fatal error vertex (that RizomUV cannot handle)
#end 0 fatal error vertex (that RizomUV cannot handle)

#begin 0 error vertex
#end 0 error vertex
