# 3ds Max Wavefront OBJ Exporter v0.99 - (c)2007 guruware
# File Created: 17.05.2026 12:00:36

#
# object prefab_wall_lvl2
#

v  -59.6009 37.5318 12.5150
v  -59.6009 37.5318 1.5284
v  -20.6245 37.5318 1.5284
v  -20.6245 37.5318 12.5150
v  -59.6009 49.3428 12.5150
v  -20.6245 49.3428 12.5150
v  -20.6245 49.3428 1.5284
v  -59.6009 49.3428 1.5284
v  -59.6009 -49.3553 11.3709
v  -59.6009 -49.3553 1.5284
v  -20.6245 -49.3553 1.5284
v  -20.6245 -49.3553 11.3709
v  -21.9814 -37.5442 10.0140
v  -20.6245 -37.5443 8.6363
v  -20.6245 -37.5443 1.5284
v  -59.6009 -37.5443 1.5284
v  -59.6009 -37.5443 11.3709
v  -23.3591 -37.5443 11.3709
v  -20.6245 -40.2788 11.3709
v  -21.9814 -38.9012 11.3709
v  -20.6245 -38.9012 10.0140
v  20.5509 -49.3553 11.3709
v  20.5509 -49.3553 1.5284
v  59.5273 -49.3553 1.5284
v  59.5273 -49.3553 11.3709
v  57.6200 -37.5442 9.4637
v  59.5273 -37.5443 7.5273
v  59.5273 -37.5443 1.5284
v  20.5509 -37.5443 1.5284
v  20.5509 -37.5443 11.3709
v  55.6836 -37.5443 11.3709
v  59.5273 -41.3879 11.3709
v  57.6200 -39.4515 11.3709
v  59.5273 -39.4515 9.4637
v  -19.4291 -49.3553 12.3772
v  -19.4291 -49.3553 1.5284
v  19.5473 -49.3553 1.5284
v  19.5473 -49.3553 12.3772
v  -15.7890 -37.5443 12.3772
v  19.5473 -37.5443 12.3772
v  19.5473 -37.5443 1.5284
v  -19.4291 -37.5443 1.5284
v  -19.4291 -37.5443 8.3649
v  -17.6228 -37.5442 10.3863
v  -17.6228 -39.3505 12.3772
v  -19.4291 -41.1844 12.3772
v  20.5509 37.5318 11.3709
v  20.5509 37.5318 1.5284
v  59.5273 37.5318 1.5284
v  59.5273 37.5318 11.3709
v  23.6221 46.2716 11.3709
v  20.5509 38.4107 11.3709
v  59.5273 49.3428 11.3709
v  31.4830 49.3428 11.3709
v  59.5273 49.3428 1.5284
v  -13.2987 37.5318 11.3709
v  -17.6858 37.5318 9.6276
v  -19.4291 37.5318 5.2406
v  -19.4291 37.5318 1.5284
v  19.5473 37.5318 1.5284
v  19.5473 37.5318 11.3709
v  -19.4291 49.3428 11.3709
v  19.5473 49.3428 11.3709
v  19.5473 49.3428 1.5284
v  -19.4291 49.3428 1.5284
v  -19.4291 43.6621 11.3709
v  -17.6858 39.2751 11.3709
v  -57.0498 -47.6336 6.7537
v  -57.0498 -47.6336 1.5284
v  57.0781 -47.6336 1.5284
v  57.0781 -47.6336 6.7537
v  -57.0498 47.4728 6.7537
v  57.0781 47.4728 6.7537
v  57.0781 47.4728 1.5284
v  -57.0498 47.4728 1.5284
v  -18.6103 38.3505 10.5522
v  -19.2244 37.7365 8.1011
v  -17.9881 37.6992 9.9299
v  -16.1592 37.7365 11.1662
v  -17.9881 38.9728 11.2035
v  -19.2244 40.8016 11.1662
v  -19.2617 38.9728 9.9299
v  -19.4291 39.2751 9.6276
v  21.8648 48.0288 10.0570
v  26.3454 49.0143 11.0424
v  23.0458 49.0741 8.8760
v  20.8794 49.0143 5.5764
v  23.6221 49.3428 8.2998
v  20.9766 49.3428 1.5284
v  20.6205 49.2731 1.5284
v  20.8794 43.5482 11.0424
v  23.0458 46.8478 11.1022
v  20.8196 46.8478 8.8760
v  20.5509 46.2716 8.2998
v  20.5509 48.9171 1.5284
v  -18.2268 -38.7465 11.0520
v  -17.0107 -38.1426 11.7177
v  -17.8241 -37.9436 10.6081
v  -18.8307 -38.1426 9.7115
v  -18.8307 -39.9627 11.7177
v  -17.8241 -39.1493 11.9371
v  -19.0298 -39.1493 10.6081
v  -19.4291 -39.3505 10.3863
v  -21.5277 -38.4474 10.4677
v  -21.0740 -37.9938 9.5541
v  -21.8302 -37.8442 10.1652
v  -22.4413 -37.9938 10.9214
v  -21.8302 -38.7500 11.0709
v  -21.0740 -39.3611 10.9214
v  -20.9245 -38.7500 10.1652
v  58.2578 -38.8137 10.1014
v  58.8954 -38.1761 8.8173
v  57.8325 -37.9659 9.6762
v  56.9736 -38.1761 10.7391
v  57.8325 -39.2390 10.9493
v  58.8954 -40.0979 10.7391
v  59.1056 -39.2390 9.6762
v  -59.6009 37.5318 -9.4582
v  -20.5294 37.4367 -9.5532
v  -59.6009 49.3428 -9.4582
v  -20.6243 49.3430 -9.4584
v  -59.6009 -49.3553 -8.3141
v  -20.6245 -49.3553 -8.3141
v  -22.1475 -37.8576 -6.7911
v  -23.4828 -37.7787 -8.0797
v  -59.6009 -37.5443 -8.3141
v  -20.8467 -37.7665 -5.4622
v  -21.0721 -40.5151 -7.8665
v  -20.9320 -39.0642 -6.7942
v  20.5509 -49.3553 -8.3141
v  59.5273 -49.3553 -8.3141
v  57.6200 -37.5442 -6.4069
v  55.6836 -37.5443 -8.3141
v  20.5509 -37.5443 -8.3141
v  59.5273 -37.5443 -4.4705
v  57.6200 -39.4515 -8.3141
v  59.5273 -41.3879 -8.3141
v  59.5273 -39.4515 -6.4069
v  -19.4291 -49.3553 -9.3204
v  19.5473 -49.3553 -9.3204
v  19.5473 -37.5443 -9.3204
v  -15.7668 -37.5856 -9.2811
v  -17.4994 -37.7739 -7.2175
v  -19.2208 -37.7525 -5.2070
v  -17.5223 -39.4510 -9.1429
v  -19.0958 -41.3628 -9.0040
v  20.3755 37.3563 -8.4895
v  59.5273 37.5318 -8.3141
v  23.6220 46.2717 -8.3147
v  31.4830 49.3428 -8.3141
v  59.5273 49.3428 -8.3141
v  20.2836 38.4334 -8.5813
v  -19.4291 37.5318 -2.1837
v  -17.6858 37.5318 -6.5708
v  -13.2987 37.5318 -8.3141
v  19.8221 37.2569 -8.5889
v  -19.4291 49.3428 -8.3141
v  19.5598 49.3553 -8.3266
v  -19.5112 43.6542 -8.3962
v  -17.6863 39.2746 -8.3184
v  -57.0498 -47.6336 -3.6969
v  57.0781 -47.6336 -3.6969
v  -57.0498 47.4728 -3.6969
v  57.0781 47.4728 -3.6969
v  -18.6209 38.3400 -7.5059
v  -16.1592 37.7365 -8.1094
v  -17.9881 37.6991 -6.8731
v  -19.2267 37.7342 -5.0452
v  -19.3153 40.7621 -8.2003
v  -17.9904 38.9705 -8.1551
v  -19.3186 38.9570 -6.8889
v  -19.5095 39.2657 -6.5801
v  21.8633 48.0304 -7.0017
v  20.8794 49.0143 -2.5196
v  23.0458 49.0741 -5.8192
v  26.3454 49.0143 -7.9856
v  23.6221 49.3428 -5.2429
v  23.0451 46.8485 -8.0482
v  20.7265 43.6077 -8.1385
v  20.8081 46.8506 -5.8220
v  20.5328 46.2734 -5.2448
v  -18.0648 -38.9085 -7.8482
v  -18.6440 -38.3294 -6.4869
v  -17.6544 -38.1153 -7.3973
v  -16.9058 -38.2485 -8.5648
v  -17.6833 -39.2901 -8.7510
v  -18.5898 -40.2012 -8.4423
v  -18.8390 -39.3379 -7.3802
v  -19.1383 -39.5068 -7.1877
v  -21.7713 -38.6910 -7.1673
v  -22.6550 -38.2096 -7.6488
v  -22.0477 -38.0643 -6.8909
v  -21.2790 -38.1988 -6.2943
v  -21.4254 -39.7091 -7.5131
v  -22.1352 -39.0550 -7.7056
v  -22.2385 -39.1582 -7.8291
v  -21.1584 -38.9812 -6.8771
v  58.2578 -38.8137 -7.0446
v  56.9736 -38.1761 -7.6823
v  57.8325 -37.9659 -6.6194
v  58.8954 -38.1761 -5.7605
v  58.8954 -40.0979 -7.6823
v  57.8325 -39.2390 -7.8925
v  59.1056 -39.2390 -6.6194
v  -59.1713 13.0033 9.5677
v  -59.1713 13.0033 1.5284
v  -39.4862 13.0033 1.5284
v  -39.4862 13.0033 9.5677
v  -59.1713 36.6253 9.5677
v  -39.4862 36.6253 9.5677
v  -39.4862 36.6253 1.5284
v  -59.1713 36.6253 1.5284
v  -39.4862 16.7931 9.5677
v  -43.3415 21.1526 9.5677
v  -47.7011 25.0080 9.5677
v  -59.1713 25.0080 9.5677
v  -39.4862 24.1848 1.5284
v  -39.4862 21.1526 5.3126
v  -43.3415 28.8633 9.5677
v  -39.4862 33.2229 9.5677
v  -59.1713 25.0080 1.5284
v  -41.3878 25.0080 7.4690
v  -44.3542 25.0080 8.5603
v  -42.6903 22.4378 8.8681
v  -40.4370 20.9005 8.5183
v  -40.1201 22.4378 6.0314
v  -40.3990 25.0080 4.1949
v  -39.7401 25.0080 1.5284
v  -40.4370 29.1154 8.5183
v  -42.6903 27.5782 8.8681
v  -40.1201 27.5782 6.0314
v  -39.4862 28.8633 5.3126
v  -39.4862 25.8312 1.5284
v  -59.1713 13.0033 -6.5109
v  -39.4862 13.0033 -6.5109
v  -59.1713 36.6253 -6.5109
v  -39.4862 36.6253 -6.5109
v  -47.7011 25.0080 -6.5109
v  -43.3415 21.1526 -6.5109
v  -39.4862 16.7931 -6.5109
v  -59.1713 25.0080 -6.5109
v  -39.4862 21.1526 -2.2558
v  -39.4862 33.2229 -6.5109
v  -43.3415 28.8633 -6.5109
v  -41.3878 25.0080 -4.4121
v  -40.4370 20.9005 -5.4615
v  -42.6903 22.4378 -5.8113
v  -44.3542 25.0080 -5.5035
v  -40.3990 25.0080 -1.1381
v  -40.1201 22.4378 -2.9746
v  -42.6903 27.5782 -5.8113
v  -40.4366 29.1152 -5.4619
v  -40.1199 27.5781 -2.9746
v  -39.4831 28.8627 -2.2564
v  -0.4105 13.0264 7.7502
v  -3.0836 13.0264 8.8125
v  -38.3246 13.0264 8.8125
v  -38.3246 13.0264 1.5284
v  0.6518 13.0264 1.5284
v  0.6518 13.0264 5.0771
v  -38.3246 36.6485 8.8125
v  0.6518 36.6485 8.8125
v  0.6518 36.6485 1.5284
v  -38.3246 36.6485 1.5284
v  -0.4105 14.0886 8.8125
v  0.6518 16.7617 8.8125
v  0.6518 14.0886 7.7502
v  0.1529 13.5253 8.3136
v  -1.3406 13.1511 8.6877
v  -0.2263 13.1284 7.9344
v  0.5270 13.1511 6.8201
v  0.5270 15.0188 8.6877
v  -0.2263 13.9045 8.7104
v  0.5497 13.9045 7.9344
v  -0.4105 13.0264 -4.6934
v  0.6518 13.0264 -2.0203
v  -38.3246 13.0264 -5.7556
v  -3.0836 13.0264 -5.7556
v  -38.3246 36.6485 -5.7556
v  0.6518 36.6485 -5.7556
v  -0.4105 14.0886 -5.7556
v  0.6518 16.7617 -5.7556
v  0.6518 14.0886 -4.6934
v  0.1529 13.5253 -5.2567
v  0.5270 13.1511 -3.7632
v  -0.2263 13.1284 -4.8776
v  -1.3406 13.1511 -5.6309
v  -0.2263 13.9045 -5.6536
v  0.5270 15.0188 -5.6309
v  0.5497 13.9045 -4.8776
v  1.4885 13.0264 9.1920
v  1.4885 13.0264 1.5284
v  40.4649 13.0264 1.5284
v  40.4649 13.0264 9.1920
v  37.6597 36.6485 6.2407
v  39.4096 36.6485 1.5284
v  1.4885 36.6485 1.5284
v  1.4885 36.6485 9.1920
v  30.4797 36.6485 9.1920
v  40.4649 26.6633 9.1920
v  37.6597 33.8433 9.1920
v  40.4649 35.5932 1.5284
v  40.4649 33.8433 6.2407
v  39.2647 35.4483 7.9294
v  40.1648 36.3484 3.6236
v  38.1861 36.4030 6.7945
v  35.1723 36.3484 8.8764
v  40.2922 36.4757 1.5284
v  38.1861 34.3696 8.9338
v  40.1648 31.3558 8.8764
v  40.2194 34.3696 6.7945
v  1.4885 13.0264 -6.1352
v  40.4745 13.0168 -6.1448
v  37.6597 36.6485 -3.1839
v  30.4797 36.6485 -6.1352
v  1.4885 36.6485 -6.1352
v  37.6597 33.8433 -6.1352
v  40.4649 26.6633 -6.1352
v  40.4649 33.8433 -3.1839
v  39.2647 35.4483 -4.8725
v  35.1723 36.3484 -5.8195
v  38.1861 36.4030 -3.7376
v  40.1648 36.3484 -0.5668
v  40.1648 31.3558 -5.8195
v  38.1861 34.3696 -5.8770
v  40.2194 34.3696 -3.7376
v  46.2536 13.0033 10.0401
v  43.0248 13.0033 8.5672
v  41.7643 13.0033 4.7941
v  41.7643 13.0033 1.5284
v  59.4808 13.0033 1.5284
v  59.4808 13.0033 10.0401
v  41.7643 36.6253 10.0401
v  59.4808 36.6253 10.0401
v  59.4808 36.6253 1.5284
v  41.7643 36.6253 1.5284
v  41.7643 17.4926 10.0401
v  43.0248 14.2637 10.0401
v  42.3010 13.5400 9.4129
v  41.8985 13.1374 7.2603
v  42.7874 13.1130 8.8446
v  44.1431 13.1374 9.8833
v  42.7874 14.0264 9.9118
v  41.8985 15.3821 9.8833
v  41.8740 14.0264 8.8446
v  41.7643 14.2637 8.5672
v  41.7620 13.0010 -1.7375
v  43.0074 12.8329 -5.5252
v  46.1996 12.4010 -7.5648
v  59.4808 13.0033 -6.9833
v  41.7643 36.6253 -6.9833
v  59.4808 36.6253 -6.9833
v  43.0065 14.2455 -7.1373
v  41.7093 17.4877 -7.0364
v  42.2206 13.4595 -6.4268
v  44.0409 12.8802 -7.0608
v  42.7505 12.9602 -5.8193
v  41.8494 13.0884 -4.2198
v  41.8329 15.3560 -6.8862
v  42.7510 13.9900 -6.9857
v  41.7786 14.0033 -5.8075
v  41.6734 14.2545 -5.5183
v  -59.2773 -11.7577 8.8125
v  -59.3169 -11.7973 1.5284
v  -20.3009 -11.7577 1.5284
v  -20.3009 -11.7577 8.8125
v  -22.5784 11.8643 6.5350
v  -20.3009 11.8643 2.9280
v  -20.3009 11.8643 1.5284
v  -59.2773 11.8643 1.5284
v  -59.2773 11.8643 8.8125
v  -26.1853 11.8643 8.8125
v  -20.3009 5.9799 8.8125
v  -22.5784 9.5868 8.8125
v  -20.3009 9.5868 6.5350
v  -21.7274 10.4378 7.3859
v  -20.8804 11.2848 5.2907
v  -22.2986 11.4577 6.8148
v  -23.8226 11.2848 8.2329
v  -22.2986 9.8666 8.4059
v  -20.8804 8.3426 8.2329
v  -20.7075 9.8666 6.8148
v  -59.5450 -12.0254 -6.0233
v  -20.3009 -11.7577 -5.7556
v  -22.5784 11.8643 -3.4781
v  -26.1853 11.8643 -5.7556
v  -59.2773 11.8643 -5.7556
v  -20.3009 11.8643 0.1288
v  -20.3009 5.9799 -5.7556
v  -22.5784 9.5868 -5.7556
v  -20.3009 9.5868 -3.4781
v  -21.7274 10.4378 -4.3291
v  -23.8226 11.2848 -5.1761
v  -22.2986 11.4577 -3.7579
v  -20.8804 11.2848 -2.2339
v  -20.8804 8.3426 -5.1761
v  -22.2986 9.8666 -5.3490
v  -20.7075 9.8666 -3.7579
v  -10.1198 -11.7577 6.9327
v  -12.7222 -11.7577 9.4289
v  -19.0463 -11.7577 9.4289
v  -19.0463 -11.7577 1.5284
v  -7.8184 -11.7577 1.5284
v  -7.8184 -11.7577 4.1100
v  -10.1198 11.8643 6.9327
v  -7.8184 11.8643 4.1100
v  -7.8184 11.8643 1.5284
v  -19.0463 11.8643 1.5284
v  -19.0463 11.8643 9.4289
v  -12.7222 11.8643 9.4289
v  -19.0463 7.3777 9.4289
v  -7.8184 6.9605 9.4289
v  -10.1198 9.5629 9.4289
v  19.9301 -6.8734 1.5284
v  19.9301 7.0452 1.5284
v  19.9301 6.9757 9.4289
v  19.9301 -6.8806 9.4289
v  -2.9145 11.8643 9.4289
v  19.9301 11.8643 9.4289
v  19.9301 11.8643 1.5284
v  -5.5169 11.8643 6.9327
v  -5.5169 9.5629 9.4289
v  -7.8184 -10.6226 8.1977
v  -10.2703 -11.1901 8.8133
v  -9.3527 -11.3793 7.3544
v  -7.8184 -11.2129 6.2770
v  -7.8184 10.7292 8.1977
v  -7.8184 11.3195 6.2770
v  -9.3527 11.4860 7.3544
v  -10.2703 11.2968 8.8133
v  -7.8184 -8.8517 8.8380
v  -9.3527 -9.8450 9.0185
v  -10.1198 -9.4563 9.4289
v  -7.8184 -6.8538 9.4289
v  -9.3527 9.9517 9.0185
v  -7.8184 8.9584 8.8380
v  -6.2841 -11.3793 7.3544
v  -5.3664 -11.1901 8.8133
v  -5.5169 -11.7577 6.9327
v  -2.9145 -11.7577 9.4289
v  -5.3664 11.2968 8.8133
v  -6.2841 11.4860 7.3544
v  -6.2841 -9.8450 9.0185
v  -5.5169 -9.4563 9.4289
v  -6.2841 9.9517 9.0185
v  -19.0463 -6.8847 9.4289
v  -19.0463 -6.7291 1.5284
v  19.9301 -11.7577 1.5284
v  19.9301 -11.7577 9.4289
v  -10.1198 -11.7577 -3.8759
v  -7.8184 -11.7577 -1.0532
v  -19.0463 -11.7577 -6.3721
v  -12.7222 -11.7577 -6.3721
v  -10.1198 11.8643 -3.8759
v  -12.7222 11.8643 -6.3721
v  -19.0463 11.8643 -6.3721
v  -7.8184 11.8643 -1.0532
v  -10.1198 -9.4563 -6.3721
v  -19.0463 -6.5735 -6.3721
v  -7.8184 -6.8538 -6.3721
v  19.9301 -6.8662 -6.3721
v  19.9301 7.1148 -6.3721
v  19.9301 11.8643 -6.3721
v  -2.9145 11.8643 -6.3721
v  -5.5169 11.8643 -3.8759
v  19.5736 -6.8845 -6.3721
v  19.8398 7.1143 -6.3721
v  -7.8184 -10.6226 -5.1409
v  -7.8184 -11.2129 -3.2202
v  -9.3527 -11.3793 -4.2975
v  -10.2703 -11.1901 -5.7565
v  -7.8184 10.7292 -5.1409
v  -10.2703 11.2968 -5.7565
v  -9.3527 11.4860 -4.2975
v  -7.8184 11.3195 -3.2202
v  -9.3527 -9.8450 -5.9617
v  -7.8184 -8.8517 -5.7811
v  -7.8184 8.9584 -5.7811
v  -9.3527 9.9517 -5.9617
v  -10.1198 9.5629 -6.3721
v  -7.8184 6.9605 -6.3721
v  -5.3664 -11.1901 -5.7565
v  -6.2841 -11.3793 -4.2975
v  -5.5169 -11.7577 -3.8759
v  -2.9145 -11.7577 -6.3721
v  -6.2841 11.4860 -4.2975
v  -5.3664 11.2968 -5.7565
v  -6.2841 -9.8450 -5.9617
v  -5.5169 -9.4563 -6.3721
v  -6.2841 9.9517 -5.9617
v  -5.5169 9.5629 -6.3721
v  19.9301 -11.7577 -6.3721
v  28.6108 -11.7577 8.8125
v  23.4943 -11.7577 5.9426
v  21.0184 -11.7577 1.5284
v  59.6009 -11.7577 1.5284
v  59.6009 -11.7577 8.8125
v  20.6245 11.8643 8.8125
v  59.6009 11.8643 8.8125
v  59.6009 11.8643 1.5284
v  20.6245 11.8643 1.5284
v  20.6245 -3.7714 8.8125
v  23.4943 -8.8878 8.8125
v  22.3826 -9.9996 7.0543
v  21.2776 -11.1046 4.1662
v  23.1303 -11.2881 6.3066
v  25.2707 -11.1046 8.1594
v  20.7618 -11.6204 1.5284
v  23.1303 -9.2519 8.3429
v  21.2776 -7.1115 8.1594
v  21.0941 -9.2519 6.3066
v  20.6245 -8.8878 5.9426
v  20.6245 -11.3638 1.5284
v  23.4943 -11.7577 -2.8858
v  28.6108 -11.7577 -5.7556
v  59.6009 -11.7577 -5.7556
v  20.6245 11.8643 -5.7556
v  59.6009 11.8643 -5.7556
v  20.6245 -3.7714 -5.7556
v  23.4943 -8.8878 -5.7556
v  22.3826 -9.9996 -3.9975
v  25.2707 -11.1046 -5.1025
v  23.1303 -11.2881 -3.2498
v  21.2776 -11.1046 -1.1094
v  21.2776 -7.1115 -5.1025
v  23.1303 -9.2519 -5.2860
v  21.0941 -9.2519 -3.2498
v  20.6245 -8.8878 -2.8858
v  -38.3246 -36.8680 8.8125
v  -38.3246 -36.8680 1.5284
v  0.6301 -36.8463 1.5284
v  0.6518 -36.8680 8.8125
v  -35.0764 -13.2459 8.8125
v  0.6518 -13.2459 8.8125
v  0.6518 -13.2459 1.5284
v  -38.3246 -13.2459 1.5284
v  -38.3246 -13.2459 5.5642
v  -36.7128 -13.2459 7.2006
v  -36.7128 -14.8578 8.8125
v  -38.3246 -16.4942 8.8125
v  -37.2518 -14.3188 7.7396
v  -36.1665 -13.7799 8.2785
v  -36.8924 -13.6023 7.3802
v  -37.7907 -13.7799 6.6544
v  -37.7907 -15.4040 8.2785
v  -36.8924 -14.6782 8.4561
v  -37.9683 -14.6782 7.3802
v  -38.3246 -14.8578 7.2006
v  -38.3246 -36.8680 -5.7556
v  0.1661 -36.3823 -5.2700
v  -38.3246 -13.2459 -2.5074
v  0.7305 -13.1672 -5.8344
v  -35.0764 -13.2459 -5.7556
v  -36.7128 -13.2459 -4.1438
v  -36.7128 -14.8578 -5.7556
v  -38.3246 -16.4942 -5.7556
v  -37.2518 -14.3188 -4.6828
v  -37.7907 -13.7799 -3.5975
v  -36.8924 -13.6023 -4.3234
v  -36.1665 -13.7799 -5.2217
v  -36.8924 -14.6782 -5.3993
v  -37.7907 -15.4040 -5.2217
v  -37.9683 -14.6782 -4.3234
v  -38.3246 -14.8578 -4.1438
v  45.4837 -36.8911 8.8125
v  43.6099 -36.8911 6.9668
v  41.7643 -36.8911 5.0930
v  41.7643 -36.8911 1.5284
v  59.4808 -36.8911 1.5284
v  59.4808 -36.8911 8.8125
v  41.7643 -13.2691 8.8125
v  59.4808 -13.2691 8.8125
v  59.4808 -13.2691 1.5284
v  41.7584 -13.2632 1.5284
v  41.7643 -33.1717 8.8125
v  43.6099 -35.0455 8.8125
v  42.9928 -35.6627 7.5840
v  42.3757 -36.2797 6.3413
v  43.4043 -36.4831 7.1725
v  44.2354 -36.2797 8.2011
v  43.4043 -35.2511 8.4044
v  42.3757 -34.4200 8.2011
v  42.1723 -35.2511 7.1725
v  41.7643 -35.0455 6.9668
v  41.7643 -36.8911 -2.0362
v  43.6099 -36.8911 -3.9100
v  45.4837 -36.8911 -5.7556
v  59.4808 -36.8911 -5.7556
v  59.4808 -13.2691 -5.7556
v  41.5684 -13.0732 -5.9515
v  43.6099 -35.0455 -5.7556
v  41.7643 -33.1717 -5.7556
v  42.9928 -35.6627 -4.5272
v  44.2354 -36.2797 -5.1442
v  43.4043 -36.4831 -4.1156
v  42.3757 -36.2797 -3.2845
v  42.3757 -34.4200 -5.1442
v  43.4043 -35.2511 -5.3476
v  42.1723 -35.2511 -4.1156
v  41.7643 -35.0455 -3.9100
v  -59.1713 -36.8911 9.4378
v  -59.1713 -36.8911 1.5284
v  -39.4862 -36.8911 1.5284
v  -39.4862 -36.8911 9.4378
v  -59.1713 -13.2691 9.4378
v  -39.4862 -13.2691 9.4378
v  -39.4862 -13.2691 1.5284
v  -59.1800 -13.2603 1.5284
v  -59.1713 -36.8911 -6.3809
v  -39.4862 -36.8911 -6.3809
v  -59.2256 -13.2147 -6.4353
v  -39.4862 -13.2691 -6.3809
v  1.4885 -36.8680 9.4348
v  1.5063 -36.8502 1.5284
v  40.4649 -36.8680 1.5284
v  40.4649 -36.8680 9.4348
v  5.0680 -13.2459 9.4348
v  40.4649 -13.2459 9.4348
v  40.4791 -13.2317 1.5284
v  1.4885 -13.2459 1.5284
v  1.4885 -13.2459 5.5494
v  3.1627 -13.2459 7.6175
v  3.1627 -14.9202 9.4348
v  1.4885 -16.8255 9.4348
v  2.5887 -14.3462 8.2406
v  3.8051 -13.7728 8.8629
v  2.9721 -13.6007 7.8244
v  2.0154 -13.7728 6.9202
v  2.0154 -15.5626 8.8629
v  2.9721 -14.7295 9.0497
v  1.8433 -14.7295 7.8244
v  1.4885 -14.9202 7.6175
v  1.8357 -36.5208 -6.0308
v  40.4649 -36.8680 -6.3779
v  4.8169 -12.7157 -6.8851
v  2.9513 -12.8137 -4.7555
v  1.4542 -13.2117 -2.5075
v  3.0669 -14.8244 -6.5643
v  40.7209 -12.9899 -6.6340
v  1.4883 -16.8254 -6.3781
v  2.4732 -14.2306 -5.2901
v  1.9089 -13.6663 -3.9535
v  2.7455 -13.3493 -4.9764
v  3.4816 -13.4206 -6.1306
v  2.8443 -14.6018 -6.1234
v  1.9921 -15.5412 -5.8275
v  1.7985 -14.6892 -4.8048
v  1.4611 -14.9068 -4.5730
v  -19.0463 7.4051 1.5284
v  -19.0463 7.4326 -6.3721
# 650 vertices

vn -0.5774 -0.5774 0.5774
vn -0.7071 -0.7071 -0.0000
vn 0.7071 -0.7071 0.0061
vn 0.5774 -0.5774 0.5774
vn -0.5774 0.5774 0.5774
vn 0.5774 0.5774 0.5774
vn 0.7071 0.7071 0.0000
vn -0.7071 0.7071 -0.0000
vn 0.7071 -0.7071 -0.0000
vn 0.3230 0.8896 0.3230
vn 0.7002 0.7002 0.1395
vn 0.7069 0.7069 -0.0222
vn 0.1395 0.7002 0.7002
vn 0.7002 0.1395 0.7002
vn 0.3251 0.3251 0.8880
vn 0.8880 0.3251 0.3251
vn 0.3236 0.8891 0.3236
vn 0.7071 0.7071 -0.0000
vn -0.1486 0.7005 0.6980
vn -0.7069 0.7069 -0.0216
vn -0.7018 0.7018 0.1221
vn -0.3317 0.8941 0.3008
vn -0.3393 0.3393 0.8774
vn -0.7005 0.1486 0.6980
vn -0.7071 -0.7071 0.0125
vn -0.1404 0.1404 0.9801
vn -0.7071 0.0106 0.7071
vn -0.0106 0.7071 0.7071
vn -0.0121 -0.7071 0.7071
vn -0.1633 -0.9730 0.1633
vn -0.7071 -0.7071 0.0121
vn 0.7070 -0.7070 0.0194
vn 0.7071 0.7071 0.0009
vn -0.7071 -0.0121 0.7071
vn -0.1633 -0.1633 0.9730
vn -0.5773 -0.5774 0.5774
vn -0.7001 -0.7001 0.1401
vn -0.7021 0.1188 0.7021
vn -0.1401 -0.7001 0.7001
vn -0.7021 -0.7021 -0.1188
vn -0.7001 -0.1401 0.7001
vn 0.1188 -0.7021 0.7021
vn -0.9730 -0.1633 0.1633
vn -0.5774 0.5773 0.5774
vn -0.1244 0.7016 0.7016
vn -0.7035 -0.1008 0.7035
vn -0.7016 0.7016 0.1244
vn -0.1404 0.9801 0.1404
vn -0.1190 0.9929 -0.0000
vn -0.7072 0.7070 -0.0000
vn -0.7016 0.1244 0.7016
vn -0.7035 0.7035 -0.1008
vn 0.1008 0.7035 0.7035
vn -0.9801 0.1404 0.1404
vn -0.9929 0.1189 0.0013
vn -0.5952 0.5952 0.5399
vn -0.5884 0.5989 0.5432
vn -0.5970 0.5918 0.5416
vn -0.5982 0.5982 0.5332
vn -0.5989 0.5884 0.5432
vn -0.5966 0.5966 0.5368
vn -0.5918 0.5970 0.5417
vn -0.8930 0.3333 0.3023
vn 0.5773 0.5774 0.5773
vn 0.5807 0.5807 0.5706
vn 0.5791 0.5739 0.5791
vn 0.5706 0.5807 0.5807
vn 0.5790 0.5790 0.5740
vn 0.5807 0.5706 0.5807
vn 0.5740 0.5790 0.5790
vn 0.5790 0.5740 0.5790
vn -0.5786 -0.5767 -0.5767
vn 0.5804 -0.5761 -0.5756
vn -0.5774 0.5773 -0.5773
vn 0.5752 0.5815 -0.5752
vn -0.5774 -0.5774 -0.5774
vn 0.5902 -0.5508 -0.5902
vn 0.6319 0.4393 -0.6385
vn 0.1606 0.6885 -0.7072
vn -0.5739 0.5790 -0.5790
vn 0.6947 0.6980 -0.1739
vn 0.6741 0.1684 -0.7191
vn 0.8878 0.2596 -0.3799
vn 0.5774 -0.5774 -0.5774
vn 0.3236 0.8891 -0.3236
vn 0.1395 0.7002 -0.7002
vn -0.5774 0.5774 -0.5774
vn 0.7002 0.7002 -0.1395
vn 0.3251 0.3251 -0.8880
vn 0.7002 0.1395 -0.7002
vn 0.8880 0.3251 -0.3251
vn -0.5881 -0.5560 -0.5873
vn 0.5768 0.5777 -0.5776
vn -0.1738 0.7038 -0.6888
vn -0.7441 0.2443 -0.6218
vn -0.7122 0.6855 -0.1512
vn -0.4018 0.2903 -0.8685
vn -0.7245 0.1652 -0.6692
vn -0.5562 -0.6270 -0.5455
vn 0.5797 -0.5762 -0.5762
vn -0.1344 0.1633 -0.9774
vn -0.0106 0.7071 -0.7070
vn 0.5774 0.5774 -0.5774
vn -0.7033 -0.0826 -0.7060
vn -0.6905 -0.7232 -0.0119
vn -0.1633 -0.9730 -0.1633
vn -0.0222 -0.7078 -0.7060
vn 0.5856 -0.5753 -0.5710
vn -0.5737 0.5848 -0.5734
vn 0.5718 0.5891 -0.5710
vn -0.6928 0.0055 -0.7211
vn -0.1555 -0.1717 -0.9728
vn -0.5643 -0.6017 -0.5652
vn -0.1390 -0.7030 -0.6975
vn -0.7017 0.1200 -0.7023
vn -0.6811 -0.7190 -0.1381
vn -0.6845 -0.1459 -0.7142
vn -0.6855 -0.7095 0.1635
vn 0.1206 -0.7142 -0.6894
vn -0.9694 -0.1817 -0.1653
vn -0.5659 0.5997 -0.5659
vn -0.6995 0.7038 -0.1243
vn -0.7035 -0.1008 -0.7035
vn -0.1243 0.7021 -0.7011
vn -0.1404 0.9801 -0.1404
vn -0.6878 0.7098 0.1520
vn -0.6966 0.1581 -0.6998
vn 0.1497 0.7101 -0.6880
vn -0.9766 0.1660 -0.1367
vn -0.6585 0.5348 -0.5295
vn -0.6115 0.5851 -0.5327
vn -0.6075 0.6308 -0.4827
vn -0.6461 0.5831 -0.4924
vn -0.6953 0.5724 -0.4346
vn -0.6546 0.5356 -0.5335
vn -0.5636 0.5881 -0.5800
vn -0.8567 0.3598 -0.3696
vn 0.6234 0.4537 -0.6369
vn 0.5927 0.4806 -0.6463
vn 0.5617 0.5945 -0.5754
vn 0.5792 0.5528 -0.5991
vn 0.5379 0.5038 -0.6759
vn 0.5468 0.3810 -0.7456
vn 0.6678 0.5505 -0.5009
vn 0.3435 0.5693 -0.7469
vn 0.5773 0.5774 -0.5773
vn 0.5706 0.5807 -0.5807
vn 0.5790 0.5740 -0.5790
vn 0.5807 0.5807 -0.5706
vn 0.5807 0.5706 -0.5807
vn 0.5790 0.5790 -0.5740
vn 0.5740 0.5790 -0.5790
vn 0.7055 0.0757 0.7046
vn 0.1741 0.1701 0.9699
vn 0.0676 -0.0000 0.9977
vn -0.7071 0.0000 0.7071
vn 0.9777 0.2101 -0.0000
vn 0.9767 0.1577 0.1454
vn 0.1741 -0.1701 0.9699
vn 0.7055 -0.0757 0.7046
vn -1.0000 0.0000 -0.0000
vn 0.7335 -0.0000 0.6797
vn 0.3077 0.0000 0.9515
vn 0.3492 0.3255 0.8787
vn 0.6902 0.3250 0.6465
vn 0.9056 0.3040 0.2957
vn 0.9668 0.0000 0.2557
vn 1.0000 0.0000 -0.0000
vn 0.6902 -0.3249 0.6465
vn 0.3492 -0.3255 0.8787
vn 0.9056 -0.3040 0.2957
vn 0.9767 -0.1577 0.1455
vn 0.9777 -0.2101 0.0004
vn 0.0676 -0.0000 -0.9977
vn 0.1741 0.1701 -0.9699
vn 0.7055 0.0757 -0.7046
vn -0.7071 0.0000 -0.7071
vn 0.9767 0.1577 -0.1454
vn 0.7053 -0.0756 -0.7049
vn 0.1741 -0.1701 -0.9699
vn 0.7335 -0.0001 -0.6797
vn 0.6902 0.3250 -0.6465
vn 0.3492 0.3255 -0.8787
vn 0.3077 0.0000 -0.9515
vn 0.9668 -0.0000 -0.2557
vn 0.9056 0.3040 -0.2957
vn 0.3490 -0.3254 -0.8788
vn 0.6902 -0.3249 -0.6466
vn 0.9052 -0.3047 -0.2963
vn 0.9775 -0.1552 -0.1431
vn 0.1633 -0.9730 0.1633
vn 0.0121 -0.7071 0.7071
vn 0.7071 -0.7071 0.0121
vn 0.1635 -0.1635 0.9729
vn 0.7071 -0.0121 0.7071
vn 0.9729 -0.1635 0.1635
vn 0.5774 -0.5773 0.5774
vn 0.1401 -0.7002 0.7001
vn 0.7021 0.1188 0.7021
vn 0.7001 -0.7002 0.1401
vn 0.7001 -0.1401 0.7001
vn 0.7021 -0.7020 -0.1190
vn -0.1190 -0.7020 0.7021
vn 0.1633 -0.9730 -0.1633
vn 0.7071 -0.7071 -0.0121
vn 0.0120 -0.7071 -0.7071
vn 0.1634 -0.1634 -0.9729
vn 0.7071 -0.0121 -0.7071
vn 0.9729 -0.1635 -0.1635
vn 0.5774 -0.5773 -0.5773
vn 0.7001 -0.7002 -0.1401
vn 0.7021 0.1188 -0.7021
vn 0.1401 -0.7001 -0.7001
vn 0.7021 -0.7021 0.1189
vn 0.7001 -0.1401 -0.7002
vn -0.1190 -0.7021 -0.7021
vn 0.7071 -0.7071 0.0009
vn 0.1419 0.9810 0.1327
vn 0.1181 0.9930 0.0000
vn 0.0111 0.7071 0.7070
vn 0.7071 0.0111 0.7070
vn 0.1470 0.1470 0.9781
vn 0.9930 0.1180 0.0000
vn 0.9810 0.1419 0.1327
vn 0.5839 0.5839 0.5640
vn 0.7022 0.7023 0.1172
vn 0.7164 -0.0986 0.6907
vn 0.1282 0.7063 0.6962
vn 0.7032 0.7031 -0.1056
vn 0.7063 0.1282 0.6962
vn -0.0986 0.7164 0.6907
vn -0.5775 -0.5773 -0.5773
vn 0.5777 -0.5774 -0.5769
vn 0.1419 0.9810 -0.1327
vn 0.0111 0.7071 -0.7070
vn 0.1470 0.1470 -0.9781
vn 0.7071 0.0120 -0.7070
vn 0.9809 0.1419 -0.1327
vn 0.5839 0.5839 -0.5640
vn 0.1282 0.7063 -0.6962
vn 0.7164 -0.0986 -0.6907
vn 0.7022 0.7023 -0.1172
vn 0.7064 0.1282 -0.6962
vn 0.7032 0.7031 0.1056
vn -0.0986 0.7164 -0.6907
vn -0.0122 -0.7071 0.7070
vn -0.1434 -0.9828 0.1167
vn -0.7071 -0.7071 0.0078
vn -0.7071 -0.7071 0.0005
vn -0.7071 -0.0122 0.7070
vn -0.1603 -0.1604 0.9739
vn -0.5969 -0.5969 0.5361
vn -0.7033 -0.7034 0.1030
vn -0.7422 0.0933 0.6637
vn -0.1355 -0.7161 0.6848
vn -0.7024 -0.7024 -0.1152
vn -0.7160 -0.1355 0.6848
vn 0.0932 -0.7422 0.6637
vn -0.9828 -0.1434 0.1167
vn -0.7292 -0.6843 -0.0042
vn -0.2456 -0.9660 -0.0804
vn -0.0064 -0.7006 -0.7135
vn 0.6007 -0.5650 -0.5656
vn -0.5766 0.5788 -0.5766
vn -0.2690 -0.1337 -0.9538
vn -0.7256 -0.0082 -0.6881
vn -0.6590 -0.5633 -0.4984
vn -0.3269 -0.6865 -0.6495
vn -0.7743 0.1039 -0.6243
vn -0.7288 -0.6803 -0.0780
vn -0.7347 -0.1283 -0.6662
vn -0.7321 -0.6641 0.1517
vn 0.0195 -0.7487 -0.6626
vn -0.9878 -0.1263 -0.0908
vn -0.5759 -0.5759 0.5802
vn -0.7071 -0.7066 0.0254
vn 0.7075 -0.7067 -0.0000
vn 0.3066 0.9011 0.3066
vn 0.7059 0.7059 0.0579
vn -0.7065 0.7077 -0.0000
vn 0.0579 0.7059 0.7059
vn 0.7059 0.0579 0.7059
vn 0.3066 0.3066 0.9011
vn 0.9011 0.3066 0.3066
vn 0.6596 0.6596 0.3605
vn 0.6919 0.2060 0.6919
vn 0.3605 0.6596 0.6595
vn 0.6919 0.6919 0.2062
vn 0.6596 0.3605 0.6595
vn 0.2060 0.6919 0.6919
vn -0.5845 -0.5811 -0.5663
vn 0.5809 -0.5756 -0.5756
vn 0.3066 0.9011 -0.3066
vn 0.0579 0.7059 -0.7059
vn -0.5744 0.5832 -0.5744
vn 0.7059 0.7059 -0.0579
vn 0.7059 0.0579 -0.7059
vn 0.3066 0.3066 -0.9011
vn 0.9011 0.3066 -0.3066
vn 0.3605 0.6596 -0.6596
vn 0.6919 0.2061 -0.6919
vn 0.6596 0.6596 -0.3605
vn 0.6596 0.3605 -0.6596
vn 0.6919 0.6919 -0.2061
vn 0.2061 0.6919 -0.6919
vn 0.1575 -0.9764 0.1480
vn 0.0747 -0.7055 0.7048
vn 0.0000 -1.0000 -0.0000
vn 0.0000 -0.9986 0.0537
vn 0.1574 0.9764 0.1479
vn 0.0000 0.9986 0.0537
vn 0.0000 1.0000 -0.0000
vn 0.0747 0.7055 0.7048
vn 0.0000 0.0665 0.9978
vn 0.1676 0.1716 0.9708
vn 0.7071 0.0000 0.7071
vn -0.0747 0.7055 0.7048
vn -0.1574 0.9764 0.1479
vn -0.1676 0.1716 0.9708
vn 0.0000 -0.7289 0.6846
vn 0.3225 -0.6871 0.6511
vn 0.3035 -0.9042 0.3004
vn -0.0000 -0.9656 0.2600
vn 0.0000 0.7289 0.6846
vn -0.0000 0.9656 0.2600
vn 0.3035 0.9042 0.3004
vn 0.3225 0.6871 0.6511
vn -0.0000 -0.3028 0.9530
vn 0.3211 -0.3445 0.8822
vn 0.1676 -0.1716 0.9708
vn 0.0000 -0.0664 0.9978
vn 0.3211 0.3445 0.8822
vn -0.0000 0.3028 0.9530
vn -0.3035 -0.9042 0.3004
vn -0.3225 -0.6871 0.6511
vn -0.1575 -0.9764 0.1480
vn -0.0747 -0.7055 0.7048
vn -0.3225 0.6871 0.6511
vn -0.3035 0.9042 0.3004
vn -0.3211 -0.3445 0.8822
vn -0.1676 -0.1716 0.9708
vn -0.3211 0.3445 0.8822
vn 0.1575 -0.9764 -0.1480
vn 0.0000 -0.9986 -0.0537
vn 0.0747 -0.7055 -0.7048
vn 0.1575 0.9764 -0.1479
vn 0.0747 0.7055 -0.7048
vn 0.0000 0.9986 -0.0537
vn 0.1676 -0.1716 -0.9708
vn 0.0000 -0.0665 -0.9978
vn 0.7071 0.0000 -0.7071
vn -0.0747 0.7055 -0.7048
vn -0.1574 0.9764 -0.1479
vn 0.0000 0.0000 -1.0000
vn 0.0000 -0.7289 -0.6847
vn -0.0000 -0.9656 -0.2600
vn 0.3035 -0.9042 -0.3004
vn 0.3225 -0.6871 -0.6511
vn 0.0000 0.7289 -0.6847
vn 0.3225 0.6871 -0.6511
vn 0.3035 0.9042 -0.3004
vn -0.0000 0.9656 -0.2600
vn 0.3212 -0.3445 -0.8821
vn -0.0000 -0.3028 -0.9530
vn -0.0000 0.3028 -0.9530
vn 0.3212 0.3445 -0.8822
vn 0.1676 0.1716 -0.9708
vn 0.0000 0.0665 -0.9978
vn -0.3225 -0.6871 -0.6511
vn -0.3035 -0.9042 -0.3004
vn -0.1575 -0.9764 -0.1480
vn -0.0747 -0.7055 -0.7048
vn -0.3035 0.9042 -0.3004
vn -0.3225 0.6871 -0.6511
vn -0.3212 -0.3445 -0.8821
vn -0.1676 -0.1716 -0.9708
vn -0.3212 0.3445 -0.8822
vn -0.1676 0.1716 -0.9708
vn -0.0428 -0.7065 0.7065
vn -0.2925 -0.9104 0.2925
vn -0.3143 -0.9493 -0.0000
vn -0.7065 -0.0428 0.7065
vn -0.2925 -0.2924 0.9105
vn -0.5774 -0.5774 0.5773
vn -0.6732 -0.6732 0.3059
vn -0.7069 -0.0264 0.7069
vn -0.3059 -0.6732 0.6732
vn -0.7069 -0.7069 0.0264
vn -0.6732 -0.3059 0.6732
vn -0.0264 -0.7069 0.7068
vn -0.9105 -0.2925 0.2925
vn -0.9493 -0.3143 -0.0000
vn -0.2925 -0.9104 -0.2925
vn -0.0428 -0.7065 -0.7065
vn -0.7065 -0.0428 -0.7065
vn -0.2925 -0.2925 -0.9105
vn -0.3059 -0.6732 -0.6732
vn -0.7069 -0.0263 -0.7069
vn -0.6732 -0.6732 -0.3059
vn -0.6732 -0.3059 -0.6732
vn -0.7069 -0.7069 -0.0264
vn -0.0264 -0.7069 -0.7069
vn -0.9105 -0.2924 -0.2925
vn -0.7070 -0.7072 -0.0000
vn 0.7061 -0.7064 -0.0492
vn 0.5781 -0.5781 0.5758
vn -0.1395 0.7002 0.7002
vn 0.7074 0.7068 0.0076
vn -0.7002 0.7002 0.1395
vn -0.3251 0.8880 0.3251
vn -0.3251 0.3251 0.8880
vn -0.7002 0.1395 0.7002
vn -0.5773 0.5774 0.5774
vn -0.5706 0.5807 0.5807
vn -0.5790 0.5741 0.5790
vn -0.5807 0.5807 0.5706
vn -0.5807 0.5706 0.5807
vn -0.5790 0.5790 0.5741
vn -0.5742 0.5789 0.5789
vn -0.8881 0.3251 0.3251
vn -0.5707 -0.5806 -0.5806
vn 0.5588 -0.5685 -0.6038
vn -0.7002 0.7002 -0.1395
vn 0.5852 0.5680 -0.5787
vn -0.1416 0.7000 -0.7000
vn -0.3251 0.8880 -0.3251
vn -0.3251 0.3251 -0.8881
vn -0.7002 0.1395 -0.7002
vn -0.5773 0.5774 -0.5773
vn -0.5807 0.5807 -0.5706
vn -0.5790 0.5740 -0.5790
vn -0.5706 0.5807 -0.5807
vn -0.5789 0.5790 -0.5741
vn -0.5807 0.5706 -0.5807
vn -0.5741 0.5790 -0.5789
vn -0.8881 0.3251 -0.3251
vn -0.1395 -0.7002 0.7002
vn -0.3251 -0.8880 0.3251
vn -0.7002 -0.7002 0.1395
vn -0.7069 -0.7073 -0.0000
vn -0.5771 0.5771 0.5778
vn 0.7072 0.7070 -0.0000
vn -0.7070 0.7070 0.0187
vn -0.7002 -0.1395 0.7002
vn -0.3252 -0.3252 0.8880
vn -0.5807 -0.5807 0.5706
vn -0.5790 -0.5741 0.5790
vn -0.5706 -0.5807 0.5807
vn -0.5790 -0.5790 0.5741
vn -0.5807 -0.5706 0.5807
vn -0.5741 -0.5790 0.5790
vn -0.8880 -0.3251 0.3251
vn -0.7002 -0.7002 -0.1395
vn -0.3251 -0.8880 -0.3251
vn -0.1395 -0.7002 -0.7002
vn 0.5831 0.5745 -0.5745
vn -0.5808 0.5817 -0.5695
vn -0.3251 -0.3251 -0.8880
vn -0.6992 -0.1487 -0.6992
vn -0.5774 -0.5773 -0.5774
vn -0.5706 -0.5807 -0.5807
vn -0.5790 -0.5741 -0.5790
vn -0.5807 -0.5807 -0.5706
vn -0.5807 -0.5706 -0.5807
vn -0.5790 -0.5790 -0.5741
vn -0.5741 -0.5790 -0.5790
vn -0.8880 -0.3251 -0.3251
vn -0.5771 0.5771 0.5779
vn 0.7073 0.7069 -0.0000
vn -0.7071 0.7071 0.0048
vn -0.5767 -0.5786 -0.5767
vn -0.5780 0.5784 -0.5757
vn 0.5788 0.5766 -0.5766
vn -0.5779 -0.5779 0.5762
vn -0.7066 -0.7068 -0.0319
vn 0.7067 -0.7075 -0.0000
vn -0.1219 0.7027 0.7010
vn 0.5769 0.5769 0.5783
vn 0.7070 0.7068 0.0224
vn -0.7075 0.7067 0.0060
vn -0.7034 0.7034 0.1021
vn -0.3316 0.8930 0.3044
vn -0.3369 0.3369 0.8792
vn -0.7027 0.1219 0.7010
vn -0.5927 0.5926 0.5454
vn -0.5334 0.6221 0.5730
vn -0.6125 0.5530 0.5648
vn -0.6175 0.6175 0.4871
vn -0.6222 0.5334 0.5731
vn -0.6090 0.6090 0.5082
vn -0.5530 0.6124 0.5649
vn -0.8930 0.3316 0.3044
vn -0.5656 -0.5727 -0.5934
vn 0.5698 -0.5853 -0.5769
vn -0.1548 0.6832 -0.7136
vn -0.2159 0.9749 -0.0537
vn -0.7581 0.6486 -0.0681
vn -0.6880 0.4914 -0.5340
vn 0.5915 0.5774 -0.5628
vn -0.7388 0.0947 -0.6672
vn -0.7455 0.4543 -0.4877
vn -0.7645 0.4882 -0.4210
vn -0.7532 0.4328 -0.4954
vn -0.6456 0.4921 -0.5839
vn -0.6675 0.3774 -0.6419
vn -0.6979 0.4912 -0.5212
vn -0.6578 0.5175 -0.5473
vn -0.9235 0.2767 -0.2655
# 508 vertex normals

vt 0.4633 0.6110 0.0000
vt 0.4949 0.6111 0.0000
vt 0.4946 0.7230 0.0000
vt 0.4630 0.7230 0.0000
vt 0.1264 0.6348 0.0000
vt 0.2384 0.6348 0.0000
vt 0.2384 0.6664 0.0000
vt 0.1264 0.6664 0.0000
vt 0.8124 0.2518 0.0000
vt 0.9243 0.2518 0.0000
vt 0.9243 0.2857 0.0000
vt 0.8124 0.2857 0.0000
vt 0.6025 0.7225 0.0000
vt 0.6340 0.7226 0.0000
vt 0.6339 0.7565 0.0000
vt 0.6023 0.7564 0.0000
vt 0.7671 0.4073 0.0000
vt 0.7671 0.4356 0.0000
vt 0.6551 0.4356 0.0000
vt 0.6551 0.4073 0.0000
vt 0.7632 0.3451 0.0000
vt 0.7671 0.3490 0.0000
vt 0.7671 0.3694 0.0000
vt 0.6551 0.3694 0.0000
vt 0.6551 0.3412 0.0000
vt 0.7592 0.3412 0.0000
vt 0.7729 0.1345 0.0000
vt 0.8849 0.1345 0.0000
vt 0.8849 0.1606 0.0000
vt 0.8810 0.1646 0.0000
vt 0.8770 0.1685 0.0000
vt 0.7729 0.1685 0.0000
vt 0.9266 0.6411 0.0000
vt 0.9227 0.6371 0.0000
vt 0.9227 0.6111 0.0000
vt 0.9509 0.6111 0.0000
vt 0.9509 0.6450 0.0000
vt 0.9305 0.6450 0.0000
vt 0.5927 0.7682 0.0000
vt 0.5644 0.7682 0.0000
vt 0.5644 0.6563 0.0000
vt 0.5927 0.6563 0.0000
vt 0.7088 0.6618 0.0000
vt 0.7142 0.6673 0.0000
vt 0.7142 0.6846 0.0000
vt 0.6023 0.6846 0.0000
vt 0.6023 0.6563 0.0000
vt 0.7032 0.6563 0.0000
vt 0.2941 0.8049 0.0000
vt 0.4061 0.8049 0.0000
vt 0.4061 0.8278 0.0000
vt 0.4006 0.8333 0.0000
vt 0.3950 0.8388 0.0000
vt 0.2941 0.8388 0.0000
vt 0.9392 0.3237 0.0000
vt 0.9337 0.3182 0.0000
vt 0.9337 0.2953 0.0000
vt 0.9620 0.2953 0.0000
vt 0.9620 0.3292 0.0000
vt 0.9447 0.3292 0.0000
vt 0.7630 0.0098 0.0000
vt 0.7630 0.0409 0.0000
vt 0.6511 0.0409 0.0000
vt 0.6511 0.0098 0.0000
vt 0.2478 0.7520 0.0000
vt 0.2477 0.6506 0.0000
vt 0.2789 0.6505 0.0000
vt 0.2790 0.7624 0.0000
vt 0.2594 0.7625 0.0000
vt 0.2536 0.7573 0.0000
vt 0.8176 0.3240 0.0000
vt 0.8124 0.3188 0.0000
vt 0.8124 0.2953 0.0000
vt 0.9243 0.2953 0.0000
vt 0.9243 0.3292 0.0000
vt 0.8229 0.3292 0.0000
vt 0.9403 0.5391 0.0000
vt 0.9403 0.5702 0.0000
vt 0.9064 0.5702 0.0000
vt 0.9064 0.5391 0.0000
vt 0.7630 0.1485 0.0000
vt 0.7631 0.1767 0.0000
vt 0.6512 0.1772 0.0000
vt 0.6511 0.1490 0.0000
vt 0.7812 0.0789 0.0000
vt 0.7724 0.0564 0.0000
vt 0.7724 0.0539 0.0000
vt 0.8843 0.0539 0.0000
vt 0.8843 0.0878 0.0000
vt 0.8038 0.0878 0.0000
vt 0.2634 0.9821 0.0000
vt 0.2634 0.9538 0.0000
vt 0.2973 0.9538 0.0000
vt 0.2973 0.9821 0.0000
vt 0.7466 0.0824 0.0000
vt 0.7591 0.0875 0.0000
vt 0.7641 0.1001 0.0000
vt 0.7641 0.1108 0.0000
vt 0.6521 0.1100 0.0000
vt 0.6523 0.0817 0.0000
vt 0.6511 0.2153 0.0000
vt 0.7630 0.2152 0.0000
vt 0.7630 0.2435 0.0000
vt 0.6511 0.2435 0.0000
vt 0.7901 0.2082 0.0000
vt 0.8843 0.2083 0.0000
vt 0.8844 0.2422 0.0000
vt 0.7724 0.2422 0.0000
vt 0.7724 0.2258 0.0000
vt 0.7775 0.2133 0.0000
vt 0.8948 0.0106 0.0000
vt 0.9231 0.0106 0.0000
vt 0.9231 0.0445 0.0000
vt 0.8948 0.0445 0.0000
vt 0.6809 0.3017 0.0000
vt 0.6809 0.3167 0.0000
vt 0.3417 0.3167 0.0000
vt 0.3417 0.3017 0.0000
vt 0.3023 0.6409 0.0000
vt 0.3023 0.3017 0.0000
vt 0.3173 0.3017 0.0000
vt 0.3173 0.6409 0.0000
vt 0.3023 0.0098 0.0000
vt 0.6415 0.0098 0.0000
vt 0.6415 0.2924 0.0000
vt 0.3023 0.2924 0.0000
vt 0.6244 0.3412 0.0000
vt 0.6244 0.3562 0.0000
vt 0.3417 0.3562 0.0000
vt 0.3417 0.3412 0.0000
vt 0.7623 0.0844 0.0000
vt 0.7636 0.0918 0.0000
vt 0.7600 0.0866 0.0000
vt 0.7548 0.0830 0.0000
vt 0.7744 0.2101 0.0000
vt 0.7818 0.2088 0.0000
vt 0.7766 0.2123 0.0000
vt 0.7730 0.2175 0.0000
vt 0.9758 0.7330 0.0000
vt 0.9772 0.7405 0.0000
vt 0.9736 0.7353 0.0000
vt 0.9684 0.7317 0.0000
vt 0.9727 0.7362 0.0000
vt 0.9601 0.7312 0.0000
vt 0.9777 0.7488 0.0000
vt 0.3227 0.6908 0.0000
vt 0.3361 0.6885 0.0000
vt 0.3267 0.6948 0.0000
vt 0.3204 0.7042 0.0000
vt 0.3284 0.6965 0.0000
vt 0.3207 0.7159 0.0000
vt 0.3197 0.7159 0.0000
vt 0.3509 0.6877 0.0000
vt 0.7755 0.0847 0.0000
vt 0.7732 0.0712 0.0000
vt 0.7795 0.0807 0.0000
vt 0.7889 0.0869 0.0000
vt 0.0406 0.9248 0.0000
vt 0.0431 0.9382 0.0000
vt 0.0367 0.9288 0.0000
vt 0.0271 0.9227 0.0000
vt 0.0350 0.9306 0.0000
vt 0.0123 0.9221 0.0000
vt 0.0440 0.9499 0.0000
vt 0.0429 0.9499 0.0000
vt 0.2505 0.7603 0.0000
vt 0.2492 0.7562 0.0000
vt 0.2525 0.7583 0.0000
vt 0.2549 0.7614 0.0000
vt 0.8144 0.3272 0.0000
vt 0.8134 0.3230 0.0000
vt 0.8165 0.3251 0.0000
vt 0.8186 0.3282 0.0000
vt 0.3810 0.9062 0.0000
vt 0.3821 0.9106 0.0000
vt 0.3790 0.9082 0.0000
vt 0.3769 0.9048 0.0000
vt 0.3780 0.9092 0.0000
vt 0.3727 0.9035 0.0000
vt 0.3832 0.9150 0.0000
vt 0.7654 0.3428 0.0000
vt 0.7662 0.3459 0.0000
vt 0.7639 0.3443 0.0000
vt 0.7623 0.3420 0.0000
vt 0.8832 0.1668 0.0000
vt 0.8801 0.1676 0.0000
vt 0.8817 0.1653 0.0000
vt 0.8841 0.1637 0.0000
vt 0.9243 0.6433 0.0000
vt 0.9235 0.6402 0.0000
vt 0.9258 0.6418 0.0000
vt 0.9274 0.6442 0.0000
vt 0.7119 0.6586 0.0000
vt 0.7131 0.6630 0.0000
vt 0.7098 0.6607 0.0000
vt 0.7076 0.6574 0.0000
vt 0.4038 0.8365 0.0000
vt 0.3994 0.8376 0.0000
vt 0.4016 0.8344 0.0000
vt 0.4049 0.8321 0.0000
vt 0.9360 0.3269 0.0000
vt 0.9349 0.3225 0.0000
vt 0.9381 0.3248 0.0000
vt 0.9404 0.3281 0.0000
vt 0.9258 0.2082 0.0000
vt 0.9573 0.2082 0.0000
vt 0.9573 0.2422 0.0000
vt 0.9258 0.2422 0.0000
vt 0.4211 0.9320 0.0000
vt 0.4493 0.9320 0.0000
vt 0.4493 0.9659 0.0000
vt 0.4211 0.9659 0.0000
vt 0.9620 0.2518 0.0000
vt 0.9902 0.2518 0.0000
vt 0.9902 0.2857 0.0000
vt 0.9620 0.2857 0.0000
vt 0.3832 0.9347 0.0000
vt 0.3493 0.9347 0.0000
vt 0.3493 0.9035 0.0000
vt 0.4314 0.6876 0.0000
vt 0.4315 0.7159 0.0000
vt 0.0102 0.9504 0.0000
vt 0.0098 0.9221 0.0000
vt 0.9777 0.7651 0.0000
vt 0.9494 0.7651 0.0000
vt 0.9495 0.7312 0.0000
vt 0.0248 0.6412 0.0000
vt 0.0098 0.6412 0.0000
vt 0.0098 0.3586 0.0000
vt 0.0248 0.3586 0.0000
vt 0.5264 0.6112 0.0000
vt 0.5264 0.7234 0.0000
vt 0.1264 0.6979 0.0000
vt 0.2384 0.6979 0.0000
vt 0.5193 0.8451 0.0000
vt 0.4854 0.8452 0.0000
vt 0.4851 0.7333 0.0000
vt 0.5193 0.7329 0.0000
vt 0.6658 0.7225 0.0000
vt 0.6654 0.7566 0.0000
vt 0.7671 0.4638 0.0000
vt 0.6551 0.4638 0.0000
vt 0.7628 0.3934 0.0000
vt 0.7589 0.3970 0.0000
vt 0.6551 0.3977 0.0000
vt 0.7664 0.3895 0.0000
vt 0.0658 0.9126 0.0000
vt 0.0318 0.9127 0.0000
vt 0.0325 0.8089 0.0000
vt 0.0405 0.8019 0.0000
vt 0.0658 0.8008 0.0000
vt 0.9749 0.6406 0.0000
vt 0.9710 0.6443 0.0000
vt 0.9792 0.6110 0.0000
vt 0.9780 0.6364 0.0000
vt 0.5362 0.7682 0.0000
vt 0.5362 0.6563 0.0000
vt 0.7088 0.7073 0.0000
vt 0.7032 0.7128 0.0000
vt 0.6023 0.7128 0.0000
vt 0.7142 0.7018 0.0000
vt 0.5625 0.8785 0.0000
vt 0.5571 0.8840 0.0000
vt 0.5515 0.8895 0.0000
vt 0.5286 0.8895 0.0000
vt 0.5286 0.7776 0.0000
vt 0.5625 0.7776 0.0000
vt 0.9848 0.3237 0.0000
vt 0.9792 0.3292 0.0000
vt 0.9902 0.2953 0.0000
vt 0.9902 0.3182 0.0000
vt 0.7630 0.0721 0.0000
vt 0.6511 0.0721 0.0000
vt 0.3100 0.6505 0.0000
vt 0.3100 0.7519 0.0000
vt 0.3041 0.7570 0.0000
vt 0.2983 0.7619 0.0000
vt 0.8049 0.3420 0.0000
vt 0.8103 0.3470 0.0000
vt 0.8103 0.4485 0.0000
vt 0.7764 0.4484 0.0000
vt 0.7764 0.3365 0.0000
vt 0.7994 0.3375 0.0000
vt 0.9403 0.6014 0.0000
vt 0.9064 0.6014 0.0000
vt 0.7638 0.2055 0.0000
vt 0.6513 0.2055 0.0000
vt 0.4497 0.8355 0.0000
vt 0.4410 0.8129 0.0000
vt 0.4414 0.7323 0.0000
vt 0.4753 0.7325 0.0000
vt 0.4753 0.8449 0.0000
vt 0.4722 0.8452 0.0000
vt 0.2634 0.9256 0.0000
vt 0.2973 0.9256 0.0000
vt 0.7640 0.1216 0.0000
vt 0.7588 0.1341 0.0000
vt 0.7462 0.1390 0.0000
vt 0.6511 0.1390 0.0000
vt 0.6511 0.2718 0.0000
vt 0.7631 0.2718 0.0000
vt 0.8853 0.0281 0.0000
vt 0.8851 0.0445 0.0000
vt 0.7731 0.0445 0.0000
vt 0.7724 0.0098 0.0000
vt 0.8674 0.0106 0.0000
vt 0.8800 0.0156 0.0000
vt 0.9521 0.0098 0.0000
vt 0.9514 0.0445 0.0000
vt 0.6809 0.3317 0.0000
vt 0.3417 0.3317 0.0000
vt 0.3323 0.6409 0.0000
vt 0.3323 0.3017 0.0000
vt 0.2924 0.3490 0.0000
vt 0.0098 0.3490 0.0000
vt 0.0098 0.0098 0.0000
vt 0.2924 0.0098 0.0000
vt 0.6244 0.3712 0.0000
vt 0.3417 0.3712 0.0000
vt 0.7619 0.1373 0.0000
vt 0.7544 0.1385 0.0000
vt 0.7597 0.1350 0.0000
vt 0.7633 0.1299 0.0000
vt 0.8831 0.0123 0.0000
vt 0.8847 0.0198 0.0000
vt 0.8809 0.0146 0.0000
vt 0.8757 0.0111 0.0000
vt 0.9230 0.7329 0.0000
vt 0.9305 0.7316 0.0000
vt 0.9252 0.7352 0.0000
vt 0.9215 0.7404 0.0000
vt 0.9262 0.7362 0.0000
vt 0.9388 0.7312 0.0000
vt 0.9209 0.7487 0.0000
vt 0.3227 0.7411 0.0000
vt 0.3204 0.7276 0.0000
vt 0.3267 0.7371 0.0000
vt 0.3361 0.7433 0.0000
vt 0.3284 0.7353 0.0000
vt 0.3509 0.7442 0.0000
vt 0.4439 0.8411 0.0000
vt 0.4418 0.8277 0.0000
vt 0.4480 0.8372 0.0000
vt 0.4572 0.8439 0.0000
vt 0.0416 0.9750 0.0000
vt 0.0283 0.9780 0.0000
vt 0.0374 0.9711 0.0000
vt 0.0435 0.9616 0.0000
vt 0.0357 0.9695 0.0000
vt 0.0133 0.9795 0.0000
vt 0.3069 0.7600 0.0000
vt 0.3025 0.7609 0.0000
vt 0.3050 0.7579 0.0000
vt 0.3084 0.7559 0.0000
vt 0.8077 0.3387 0.0000
vt 0.8090 0.3429 0.0000
vt 0.8057 0.3410 0.0000
vt 0.8034 0.3380 0.0000
vt 0.3803 0.9627 0.0000
vt 0.3761 0.9639 0.0000
vt 0.3783 0.9606 0.0000
vt 0.3815 0.9583 0.0000
vt 0.3776 0.9597 0.0000
vt 0.3723 0.9649 0.0000
vt 0.3826 0.9540 0.0000
vt 0.7648 0.3955 0.0000
vt 0.7617 0.3963 0.0000
vt 0.7633 0.3940 0.0000
vt 0.7657 0.3924 0.0000
vt 0.0347 0.8031 0.0000
vt 0.0379 0.8026 0.0000
vt 0.0361 0.8048 0.0000
vt 0.0336 0.8062 0.0000
vt 0.0365 0.8052 0.0000
vt 0.9770 0.6424 0.0000
vt 0.9739 0.6435 0.0000
vt 0.9754 0.6410 0.0000
vt 0.9776 0.6392 0.0000
vt 0.7119 0.7105 0.0000
vt 0.7076 0.7117 0.0000
vt 0.7098 0.7084 0.0000
vt 0.7131 0.7061 0.0000
vt 0.5602 0.8872 0.0000
vt 0.5559 0.8884 0.0000
vt 0.5581 0.8851 0.0000
vt 0.5614 0.8828 0.0000
vt 0.9879 0.3269 0.0000
vt 0.9836 0.3281 0.0000
vt 0.9858 0.3248 0.0000
vt 0.9891 0.3225 0.0000
vt 0.8942 0.2422 0.0000
vt 0.8942 0.2082 0.0000
vt 0.3928 0.9659 0.0000
vt 0.3928 0.9320 0.0000
vt 0.9337 0.2857 0.0000
vt 0.9337 0.2518 0.0000
vt 0.3493 0.9658 0.0000
vt 0.4315 0.7442 0.0000
vt 0.0102 0.9792 0.0000
vt 0.9212 0.7651 0.0000
vt 0.0398 0.3586 0.0000
vt 0.0398 0.6412 0.0000
vt 0.2294 0.7074 0.0000
vt 0.2294 0.7304 0.0000
vt 0.1728 0.7304 0.0000
vt 0.1728 0.7074 0.0000
vt 0.1311 0.9000 0.0000
vt 0.1876 0.9000 0.0000
vt 0.1876 0.9231 0.0000
vt 0.1311 0.9231 0.0000
vt 0.8204 0.3388 0.0000
vt 0.8768 0.3388 0.0000
vt 0.8769 0.3497 0.0000
vt 0.8659 0.3622 0.0000
vt 0.8534 0.3735 0.0000
vt 0.8205 0.3733 0.0000
vt 0.8752 0.8835 0.0000
vt 0.8527 0.8879 0.0000
vt 0.8462 0.8562 0.0000
vt 0.8586 0.8629 0.0000
vt 0.8731 0.8728 0.0000
vt 0.8657 0.3850 0.0000
vt 0.8765 0.3978 0.0000
vt 0.8764 0.4075 0.0000
vt 0.8200 0.4067 0.0000
vt 0.8748 0.7309 0.0000
vt 0.8414 0.7309 0.0000
vt 0.8414 0.7078 0.0000
vt 0.8748 0.7078 0.0000
vt 0.8728 0.3737 0.0000
vt 0.8637 0.3736 0.0000
vt 0.8682 0.3661 0.0000
vt 0.8748 0.3618 0.0000
vt 0.8634 0.8501 0.0000
vt 0.8682 0.8614 0.0000
vt 0.8602 0.8586 0.0000
vt 0.8537 0.8521 0.0000
vt 0.8457 0.8537 0.0000
vt 0.8746 0.3856 0.0000
vt 0.8681 0.3812 0.0000
vt 0.8572 0.8437 0.0000
vt 0.8634 0.8379 0.0000
vt 0.8541 0.8403 0.0000
vt 0.8635 0.8255 0.0000
vt 0.8452 0.8512 0.0000
vt 0.9093 0.7078 0.0000
vt 0.9093 0.7309 0.0000
vt 0.8390 0.8206 0.0000
vt 0.8615 0.8159 0.0000
vt 0.2294 0.7535 0.0000
vt 0.1728 0.7535 0.0000
vt 0.1311 0.9462 0.0000
vt 0.1876 0.9462 0.0000
vt 0.3757 0.4813 0.0000
vt 0.3870 0.4688 0.0000
vt 0.3995 0.4578 0.0000
vt 0.4104 0.4579 0.0000
vt 0.4104 0.5143 0.0000
vt 0.3759 0.5142 0.0000
vt 0.8280 0.8820 0.0000
vt 0.8374 0.8671 0.0000
vt 0.8302 0.8927 0.0000
vt 0.3425 0.5147 0.0000
vt 0.3417 0.4583 0.0000
vt 0.3515 0.4581 0.0000
vt 0.3642 0.4690 0.0000
vt 0.8748 0.6847 0.0000
vt 0.8414 0.6847 0.0000
vt 0.3755 0.4618 0.0000
vt 0.3874 0.4599 0.0000
vt 0.3831 0.4665 0.0000
vt 0.3756 0.4710 0.0000
vt 0.8280 0.8573 0.0000
vt 0.8377 0.8553 0.0000
vt 0.8343 0.8638 0.0000
vt 0.8280 0.8696 0.0000
vt 0.3680 0.4666 0.0000
vt 0.3636 0.4601 0.0000
vt 0.8233 0.8460 0.0000
vt 0.8313 0.8489 0.0000
vt 0.8328 0.8446 0.0000
vt 0.8184 0.8346 0.0000
vt 0.9093 0.6847 0.0000
vt 0.8165 0.8250 0.0000
vt 0.3227 0.7569 0.0000
vt 0.3304 0.7538 0.0000
vt 0.4316 0.7538 0.0000
vt 0.4316 0.7747 0.0000
vt 0.3197 0.7747 0.0000
vt 0.3197 0.7645 0.0000
vt 0.6023 0.7718 0.0000
vt 0.7142 0.7718 0.0000
vt 0.7142 0.7927 0.0000
vt 0.6023 0.7927 0.0000
vt 0.6938 0.5050 0.0000
vt 0.6968 0.5126 0.0000
vt 0.6968 0.5698 0.0000
vt 0.5849 0.5698 0.0000
vt 0.5849 0.5019 0.0000
vt 0.6861 0.5019 0.0000
vt 0.6760 0.8952 0.0000
vt 0.6791 0.8875 0.0000
vt 0.6867 0.8844 0.0000
vt 0.6970 0.8844 0.0000
vt 0.6969 0.9523 0.0000
vt 0.6760 0.9523 0.0000
vt 0.3208 0.7549 0.0000
vt 0.3254 0.7541 0.0000
vt 0.3222 0.7563 0.0000
vt 0.3200 0.7595 0.0000
vt 0.6957 0.5031 0.0000
vt 0.6965 0.5076 0.0000
vt 0.6943 0.5044 0.0000
vt 0.6911 0.5022 0.0000
vt 0.6771 0.8856 0.0000
vt 0.6817 0.8848 0.0000
vt 0.6785 0.8870 0.0000
vt 0.6763 0.8902 0.0000
vt 0.9088 0.5297 0.0000
vt 0.8879 0.5297 0.0000
vt 0.8879 0.4619 0.0000
vt 0.9088 0.4619 0.0000
vt 0.3227 0.7926 0.0000
vt 0.3197 0.7849 0.0000
vt 0.4316 0.7956 0.0000
vt 0.3304 0.7956 0.0000
vt 0.6023 0.8136 0.0000
vt 0.7142 0.8136 0.0000
vt 0.5810 0.4895 0.0000
vt 0.5779 0.4818 0.0000
vt 0.5779 0.3806 0.0000
vt 0.6458 0.3806 0.0000
vt 0.6458 0.4926 0.0000
vt 0.5887 0.4926 0.0000
vt 0.7072 0.8845 0.0000
vt 0.7149 0.8876 0.0000
vt 0.7179 0.8952 0.0000
vt 0.7178 0.9523 0.0000
vt 0.3208 0.7945 0.0000
vt 0.3200 0.7899 0.0000
vt 0.3222 0.7931 0.0000
vt 0.3254 0.7953 0.0000
vt 0.5791 0.4914 0.0000
vt 0.5783 0.4869 0.0000
vt 0.5804 0.4900 0.0000
vt 0.5836 0.4922 0.0000
vt 0.7168 0.8857 0.0000
vt 0.7176 0.8902 0.0000
vt 0.7154 0.8870 0.0000
vt 0.7123 0.8848 0.0000
vt 0.9297 0.4619 0.0000
vt 0.9297 0.5297 0.0000
vt 0.2483 0.4810 0.0000
vt 0.2703 0.4810 0.0000
vt 0.2703 0.5930 0.0000
vt 0.2483 0.5930 0.0000
vt 0.8107 0.5888 0.0000
vt 0.8157 0.6023 0.0000
vt 0.7068 0.6023 0.0000
vt 0.7068 0.5803 0.0000
vt 0.7901 0.5803 0.0000
vt 0.1264 0.5576 0.0000
vt 0.2385 0.5576 0.0000
vt 0.2383 0.5969 0.0000
vt 0.2302 0.6174 0.0000
vt 0.2097 0.6255 0.0000
vt 0.1264 0.6254 0.0000
vt 0.9053 0.9506 0.0000
vt 0.9053 0.8858 0.0000
vt 0.9188 0.8909 0.0000
vt 0.9273 0.9114 0.0000
vt 0.9273 0.9506 0.0000
vt 0.8159 0.5834 0.0000
vt 0.8180 0.5962 0.0000
vt 0.8123 0.5871 0.0000
vt 0.8036 0.5811 0.0000
vt 0.8183 0.6023 0.0000
vt 0.2355 0.6228 0.0000
vt 0.2232 0.6247 0.0000
vt 0.2318 0.6190 0.0000
vt 0.2375 0.6104 0.0000
vt 0.9243 0.8857 0.0000
vt 0.9265 0.8979 0.0000
vt 0.9205 0.8893 0.0000
vt 0.9114 0.8836 0.0000
vt 0.9054 0.8832 0.0000
vt 0.9046 0.8634 0.0000
vt 0.8826 0.8634 0.0000
vt 0.8826 0.7956 0.0000
vt 0.9046 0.7956 0.0000
vt 0.2923 0.4810 0.0000
vt 0.2923 0.5930 0.0000
vt 0.8106 0.6158 0.0000
vt 0.7901 0.6243 0.0000
vt 0.7068 0.6243 0.0000
vt 0.1171 0.6409 0.0000
vt 0.1091 0.6614 0.0000
vt 0.0885 0.6695 0.0000
vt 0.0492 0.6697 0.0000
vt 0.0492 0.5576 0.0000
vt 0.1170 0.5576 0.0000
vt 0.8918 0.8908 0.0000
vt 0.8832 0.9506 0.0000
vt 0.8833 0.9114 0.0000
vt 0.8159 0.6213 0.0000
vt 0.8036 0.6235 0.0000
vt 0.8122 0.6175 0.0000
vt 0.8179 0.6084 0.0000
vt 0.1144 0.6667 0.0000
vt 0.1021 0.6687 0.0000
vt 0.1106 0.6630 0.0000
vt 0.1163 0.6544 0.0000
vt 0.8864 0.8855 0.0000
vt 0.8993 0.8835 0.0000
vt 0.8902 0.8892 0.0000
vt 0.8841 0.8978 0.0000
vt 0.9266 0.7956 0.0000
vt 0.9266 0.8634 0.0000
vt 0.7656 0.9006 0.0000
vt 0.7749 0.9048 0.0000
vt 0.7786 0.9157 0.0000
vt 0.7786 0.9251 0.0000
vt 0.7277 0.9251 0.0000
vt 0.7277 0.9006 0.0000
vt 0.7880 0.9024 0.0000
vt 0.8389 0.9024 0.0000
vt 0.8389 0.9268 0.0000
vt 0.7880 0.9268 0.0000
vt 0.7423 0.8235 0.0000
vt 0.7803 0.8234 0.0000
vt 0.7803 0.8913 0.0000
vt 0.7294 0.8913 0.0000
vt 0.7294 0.8364 0.0000
vt 0.7330 0.8272 0.0000
vt 0.8971 0.5716 0.0000
vt 0.8971 0.5960 0.0000
vt 0.8292 0.5960 0.0000
vt 0.8292 0.5716 0.0000
vt 0.7773 0.9022 0.0000
vt 0.7782 0.9085 0.0000
vt 0.7756 0.9040 0.0000
vt 0.7717 0.9010 0.0000
vt 0.7306 0.8247 0.0000
vt 0.7362 0.8239 0.0000
vt 0.7323 0.8264 0.0000
vt 0.7297 0.8303 0.0000
vt 0.8767 0.4957 0.0000
vt 0.8779 0.5013 0.0000
vt 0.8749 0.4974 0.0000
vt 0.8704 0.4948 0.0000
vt 0.8741 0.4981 0.0000
vt 0.8633 0.4944 0.0000
vt 0.8783 0.5074 0.0000
vt 0.8781 0.5623 0.0000
vt 0.8537 0.5622 0.0000
vt 0.8539 0.4944 0.0000
vt 0.7786 0.9345 0.0000
vt 0.7750 0.9453 0.0000
vt 0.7659 0.9514 0.0000
vt 0.7277 0.9495 0.0000
vt 0.7880 0.9513 0.0000
vt 0.8389 0.9513 0.0000
vt 0.5721 0.8357 0.0000
vt 0.5776 0.8266 0.0000
vt 0.5869 0.8229 0.0000
vt 0.6419 0.8230 0.0000
vt 0.6419 0.8739 0.0000
vt 0.5740 0.8739 0.0000
vt 0.8971 0.6204 0.0000
vt 0.8292 0.6204 0.0000
vt 0.7777 0.9481 0.0000
vt 0.7722 0.9499 0.0000
vt 0.7758 0.9462 0.0000
vt 0.7784 0.9416 0.0000
vt 0.5751 0.8238 0.0000
vt 0.5808 0.8231 0.0000
vt 0.5769 0.8258 0.0000
vt 0.5736 0.8294 0.0000
vt 0.8308 0.4954 0.0000
vt 0.8373 0.4946 0.0000
vt 0.8328 0.4972 0.0000
vt 0.8297 0.5011 0.0000
vt 0.8336 0.4979 0.0000
vt 0.8445 0.4944 0.0000
vt 0.8292 0.5072 0.0000
vt 0.8292 0.5622 0.0000
vt 0.8187 0.5280 0.0000
vt 0.8190 0.5489 0.0000
vt 0.7069 0.5497 0.0000
vt 0.7068 0.5288 0.0000
vt 0.8255 0.7268 0.0000
vt 0.8321 0.7370 0.0000
vt 0.8321 0.7411 0.0000
vt 0.7201 0.7411 0.0000
vt 0.7201 0.7201 0.0000
vt 0.8152 0.7201 0.0000
vt 0.4535 0.4321 0.0000
vt 0.4468 0.4420 0.0000
vt 0.4368 0.4485 0.0000
vt 0.3418 0.4483 0.0000
vt 0.3417 0.3806 0.0000
vt 0.4541 0.3806 0.0000
vt 0.9473 0.3944 0.0000
vt 0.9371 0.4010 0.0000
vt 0.8861 0.4010 0.0000
vt 0.8861 0.3801 0.0000
vt 0.9540 0.3801 0.0000
vt 0.9540 0.3841 0.0000
vt 0.8292 0.7230 0.0000
vt 0.8309 0.7297 0.0000
vt 0.8264 0.7258 0.0000
vt 0.8225 0.7213 0.0000
vt 0.4506 0.4459 0.0000
vt 0.4439 0.4474 0.0000
vt 0.4478 0.4430 0.0000
vt 0.4523 0.4392 0.0000
vt 0.9511 0.3981 0.0000
vt 0.9444 0.3998 0.0000
vt 0.9483 0.3953 0.0000
vt 0.9528 0.3914 0.0000
vt 0.5925 0.9514 0.0000
vt 0.5716 0.9510 0.0000
vt 0.5723 0.8832 0.0000
vt 0.5932 0.8834 0.0000
vt 0.8198 0.5706 0.0000
vt 0.7071 0.5706 0.0000
vt 0.8255 0.7553 0.0000
vt 0.8152 0.7620 0.0000
vt 0.7201 0.7620 0.0000
vt 0.8321 0.7451 0.0000
vt 0.1007 0.4714 0.0000
vt 0.0492 0.4717 0.0000
vt 0.0492 0.3586 0.0000
vt 0.1177 0.3599 0.0000
vt 0.1173 0.4548 0.0000
vt 0.1107 0.4648 0.0000
vt 0.9473 0.3658 0.0000
vt 0.9540 0.3761 0.0000
vt 0.8861 0.3591 0.0000
vt 0.9371 0.3591 0.0000
vt 0.8292 0.7591 0.0000
vt 0.8225 0.7608 0.0000
vt 0.8264 0.7563 0.0000
vt 0.8309 0.7524 0.0000
vt 0.1145 0.4686 0.0000
vt 0.1079 0.4703 0.0000
vt 0.1117 0.4658 0.0000
vt 0.1161 0.4620 0.0000
vt 0.9511 0.3620 0.0000
vt 0.9528 0.3687 0.0000
vt 0.9483 0.3648 0.0000
vt 0.9444 0.3603 0.0000
vt 0.6142 0.8837 0.0000
vt 0.6142 0.9523 0.0000
vt 0.7772 0.2885 0.0000
vt 0.7848 0.2815 0.0000
vt 0.8029 0.2815 0.0000
vt 0.8027 0.3041 0.0000
vt 0.7704 0.3041 0.0000
vt 0.7704 0.2966 0.0000
vt 0.0732 0.7656 0.0000
vt 0.0813 0.7588 0.0000
vt 0.0888 0.7588 0.0000
vt 0.0888 0.7911 0.0000
vt 0.0662 0.7913 0.0000
vt 0.0661 0.7732 0.0000
vt 0.1294 0.5484 0.0000
vt 0.1113 0.5483 0.0000
vt 0.1113 0.5354 0.0000
vt 0.1436 0.5344 0.0000
vt 0.1369 0.5419 0.0000
vt 0.4031 0.8711 0.0000
vt 0.3631 0.8711 0.0000
vt 0.3633 0.8484 0.0000
vt 0.4031 0.8484 0.0000
vt 0.0661 0.7445 0.0000
vt 0.0661 0.6789 0.0000
vt 0.0888 0.6790 0.0000
vt 0.0732 0.7520 0.0000
vt 0.1504 0.5418 0.0000
vt 0.2236 0.5342 0.0000
vt 0.2236 0.5482 0.0000
vt 0.1580 0.5483 0.0000
vt 0.7704 0.2842 0.0000
vt 0.7776 0.2829 0.0000
vt 0.7749 0.2871 0.0000
vt 0.7704 0.2901 0.0000
vt 0.0689 0.7588 0.0000
vt 0.0747 0.7588 0.0000
vt 0.0718 0.7633 0.0000
vt 0.0676 0.7660 0.0000
vt 0.1437 0.4829 0.0000
vt 0.1438 0.4884 0.0000
vt 0.1393 0.4857 0.0000
vt 0.1367 0.4818 0.0000
vt 0.1370 0.4871 0.0000
vt 0.1295 0.4806 0.0000
vt 0.1438 0.4945 0.0000
vt 0.1437 0.5460 0.0000
vt 0.1366 0.5472 0.0000
vt 0.1392 0.5432 0.0000
vt 0.1436 0.5406 0.0000
vt 0.7659 0.2871 0.0000
vt 0.7633 0.2829 0.0000
vt 0.7636 0.2885 0.0000
vt 0.7561 0.2814 0.0000
vt 0.0676 0.7517 0.0000
vt 0.0718 0.7543 0.0000
vt 0.1507 0.4818 0.0000
vt 0.1482 0.4857 0.0000
vt 0.1505 0.4871 0.0000
vt 0.1580 0.4805 0.0000
vt 0.1481 0.5432 0.0000
vt 0.1508 0.5471 0.0000
vt 0.4492 0.8548 0.0000
vt 0.4718 0.8548 0.0000
vt 0.4718 0.8688 0.0000
vt 0.4492 0.8692 0.0000
vt 0.6906 0.3041 0.0000
vt 0.6905 0.2814 0.0000
vt 0.7772 0.3196 0.0000
vt 0.7704 0.3116 0.0000
vt 0.8029 0.3267 0.0000
vt 0.7848 0.3267 0.0000
vt 0.1043 0.7656 0.0000
vt 0.1114 0.7732 0.0000
vt 0.1113 0.7913 0.0000
vt 0.0962 0.7588 0.0000
vt 0.4817 0.5173 0.0000
vt 0.4742 0.5238 0.0000
vt 0.4561 0.5238 0.0000
vt 0.4561 0.5089 0.0000
vt 0.4885 0.5100 0.0000
vt 0.4031 0.8938 0.0000
vt 0.3629 0.8938 0.0000
vt 0.1114 0.6789 0.0000
vt 0.1115 0.7445 0.0000
vt 0.1043 0.7520 0.0000
vt 0.5673 0.5100 0.0000
vt 0.5681 0.4698 0.0000
vt 0.5684 0.4698 0.0000
vt 0.5683 0.5100 0.0000
vt 0.7704 0.3239 0.0000
vt 0.7704 0.3181 0.0000
vt 0.7749 0.3211 0.0000
vt 0.7776 0.3253 0.0000
vt 0.1086 0.7588 0.0000
vt 0.1100 0.7660 0.0000
vt 0.1057 0.7633 0.0000
vt 0.1028 0.7588 0.0000
vt 0.4884 0.5216 0.0000
vt 0.4814 0.5226 0.0000
vt 0.4840 0.5187 0.0000
vt 0.4884 0.5161 0.0000
vt 0.4886 0.4585 0.0000
vt 0.4886 0.4640 0.0000
vt 0.4842 0.4613 0.0000
vt 0.4816 0.4574 0.0000
vt 0.4819 0.4627 0.0000
vt 0.4886 0.4701 0.0000
vt 0.4744 0.4561 0.0000
vt 0.7633 0.3253 0.0000
vt 0.7659 0.3211 0.0000
vt 0.7636 0.3196 0.0000
vt 0.7561 0.3268 0.0000
vt 0.1057 0.7543 0.0000
vt 0.1100 0.7517 0.0000
vt 0.4929 0.5188 0.0000
vt 0.4954 0.5227 0.0000
vt 0.4952 0.5174 0.0000
vt 0.5027 0.5240 0.0000
vt 0.4956 0.4574 0.0000
vt 0.4930 0.4613 0.0000
vt 0.4953 0.4627 0.0000
vt 0.5028 0.4562 0.0000
vt 0.4265 0.8697 0.0000
vt 0.4265 0.8548 0.0000
vt 0.6905 0.3267 0.0000
vt 0.8127 0.7719 0.0000
vt 0.8273 0.7801 0.0000
vt 0.8344 0.7928 0.0000
vt 0.7236 0.7927 0.0000
vt 0.7237 0.7718 0.0000
vt 0.1728 0.7718 0.0000
vt 0.2848 0.7718 0.0000
vt 0.2848 0.7927 0.0000
vt 0.1728 0.7927 0.0000
vt 0.3648 0.5333 0.0000
vt 0.4538 0.5333 0.0000
vt 0.4539 0.6011 0.0000
vt 0.3417 0.6011 0.0000
vt 0.3420 0.5560 0.0000
vt 0.3503 0.5415 0.0000
vt 0.8937 0.0539 0.0000
vt 0.9146 0.0539 0.0000
vt 0.9146 0.1217 0.0000
vt 0.8937 0.1217 0.0000
vt 0.8321 0.7754 0.0000
vt 0.8341 0.7849 0.0000
vt 0.8287 0.7788 0.0000
vt 0.8226 0.7733 0.0000
vt 0.8352 0.7928 0.0000
vt 0.3456 0.5367 0.0000
vt 0.3550 0.5347 0.0000
vt 0.3489 0.5401 0.0000
vt 0.3435 0.5461 0.0000
vt 0.5199 0.8991 0.0000
vt 0.5220 0.9086 0.0000
vt 0.5165 0.9025 0.0000
vt 0.5104 0.8971 0.0000
vt 0.5151 0.9039 0.0000
vt 0.5025 0.8968 0.0000
vt 0.5026 0.8960 0.0000
vt 0.5234 0.9184 0.0000
vt 0.5235 0.9634 0.0000
vt 0.5025 0.9635 0.0000
vt 0.8273 0.8054 0.0000
vt 0.8127 0.8137 0.0000
vt 0.7236 0.8137 0.0000
vt 0.1728 0.8136 0.0000
vt 0.2848 0.8136 0.0000
vt 0.5755 0.5566 0.0000
vt 0.5757 0.6017 0.0000
vt 0.4636 0.6017 0.0000
vt 0.4636 0.5339 0.0000
vt 0.5526 0.5338 0.0000
vt 0.5672 0.5421 0.0000
vt 0.9355 0.0539 0.0000
vt 0.9355 0.1217 0.0000
vt 0.8321 0.8102 0.0000
vt 0.8226 0.8123 0.0000
vt 0.8287 0.8068 0.0000
vt 0.8341 0.8007 0.0000
vt 0.5719 0.5373 0.0000
vt 0.5740 0.5467 0.0000
vt 0.5685 0.5407 0.0000
vt 0.5625 0.5352 0.0000
vt 0.4852 0.8991 0.0000
vt 0.4947 0.8971 0.0000
vt 0.4886 0.9025 0.0000
vt 0.4831 0.9086 0.0000
vt 0.4899 0.9039 0.0000
vt 0.4816 0.9185 0.0000
vt 0.4816 0.9635 0.0000
vt 0.8355 0.6337 0.0000
vt 0.8355 0.6546 0.0000
vt 0.7237 0.6546 0.0000
vt 0.7236 0.6337 0.0000
vt 0.1630 0.7167 0.0000
vt 0.1633 0.8193 0.0000
vt 0.1423 0.8193 0.0000
vt 0.1421 0.7074 0.0000
vt 0.1537 0.7074 0.0000
vt 0.1584 0.7120 0.0000
vt 0.5901 0.6423 0.0000
vt 0.5855 0.6376 0.0000
vt 0.5855 0.5791 0.0000
vt 0.6974 0.5791 0.0000
vt 0.6974 0.6469 0.0000
vt 0.5948 0.6469 0.0000
vt 0.9130 0.6302 0.0000
vt 0.9129 0.6511 0.0000
vt 0.8451 0.6511 0.0000
vt 0.8451 0.6302 0.0000
vt 0.1611 0.7093 0.0000
vt 0.1621 0.7130 0.0000
vt 0.1593 0.7111 0.0000
vt 0.1574 0.7083 0.0000
vt 0.5874 0.6450 0.0000
vt 0.5865 0.6413 0.0000
vt 0.5892 0.6432 0.0000
vt 0.5911 0.6460 0.0000
vt 0.8898 0.4507 0.0000
vt 0.8888 0.4470 0.0000
vt 0.8916 0.4489 0.0000
vt 0.8935 0.4517 0.0000
vt 0.8925 0.4480 0.0000
vt 0.8972 0.4526 0.0000
vt 0.8879 0.4433 0.0000
vt 0.8879 0.4317 0.0000
vt 0.9557 0.4317 0.0000
vt 0.9557 0.4526 0.0000
vt 0.8356 0.6755 0.0000
vt 0.7250 0.6741 0.0000
vt 0.1305 0.7074 0.0000
vt 0.1212 0.8196 0.0000
vt 0.1212 0.7168 0.0000
vt 0.1258 0.7121 0.0000
vt 0.2685 0.3640 0.0000
vt 0.2731 0.3687 0.0000
vt 0.2720 0.4716 0.0000
vt 0.2053 0.4691 0.0000
vt 0.2053 0.3586 0.0000
vt 0.2639 0.3593 0.0000
vt 0.9116 0.6707 0.0000
vt 0.8449 0.6722 0.0000
vt 0.1231 0.7094 0.0000
vt 0.1268 0.7084 0.0000
vt 0.1249 0.7112 0.0000
vt 0.1222 0.7131 0.0000
vt 0.2712 0.3614 0.0000
vt 0.2721 0.3650 0.0000
vt 0.2694 0.3631 0.0000
vt 0.2675 0.3603 0.0000
vt 0.8898 0.4128 0.0000
vt 0.8935 0.4118 0.0000
vt 0.8916 0.4145 0.0000
vt 0.8888 0.4164 0.0000
vt 0.8925 0.4154 0.0000
vt 0.8972 0.4108 0.0000
vt 0.8879 0.4201 0.0000
vt 0.9557 0.4108 0.0000
vt 0.9588 0.6801 0.0000
vt 0.9642 0.6854 0.0000
vt 0.9695 0.6908 0.0000
vt 0.9695 0.7010 0.0000
vt 0.9186 0.7010 0.0000
vt 0.9186 0.6801 0.0000
vt 0.0753 0.9585 0.0000
vt 0.0759 0.9076 0.0000
vt 0.0968 0.9078 0.0000
vt 0.0963 0.9587 0.0000
vt 0.8677 0.4850 0.0000
vt 0.8275 0.4850 0.0000
vt 0.8275 0.4172 0.0000
vt 0.8784 0.4172 0.0000
vt 0.8784 0.4743 0.0000
vt 0.8731 0.4797 0.0000
vt 0.9361 0.1989 0.0000
vt 0.9152 0.1989 0.0000
vt 0.9152 0.1311 0.0000
vt 0.9361 0.1311 0.0000
vt 0.9672 0.6823 0.0000
vt 0.9684 0.6865 0.0000
vt 0.9652 0.6844 0.0000
vt 0.9630 0.6812 0.0000
vt 0.8761 0.4828 0.0000
vt 0.8719 0.4839 0.0000
vt 0.8741 0.4807 0.0000
vt 0.8773 0.4786 0.0000
vt 0.6267 0.9509 0.0000
vt 0.6255 0.9467 0.0000
vt 0.6287 0.9489 0.0000
vt 0.6309 0.9520 0.0000
vt 0.6297 0.9478 0.0000
vt 0.6351 0.9531 0.0000
vt 0.6244 0.9425 0.0000
vt 0.6238 0.8854 0.0000
vt 0.6447 0.8851 0.0000
vt 0.6454 0.9530 0.0000
vt 0.9695 0.7112 0.0000
vt 0.9642 0.7166 0.0000
vt 0.9588 0.7219 0.0000
vt 0.9186 0.7219 0.0000
vt 0.1177 0.9080 0.0000
vt 0.1177 0.9595 0.0000
vt 0.6517 0.8347 0.0000
vt 0.6570 0.8293 0.0000
vt 0.6623 0.8240 0.0000
vt 0.7201 0.8234 0.0000
vt 0.7195 0.8749 0.0000
vt 0.6516 0.8749 0.0000
vt 0.8942 0.1989 0.0000
vt 0.8942 0.1311 0.0000
vt 0.9672 0.7197 0.0000
vt 0.9630 0.7208 0.0000
vt 0.9652 0.7176 0.0000
vt 0.9684 0.7155 0.0000
vt 0.6539 0.8262 0.0000
vt 0.6581 0.8251 0.0000
vt 0.6559 0.8283 0.0000
vt 0.6528 0.8305 0.0000
vt 0.6640 0.9506 0.0000
vt 0.6598 0.9517 0.0000
vt 0.6620 0.9485 0.0000
vt 0.6651 0.9463 0.0000
vt 0.6609 0.9475 0.0000
vt 0.6556 0.9529 0.0000
vt 0.6662 0.9421 0.0000
vt 0.6662 0.8844 0.0000
vt 0.2538 0.9006 0.0000
vt 0.2538 0.9233 0.0000
vt 0.1972 0.9233 0.0000
vt 0.1972 0.9006 0.0000
vt 0.0492 0.5376 0.0000
vt 0.0494 0.4810 0.0000
vt 0.0721 0.4811 0.0000
vt 0.0719 0.5376 0.0000
vt 0.2294 0.8907 0.0000
vt 0.1728 0.8907 0.0000
vt 0.1728 0.8229 0.0000
vt 0.2294 0.8229 0.0000
vt 0.2941 0.8484 0.0000
vt 0.3169 0.8484 0.0000
vt 0.3169 0.9162 0.0000
vt 0.2941 0.9162 0.0000
vt 0.2619 0.8909 0.0000
vt 0.2392 0.8910 0.0000
vt 0.2390 0.8231 0.0000
vt 0.2617 0.8230 0.0000
vt 0.2538 0.9461 0.0000
vt 0.1972 0.9461 0.0000
vt 0.0948 0.5378 0.0000
vt 0.0948 0.4811 0.0000
vt 0.5316 0.4373 0.0000
vt 0.4636 0.4373 0.0000
vt 0.4639 0.3806 0.0000
vt 0.5317 0.3808 0.0000
vt 0.3396 0.8484 0.0000
vt 0.3396 0.9162 0.0000
vt 0.2846 0.8229 0.0000
vt 0.2846 0.8908 0.0000
vt 0.8181 0.4735 0.0000
vt 0.8181 0.4962 0.0000
vt 0.7062 0.4962 0.0000
vt 0.7062 0.4735 0.0000
vt 0.0098 0.7809 0.0000
vt 0.0106 0.6793 0.0000
vt 0.0333 0.6794 0.0000
vt 0.0324 0.7915 0.0000
vt 0.0208 0.7913 0.0000
vt 0.0149 0.7864 0.0000
vt 0.3465 0.6735 0.0000
vt 0.3417 0.6680 0.0000
vt 0.3417 0.6104 0.0000
vt 0.4537 0.6104 0.0000
vt 0.4537 0.6783 0.0000
vt 0.3520 0.6783 0.0000
vt 0.0761 0.8292 0.0000
vt 0.0988 0.8295 0.0000
vt 0.0981 0.8974 0.0000
vt 0.0753 0.8971 0.0000
vt 0.0121 0.7892 0.0000
vt 0.0109 0.7851 0.0000
vt 0.0140 0.7873 0.0000
vt 0.0164 0.7903 0.0000
vt 0.3437 0.6764 0.0000
vt 0.3426 0.6722 0.0000
vt 0.3456 0.6744 0.0000
vt 0.3478 0.6774 0.0000
vt 0.8459 0.7835 0.0000
vt 0.8448 0.7792 0.0000
vt 0.8478 0.7816 0.0000
vt 0.8500 0.7847 0.0000
vt 0.8487 0.7806 0.0000
vt 0.8541 0.7859 0.0000
vt 0.8439 0.7748 0.0000
vt 0.8438 0.7632 0.0000
vt 0.9116 0.7632 0.0000
vt 0.9117 0.7859 0.0000
vt 0.8171 0.5179 0.0000
vt 0.7062 0.5189 0.0000
vt 0.0567 0.7820 0.0000
vt 0.0505 0.7872 0.0000
vt 0.0442 0.7916 0.0000
vt 0.1332 0.4668 0.0000
vt 0.1271 0.4617 0.0000
vt 0.1270 0.3586 0.0000
vt 0.1956 0.3587 0.0000
vt 0.1956 0.4697 0.0000
vt 0.1390 0.4712 0.0000
vt 0.1215 0.8297 0.0000
vt 0.1215 0.8983 0.0000
vt 0.0532 0.7907 0.0000
vt 0.0488 0.7913 0.0000
vt 0.0516 0.7885 0.0000
vt 0.0550 0.7866 0.0000
vt 0.1305 0.4703 0.0000
vt 0.1288 0.4662 0.0000
vt 0.1322 0.4680 0.0000
vt 0.1348 0.4707 0.0000
vt 0.8459 0.7427 0.0000
vt 0.8500 0.7415 0.0000
vt 0.8477 0.7447 0.0000
vt 0.8447 0.7470 0.0000
vt 0.8486 0.7456 0.0000
vt 0.8541 0.7404 0.0000
vt 0.8437 0.7515 0.0000
vt 0.9107 0.7415 0.0000
vt 0.0567 0.6789 0.0000
vt 0.1113 0.4946 0.0000
vt 0.1113 0.4806 0.0000
vt 0.2234 0.4804 0.0000
vt 0.2234 0.4944 0.0000
vt 0.4718 0.9097 0.0000
vt 0.4492 0.9098 0.0000
vt 0.4265 0.9099 0.0000
vt 0.4563 0.4688 0.0000
vt 0.4171 0.8484 0.0000
vt 0.4171 0.8711 0.0000
vt 0.4171 0.8938 0.0000
vt 0.5683 0.5240 0.0000
vt 0.4718 0.9226 0.0000
vt 0.4492 0.9226 0.0000
vt 0.4265 0.9226 0.0000
vt 0.4563 0.4561 0.0000
vt 0.5684 0.4562 0.0000
vt 0.3493 0.8938 0.0000
vt 0.3493 0.8711 0.0000
vt 0.3493 0.8484 0.0000
# 1200 texture coords

o prefab_wall_lvl2
g prefab_wall_lvl2
s off
f 1/1/1 2/2/2 3/3/3 4/4/4 
f 5/5/5 6/6/6 7/7/7 8/8/8 
f 1/9/1 4/10/4 6/11/6 5/12/5 
f 4/13/4 3/14/3 7/15/7 6/16/6 
f 9/17/1 10/18/2 11/19/9 12/20/4 
f 13/21/10 14/22/11 15/23/12 16/24/8 17/25/5 18/26/13 
f 9/27/1 12/28/4 19/29/14 20/30/15 18/31/13 17/32/5 
f 21/33/16 19/34/14 12/35/4 11/36/9 15/37/12 14/38/11 
f 22/39/1 23/40/2 24/41/9 25/42/4 
f 26/43/17 27/44/11 28/45/18 29/46/8 30/47/5 31/48/13 
f 22/49/1 25/50/4 32/51/14 33/52/15 31/53/13 30/54/5 
f 34/55/16 32/56/14 25/57/4 24/58/9 28/59/18 27/60/11 
f 35/61/1 36/62/2 37/63/9 38/64/4 
f 39/65/19 40/66/6 41/67/18 42/68/20 43/69/21 44/70/22 
f 45/71/23 46/72/24 35/73/1 38/74/4 40/75/6 39/76/19 
f 38/77/4 37/78/9 41/79/18 40/80/6 
f 47/81/1 48/82/25 49/83/9 50/84/4 
f 51/85/26 52/86/27 47/87/1 50/88/4 53/89/6 54/90/28 
f 50/91/4 49/92/9 55/93/18 53/94/6 
f 56/95/29 57/96/30 58/97/31 59/98/2 60/99/32 61/100/4 
f 62/101/5 63/102/6 64/103/33 65/104/8 
f 56/105/29 61/106/4 63/107/6 62/108/5 66/109/34 67/110/35 
f 61/111/4 60/112/32 64/113/33 63/114/6 
f 68/115/1 69/116/2 70/117/9 71/118/4 
f 72/119/5 73/120/6 74/121/18 75/122/8 
f 68/123/1 71/124/4 73/125/6 72/126/5 
f 71/127/4 70/128/9 74/129/18 73/130/6 
f 76/131/36 77/132/37 78/133/38 79/134/39 
f 79/134/39 78/133/38 57/96/30 56/95/29 
f 57/96/30 78/133/38 77/132/37 58/97/31 
f 76/135/36 79/136/39 80/137/40 81/138/41 
f 81/138/41 80/137/40 67/110/35 66/109/34 
f 67/110/35 80/137/40 79/136/39 56/105/29 
f 76/139/36 81/140/41 82/141/42 77/142/37 
f 77/142/37 82/141/42 83/143/43 58/144/31 
f 83/143/43 82/141/42 81/140/41 66/145/34 
f 84/146/44 85/147/45 86/148/46 87/149/47 
f 88/150/48 89/151/49 90/152/50 87/149/47 86/148/46 
f 88/150/48 86/148/46 85/147/45 54/153/28 
f 84/154/44 91/155/51 92/156/52 85/157/45 
f 85/157/45 92/156/52 51/85/26 54/90/28 
f 51/85/26 92/156/52 91/155/51 52/86/27 
f 84/158/44 87/159/47 93/160/53 91/161/51 
f 91/161/51 93/160/53 94/162/54 52/163/27 
f 90/164/50 95/165/55 94/162/54 93/160/53 87/159/47 
f 96/166/56 97/167/57 98/168/58 99/169/59 
f 99/169/59 98/168/58 44/70/22 43/69/21 
f 44/70/22 98/168/58 97/167/57 39/65/19 
f 96/170/56 100/171/60 101/172/61 97/173/57 
f 97/173/57 101/172/61 45/71/23 39/76/19 
f 45/71/23 101/172/61 100/171/60 46/72/24 
f 96/174/56 99/175/59 102/176/62 100/177/60 
f 100/177/60 102/176/62 103/178/63 46/179/24 
f 103/178/63 102/176/62 99/175/59 43/180/21 
f 104/181/64 105/182/65 106/183/66 107/184/67 
f 107/184/67 106/183/66 13/21/10 18/26/13 
f 13/21/10 106/183/66 105/182/65 14/22/11 
f 104/185/64 107/186/67 108/187/68 109/188/69 
f 109/188/69 108/187/68 20/30/15 19/29/14 
f 20/30/15 108/187/68 107/186/67 18/31/13 
f 104/189/64 109/190/69 110/191/70 105/192/65 
f 105/192/65 110/191/70 21/33/16 14/38/11 
f 21/33/16 110/191/70 109/190/69 19/34/14 
f 111/193/64 112/194/65 113/195/71 114/196/67 
f 114/196/67 113/195/71 26/43/17 31/48/13 
f 26/43/17 113/195/71 112/194/65 27/44/11 
f 111/197/64 114/198/67 115/199/68 116/200/69 
f 116/200/69 115/199/68 33/52/15 32/51/14 
f 33/52/15 115/199/68 114/198/67 31/53/13 
f 111/201/64 116/202/69 117/203/70 112/204/65 
f 112/204/65 117/203/70 34/55/16 27/60/11 
f 34/55/16 117/203/70 116/202/69 32/56/14 
f 2/205/2 1/206/1 5/207/5 8/208/8 
f 10/209/2 9/210/1 17/211/5 16/212/8 
f 23/213/2 22/214/1 30/215/5 29/216/8 
f 43/180/21 42/217/20 36/218/2 35/219/1 46/179/24 103/178/63 
f 88/150/48 54/153/28 53/220/6 55/221/18 89/151/49 
f 48/222/25 47/223/1 52/163/27 94/162/54 95/165/55 
f 83/143/43 66/145/34 62/224/5 65/225/8 59/226/2 58/144/31 
f 69/227/2 68/228/1 72/229/5 75/230/8 
f 118/231/72 119/232/73 3/3/3 2/2/2 
f 120/233/74 8/8/8 7/7/7 121/234/75 
f 118/235/72 120/236/74 121/237/75 119/238/73 
f 3/14/3 119/239/73 121/240/75 7/15/7 
f 122/241/76 123/242/77 11/19/9 10/18/2 
f 124/243/78 125/244/79 126/245/80 16/24/8 15/23/12 127/246/81 
f 122/247/76 126/248/80 125/249/79 128/250/82 123/251/77 
f 129/252/83 127/253/81 15/37/12 11/36/9 123/254/77 128/255/82 
f 130/256/76 131/257/84 24/41/9 23/40/2 
f 132/258/85 133/259/86 134/260/87 29/46/8 28/45/18 135/261/88 
f 133/262/86 136/263/89 137/264/90 131/265/84 130/266/76 134/267/87 
f 138/268/91 135/269/88 28/59/18 24/58/9 131/270/84 137/271/90 
f 139/272/92 140/273/84 37/63/9 36/62/2 
f 42/68/20 41/67/18 141/274/93 142/275/94 143/276/95 144/277/96 
f 145/278/97 142/279/94 141/280/93 140/281/84 139/282/92 146/283/98 
f 140/284/84 141/285/93 41/79/18 37/78/9 
f 48/82/25 147/286/99 148/287/100 49/83/9 
f 149/288/101 150/289/102 151/290/103 148/291/100 147/292/99 152/293/104 
f 148/294/100 151/295/103 55/93/18 49/92/9 
f 60/99/32 59/98/2 153/296/105 154/297/106 155/298/107 156/299/108 
f 157/300/109 65/104/8 64/103/33 158/301/110 
f 159/302/111 157/303/109 158/304/110 156/305/108 155/306/107 160/307/112 
f 60/112/32 156/308/108 158/309/110 64/113/33 
f 161/310/76 162/311/84 70/117/9 69/116/2 
f 163/312/87 75/122/8 74/121/18 164/313/103 
f 161/314/76 163/315/87 164/316/103 162/317/84 
f 162/318/84 164/319/103 74/129/18 70/128/9 
f 165/320/113 166/321/114 167/322/115 168/323/116 
f 154/297/106 167/322/115 166/321/114 155/298/107 
f 168/323/116 167/322/115 154/297/106 153/296/105 
f 165/324/113 169/325/117 170/326/118 166/327/114 
f 160/307/112 170/326/118 169/325/117 159/302/111 
f 166/327/114 170/326/118 160/307/112 155/306/107 
f 165/328/113 168/329/116 171/330/119 169/331/117 
f 172/332/120 171/330/119 168/329/116 153/333/105 
f 169/331/117 171/330/119 172/332/120 159/334/111 
f 173/335/121 174/336/122 175/337/123 176/338/124 
f 90/152/50 89/151/49 177/339/125 175/337/123 174/336/122 
f 176/338/124 175/337/123 177/339/125 150/340/102 
f 173/341/121 176/342/124 178/343/126 179/344/127 
f 149/288/101 178/343/126 176/342/124 150/289/102 
f 179/344/127 178/343/126 149/288/101 152/293/104 
f 173/345/121 179/346/127 180/347/128 174/348/122 
f 181/349/129 180/347/128 179/346/127 152/350/104 
f 181/349/129 95/165/55 90/164/50 174/348/122 180/347/128 
f 182/351/130 183/352/131 184/353/132 185/354/133 
f 143/276/95 184/353/132 183/352/131 144/277/96 
f 185/354/133 184/353/132 143/276/95 142/275/94 
f 182/355/130 185/356/133 186/357/134 187/358/135 
f 145/278/97 186/357/134 185/356/133 142/279/94 
f 187/358/135 186/357/134 145/278/97 146/283/98 
f 182/359/130 187/360/135 188/361/136 183/362/131 
f 189/363/137 188/361/136 187/360/135 146/364/98 
f 183/362/131 188/361/136 189/363/137 144/365/96 
f 190/366/138 191/367/139 192/368/140 193/369/141 
f 124/243/78 192/368/140 191/367/139 125/244/79 
f 193/369/141 192/368/140 124/243/78 127/246/81 
f 190/370/138 194/371/142 195/372/143 191/373/139 
f 196/374/144 195/372/143 194/371/142 128/250/82 
f 191/373/139 195/372/143 196/374/144 125/249/79 
f 190/375/138 193/376/141 197/377/145 194/378/142 
f 129/252/83 197/377/145 193/376/141 127/253/81 
f 194/378/142 197/377/145 129/252/83 128/255/82 
f 198/379/146 199/380/147 200/381/148 201/382/149 
f 132/258/85 200/381/148 199/380/147 133/259/86 
f 201/382/149 200/381/148 132/258/85 135/261/88 
f 198/383/146 202/384/150 203/385/151 199/386/147 
f 136/263/89 203/385/151 202/384/150 137/264/90 
f 199/386/147 203/385/151 136/263/89 133/262/86 
f 198/387/146 201/388/149 204/389/152 202/390/150 
f 138/268/91 204/389/152 201/388/149 135/269/88 
f 202/390/150 204/389/152 138/268/91 137/271/90 
f 2/205/2 8/208/8 120/391/74 118/392/72 
f 10/209/2 16/212/8 126/393/80 122/394/76 
f 23/213/2 29/216/8 134/395/87 130/396/76 
f 146/364/98 139/397/92 36/218/2 42/217/20 144/365/96 189/363/137 
f 89/151/49 55/221/18 151/398/103 150/340/102 177/339/125 
f 152/350/104 147/399/99 48/222/25 95/165/55 181/349/129 
f 172/332/120 153/333/105 59/226/2 65/225/8 157/400/109 159/334/111 
f 69/227/2 75/230/8 163/401/87 161/402/76 
f 205/403/1 206/404/2 207/405/9 208/406/4 
f 209/407/5 210/408/6 211/409/18 212/410/8 
f 205/411/1 208/412/4 213/413/153 214/414/154 215/415/155 216/416/156 
f 208/417/4 207/418/9 217/419/157 218/420/158 213/421/153 
f 215/415/155 219/422/159 220/423/160 210/424/6 209/425/5 216/416/156 
f 216/426/156 209/427/5 212/428/8 221/429/161 
f 222/430/162 223/431/163 224/432/164 225/433/165 
f 225/433/165 224/432/164 214/414/154 213/413/153 
f 214/414/154 224/432/164 223/431/163 215/415/155 
f 222/434/162 225/435/165 226/436/166 227/437/167 
f 218/420/158 217/419/157 228/438/168 227/437/167 226/436/166 
f 218/420/158 226/436/166 225/435/165 213/421/153 
f 222/430/162 229/439/169 230/440/170 223/431/163 
f 223/431/163 230/440/170 219/422/159 215/415/155 
f 219/422/159 230/440/170 229/439/169 220/423/160 
f 222/434/162 227/437/167 231/441/171 229/442/169 
f 229/442/169 231/441/171 232/443/172 220/444/160 
f 231/441/171 227/437/167 228/438/168 233/445/173 232/443/172 
f 206/446/2 205/447/1 216/426/156 221/429/161 
f 211/448/18 210/449/6 220/444/160 232/443/172 233/445/173 
f 234/450/76 235/451/84 207/405/9 206/404/2 
f 236/452/87 212/410/8 211/409/18 237/453/103 
f 238/454/174 239/455/175 240/456/176 235/457/84 234/458/76 241/459/177 
f 240/460/176 242/461/178 217/419/157 207/418/9 235/462/84 
f 236/463/87 237/464/103 243/465/179 244/466/180 238/454/174 241/459/177 
f 241/467/177 221/429/161 212/428/8 236/468/87 
f 245/469/181 246/470/182 247/471/183 248/472/184 
f 239/455/175 247/471/183 246/470/182 240/456/176 
f 248/472/184 247/471/183 239/455/175 238/454/174 
f 245/473/181 249/474/185 250/475/186 246/476/182 
f 250/475/186 249/474/185 228/438/168 217/419/157 242/461/178 
f 246/476/182 250/475/186 242/461/178 240/460/176 
f 245/469/181 248/472/184 251/477/187 252/478/188 
f 244/466/180 251/477/187 248/472/184 238/454/174 
f 252/478/188 251/477/187 244/466/180 243/465/179 
f 245/473/181 252/479/188 253/480/189 249/474/185 
f 254/481/190 253/480/189 252/479/188 243/482/179 
f 254/481/190 233/445/173 228/438/168 249/474/185 253/480/189 
f 206/446/2 221/429/161 241/467/177 234/483/76 
f 243/482/179 237/484/103 211/448/18 233/445/173 254/481/190 
f 255/485/191 256/486/192 257/487/1 258/488/2 259/489/9 260/490/193 
f 261/491/5 262/492/6 263/493/18 264/494/8 
f 265/495/194 266/496/195 262/497/6 261/498/5 257/499/1 256/500/192 
f 266/501/195 267/502/196 260/503/193 259/504/9 263/505/18 262/506/6 
f 268/507/197 269/508/198 270/509/199 271/510/200 
f 271/510/200 270/509/199 255/485/191 260/490/193 
f 255/485/191 270/509/199 269/508/198 256/486/192 
f 268/511/197 272/512/201 273/513/202 269/514/198 
f 269/514/198 273/513/202 265/495/194 256/500/192 
f 265/495/194 273/513/202 272/512/201 266/496/195 
f 268/515/197 271/516/200 274/517/203 272/518/201 
f 272/518/201 274/517/203 267/502/196 266/501/195 
f 267/502/196 274/517/203 271/516/200 260/503/193 
f 258/519/2 257/520/1 261/521/5 264/522/8 
f 275/523/204 276/524/205 259/489/9 258/488/2 277/525/76 278/526/206 
f 279/527/87 264/494/8 263/493/18 280/528/103 
f 281/529/207 278/530/206 277/531/76 279/532/87 280/533/103 282/534/208 
f 263/505/18 259/504/9 276/535/205 283/536/209 282/537/208 280/538/103 
f 284/539/210 285/540/211 286/541/212 287/542/213 
f 275/523/204 286/541/212 285/540/211 276/524/205 
f 287/542/213 286/541/212 275/523/204 278/526/206 
f 284/543/210 287/544/213 288/545/214 289/546/215 
f 281/529/207 288/545/214 287/544/213 278/530/206 
f 289/546/215 288/545/214 281/529/207 282/534/208 
f 284/547/210 289/548/215 290/549/216 285/550/211 
f 283/536/209 290/549/216 289/548/215 282/537/208 
f 285/550/211 290/549/216 283/536/209 276/535/205 
f 258/519/2 264/522/8 279/551/87 277/552/76 
f 291/553/1 292/554/2 293/555/217 294/556/4 
f 295/557/218 296/558/219 297/559/8 298/560/5 299/561/220 
f 291/562/1 294/563/4 300/564/221 301/565/222 299/566/220 298/567/5 
f 293/568/217 302/569/223 303/570/224 300/571/221 294/572/4 
f 304/573/225 305/574/226 306/575/227 307/576/228 
f 307/576/228 306/575/227 295/557/218 299/561/220 
f 306/575/227 305/574/226 308/577/18 296/558/219 295/557/218 
f 304/578/225 307/579/228 309/580/229 310/581/230 
f 310/581/230 309/580/229 301/565/222 300/564/221 
f 301/565/222 309/580/229 307/579/228 299/566/220 
f 304/582/225 310/583/230 311/584/231 305/585/226 
f 303/570/224 302/569/223 308/586/18 305/585/226 311/584/231 
f 303/570/224 311/584/231 310/583/230 300/571/221 
f 292/587/2 291/588/1 298/589/5 297/590/8 
f 312/591/232 313/592/233 293/555/217 292/554/2 
f 297/559/8 296/558/219 314/593/234 315/594/235 316/595/87 
f 315/596/235 317/597/236 318/598/237 313/599/233 312/600/232 316/601/87 
f 319/602/238 302/569/223 293/568/217 313/603/233 318/604/237 
f 320/605/239 321/606/240 322/607/241 323/608/242 
f 314/593/234 322/607/241 321/606/240 315/594/235 
f 314/593/234 296/558/219 308/577/18 323/608/242 322/607/241 
f 320/609/239 324/610/243 325/611/244 321/612/240 
f 317/597/236 325/611/244 324/610/243 318/598/237 
f 321/612/240 325/611/244 317/597/236 315/596/235 
f 320/613/239 323/614/242 326/615/245 324/616/243 
f 326/615/245 323/614/242 308/586/18 302/569/223 319/602/238 
f 324/616/243 326/615/245 319/602/238 318/604/237 
f 292/587/2 297/590/8 316/617/87 312/618/232 
f 327/619/246 328/620/247 329/621/248 330/622/249 331/623/9 332/624/4 
f 333/625/5 334/626/6 335/627/18 336/628/8 
f 327/629/246 332/630/4 334/631/6 333/632/5 337/633/250 338/634/251 
f 332/635/4 331/636/9 335/637/18 334/638/6 
f 339/639/252 340/640/253 341/641/254 342/642/255 
f 342/642/255 341/641/254 328/620/247 327/619/246 
f 328/620/247 341/641/254 340/640/253 329/621/248 
f 339/643/252 342/644/255 343/645/256 344/646/257 
f 344/646/257 343/645/256 338/634/251 337/633/250 
f 338/634/251 343/645/256 342/644/255 327/629/246 
f 339/647/252 344/648/257 345/649/258 340/650/253 
f 340/650/253 345/649/258 346/651/259 329/652/248 
f 346/651/259 345/649/258 344/648/257 337/653/250 
f 346/651/259 337/653/250 333/654/5 336/655/8 330/656/249 329/652/248 
f 331/623/9 330/622/249 347/657/260 348/658/261 349/659/262 350/660/263 
f 351/661/264 336/628/8 335/627/18 352/662/103 
f 349/663/262 353/664/265 354/665/266 351/666/264 352/667/103 350/668/263 
f 350/669/263 352/670/103 335/637/18 331/636/9 
f 355/671/267 356/672/268 357/673/269 358/674/270 
f 348/658/261 357/673/269 356/672/268 349/659/262 
f 358/674/270 357/673/269 348/658/261 347/657/260 
f 355/675/267 359/676/271 360/677/272 356/678/268 
f 353/664/265 360/677/272 359/676/271 354/665/266 
f 356/678/268 360/677/272 353/664/265 349/663/262 
f 355/679/267 358/680/270 361/681/273 359/682/271 
f 362/683/274 361/681/273 358/680/270 347/684/260 
f 359/682/271 361/681/273 362/683/274 354/685/266 
f 362/683/274 347/684/260 330/656/249 336/655/8 351/686/264 354/685/266 
f 363/687/275 364/688/276 365/689/277 366/690/4 
f 367/691/278 368/692/279 369/693/18 370/694/280 371/695/5 372/696/281 
f 373/697/282 374/698/283 372/699/281 371/700/5 363/701/275 366/702/4 
f 375/703/284 373/704/282 366/705/4 365/706/277 369/707/18 368/708/279 
f 376/709/6 377/710/285 378/711/286 379/712/287 
f 379/712/287 378/711/286 367/691/278 372/696/281 
f 367/691/278 378/711/286 377/710/285 368/692/279 
f 376/713/6 379/714/287 380/715/288 381/716/289 
f 381/716/289 380/715/288 374/698/283 373/697/282 
f 374/698/283 380/715/288 379/714/287 372/699/281 
f 376/717/6 381/718/289 382/719/290 377/720/285 
f 377/720/285 382/719/290 375/703/284 368/708/279 
f 375/703/284 382/719/290 381/718/289 373/704/282 
f 364/721/276 363/722/275 371/723/5 370/724/280 
f 364/688/276 383/725/291 384/726/292 365/689/277 
f 385/727/293 386/728/294 387/729/295 370/694/280 369/693/18 388/730/296 
f 389/731/297 384/732/292 383/733/291 387/734/295 386/735/294 390/736/298 
f 391/737/299 388/738/296 369/707/18 365/706/277 384/739/292 389/740/297 
f 392/741/103 393/742/300 394/743/301 395/744/302 
f 385/727/293 394/743/301 393/742/300 386/728/294 
f 395/744/302 394/743/301 385/727/293 388/730/296 
f 392/745/103 396/746/303 397/747/304 393/748/300 
f 390/736/298 397/747/304 396/746/303 389/731/297 
f 393/748/300 397/747/304 390/736/298 386/735/294 
f 392/749/103 395/750/302 398/751/305 396/752/303 
f 391/737/299 398/751/305 395/750/302 388/738/296 
f 396/752/303 398/751/305 391/737/299 389/740/297 
f 387/753/295 383/754/291 364/721/276 370/724/280 
f 399/755/306 400/756/307 401/757/1 402/758/2 403/759/308 404/760/309 
f 405/761/310 406/762/311 407/763/312 408/764/8 409/765/5 410/766/313 
f 410/767/313 409/768/5 411/769/156 412/770/314 413/771/315 
f 414/772/168 415/773/168 416/774/316 417/775/316 
f 418/776/317 419/777/6 420/778/18 407/763/312 406/762/311 421/779/318 
f 422/780/319 412/770/314 416/781/316 419/782/6 418/783/317 
f 423/784/320 424/785/321 425/786/322 426/787/323 
f 426/787/323 425/786/322 399/755/306 404/760/309 
f 399/755/306 425/786/322 424/785/321 400/756/307 
f 427/788/324 428/789/325 429/790/326 430/791/327 
f 430/791/327 429/790/326 405/761/310 410/766/313 
f 405/761/310 429/790/326 428/789/325 406/762/311 
f 423/792/320 431/793/328 432/794/329 424/795/321 
f 424/795/321 432/794/329 433/796/330 400/797/307 
f 433/796/330 432/794/329 431/793/328 434/798/331 
f 427/799/324 430/800/327 435/801/332 436/802/333 
f 436/802/333 435/801/332 413/771/315 412/770/314 
f 413/771/315 435/801/332 430/800/327 410/767/313 
f 423/784/320 426/787/323 437/803/334 438/804/335 
f 438/804/335 437/803/334 439/805/336 440/806/337 
f 439/805/336 437/803/334 426/787/323 404/760/309 
f 427/788/324 441/807/338 442/808/339 428/789/325 
f 428/789/325 442/808/339 421/779/318 406/762/311 
f 421/779/318 442/808/339 441/807/338 418/776/317 
f 423/792/320 438/809/335 443/810/340 431/793/328 
f 431/793/328 443/810/340 444/811/341 434/798/331 
f 444/811/341 443/810/340 438/809/335 440/812/337 
f 427/799/324 436/802/333 445/813/342 441/814/338 
f 441/814/338 445/813/342 422/780/319 418/783/317 
f 422/780/319 445/813/342 436/802/333 412/770/314 
f 402/815/2 401/816/1 446/817/156 447/818/161 
f 440/806/337 439/805/336 404/760/309 403/759/308 448/819/9 449/820/4 
f 450/821/343 451/822/344 403/759/308 402/758/2 452/823/76 453/824/345 
f 454/825/346 455/826/347 456/827/87 408/764/8 407/763/312 457/828/348 
f 458/829/349 453/830/345 452/831/76 459/832/177 460/833/350 
f 461/834/351 462/835/351 415/773/168 414/772/168 
f 457/828/348 407/763/312 420/778/18 463/836/103 464/837/352 465/838/353 
f 466/839/354 467/840/354 462/841/351 461/842/351 
f 468/843/355 469/844/356 470/845/357 471/846/358 
f 450/821/343 470/845/357 469/844/356 451/822/344 
f 471/846/358 470/845/357 450/821/343 453/824/345 
f 472/847/359 473/848/360 474/849/361 475/850/362 
f 454/825/346 474/849/361 473/848/360 455/826/347 
f 475/850/362 474/849/361 454/825/346 457/828/348 
f 468/851/355 471/852/358 476/853/363 477/854/364 
f 458/829/349 476/853/363 471/852/358 453/830/345 
f 477/854/364 476/853/363 458/829/349 460/833/350 
f 472/855/359 478/856/365 479/857/366 473/858/360 
f 480/859/367 479/857/366 478/856/365 481/860/368 
f 473/858/360 479/857/366 480/859/367 455/861/347 
f 468/843/355 482/862/369 483/863/370 469/844/356 
f 484/864/371 483/863/370 482/862/369 485/865/372 
f 469/844/356 483/863/370 484/864/371 451/822/344 
f 472/847/359 475/850/362 486/866/373 487/867/374 
f 465/838/353 486/866/373 475/850/362 457/828/348 
f 487/867/374 486/866/373 465/838/353 464/837/352 
f 468/851/355 477/854/364 488/868/375 482/869/369 
f 489/870/376 488/868/375 477/854/364 460/833/350 
f 482/869/369 488/868/375 489/870/376 485/871/372 
f 472/855/359 487/872/374 490/873/377 478/856/365 
f 491/874/378 490/873/377 487/872/374 464/875/352 
f 478/856/365 490/873/377 491/874/378 481/860/368 
f 402/815/2 447/818/161 459/876/177 452/877/76 
f 448/819/9 403/759/308 451/822/344 484/864/371 485/865/372 492/878/84 
f 493/879/379 494/880/380 495/881/381 496/882/9 497/883/4 
f 498/884/5 499/885/6 500/886/18 501/887/8 
f 493/888/379 497/889/4 499/890/6 498/891/5 502/892/382 503/893/383 
f 497/894/4 496/895/9 500/896/18 499/897/6 
f 504/898/384 505/899/385 506/900/386 507/901/387 
f 507/901/387 506/900/386 494/880/380 493/879/379 
f 508/902/2 495/881/381 494/880/380 506/900/386 505/899/385 
f 504/903/384 507/904/387 509/905/388 510/906/389 
f 510/906/389 509/905/388 503/893/383 502/892/382 
f 503/893/383 509/905/388 507/904/387 493/888/379 
f 504/907/384 510/908/389 511/909/390 505/910/385 
f 512/911/391 513/912/392 508/913/2 505/910/385 511/909/390 
f 512/911/391 511/909/390 510/908/389 502/914/382 
f 512/911/391 502/914/382 498/915/5 501/916/8 513/912/392 
f 495/881/381 514/917/393 515/918/394 516/919/84 496/882/9 
f 517/920/87 501/887/8 500/886/18 518/921/103 
f 519/922/395 517/923/87 518/924/103 516/925/84 515/926/394 520/927/396 
f 516/928/84 518/929/103 500/896/18 496/895/9 
f 521/930/76 522/931/397 523/932/398 524/933/399 
f 514/917/393 523/932/398 522/931/397 515/918/394 
f 514/917/393 495/881/381 508/902/2 524/933/399 523/932/398 
f 521/934/76 525/935/400 526/936/401 522/937/397 
f 520/927/396 526/936/401 525/935/400 519/922/395 
f 522/937/397 526/936/401 520/927/396 515/926/394 
f 521/938/76 524/939/399 527/940/402 525/941/400 
f 508/913/2 513/912/392 528/942/403 527/940/402 524/939/399 
f 525/941/400 527/940/402 528/942/403 519/943/395 
f 513/912/392 501/916/8 517/944/87 519/943/395 528/942/403 
f 529/945/1 530/946/404 531/947/405 532/948/406 
f 533/949/407 534/950/6 535/951/408 536/952/8 537/953/409 538/954/410 
f 539/955/411 540/956/412 529/957/1 532/958/406 534/959/6 533/960/407 
f 532/961/406 531/962/405 535/963/408 534/964/6 
f 541/965/413 542/966/414 543/967/415 544/968/416 
f 544/968/416 543/967/415 538/954/410 537/953/409 
f 538/954/410 543/967/415 542/966/414 533/949/407 
f 541/969/413 545/970/417 546/971/418 542/972/414 
f 542/972/414 546/971/418 539/955/411 533/960/407 
f 539/955/411 546/971/418 545/970/417 540/956/412 
f 541/973/413 544/974/416 547/975/419 545/976/417 
f 545/976/417 547/975/419 548/977/420 540/978/412 
f 548/977/420 547/975/419 544/974/416 537/979/409 
f 540/978/412 548/977/420 537/979/409 536/980/8 530/981/404 529/982/1 
f 530/946/404 549/983/421 550/984/422 531/947/405 
f 551/985/423 536/952/8 535/951/408 552/986/424 553/987/425 554/988/426 
f 555/989/427 553/990/425 552/991/424 550/992/422 549/993/421 556/994/428 
f 535/963/408 531/962/405 550/995/422 552/996/424 
f 557/997/429 558/998/430 559/999/431 560/1000/432 
f 554/988/426 559/999/431 558/998/430 551/985/423 
f 560/1000/432 559/999/431 554/988/426 553/987/425 
f 557/1001/429 560/1002/432 561/1003/433 562/1004/434 
f 555/989/427 561/1003/433 560/1002/432 553/990/425 
f 562/1004/434 561/1003/433 555/989/427 556/994/428 
f 557/1005/429 562/1006/434 563/1007/435 558/1008/430 
f 564/1009/436 563/1007/435 562/1006/434 556/1010/428 
f 558/1008/430 563/1007/435 564/1009/436 551/1011/423 
f 530/981/404 536/980/8 551/1011/423 564/1009/436 556/1010/428 549/1012/421 
f 565/1013/437 566/1014/438 567/1015/439 568/1016/440 569/1017/9 570/1018/4 
f 571/1019/441 572/1020/6 573/1021/442 574/1022/443 
f 565/1023/437 570/1024/4 572/1025/6 571/1026/441 575/1027/444 576/1028/445 
f 570/1029/4 569/1030/9 573/1031/442 572/1032/6 
f 577/1033/384 578/1034/446 579/1035/447 580/1036/448 
f 580/1036/448 579/1035/447 566/1014/438 565/1013/437 
f 566/1014/438 579/1035/447 578/1034/446 567/1015/439 
f 577/1037/384 580/1038/448 581/1039/449 582/1040/450 
f 582/1040/450 581/1039/449 576/1028/445 575/1027/444 
f 576/1028/445 581/1039/449 580/1038/448 565/1023/437 
f 577/1041/384 582/1042/450 583/1043/451 578/1044/446 
f 578/1044/446 583/1043/451 584/1045/452 567/1046/439 
f 584/1045/452 583/1043/451 582/1042/450 575/1047/444 
f 584/1045/452 575/1047/444 571/1048/441 574/1049/443 568/1050/440 567/1046/439 
f 569/1017/9 568/1016/440 585/1051/453 586/1052/454 587/1053/455 588/1054/84 
f 589/1055/456 590/1056/457 574/1022/443 573/1021/442 
f 587/1057/455 591/1058/458 592/1059/459 590/1060/457 589/1061/456 588/1062/84 
f 588/1063/84 589/1064/456 573/1031/442 569/1030/9 
f 593/1065/460 594/1066/461 595/1067/462 596/1068/463 
f 586/1052/454 595/1067/462 594/1066/461 587/1053/455 
f 596/1068/463 595/1067/462 586/1052/454 585/1051/453 
f 593/1069/460 597/1070/464 598/1071/465 594/1072/461 
f 591/1058/458 598/1071/465 597/1070/464 592/1059/459 
f 594/1072/461 598/1071/465 591/1058/458 587/1057/455 
f 593/1073/460 596/1074/463 599/1075/466 597/1076/464 
f 600/1077/467 599/1075/466 596/1074/463 585/1078/453 
f 597/1076/464 599/1075/466 600/1077/467 592/1079/459 
f 600/1077/467 585/1078/453 568/1050/440 574/1049/443 590/1080/457 592/1079/459 
f 601/1081/1 602/1082/404 603/1083/9 604/1084/4 
f 605/1085/468 606/1086/6 607/1087/469 608/1088/470 
f 601/1089/1 604/1090/4 606/1091/6 605/1092/468 
f 604/1093/4 603/1094/9 607/1095/469 606/1096/6 
f 602/1097/404 601/1098/1 605/1099/468 608/1100/470 
f 609/1101/471 610/1102/84 603/1083/9 602/1082/404 
f 611/1103/472 608/1088/470 607/1087/469 612/1104/473 
f 609/1105/471 611/1106/472 612/1107/473 610/1108/84 
f 610/1109/84 612/1110/473 607/1095/469 603/1094/9 
f 602/1097/404 608/1100/470 611/1111/472 609/1112/471 
f 613/1113/474 614/1114/475 615/1115/476 616/1116/4 
f 617/1117/477 618/1118/478 619/1119/479 620/1120/480 621/1121/481 622/1122/482 
f 623/1123/483 624/1124/484 613/1125/474 616/1126/4 618/1127/478 617/1128/477 
f 616/1129/4 615/1130/476 619/1131/479 618/1132/478 
f 625/1133/485 626/1134/486 627/1135/487 628/1136/488 
f 628/1136/488 627/1135/487 622/1122/482 621/1121/481 
f 622/1122/482 627/1135/487 626/1134/486 617/1117/477 
f 625/1137/485 629/1138/489 630/1139/490 626/1140/486 
f 626/1140/486 630/1139/490 623/1123/483 617/1128/477 
f 623/1123/483 630/1139/490 629/1138/489 624/1124/484 
f 625/1141/485 628/1142/488 631/1143/491 629/1144/489 
f 629/1144/489 631/1143/491 632/1145/492 624/1146/484 
f 632/1145/492 631/1143/491 628/1142/488 621/1147/481 
f 624/1146/484 632/1145/492 621/1147/481 620/1148/480 614/1149/475 613/1150/474 
f 615/1115/476 614/1114/475 633/1151/493 634/1152/494 
f 635/1153/495 636/1154/496 637/1155/497 
f 638/1156/498 635/1157/495 639/1158/499 634/1159/494 633/1160/493 640/1161/500 
f 619/1131/479 615/1130/476 634/1162/494 639/1163/499 
f 641/1164/501 642/1165/502 643/1166/503 644/1167/504 
f 636/1154/496 643/1166/503 642/1165/502 637/1155/497 
f 644/1167/504 643/1166/503 636/1154/496 635/1153/495 
f 641/1168/501 644/1169/504 645/1170/505 646/1171/506 
f 638/1156/498 645/1170/505 644/1169/504 635/1157/495 
f 646/1171/506 645/1170/505 638/1156/498 640/1161/500 
f 641/1172/501 646/1173/506 647/1174/507 642/1175/502 
f 648/1176/508 647/1174/507 646/1173/506 640/1177/500 
f 642/1175/502 647/1174/507 648/1176/508 637/1178/497 
f 614/1149/475 620/1148/480 637/1178/497 648/1176/508 640/1177/500 633/1179/493 
f 125/249/79 196/374/144 128/250/82 
f 619/1119/479 639/1180/499 635/1153/495 637/1155/497 620/1120/480 
f 446/1181/156 401/1182/1 400/797/307 433/796/330 434/798/331 
f 434/798/331 444/811/341 440/812/337 449/1183/4 417/1184/316 
f 412/770/314 434/798/331 417/1184/316 416/781/316 
f 411/769/156 446/1181/156 434/798/331 412/770/314 
f 446/817/156 411/1185/156 649/1186/161 447/818/161 
f 447/818/161 649/1186/161 650/1187/177 459/876/177 
f 459/832/177 650/1188/177 481/860/368 460/833/350 
f 460/833/350 481/860/368 467/840/354 466/839/354 
f 417/775/316 449/1189/4 448/1190/9 414/772/168 
f 414/772/168 448/1190/9 492/1191/84 461/834/351 
f 461/842/351 492/1192/84 485/871/372 489/870/376 460/833/350 466/839/354 
f 411/1185/156 409/1193/5 408/1194/8 649/1186/161 
f 649/1186/161 408/1194/8 456/1195/87 650/1187/177 
f 650/1188/177 456/1196/87 455/861/347 480/859/367 481/860/368 
f 481/860/368 491/874/378 464/875/352 463/1197/103 467/840/354 
f 467/840/354 463/1197/103 462/841/351 
f 462/835/351 463/1198/103 420/1199/18 415/773/168 
f 415/773/168 420/1199/18 419/1200/6 416/774/316 
# 515 polygons - 3 triangles

