#File written by RizomUV 2025.0.101.g577a16f3. Compilation :Sep 18 2025,15:37:21
#begin vertices
v -26.9453 -10.3413 -25.8274
v -26.9453 -6.4045 -25.8641
v -23.0083 -6.4045 -25.8641
v -23.0083 -10.3413 -25.8274
v -26.9453 -9.8546 26.3614
v -23.0083 -9.8546 26.3614
v -23.0083 -5.9178 26.3247
v -26.9453 -5.9178 26.3247
v -26.6818 -20.4032 27.1165
v -26.6818 -20.4032 21.1161
v -20.0377 -20.4032 21.1161
v -20.0377 -20.4032 27.1165
v -26.6818 20.8509 27.1165
v -20.0377 20.8509 27.1165
v -20.0377 20.8509 21.1161
v -26.6818 20.8509 21.1161
v -26.4592 -12.4046 -24.3517
v -26.4592 -8.9736 -26.2826
v -23.2066 -8.9736 -26.2826
v -23.2066 -12.4046 -24.3517
v -26.4592 16.1848 26.448
v -23.2066 16.1848 26.448
v -23.2066 19.6158 24.5171
v -26.4592 19.6158 24.5171
v -27.172 14.8672 -25.8274
v -27.172 18.8041 -25.8641
v -23.235 18.8041 -25.8641
v -23.235 14.8672 -25.8274
v -27.172 15.354 26.3614
v -23.235 15.354 26.3614
v -23.235 19.2908 26.3247
v -27.172 19.2908 26.3247
v -26.6818 -20.4032 -20.9576
v -26.6818 -20.4032 -26.958
v -20.0377 -20.4032 -26.958
v -20.0377 -20.4032 -20.9576
v -26.6818 20.8509 -20.9576
v -20.0377 20.8509 -20.9576
v -20.0377 20.8509 -26.958
v -26.6818 20.8509 -26.958
v -27.7061 -14.5442 16.0165
v -27.7061 -14.5442 6.174
v 27.846 -14.5442 6.174
v 27.846 -14.5442 16.0165
v -27.7061 -10.6072 6.174
v -23.1671 -10.6072 12.7356
v -14.0891 -10.6072 16.0165
v 27.846 -10.6072 16.0165
v 27.846 -10.6072 6.174
v -23.1671 -11.9196 16.0165
v -27.7061 -11.9196 12.7356
v -23.9236 -10.8259 13.2825
v -26.941 -10.5376 10.8267
v -25.4366 -11.2634 14.3761
v -21.4374 -10.5869 15.436
v -23.9494 -11.6639 15.6698
v -26.5713 -12.9038 15.1963
v -26.9496 -11.7008 13.2825
v -26.2953 -13.29 27.0478
v -26.2953 -13.29 17.2052
v 29.2359 -14.8113 17.2053
v 29.2359 -14.8113 27.0478
v -26.1875 -9.3545 27.0478
v 29.3437 -10.8757 27.0478
v 29.3437 -10.8757 17.2053
v -26.1875 -9.3545 17.2052
v -26.7874 -14.5442 4.9953
v -26.7874 -14.5442 -4.8472
v 28.7646 -14.5442 -4.8472
v 28.7646 -14.5442 4.9953
v -26.7874 -10.6072 4.9953
v 28.7646 -10.6072 4.9953
v 28.7646 -10.6072 -4.8472
v -26.7874 -11.9815 -4.8472
v -27.5447 -15.1623 -6.0618
v -27.5447 -15.1045 -15.9043
v 29.445 -13.9155 -15.9043
v 29.445 -13.9155 -6.0618
v -27.6376 -11.2263 -6.0618
v 29.3567 -9.9795 -6.0618
v 29.3567 -9.9766 -15.9043
v -29.445 -11.1806 -15.9043
v -26.7874 -14.5442 -17.0487
v -26.7874 -14.5442 -26.8912
v 28.7646 -14.5442 -26.8912
v 28.7646 -14.5442 -17.0487
v -26.7874 -10.6072 -17.0487
v 28.7646 -10.6072 -17.0487
v 28.7646 -10.6072 -26.8912
v -26.7874 -10.6072 -26.8912
v -26.3564 -20.8455 27.5377
v -26.3564 -20.8455 -27.2305
v -21.5215 -20.8455 -27.2305
v -21.5215 -20.8455 27.5377
v -26.3564 -12.0909 27.5377
v -21.5215 -12.0909 27.5377
v -21.5215 -12.0909 -27.2305
v -26.3564 -12.0909 -27.2305
v -26.6171 -20.1543 -26.57
v 28.1511 -20.1543 -26.57
v 28.1511 -20.1543 -21.7352
v -26.6171 -20.1543 -21.7352
v -26.6171 -11.3997 -26.5701
v -26.6171 -11.3997 -21.7352
v 28.1511 -11.3997 -21.7352
v 28.1511 -11.3997 -26.5701
v -26.6171 -20.1543 21.5886
v 28.1511 -20.1543 21.5886
v 28.1511 -20.1543 26.4234
v -26.6171 -20.1543 26.4234
v -26.6171 -11.3997 21.5886
v -26.6171 -11.3997 26.4234
v 28.1511 -11.3997 26.4234
v 28.1511 -11.3997 21.5886
v 23.6214 -20.8455 27.5377
v 23.6214 -20.8455 -27.2305
v 28.4562 -20.8455 -27.2305
v 28.4562 -20.8455 27.5377
v 23.6214 -12.0909 27.5377
v 28.4562 -12.0909 27.5377
v 28.4562 -12.0909 -27.2305
v 23.6214 -12.0909 -27.2305
#end vertices

#begin 363 textures vertices 
vt 0.647761 0.0828236 0
vt 0.647761 0.1022448 0
vt 0.6283396 0.1022448 0
vt 0.6283396 0.0828236 0
vt 0.713669 0.2184628 0
vt 0.7330903 0.2184628 0
vt 0.7330903 0.2378839 0
vt 0.713669 0.2378839 0
vt 0.6645678 0.4783967 0
vt 0.6645678 0.5079968 0
vt 0.6317923 0.5079968 0
vt 0.6317923 0.4783967 0
vt 0.6727306 0.4783967 0
vt 0.7055061 0.4783967 0
vt 0.7055061 0.5079968 0
vt 0.6727306 0.5079968 0
vt 0.7136689 0.2655052 0
vt 0.7136689 0.2460838 0
vt 0.7297141 0.2460838 0
vt 0.7297141 0.2655052 0
vt 0.6544809 0.2381921 0
vt 0.6705261 0.2381921 0
vt 0.6705261 0.2576135 0
vt 0.6544809 0.2576135 0
vt 0.6268599 0.2576138 0
vt 0.6268599 0.2381921 0
vt 0.6462813 0.2381921 0
vt 0.6462813 0.2576138 0
vt 0.69246 0.07887774 0
vt 0.7118813 0.07887774 0
vt 0.7118813 0.0982989 0
vt 0.69246 0.0982989 0
vt 0.7252355 0.00390625 0
vt 0.7252355 0.03350636 0
vt 0.69246 0.03350636 0
vt 0.69246 0.00390625 0
vt 0.69246 0.04139198 0
vt 0.7252355 0.04139198 0
vt 0.7252355 0.07099209 0
vt 0.69246 0.07099209 0
vt 0.5600755 0.1740718 0
vt 0.8343133 0.4507757 0
vt 0.2860357 0.222625 0
vt 0.2860357 0.1740718 0
vt 0.8343133 0.470197 0
vt 0.5997378 0.1788682 0
vt 0.6473547 0.1788682 0
vt 0.6248869 0.2862209 0
vt 0.6734402 0.2862209 0
vt 0.1327997 0.5031137 0
vt 0.2203251 0.5020429 0
vt 0.5970633 0.1749673 0
vt 0.579083 0.1818267 0
vt 0.5917141 0.1671665 0
vt 0.6122902 0.1692398 0
vt 0.1293786 0.5059122 0
vt 0.1151392 0.5059246 0
vt 0.2227031 0.5061213 0
vt 0.2779457 0.2312868 0
vt 0.2779458 0.2798406 0
vt 0.003906351 0.2798406 0
vt 0.003906264 0.2312873 0
vt 0.2860358 0.1173499 0
vt 0.5600752 0.1173504 0
vt 0.5600751 0.1659037 0
vt 0.2860357 0.1659037 0
vt 0.560075 0.2875154 0
vt 0.560075 0.3360687 0
vt 0.2860357 0.3360687 0
vt 0.2860357 0.2875154 0
vt 0.003990511 0.1173499 0
vt 0.2780294 0.1178209 0
vt 0.2780294 0.1663741 0
vt 0.00390626 0.1663741 0
vt 0.2851051 0.06062809 0
vt 0.2850989 0.1091822 0
vt 0.003906252 0.1091814 0
vt 0.003906397 0.06062809 0
vt 0.01281545 0.003906277 0
vt 0.2940369 0.003908039 0
vt 0.2940371 0.05246131 0
vt 0.003906262 0.05246131 0
vt 0.2779455 0.2880087 0
vt 0.2779455 0.3365619 0
vt 0.003906276 0.3365619 0
vt 0.003906276 0.2880087 0
vt 0.2860357 0.2307936 0
vt 0.560075 0.2307936 0
vt 0.560075 0.2793469 0
vt 0.2860357 0.2793469 0
vt 0.4611335 0.7959199 0
vt 0.4611335 0.5257471 0
vt 0.4849842 0.5257471 0
vt 0.4849842 0.7959199 0
vt 0.4290734 0.5257471 0
vt 0.452924 0.5257471 0
vt 0.452924 0.7959199 0
vt 0.4290734 0.7959199 0
vt 0.1395454 0.8235409 0
vt 0.1395454 0.5533682 0
vt 0.1633956 0.5533682 0
vt 0.1633956 0.8235409 0
vt 0.3970132 0.5257471 0
vt 0.4208639 0.5257471 0
vt 0.4208639 0.7959199 0
vt 0.3970132 0.7959199 0
vt 0.1716056 0.8235409 0
vt 0.1716056 0.5533682 0
vt 0.1954558 0.5533682 0
vt 0.1954558 0.8235409 0
vt 0.4931937 0.5257471 0
vt 0.5170438 0.5257471 0
vt 0.5170438 0.7959199 0
vt 0.4931937 0.7959199 0
vt 0.1074852 0.8235409 0
vt 0.1074852 0.5533682 0
vt 0.1313354 0.5533682 0
vt 0.1313354 0.8235409 0
vt 0.5252538 0.5257471 0
vt 0.549104 0.5257471 0
vt 0.549104 0.7959199 0
vt 0.5252538 0.7959199 0
vt 0.00390625 0.2231177 0
vt 0.02629844 0.1907502 0
vt 0.07107989 0.1745654 0
vt 0.2779467 0.174565 0
vt 0.2779468 0.2231183 0
vt 0.003906608 0.2231183 0
vt 0.557314 0.5533682 0
vt 0.8313535 0.5533682 0
vt 0.831359 0.5727902 0
vt 0.6244923 0.5727965 0
vt 0.5797101 0.5663237 0
vt 0.5573186 0.5533725 0
vt 0.5681652 0.2944207 0
vt 0.6167212 0.2944207 0
vt 0.6167195 0.2944268 0
vt 0.6005363 0.3073701 0
vt 0.5681691 0.3138506 0
vt 0.5681728 0.3138451 0
vt 0.1074852 0.4986193 0
vt 0.1868958 0.5020429 0
vt 0.8317498 0.5325245 0
vt 0.5681652 0.2463861 0
vt 0.3059503 0.5533682 0
vt 0.3693922 0.5533682 0
vt 0.620171 0.1022453 0
vt 0.5602736 0.4149552 0
vt 0.2865289 0.5533682 0
vt 0.557314 0.8325302 0
vt 0.834313 0.4149547 0
vt 0.5716177 0.07462372 0
vt 0.3611924 0.5533682 0
vt 0.5767352 0.8325302 0
vt 0.5642193 0.3442373 0
vt 0.6162519 0.2396718 0
vt 0.3888133 0.5533683 0
vt 0.3417711 0.5533682 0
vt 0.3611924 0.8108279 0
vt 0.5767352 0.5750705 0
vt 0.6290492 0.00390626 0
vt 0.5577943 0.5257471 0
vt 0.2865289 0.8108279 0
vt 0.557314 0.5750705 0
vt 0.8382585 0.3442373 0
vt 0.5804959 0.00390626 0
vt 0.3059503 0.8108279 0
vt 0.3693922 0.8108279 0
vt 0.3888133 0.810828 0
vt 0.3417711 0.8108279 0
vt 0.7405257 0.5809893 0
vt 0.6229142 0.7925864 0
vt 0.7077502 0.5809893 0
vt 0.6145353 0.7925864 0
vt 0.8314371 0.5451625 0
vt 0.5699134 0.2589065 0
vt 0.6995873 0.5809893 0
vt 0.5849352 0.7925864 0
vt 0.6525143 0.7925864 0
vt 0.6668118 0.5809893 0
vt 0.6995873 0.7844967 0
vt 0.5849352 0.9960937 0
vt 0.2408635 0.4986193 0
vt 0.7077502 0.7844967 0
vt 0.6145353 0.9960937 0
vt 0.5681653 0.2023683 0
vt 0.7405257 0.7844967 0
vt 0.6229142 0.9960937 0
vt 0.6525143 0.9960937 0
vt 0.6668118 0.7844967 0
vt 0.09936196 0.4986193 0
vt 0.003906259 0.4986193 0
vt 0.08331681 0.4986193 0
vt 0.03152732 0.7861754 0
vt 0.07519353 0.4986193 0
vt 0.05094874 0.7861753 0
vt 0.02332767 0.4986194 0
vt 0.05914838 0.4986193 0
vt 0.07519353 0.7861753 0
vt 0.05094874 0.4986193 0
vt 0.08331681 0.7861753 0
vt 0.03152732 0.4986194 0
vt 0.09936196 0.7861753 0
vt 0.003906259 0.7861753 0
vt 0.02332767 0.7861754 0
vt 0.05914838 0.7861753 0
vt 0.2783292 0.5533682 0
vt 0.2312868 0.5533682 0
vt 0.2589079 0.5533682 0
vt 0.2036658 0.810828 0
vt 0.3335713 0.5533682 0
vt 0.2230874 0.8108279 0
vt 0.2507084 0.5533683 0
vt 0.31415 0.5533682 0
vt 0.3335713 0.8108279 0
vt 0.2230869 0.5533682 0
vt 0.2589079 0.8108279 0
vt 0.2036658 0.5533683 0
vt 0.2783292 0.8108279 0
vt 0.2312868 0.8108279 0
vt 0.250708 0.810828 0
vt 0.31415 0.8108279 0
vt 0.658649 0.5809893 0
vt 0.7866676 0.5809893 0
vt 0.6258735 0.5809893 0
vt 0.7782888 0.5809893 0
vt 0.6177106 0.5809893 0
vt 0.7486887 0.5809893 0
vt 0.8162677 0.5809893 0
vt 0.5849351 0.5809893 0
vt 0.6177106 0.7844967 0
vt 0.7486887 0.7844967 0
vt 0.6258735 0.7844967 0
vt 0.7782888 0.7844967 0
vt 0.658649 0.7844967 0
vt 0.7866676 0.7844967 0
vt 0.8162677 0.7844967 0
vt 0.5849351 0.7844967 0
vt 0.5600755 0.222625 0
vt 0.6734402 0.2667996 0
vt 0.5602735 0.4507757 0
vt 0.6248869 0.2667996 0
vt 0.5602735 0.470197 0
vt 0.209553 0.5081947 0
vt 0.1223363 0.5135433 0
vt 0.2275387 0.5151067 0
vt 0.1424511 0.5091518 0
vt 0.1788579 0.5031137 0
vt 0.2338739 0.5066532 0
vt 0.8343129 0.4231546 0
vt 0.5716177 0.08282359 0
vt 0.5602735 0.4231546 0
vt 0.6201715 0.05520253 0
vt 0.8343129 0.3955335 0
vt 0.5716177 0.05520253 0
vt 0.620171 0.08282359 0
vt 0.5602735 0.3955335 0
vt 0.5602734 0.4425758 0
vt 0.6201715 0.07462372 0
vt 0.8343128 0.4425763 0
vt 0.5716177 0.1022453 0
vt 0.5642193 0.3636586 0
vt 0.6189377 0.2589065 0
vt 0.8382585 0.3636586 0
vt 0.5804959 0.02332757 0
vt 0.6290492 0.02332757 0
vt 0.557314 0.5451625 0
vt 0.3887175 0.5257476 0
vt 0.5681651 0.2668139 0
vt 0.1075188 0.5257471 0
vt 0.6177023 0.2121394 0
vt 0.5632825 0.4981261 0
vt 0.5691919 0.2100778 0
vt 0.6167184 0.2667996 0
vt 0.2820898 0.4982351 0
vt 0.5722585 0.5176706 0
vt 0.5681652 0.2315604 0
vt 0.1074852 0.5451689 0
vt 0.6175308 0.2315604 0
vt 0.3887067 0.5451689 0
vt 0.5681709 0.2862352 0
vt 0.6167241 0.2862352 0
vt 0.2821276 0.5176706 0
vt 0.8422044 0.1395454 0
vt 0.5750704 0.4783967 0
vt 0.5681651 0.1395454 0
vt 0.6502583 0.3166162 0
vt 0.8422044 0.1119244 0
vt 0.601705 0.3166162 0
vt 0.6236237 0.4783967 0
vt 0.5681651 0.1119244 0
vt 0.8422044 0.1313457 0
vt 0.601705 0.3360375 0
vt 0.5681651 0.1589667 0
vt 0.6502583 0.3360375 0
vt 0.8422044 0.1589667 0
vt 0.5750704 0.497818 0
vt 0.6236237 0.497818 0
vt 0.5681651 0.1313457 0
vt 0.6817842 0.1671665 0
vt 0.2860357 0.3442373 0
vt 0.6579336 0.1671665 0
vt 0.274079 0.3447305 0
vt 0.6842504 0.003906263 0
vt 0.003906268 0.3447305 0
vt 0.5562085 0.3442373 0
vt 0.6603997 0.003906263 0
vt 0.6842504 0.0470929 0
vt 0.003906268 0.3879171 0
vt 0.6579336 0.2103531 0
vt 0.274079 0.3879171 0
vt 0.6817842 0.2103531 0
vt 0.2860357 0.3874239 0
vt 0.5562085 0.3874239 0
vt 0.6603997 0.0470929 0
vt 0.6283401 0.07471422 0
vt 0.2820899 0.4468298 0
vt 0.6521902 0.07471395 0
vt 0.563607 0.0606281 0
vt 0.6497241 0.1868961 0
vt 0.2934342 0.0606281 0
vt 0.5522626 0.4468298 0
vt 0.6258739 0.1868958 0
vt 0.6497241 0.2300827 0
vt 0.2934342 0.1038147 0
vt 0.6521902 0.03152731 0
vt 0.563607 0.1038147 0
vt 0.6283396 0.03152759 0
vt 0.2820899 0.4900164 0
vt 0.5522626 0.4900164 0
vt 0.6258734 0.2300824 0
vt 0.705459 0.269759 0
vt 0.003906268 0.3960268 0
vt 0.6816088 0.269759 0
vt 0.274079 0.447323 0
vt 0.7138439 0.1671665 0
vt 0.003906268 0.447323 0
vt 0.274079 0.3960268 0
vt 0.6899938 0.1671665 0
vt 0.7138439 0.2103531 0
vt 0.003906268 0.4905097 0
vt 0.6816088 0.3129457 0
vt 0.274079 0.4905097 0
vt 0.705459 0.3129457 0
vt 0.003906268 0.4392134 0
vt 0.274079 0.4392134 0
vt 0.6899938 0.2103531 0
vt 0.705459 0.2184628 0
vt 0.3023124 0.003906263 0
vt 0.6816088 0.2184628 0
vt 0.5522626 0.3955335 0
vt 0.6842499 0.05520253 0
vt 0.2820899 0.3955335 0
vt 0.5724852 0.003906263 0
vt 0.6603998 0.05520253 0
vt 0.6842499 0.09838916 0
vt 0.2820899 0.4387202 0
vt 0.6816088 0.2616494 0
vt 0.5522626 0.4387202 0
vt 0.705459 0.2616494 0
vt 0.3023124 0.0470929 0
vt 0.5724852 0.0470929 0
vt 0.6603998 0.09838916 0
#end 363 textures vertices 

#begin 73 normals 
vn -0.5774 -0.5827 -0.5719
vn -0.5774 0.5719 -0.5827
vn 0.5774 0.5719 -0.5827
vn 0.5774 -0.5827 -0.5719
vn -0.5774 -0.5719 0.5827
vn 0.5774 -0.5719 0.5827
vn 0.5774 0.5827 0.5719
vn -0.5774 0.5827 0.5719
vn -0.5775 -0.5773 0.5773
vn -0.5774 -0.5774 -0.5774
vn 0.5774 -0.5774 -0.5774
vn 0.5775 -0.5773 0.5773
vn -0.5774 0.5774 0.5773
vn 0.5774 0.5774 0.5773
vn 0.5774 0.5774 -0.5773
vn -0.5774 0.5774 -0.5773
vn -0.5774 -0.7863 -0.22
vn -0.5774 0.22 -0.7863
vn 0.5774 0.22 -0.7863
vn 0.5774 -0.7863 -0.22
vn -0.5774 -0.22 0.7863
vn 0.5774 -0.22 0.7863
vn 0.5774 0.7863 0.22
vn -0.5774 0.7863 0.22
vn 1 0 -0
vn 0.5774 -0.5773 0.5774
vn -0.5691 0.0819 -0.8182
vn -0.0802 0.9893 0.1222
vn -0.0023 0.7071 0.7071
vn 0.5774 0.5773 0.5774
vn 0.5775 0.5773 -0.5773
vn -0.0816 0.3646 0.9276
vn -0.7384 -0.5439 0.3987
vn -0.8218 0.5327 0.2024
vn 0.3371 0.858 -0.3875
vn -0.5128 0.8493 0.125
vn -0.3994 0.7619 0.5099
vn -0.075 0.8614 0.5024
vn -0.4101 0.77 0.4888
vn -0.4899 0.6367 0.5955
vn -0.011 0.8673 0.4977
vn -0.5931 -0.5612 0.5774
vn -0.593 -0.5614 -0.5773
vn 0.5612 -0.5929 -0.5775
vn 0.5614 -0.593 0.5772
vn -0.5613 0.5929 0.5774
vn 0.5928 0.5615 0.5774
vn 0.593 0.5613 -0.5772
vn -0.5613 0.5929 -0.5774
vn -0.5704 0.6197 0.539
vn 0.5774 0.5774 0.5774
vn 0.5708 0.5851 -0.576
vn -0.591 0.5247 -0.6127
vn -0.5638 -0.592 0.5759
vn -0.4164 -0.6784 -0.6053
vn 0.5899 -0.5646 -0.5773
vn 0.5901 -0.5643 0.5774
vn -0.5315 0.5727 0.6242
vn 0.5644 0.59 0.5774
vn 0.5647 0.5897 -0.5774
vn -0.7578 0.4204 -0.499
vn -0.5774 -0.5773 -0.5774
vn 0.5774 -0.5773 -0.5774
vn -0.5774 0.5774 0.5774
vn 0.5774 0.5773 -0.5774
vn -0.5774 0.5773 -0.5774
vn -0.5775 0.5773 -0.5773
vn -0.5774 -0.5773 0.5774
vn -0.5774 0.5773 0.5774
vn 0.5774 -0.5772 0.5774
vn -0.5774 -0.5774 0.5772
vn -0.5772 0.5774 0.5774
vn 0.5774 0.5774 -0.5772
#end 73 normals 

#begin 93 faces
o bridge_I_barrier
g bridge_I_barrier
s 2
f 1/1/1 2/2/2 3/3/3 4/4/4 
s 4
f 5/5/5 6/6/6 7/7/7 8/8/8 
s 8
f 1/149/1 4/145/4 6/167/6 5/163/5 
s 16
f 4/146/4 3/157/3 7/169/7 6/168/6 
s 32
f 3/158/3 2/153/2 8/159/8 7/170/7 
s 64
f 2/154/2 1/150/1 5/164/5 8/160/8 
s 2
f 9/9/9 10/10/10 11/11/11 12/12/12 
s 4
f 13/13/13 14/14/14 15/15/15 16/16/16 
s 8
f 9/173/9 12/171/12 14/187/14 13/184/13 
s 16
f 12/172/12 11/179/11 15/189/15 14/188/14 
s 32
f 11/180/11 10/177/10 16/181/16 15/190/15 
s 64
f 10/178/10 9/174/9 13/185/13 16/182/16 
s 2
f 17/17/17 18/18/18 19/19/19 20/20/20 
s 4
f 21/21/21 22/22/22 23/23/23 24/24/24 
s 8
f 17/193/17 20/191/20 22/203/22 21/201/21 
s 16
f 20/192/20 19/197/19 23/205/23 22/204/22 
s 32
f 19/198/19 18/195/18 24/199/24 23/206/23 
s 64
f 18/196/18 17/194/17 21/202/21 24/200/24 
s 2
f 25/25/1 26/26/2 27/27/3 28/28/4 
s 4
f 29/29/5 30/30/6 31/31/7 32/32/8 
s 8
f 25/209/1 28/207/4 30/219/6 29/217/5 
s 16
f 28/208/4 27/213/3 31/221/7 30/220/6 
s 32
f 27/214/3 26/211/2 32/215/8 31/222/7 
s 64
f 26/212/2 25/210/1 29/218/5 32/216/8 
s 2
f 33/33/9 34/34/10 35/35/11 36/36/12 
s 4
f 37/37/13 38/38/14 39/39/15 40/40/16 
s 8
f 33/225/9 36/223/12 38/235/14 37/233/13 
s 16
f 36/224/12 35/229/11 39/237/15 38/236/14 
s 32
f 35/230/11 34/227/10 40/231/16 39/238/15 
s 64
f 34/228/10 33/226/9 37/234/13 40/232/16 
s 1
f 41/41/25 42/239/10 43/43/11 44/44/26 
f 45/123/27 46/124/28 47/125/29 48/126/30 49/127/31 45/128/25 
s 2
f 41/129/25 44/130/26 48/131/30 47/132/29 50/133/32 41/134/33 
s 4
f 44/242/26 43/240/11 49/49/31 48/48/30 
s 2
f 43/241/11 42/42/10 45/45/25 49/243/31 
s 4
f 42/135/10 41/136/25 41/137/33 51/138/34 45/139/27 45/140/25 
s 1
f 52/52/35 53/53/36 54/54/37 55/55/38 
f 52/52/35 46/46/28 45/186/27 53/53/36 
f 52/52/35 55/55/38 47/47/29 46/46/28 
s 2
f 56/56/39 55/247/38 54/245/37 57/57/40 
f 56/56/39 50/50/32 47/248/29 55/247/38 
f 56/56/39 57/57/40 41/141/33 50/50/32 
f 58/58/41 57/249/40 54/246/37 53/244/36 
f 58/58/41 51/51/34 41/183/33 57/249/40 
f 58/58/41 53/244/36 45/142/27 51/51/34 
f 59/59/42 60/60/43 61/61/44 62/62/45 
s 4
f 63/63/46 64/64/47 65/65/48 66/66/49 
s 8
f 59/252/42 62/250/45 64/260/47 63/258/46 
s 16
f 62/251/45 61/256/44 65/147/48 64/261/47 
s 32
f 61/257/44 60/254/43 66/151/49 65/148/48 
s 64
f 60/255/43 59/253/42 63/259/46 66/152/49 
s 2
f 67/67/9 68/68/10 69/69/11 70/70/12 
s 4
f 71/71/50 72/72/51 73/73/52 74/74/53 
s 8
f 67/155/9 70/165/12 72/264/51 71/262/50 
s 16
f 70/166/12 69/161/11 73/266/52 72/265/51 
s 32
f 69/162/11 68/143/10 74/175/53 73/267/52 
s 64
f 68/144/10 67/156/9 71/263/50 74/176/53 
s 2
f 75/75/54 76/76/55 77/77/56 78/78/57 
s 4
f 79/79/58 80/80/59 81/81/60 82/82/61 
s 8
f 75/270/54 78/268/57 80/280/59 79/278/58 
s 16
f 78/269/57 77/274/56 81/282/60 80/281/59 
s 32
f 77/275/56 76/272/55 82/276/61 81/283/60 
s 64
f 76/273/55 75/271/54 79/279/58 82/277/61 
s 2
f 83/83/9 84/84/62 85/85/63 86/86/12 
s 4
f 87/87/64 88/88/51 89/89/65 90/90/66 
s 8
f 83/286/9 86/284/12 88/296/51 87/294/64 
s 16
f 86/285/12 85/290/63 89/298/65 88/297/51 
s 32
f 85/291/63 84/288/62 90/292/66 89/299/65 
s 64
f 84/289/62 83/287/9 87/295/64 90/293/66 
s 2
f 91/91/9 92/92/10 93/93/11 94/94/12 
s 4
f 95/95/64 96/96/51 97/97/31 98/98/67 
s 8
f 91/302/9 94/300/12 96/312/51 95/310/64 
s 16
f 94/301/12 93/306/11 97/314/31 96/313/51 
s 32
f 93/307/11 92/304/10 98/308/67 97/315/31 
s 64
f 92/305/10 91/303/9 95/311/64 98/309/67 
s 2
f 99/99/62 100/100/63 101/101/26 102/102/68 
s 4
f 103/103/66 104/104/69 105/105/30 106/106/65 
s 8
f 99/318/62 102/316/68 104/328/69 103/326/66 
s 16
f 102/317/68 101/322/26 105/330/30 104/329/69 
s 32
f 101/323/26 100/320/63 106/324/65 105/331/30 
s 64
f 100/321/63 99/319/62 103/327/66 106/325/65 
s 2
f 107/107/62 108/108/11 109/109/70 110/110/71 
s 4
f 111/111/66 112/112/72 113/113/51 114/114/73 
s 8
f 107/334/62 110/332/71 112/344/72 111/342/66 
s 16
f 110/333/71 109/338/70 113/346/51 112/345/72 
s 32
f 109/339/70 108/336/11 114/340/73 113/347/51 
s 64
f 108/337/11 107/335/62 111/343/66 114/341/73 
s 2
f 115/115/9 116/116/10 117/117/11 118/118/12 
s 4
f 119/119/64 120/120/51 121/121/31 122/122/67 
s 8
f 115/350/9 118/348/12 120/360/51 119/358/64 
s 16
f 118/349/12 117/354/11 121/362/31 120/361/51 
s 32
f 117/355/11 116/352/10 122/356/67 121/363/31 
s 64
f 116/353/10 115/351/9 119/359/64 122/357/67 
#end 93 faces

#ZOMPROPERTIES_04{
#ZOMPROPERTIES_04 table {Mesh table {SymPlane table {Point vector3d 0 0 0 Normal vector3d 1 0 0 Threshold double 0.01 
#ZOMPROPERTIES_04 Enabled bool false EdgeID int -1 SymEdgeID int -1 UPos double 0.5 LocalMode bool false } RootGroup C
#ZOMPROPERTIES_04 SubMeshGroup {Children table {Tile_0_0 CSubMeshGroup {Children table {} BBoxUV box3d 0 0 0 0 0 0 BBo
#ZOMPROPERTIES_04 x3D box3d 0 0 0 0 0 0 Area3D double 0 AreaUV double 0 IsRoot bool false Properties table {Selected b
#ZOMPROPERTIES_04 ool false Box box3d 0 1 0 1 0 1 U int 0 V int 0 NU int 0 NV int 0 Pack table {BoxFrameEdit bool fals
#ZOMPROPERTIES_04 e Behavior string "Free" Locked bool false Scaling table {Optimization string "Fill" } } Hotspot tab
#ZOMPROPERTIES_04 le {} } IsTile bool true PolyIDs ints { 13 12 42 43 44 39 40 41 19 0 1 18 35 36 38 37 56 68 33 54 66
#ZOMPROPERTIES_04  50 48 60 7 6 24 25 62 91 85 89 83 79 77 71 73 55 14 16 32 5 3 22 4 2 20 21 23 67 53 65 34 47 49 59 
#ZOMPROPERTIES_04 61 15 17 29 9 27 11 88 87 81 75 82 76 69 70 28 26 10 8 74 92 72 86 84 90 78 80 31 64 63 51 30 46 45 
#ZOMPROPERTIES_04 52 57 58 } } } BBoxUV box3d 0 0 0 0 0 0 BBox3D box3d 0 0 0 0 0 0 Area3D double 0 AreaUV double 0 IsR
#ZOMPROPERTIES_04 oot bool true Properties table {Selected bool false Box box3d 0 1 0 1 0 1 U int 0 V int 0 NU int 1 N
#ZOMPROPERTIES_04 V int 1 Pack table {Rotate table {Initial string "Automatic" Min double 0 Max double 90 Step double 
#ZOMPROPERTIES_04 0 } ResolutionDivisor int 0 MapResolution int 2048 UsePixelUnit bool true PaddingSize double 0.00781
#ZOMPROPERTIES_04 25 MarginSize double 0.00390625 PaddingSizePx int 16 MarginSizePx int 8 Scaling table {TexelDensity 
#ZOMPROPERTIES_04 double 1024 Mode int 2 Optimization string "Fill" } MaxMutations int 1 Strategy string "Efficient" S
#ZOMPROPERTIES_04 ides string "Closed" } Hotspot table {} Tiling vector3d 1 1 1 TileRatioMode string "1:1" } IsTile bo
#ZOMPROPERTIES_04 ol false PolyIDs ints { } } Maps table {Pin CDataMap {PrimType string "Vertex" Size int 1 DefaultVal
#ZOMPROPERTIES_04 ue double 0 ScaleType string "Normalized" MergeMode string "Max" MinValue double 0 MaxValue double 1
#ZOMPROPERTIES_04  Data doubles { r 363 0 } } Density CDataMap {PrimType string "Polygon" Size int 1 DefaultValue doub
#ZOMPROPERTIES_04 le 1 ScaleType string "Log" MergeMode string "Average" MinValue double 0.1 MaxValue double 4 Data do
#ZOMPROPERTIES_04 ubles { r 93 1 } } Protect CDataMap {PrimType string "Vertex" Size int 1 DefaultValue double 0 Scale
#ZOMPROPERTIES_04 Type string "Normalized" MergeMode string "Average" MinValue double -1 MaxValue double 1 Data double
#ZOMPROPERTIES_04 s { r 363 0 } } } } }
#ZOMPROPERTIES_04}


#ZOMSCENE_01{
#ZOMSCENE_01 CScene {Settings table {AxisSystem table {UpVector string "y" } Unit string "cm" TexelDensityDisplay
#ZOMSCENE_01 Unit string "tx/cm" } Root CXForm {bridge_I_barrier CPrim {PolyRange table {Low int 0 High int 92 } 
#ZOMSCENE_01 } } }
#ZOMSCENE_01}

#begin 0 fatal error vertex (that RizomUV cannot handle)
#end 0 fatal error vertex (that RizomUV cannot handle)

#begin 0 error vertex
#end 0 error vertex
