# 3ds Max Wavefront OBJ Exporter v0.99 - (c)2007 guruware
# File Created: 17.05.2026 11:18:21

#
# object prefab_doors_lvl001
#

v  -59.6009 37.8657 -0.5258
v  -20.6245 37.8657 -0.5258
v  -20.6245 37.8657 10.4608
v  -59.6009 37.8657 10.4608
v  -20.6245 49.6767 -0.5258
v  -20.6245 49.6767 10.4608
v  -59.6009 49.6767 -0.5258
v  -59.6009 49.6767 10.4608
v  -20.6245 49.6767 -11.5124
v  -59.6009 49.6767 -11.5124
v  -59.1870 38.2795 -11.0985
v  -20.6245 37.8657 -11.5124
v  -59.6009 -49.0214 -0.5258
v  -29.2610 -49.0212 -0.5258
v  -29.2622 -49.0214 9.3167
v  -59.6009 -49.0214 9.3167
v  -29.2411 -37.2103 9.3167
v  -59.6009 -37.2103 9.3167
v  -59.6009 -37.2103 -0.5258
v  -59.6009 -49.0214 -10.3683
v  -29.8548 -48.4251 -9.7732
v  -29.2399 -37.2103 -0.5258
v  -59.6009 -37.2103 -10.3683
v  -29.4205 -37.3919 -10.1865
v  59.5273 -49.0214 -0.5258
v  59.5273 -49.0214 9.3167
v  28.6828 -49.0214 9.3167
v  28.6828 -49.0214 -0.5258
v  28.6828 -49.0214 -10.3683
v  59.5273 -49.0214 -10.3683
v  58.8954 -37.8422 6.7631
v  59.1056 -38.9051 7.6220
v  59.5273 -39.1176 7.4095
v  59.5273 -37.2103 5.4731
v  58.8954 -39.7640 8.6849
v  59.5273 -41.0540 9.3167
v  57.8325 -38.9051 8.8951
v  57.6200 -39.1176 9.3167
v  56.9736 -37.8422 8.6849
v  55.6836 -37.2103 9.3167
v  56.9736 -37.8422 -9.7365
v  57.8325 -38.9051 -9.9467
v  57.6200 -39.1176 -10.3683
v  55.6836 -37.2103 -10.3683
v  58.8954 -39.7640 -9.7365
v  59.5273 -41.0540 -10.3683
v  59.1056 -38.9051 -8.6736
v  59.5273 -39.1176 -8.4611
v  58.8954 -37.8422 -7.8147
v  59.5273 -37.2103 -6.5247
v  57.8325 -37.6320 7.6220
v  57.6200 -37.2103 7.4095
v  58.2578 -38.4798 8.0472
v  57.8325 -37.6320 -8.6736
v  57.6200 -37.2103 -8.4611
v  58.2578 -38.4798 -9.0988
v  20.5509 37.8657 -0.5258
v  59.5273 37.8657 -0.5258
v  59.5273 37.8657 9.3167
v  20.5509 37.8657 9.3167
v  59.5273 49.6767 -0.5258
v  59.5273 49.6767 9.3167
v  23.6221 46.6055 9.3167
v  31.4830 49.6767 9.3167
v  26.3454 49.3482 8.9882
v  23.0458 47.1818 9.0480
v  21.8648 48.3627 8.0028
v  23.0458 49.4080 6.8218
v  20.8794 49.3482 3.5222
v  20.8196 47.1818 6.8218
v  20.8794 43.8822 8.9882
v  20.5509 46.6055 6.2456
v  20.5509 38.7446 9.3167
v  21.8648 48.3627 -9.0544
v  20.8794 49.3482 -4.5738
v  23.0458 49.4080 -7.8734
v  26.3454 49.3482 -10.0398
v  31.4830 49.6767 -10.3683
v  23.6221 46.6055 -10.3683
v  23.0458 47.1818 -10.0996
v  20.5509 38.7446 -10.3683
v  20.8794 43.8822 -10.0398
v  23.6221 49.6767 -7.2971
v  20.5509 46.6055 -7.2971
v  20.8196 47.1818 -7.8734
v  23.6221 49.6767 6.2456
v  59.5273 49.6767 -10.3683
v  59.5273 37.8657 -10.3683
v  20.5509 37.8657 -10.3683
v  19.5473 49.6767 9.3167
v  19.5473 49.6767 -0.5258
v  -19.4291 49.6767 -0.5258
v  -19.4291 49.6767 9.3167
v  -17.6858 37.8657 -8.6250
v  -19.4291 37.8657 -4.2379
v  -19.2244 38.0704 -7.0984
v  -17.9881 38.0331 -8.9273
v  -18.6103 38.6844 -9.5495
v  -19.2617 39.3067 -8.9273
v  -19.2244 41.1355 -10.1636
v  -17.9881 39.3067 -10.2009
v  -16.1592 38.0704 -10.1636
v  -17.6858 39.6090 -10.3683
v  -13.2987 37.8657 -10.3683
v  -19.4291 39.6090 -8.6250
v  -19.4291 43.9960 -10.3683
v  -19.4291 39.6090 7.5734
v  -19.4291 37.8657 3.1864
v  -19.2244 38.0704 6.0469
v  -19.2617 39.3067 7.8757
v  -18.6103 38.6844 8.4980
v  -17.9881 38.0331 7.8757
v  -16.1592 38.0704 9.1120
v  -17.9881 39.3067 9.1493
v  -19.2244 41.1355 9.1120
v  -17.6858 39.6090 9.3167
v  -19.4291 43.9960 9.3167
v  -17.6858 37.8657 7.5734
v  -13.2987 37.8657 9.3167
v  19.5473 49.6767 -10.3683
v  -19.4291 49.6767 -10.3683
v  19.5473 37.8657 -0.5258
v  19.5473 37.8657 -10.3683
v  19.5473 37.8657 9.3167
v  -59.0410 -48.9591 -0.5258
v  -29.2609 -48.9588 -0.5258
v  -29.2615 -48.9591 4.6995
v  -59.0410 -48.9591 4.6995
v  -59.0410 49.4661 4.6995
v  -59.0410 49.4661 -0.5258
v  -59.0410 -48.9591 -5.7511
v  -29.4142 -48.8047 -5.5970
v  28.6835 -48.9591 -0.5258
v  59.0693 -48.9591 -0.5258
v  59.0693 -48.9591 4.6995
v  28.6835 -48.9591 4.6995
v  59.0693 49.4661 -0.5258
v  59.0693 49.4661 4.6995
v  -59.0410 49.4661 -5.7511
v  28.6835 -48.9591 -5.7511
v  59.0693 -48.9591 -5.7511
v  59.0693 49.4661 -5.7511
v  19.0432 20.1455 -5.7511
v  29.3401 0.9020 -5.7352
v  29.3645 0.9080 4.6706
v  19.0432 20.1455 4.6995
v  0.0682 28.2794 -5.7148
v  0.0684 28.2925 4.6562
v  -18.7249 20.6955 -5.7511
v  -18.7249 20.6955 4.6995
v  -29.3578 1.8602 -5.6508
v  -29.1710 1.8115 4.6995
v  -59.1713 13.3372 -0.5258
v  -39.4862 13.3372 -0.5258
v  -39.4862 13.3372 7.5135
v  -59.1713 13.3372 7.5135
v  -43.3415 21.4866 7.5135
v  -39.4862 17.1270 7.5135
v  -40.4370 21.2345 6.4641
v  -42.6903 22.7717 6.8139
v  -40.1201 22.7717 3.9772
v  -40.3990 25.3419 2.1407
v  -41.3878 25.3419 5.4148
v  -42.6903 27.9121 6.8139
v  -44.3542 25.3419 6.5061
v  -40.4370 29.4493 6.4641
v  -39.4862 29.1972 3.2584
v  -39.4862 33.5568 7.5135
v  -40.1201 27.9121 3.9772
v  -59.1713 36.9592 7.5135
v  -59.1713 36.9592 -0.5258
v  -59.1713 25.3419 -0.5258
v  -59.1713 25.3419 7.5135
v  -58.8231 36.6110 -8.2169
v  -59.1713 25.3419 -8.5651
v  -39.4862 21.4866 -4.3100
v  -39.4862 17.1270 -8.5651
v  -40.4370 21.2345 -7.5157
v  -40.1201 22.7717 -5.0288
v  -42.6903 22.7717 -7.8655
v  -44.3542 25.3419 -7.5577
v  -41.3878 25.3419 -6.4663
v  -40.1201 27.9121 -5.0288
v  -40.3990 25.3419 -3.1923
v  -40.4370 29.4493 -7.5157
v  -43.3415 29.1972 -8.5651
v  -39.4862 33.5568 -8.5651
v  -42.6903 27.9121 -7.8655
v  -39.4862 29.1972 -4.3100
v  -43.3415 21.4866 -8.5651
v  -47.7011 25.3419 -8.5651
v  -39.4862 36.9592 -0.5258
v  -39.4862 36.9592 -8.5651
v  -39.4862 36.9592 7.5135
v  -43.3415 29.1972 7.5135
v  -47.7011 25.3419 7.5135
v  -39.4862 21.4866 3.2584
v  -39.4862 13.3372 -8.5651
v  -59.1713 13.3372 -8.5651
v  0.6518 36.9824 6.7583
v  0.6298 36.9604 -0.5258
v  -38.3246 36.9824 -0.5258
v  -38.3246 36.9824 6.7583
v  -38.3246 13.3603 -0.5258
v  -38.3246 13.3603 6.7583
v  0.5924 28.0537 6.6608
v  0.6518 27.9640 -0.5258
v  0.4952 36.8258 -7.6532
v  -38.3246 36.9824 -7.8098
v  -38.3246 13.3603 -7.8098
v  -22.7862 13.3603 -0.5258
v  -22.7865 13.3603 6.7583
v  0.6282 27.9997 -7.7711
v  -22.7859 13.3603 -7.8098
v  -18.7249 20.6955 -7.8098
v  0.0680 28.2624 -7.7828
v  0.0688 28.3312 6.6940
v  -18.7249 20.6955 6.7583
v  22.6619 13.3603 -0.5258
v  40.4649 13.3603 -0.5258
v  40.4649 13.3603 7.1378
v  22.6619 13.3603 7.1378
v  22.6619 13.3603 -8.1894
v  40.4649 13.3603 -8.1894
v  1.4885 27.6083 -0.5258
v  1.5159 36.9549 -0.5258
v  1.6432 36.8276 -8.0347
v  1.5281 27.6346 -8.1609
v  1.6560 27.7191 7.0174
v  1.4885 36.9824 7.1378
v  40.1648 31.6898 6.8222
v  40.4649 26.9972 7.1378
v  40.4649 34.1772 4.1865
v  40.2194 34.7036 4.7403
v  38.1861 34.7036 6.8796
v  37.6597 34.1772 7.1378
v  35.1723 36.6823 6.8222
v  30.4797 36.9824 7.1378
v  35.1723 36.6823 -7.8737
v  38.1861 34.7036 -7.9312
v  37.6597 34.1772 -8.1894
v  30.4797 36.9824 -8.1894
v  40.1648 31.6898 -7.8737
v  40.4649 26.9972 -8.1894
v  40.2194 34.7036 -5.7918
v  40.4649 34.1772 -5.2381
v  38.1861 36.7369 4.7403
v  37.6597 36.9824 4.1865
v  37.6597 36.9824 -5.2381
v  38.1861 36.7369 -5.7918
v  39.2647 35.7822 5.8752
v  40.1648 36.6823 1.5694
v  39.2647 35.7822 -6.9267
v  40.1648 36.6823 -2.6210
v  59.4808 36.9592 7.9859
v  59.4808 36.9592 -0.5258
v  41.7643 36.9592 -0.5258
v  41.7643 36.9592 7.9859
v  43.0248 13.3372 -7.5646
v  41.7643 13.3372 -3.7915
v  41.8985 13.4714 -6.2577
v  42.7874 13.4469 -7.8419
v  42.3010 13.8739 -8.4103
v  41.8740 14.3603 -7.8419
v  41.8985 15.7160 -8.8807
v  42.7874 14.3603 -8.9092
v  44.1431 13.4714 -8.8807
v  43.0248 14.5976 -9.0375
v  46.2536 13.3372 -9.0375
v  41.7643 14.5976 -7.5646
v  41.7643 17.8265 -9.0375
v  41.7643 14.5976 6.5130
v  41.7643 13.3372 2.7399
v  41.8985 13.4714 5.2061
v  41.8740 14.3603 6.7904
v  42.3010 13.8739 7.3587
v  42.7874 13.4469 6.7904
v  44.1431 13.4714 7.8291
v  42.7874 14.3603 7.8576
v  41.8985 15.7160 7.8291
v  43.0248 14.5976 7.9859
v  41.7643 17.8265 7.9859
v  43.0248 13.3372 6.5130
v  46.2536 13.3372 7.9859
v  59.4808 36.9592 -9.0375
v  41.7643 36.9592 -9.0375
v  59.4808 13.3372 -0.5258
v  59.4808 13.3372 -9.0375
v  59.4808 13.3372 7.9859
v  -58.9590 -11.1056 -0.5258
v  -29.1939 -11.4238 -0.5258
v  -29.3817 -11.2366 6.5714
v  -59.2761 -11.4226 6.7571
v  -59.2773 12.1983 6.7583
v  -59.2773 12.1983 -0.5258
v  -58.8700 -11.0165 -7.4025
v  -29.2741 -11.3425 -7.7287
v  -59.2773 12.1983 -7.8098
v  59.6009 12.1983 6.7583
v  59.6009 12.1983 -0.5258
v  23.2817 12.1983 -0.5258
v  23.2817 12.1983 6.7583
v  59.6009 -11.4238 6.7583
v  59.5485 -11.3715 -0.5258
v  59.6009 12.1983 -7.8098
v  23.2817 12.1983 -7.8098
v  29.1586 -11.4173 -0.5258
v  29.1683 -11.4110 6.7453
v  59.2805 -11.1035 -7.4895
v  29.3531 -11.2285 -7.6120
v  -38.3246 -36.5341 -0.5258
v  -29.2386 -36.5341 -0.5258
v  -29.2396 -36.5341 6.7583
v  -38.3246 -36.5341 6.7583
v  -38.3246 -36.5341 -7.8098
v  -29.3507 -36.4209 -7.6969
v  -36.1665 -13.4460 6.2243
v  -36.8924 -14.3443 6.4019
v  -36.7128 -14.5238 6.7583
v  -35.0764 -12.9120 6.7583
v  -37.7907 -15.0701 6.2243
v  -38.3246 -16.1603 6.7583
v  -37.9683 -14.3443 5.3260
v  -38.3246 -14.5238 5.1464
v  -37.7907 -13.4460 4.6002
v  -38.3246 -12.9120 3.5100
v  -36.8924 -13.2684 5.3260
v  -36.7128 -12.9120 5.1464
v  -37.2518 -13.9849 5.6854
v  -37.7907 -13.4460 -5.6518
v  -37.9683 -14.3443 -6.3776
v  -38.3246 -14.5238 -6.1980
v  -38.3246 -12.9120 -4.5616
v  -37.7907 -15.0701 -7.2759
v  -38.3246 -16.1603 -7.8098
v  -36.8924 -14.3443 -7.4535
v  -36.7127 -14.5239 -7.8097
v  -36.1653 -13.4472 -7.2747
v  -35.0680 -12.9278 -7.7941
v  -36.8924 -13.2684 -6.3776
v  -36.7128 -12.9120 -6.1980
v  -37.2518 -13.9849 -6.7370
v  59.4808 -12.9352 6.7583
v  59.4550 -12.9610 -0.5258
v  41.7643 -12.9352 -0.5258
v  41.7643 -12.9352 6.7583
v  43.7161 -36.3569 -5.8580
v  41.8647 -36.4568 -4.0374
v  42.4773 -35.8442 -5.2381
v  43.5480 -36.0037 -6.0261
v  42.2797 -34.8111 -6.0637
v  42.5044 -33.9587 -7.0698
v  43.1347 -35.1868 -6.4395
v  43.5493 -34.7722 -7.2551
v  44.3730 -35.8069 -7.0595
v  43.7092 -34.6123 -7.6225
v  45.5338 -36.4624 -7.7151
v  41.8914 -34.6442 -5.8968
v  41.8752 -32.7792 -7.6989
v  41.7643 -34.7116 4.9126
v  41.7643 -36.5572 3.0388
v  42.3757 -35.9458 4.2871
v  42.1723 -34.9172 5.1183
v  43.4043 -36.1492 5.1183
v  44.2354 -35.9458 6.1469
v  42.9928 -35.3287 5.5298
v  43.4043 -34.9172 6.3502
v  42.3757 -34.0861 6.1469
v  43.6099 -34.7116 6.7583
v  41.7643 -32.8378 6.7583
v  43.6099 -36.5572 4.9126
v  45.4837 -36.5572 6.7583
v  59.2387 -13.1773 -7.5677
v  41.7643 -12.9352 -7.8098
v  59.4808 -36.5572 -0.5258
v  59.4808 -36.5572 -7.8098
v  59.4808 -36.5572 6.7583
v  -59.1713 -36.5572 -0.5258
v  -39.4862 -36.5572 -0.5258
v  -39.4862 -36.5572 7.3836
v  -59.1713 -36.5572 7.3836
v  -39.4862 -12.9352 -0.5258
v  -39.4862 -12.9352 7.3836
v  -58.9759 -13.1305 -0.5258
v  -59.1713 -12.9352 7.3836
v  -58.9060 -13.2005 -8.1698
v  -39.4862 -12.9352 -8.4351
v  -39.4862 -36.5572 -8.4351
v  -59.1713 -36.5572 -8.4351
v  40.4649 -36.5341 -0.5258
v  40.4649 -36.5341 7.3806
v  28.8522 -36.5217 7.3680
v  28.8397 -36.5341 -0.5258
v  28.8426 -36.5312 -8.4293
v  40.2617 -36.3309 -8.2290
v  40.4649 -12.9120 -0.5258
v  40.4649 -12.9120 7.3806
v  29.2152 -12.9916 7.3020
v  29.3647 -13.1430 -8.2040
v  40.4649 -12.9120 -8.4321
v  29.1369 -12.9125 -0.5258
v  59.5273 -37.2103 -0.5258
v  28.9507 -37.3313 9.1972
v  28.8353 -37.2144 -10.3642
v  28.8312 -37.2103 -0.5258
v  -19.4291 37.8657 -0.5258
v  41.7643 13.3372 -0.5258
v  -29.1712 1.8115 6.7583
v  -24.1426 10.9085 6.7583
v  -26.1853 12.1983 6.7583
v  -26.1853 12.1983 -7.8098
v  -24.1422 10.9082 -7.8098
v  -29.3748 1.8646 -7.7003
v  -29.4103 -13.1245 6.5454
v  -38.3246 -12.9120 -0.5258
v  -29.1965 -12.9120 -0.5258
v  -29.2352 -12.9516 -7.7702
v  41.7643 -36.5572 -0.5258
v  20.9766 49.6767 -0.5258
v  20.6205 49.6070 -0.5258
v  20.5509 49.2510 -0.5258
v  -39.4862 24.5187 -0.5258
v  -39.4862 26.1651 -0.5258
v  -39.7401 25.3419 -0.5258
v  40.4649 35.9271 -0.5258
v  39.4096 36.9824 -0.5258
v  19.0432 20.1455 7.1378
v  19.0432 20.1455 -8.1894
v  40.2922 36.8097 -0.5258
v  -23.4292 12.1983 5.0180
v  -23.4289 12.1983 -0.5258
v  -23.4287 12.1983 -6.0693
v  -23.7811 11.5620 6.1981
v  -23.7745 11.5739 6.1842
v  -23.8226 11.6187 6.1787
v  -23.7449 11.6275 6.1064
v  -23.8226 11.6187 -7.2303
v  -23.7741 11.5736 -7.2358
v  -23.7808 11.5616 -7.2498
v  -23.7443 11.6276 -7.1574
v  29.3979 0.9161 6.7116
v  29.3527 0.9051 -7.7872
v  -23.7626 11.5944 -7.2060
v  -23.7631 11.5946 6.1546
v  32.2811 -49.6767 -11.6994
v  32.2811 -49.6767 11.6994
v  25.6954 -49.5940 11.6994
v  25.6954 -49.5940 -11.6994
v  26.2918 -38.7830 11.2389
v  32.0581 -38.7551 11.3391
v  32.0648 -38.7486 -11.3458
v  25.8371 -38.3167 -11.6994
v  32.1642 -36.9920 -11.4231
v  32.0634 -36.8886 11.3210
v  26.4980 -36.5583 11.0606
v  25.8513 -37.1890 -11.6994
v  26.0200 -25.9393 -11.6721
v  26.1383 -26.0606 11.5523
v  32.3168 -26.2498 11.4407
v  32.5786 -25.9945 -11.6993
v  32.5894 -24.8632 -11.6959
v  32.3198 -24.5867 11.4228
v  26.3709 -24.4293 11.3402
v  26.0735 -24.7194 -11.6340
v  26.2816 -13.6426 11.5651
v  32.7261 -13.5977 11.6909
v  32.7301 -13.5938 -11.6949
v  26.2807 -13.6417 -11.5660
v  26.3973 -12.1506 -11.4681
v  32.7142 -12.4261 -11.6643
v  32.7483 -12.4612 11.6989
v  26.2574 -12.2870 11.6063
v  26.6851 -1.4915 11.3144
v  32.7781 -1.2941 11.5883
v  32.8852 -1.1896 -11.6941
v  26.5018 -1.3036 -11.4999
v  32.9047 -0.0567 -11.6994
v  32.7434 0.0495 11.5204
v  26.5644 0.4239 11.4269
v  26.3898 0.1407 -11.6208
v  21.8142 8.7732 11.6751
v  27.5888 11.8716 11.6907
v  27.5926 11.8829 -11.6994
v  21.7813 8.7834 -11.6994
v  27.0619 12.8779 -11.6994
v  27.0619 12.8779 11.6994
v  21.2522 9.7840 11.6954
v  21.2505 9.7786 -11.6994
v  16.7561 17.9565 11.6994
v  19.3329 24.0177 11.6994
v  19.3328 24.0177 -11.6994
v  16.7561 17.9565 -11.6994
v  18.2950 24.4589 -11.6994
v  18.2950 24.4589 11.6994
v  15.7181 18.3977 11.6994
v  15.7181 18.3977 -11.6994
v  5.8625 23.0213 11.3002
v  7.9669 28.7446 11.6028
v  7.9190 28.8634 -11.6934
v  5.3390 22.8101 -11.6994
v  6.8565 29.2986 -11.6765
v  6.6509 29.1651 11.4572
v  3.9200 23.8406 11.2758
v  4.3010 23.2514 -11.6994
v  -3.9666 23.5667 11.5956
v  -6.5084 29.5375 11.6963
v  -6.5112 29.5394 -11.6994
v  -4.0652 23.4243 -11.6994
v  -7.5584 29.1206 -11.6994
v  -7.5584 29.1206 11.6994
v  -5.1886 23.0382 11.6407
v  -5.1123 23.0055 -11.6994
v  -15.5839 18.8169 11.6994
v  -18.0299 24.9320 11.6994
v  -18.0299 24.9320 -11.6994
v  -15.5839 18.8169 -11.6994
v  -19.0770 24.5131 -11.6994
v  -19.0770 24.5131 11.6994
v  -16.6310 18.3980 11.6994
v  -16.6310 18.3980 -11.6994
v  -21.1692 10.2238 11.6994
v  -26.9318 13.4128 11.6994
v  -26.9319 13.4128 -11.6994
v  -21.1692 10.2237 -11.6994
v  -27.4779 12.4260 -11.6994
v  -27.4779 12.4260 11.6994
v  -21.7153 9.2370 11.6994
v  -21.7153 9.2370 -11.6994
v  -26.5682 1.1108 -11.2837
v  -26.1991 0.5052 11.6994
v  -32.7853 0.5170 11.6994
v  -32.6255 0.6205 -11.5247
v  -26.7916 -1.2110 -11.1099
v  -32.6108 -0.7879 -11.5226
v  -32.7873 -0.6108 11.6994
v  -26.2175 -0.6389 11.6830
v  -26.5109 -11.6100 11.4091
v  -32.7157 -11.7976 11.6079
v  -32.7463 -11.8281 -11.6384
v  -26.4368 -11.6843 -11.4834
v  -32.7273 -13.0992 -11.6172
v  -32.7357 -13.0907 11.6256
v  -26.4829 -13.2874 11.4401
v  -26.4143 -13.2189 -11.5087
v  -27.1381 -23.4087 10.8030
v  -32.4237 -23.8906 11.2943
v  -32.6449 -24.1110 -11.5151
v  -26.9656 -23.5818 -10.9758
v  -32.6313 -25.6237 -11.4988
v  -32.5068 -25.7487 11.3741
v  -26.9977 -26.1843 10.9483
v  -26.9615 -26.1482 -10.9844
v  -26.2654 -36.7127 11.6994
v  -32.8516 -36.7010 11.6994
v  -32.8516 -36.7010 -11.6994
v  -26.3582 -36.6196 -11.6064
v  -26.4273 -37.9998 -11.5398
v  -32.8444 -37.8380 -11.6902
v  -32.8536 -37.8288 11.6994
v  -26.2674 -37.8405 11.6994
v  -26.7982 -48.6062 -11.1878
v  -26.2875 -49.1186 11.6994
v  -32.8737 -49.1069 11.6994
v  -32.8199 -49.0533 -11.6457
# 564 vertices

vn -0.7068 -0.7068 -0.0273
vn 0.7071 -0.7071 -0.0000
vn 0.5774 -0.5774 0.5774
vn -0.5774 -0.5774 0.5774
vn 0.7071 0.7071 -0.0000
vn 0.5774 0.5774 0.5774
vn -0.7071 0.7071 -0.0000
vn -0.5774 0.5774 0.5774
vn 0.5774 0.5774 -0.5774
vn -0.5866 0.5583 -0.5866
vn -0.5626 -0.5834 -0.5857
vn 0.5717 -0.5801 -0.5801
vn -0.7071 -0.7071 -0.0000
vn 0.9193 -0.3913 -0.0412
vn 0.5864 -0.5761 0.5695
vn 0.5779 0.5769 0.5773
vn -0.5668 -0.5825 -0.5825
vn 0.5709 -0.5732 -0.5877
vn 0.9228 0.3852 -0.0121
vn -0.5742 0.5789 -0.5789
vn 0.5858 0.5503 -0.5949
vn -0.5840 -0.5686 0.5793
vn -0.7134 -0.7007 0.0021
vn -0.5814 -0.5739 -0.5768
vn 0.5774 -0.5774 -0.5774
vn 0.5807 0.5807 0.5706
vn 0.5740 0.5790 0.5790
vn 0.8880 0.3251 0.3251
vn 0.7002 0.7002 0.1395
vn 0.5807 0.5706 0.5807
vn 0.7002 0.1395 0.7002
vn 0.5790 0.5790 0.5740
vn 0.3251 0.3251 0.8880
vn 0.5706 0.5807 0.5807
vn 0.1353 0.7006 0.7006
vn 0.5706 0.5807 -0.5807
vn 0.5790 0.5790 -0.5740
vn 0.3251 0.3251 -0.8880
vn 0.1394 0.7002 -0.7002
vn 0.5807 0.5706 -0.5807
vn 0.7002 0.1395 -0.7002
vn 0.5740 0.5790 -0.5790
vn 0.8880 0.3251 -0.3251
vn 0.5807 0.5807 -0.5706
vn 0.7002 0.7002 -0.1395
vn 0.5790 0.5740 0.5790
vn 0.3251 0.8880 0.3251
vn 0.5773 0.5774 0.5773
vn 0.5790 0.5740 -0.5790
vn 0.3251 0.8880 -0.3251
vn 0.5773 0.5774 -0.5774
vn -0.1404 0.1404 0.9801
vn -0.0106 0.7071 0.7071
vn -0.1244 0.7016 0.7016
vn -0.7035 0.7035 -0.1008
vn -0.5774 0.5773 0.5774
vn -0.7035 -0.1008 0.7035
vn -0.7016 0.7016 0.1244
vn 0.1008 0.7035 0.7035
vn -0.7016 0.1244 0.7016
vn -0.9801 0.1404 0.1404
vn -0.7071 0.0106 0.7071
vn -0.5774 0.5773 -0.5774
vn -0.7016 0.7016 -0.1244
vn -0.7035 -0.1008 -0.7035
vn -0.1244 0.7016 -0.7016
vn -0.0106 0.7071 -0.7071
vn -0.1404 0.1404 -0.9801
vn -0.7035 0.7035 0.1008
vn -0.7071 0.0106 -0.7071
vn -0.7016 0.1244 -0.7016
vn -0.1404 0.9801 -0.1404
vn -0.9801 0.1404 -0.1404
vn 0.1008 0.7035 -0.7035
vn -0.1404 0.9801 0.1404
vn -0.5774 -0.5774 -0.5774
vn -0.1633 -0.9730 -0.1633
vn -0.7071 -0.7071 -0.0121
vn -0.7001 -0.7001 -0.1401
vn -0.7021 0.1188 -0.7021
vn -0.5773 -0.5774 -0.5773
vn 0.1188 -0.7021 -0.7021
vn -0.7001 -0.1401 -0.7001
vn -0.7021 -0.7021 0.1188
vn -0.1401 -0.7001 -0.7001
vn -0.1633 -0.1633 -0.9730
vn -0.0121 -0.7071 -0.7071
vn -0.9730 -0.1633 -0.1633
vn -0.7071 -0.0121 -0.7071
vn -0.9730 -0.1633 0.1633
vn -0.7071 -0.7071 0.0121
vn -0.7001 -0.7001 0.1401
vn 0.1188 -0.7021 0.7021
vn -0.5773 -0.5774 0.5774
vn -0.7021 0.1188 0.7021
vn -0.1401 -0.7001 0.7001
vn -0.7021 -0.7021 -0.1188
vn -0.7001 -0.1401 0.7001
vn -0.1633 -0.1633 0.9730
vn -0.7071 -0.0121 0.7071
vn -0.1633 -0.9730 0.1633
vn -0.0121 -0.7071 0.7071
vn -0.5774 0.5774 -0.5774
vn 0.9220 -0.3868 -0.0196
vn 0.5814 -0.5770 0.5736
vn -0.5747 -0.5790 -0.5783
vn 0.5767 -0.5676 -0.5876
vn -0.7118 -0.7023 0.0008
vn -0.5816 -0.5736 0.5768
vn -0.5815 -0.5738 -0.5768
vn -0.5185 -0.5657 0.6411
vn -0.7341 -0.1788 0.6551
vn -0.7362 -0.1795 -0.6525
vn -0.5180 -0.5654 -0.6418
vn -0.0083 -0.7777 0.6286
vn -0.0083 -0.7788 -0.6272
vn 0.5060 -0.5773 0.6408
vn 0.5089 -0.5754 -0.6403
vn 0.7323 -0.2549 -0.6315
vn 0.7255 -0.1880 -0.6620
vn 0.1741 0.1701 0.9699
vn 0.7055 0.0757 0.7046
vn 0.6902 0.3249 0.6465
vn 0.3492 0.3255 0.8787
vn 0.9056 0.3040 0.2957
vn 0.9668 0.0000 0.2557
vn 0.7335 0.0000 0.6797
vn 0.3492 -0.3255 0.8787
vn 0.3077 0.0000 0.9515
vn 0.6902 -0.3249 0.6465
vn 0.9767 -0.1577 0.1455
vn 0.7055 -0.0757 0.7046
vn 0.9056 -0.3040 0.2957
vn -0.7068 0.7068 -0.0315
vn -1.0000 0.0000 -0.0000
vn -0.7071 0.0000 0.7071
vn -0.5664 0.5769 -0.5885
vn -0.7069 0.0216 -0.7069
vn 0.9767 0.1577 -0.1455
vn 0.7055 0.0757 -0.7046
vn 0.6902 0.3250 -0.6465
vn 0.9056 0.3040 -0.2957
vn 0.3492 0.3255 -0.8787
vn 0.3077 0.0000 -0.9515
vn 0.7335 0.0000 -0.6797
vn 0.9056 -0.3040 -0.2957
vn 0.9668 0.0000 -0.2557
vn 0.6902 -0.3250 -0.6465
vn 0.1741 -0.1701 -0.9699
vn 0.7055 -0.0757 -0.7046
vn 0.3492 -0.3255 -0.8787
vn 0.9767 -0.1577 -0.1455
vn 0.1741 0.1701 -0.9699
vn 0.0676 0.0000 -0.9977
vn 0.5679 0.5820 -0.5820
vn 0.1741 -0.1701 0.9699
vn 0.0676 0.0000 0.9977
vn 0.9767 0.1577 0.1455
vn 0.5796 0.5735 0.5788
vn 0.7064 0.7077 -0.0154
vn -0.7070 0.7072 -0.0000
vn 0.4340 -0.7186 0.5434
vn 0.2911 -0.9567 0.0043
vn 0.5704 0.5788 -0.5828
vn -0.5752 0.5784 -0.5784
vn 0.5077 -0.8615 0.0000
vn 0.4028 -0.6835 0.6087
vn 0.4532 -0.6953 -0.5578
vn 0.4029 -0.6835 -0.6087
vn 0.5088 -0.5760 0.6398
vn -0.0263 -0.7697 0.6379
vn -0.0526 -0.7613 -0.6463
vn 0.5086 -0.5747 -0.6411
vn -0.5145 -0.8575 -0.0000
vn -0.4086 -0.6811 0.6076
vn -0.4086 -0.6811 -0.6076
vn -0.4783 -0.8781 0.0090
vn -0.7063 0.7078 -0.0145
vn -0.5724 0.5784 -0.5812
vn -0.6671 -0.4308 -0.6077
vn -0.6608 -0.4431 0.6058
vn -0.5832 0.5701 0.5786
vn 0.7063 0.1282 0.6962
vn 0.7071 0.0111 0.7070
vn 0.9810 0.1419 0.1327
vn -0.0986 0.7164 0.6907
vn 0.7032 0.7032 -0.1056
vn 0.1470 0.1470 0.9781
vn 0.1282 0.7063 0.6962
vn 0.0111 0.7071 0.7070
vn 0.1282 0.7064 -0.6962
vn 0.7032 0.7032 0.1055
vn 0.1470 0.1470 -0.9781
vn 0.0046 0.7069 -0.7073
vn 0.7064 0.1282 -0.6962
vn 0.7071 0.0111 -0.7070
vn -0.0986 0.7164 -0.6907
vn 0.9810 0.1419 -0.1327
vn 0.7164 -0.0986 0.6907
vn 0.1419 0.9810 0.1327
vn 0.1419 0.9810 -0.1327
vn 0.7164 -0.0986 -0.6907
vn 0.5839 0.5839 0.5640
vn 0.7022 0.7022 0.1173
vn 0.5839 0.5839 -0.5640
vn 0.7022 0.7022 -0.1173
vn -0.1434 -0.9828 -0.1167
vn -0.7071 -0.7071 -0.0078
vn -0.7033 -0.7033 -0.1030
vn -0.7422 0.0931 -0.6636
vn -0.5969 -0.5969 -0.5361
vn 0.0932 -0.7422 -0.6637
vn -0.7160 -0.1355 -0.6848
vn -0.7024 -0.7024 0.1152
vn -0.1355 -0.7160 -0.6848
vn -0.1603 -0.1604 -0.9739
vn -0.0122 -0.7071 -0.7070
vn -0.9827 -0.1435 -0.1167
vn -0.7071 -0.0122 -0.7070
vn -0.9828 -0.1434 0.1167
vn -0.7071 -0.7071 0.0078
vn -0.7033 -0.7033 0.1030
vn 0.0932 -0.7422 0.6637
vn -0.5969 -0.5969 0.5361
vn -0.7422 0.0931 0.6637
vn -0.1355 -0.7160 0.6848
vn -0.7024 -0.7024 -0.1152
vn -0.7160 -0.1355 0.6848
vn -0.1603 -0.1604 0.9739
vn -0.7071 -0.0122 0.7070
vn -0.1434 -0.9828 0.1167
vn -0.0122 -0.7071 0.7070
vn -0.7055 -0.7076 -0.0403
vn 0.9193 -0.3933 0.0099
vn 0.5753 -0.5757 0.5810
vn -0.5852 -0.5900 0.5562
vn -0.7118 0.7023 -0.0000
vn -0.5751 -0.5803 -0.5766
vn 0.5768 -0.5738 -0.5815
vn -0.5819 0.5681 -0.5819
vn 0.7079 0.7063 -0.0000
vn -0.8588 0.5123 0.0015
vn -0.7140 0.4247 0.5566
vn 0.5790 -0.5793 0.5737
vn 0.7065 -0.7070 -0.0319
vn 0.5809 0.5701 -0.5809
vn -0.7134 0.4262 -0.5562
vn -0.9262 -0.3768 -0.0168
vn -0.5872 -0.5706 0.5740
vn 0.5655 -0.5732 -0.5930
vn -0.5732 -0.5745 -0.5843
vn 0.9228 -0.3852 -0.0101
vn 0.5816 -0.5726 0.5778
vn -0.5707 -0.5806 -0.5806
vn 0.5810 -0.5715 -0.5795
vn -0.5706 0.5807 0.5807
vn -0.5790 0.5790 0.5740
vn -0.3252 0.3252 0.8880
vn -0.1048 0.7032 0.7032
vn -0.5807 0.5706 0.5807
vn -0.7002 0.1395 0.7002
vn -0.5741 0.5790 0.5790
vn -0.8880 0.3251 0.3251
vn -0.5807 0.5807 0.5706
vn -0.7002 0.7002 0.1395
vn -0.5790 0.5741 0.5790
vn -0.3251 0.8880 0.3251
vn -0.5773 0.5774 0.5774
vn -0.5807 0.5807 -0.5706
vn -0.5741 0.5790 -0.5790
vn -0.8880 0.3251 -0.3251
vn -0.7002 0.7002 -0.1395
vn -0.5807 0.5706 -0.5807
vn -0.7002 0.1395 -0.7002
vn -0.5791 0.5804 -0.5725
vn -0.2282 0.2345 -0.9449
vn -0.5602 0.5858 -0.5858
vn -0.1311 0.7010 -0.7011
vn -0.5792 0.5723 -0.5805
vn -0.2268 0.9456 -0.2332
vn -0.5765 0.5778 -0.5778
vn 0.5783 0.5783 0.5755
vn 0.7070 0.7068 -0.0240
vn -0.7066 0.7076 -0.0000
vn -0.6957 -0.1860 -0.6938
vn -0.6775 -0.7153 -0.1714
vn -0.5433 -0.5964 -0.5908
vn -0.5360 -0.6222 -0.5706
vn -0.5185 -0.5920 -0.6170
vn -0.5385 -0.5984 -0.5932
vn -0.5625 -0.5720 -0.5971
vn -0.5741 -0.5837 -0.5742
vn -0.6138 -0.5573 -0.5591
vn -0.6917 -0.6861 -0.2253
vn -0.1628 -0.7002 -0.6952
vn -0.7196 -0.4889 -0.4931
vn -0.6826 -0.1535 -0.7145
vn -0.8880 -0.3251 0.3251
vn -0.7002 -0.7002 0.1395
vn -0.5807 -0.5807 0.5706
vn -0.5741 -0.5790 0.5790
vn -0.5790 -0.5741 0.5790
vn -0.5706 -0.5807 0.5807
vn -0.5774 -0.5774 0.5773
vn -0.5790 -0.5790 0.5741
vn -0.5807 -0.5706 0.5807
vn -0.3252 -0.3252 0.8880
vn -0.7002 -0.1395 0.7002
vn -0.3251 -0.8880 0.3251
vn -0.1395 -0.7002 0.7002
vn 0.5738 0.5709 -0.5872
vn -0.5716 0.5780 -0.5824
vn 0.7075 -0.7067 -0.0000
vn 0.5765 -0.5737 -0.5818
vn -0.7100 -0.7042 -0.0000
vn 0.7036 0.7106 -0.0000
vn -0.7075 0.7063 -0.0240
vn -0.5837 0.5837 0.5644
vn -0.5792 0.5773 -0.5756
vn 0.5702 0.5809 -0.5809
vn -0.5803 -0.5714 -0.5803
vn 0.7070 -0.7070 -0.0185
vn 0.5768 -0.5776 0.5776
vn -0.5825 -0.5718 0.5777
vn -0.9244 -0.3814 0.0008
vn -0.5749 -0.5735 -0.5836
vn 0.5773 -0.5702 -0.5844
vn 0.5737 0.5792 0.5792
vn -0.5737 0.5776 0.5807
vn -0.5739 0.5722 -0.5859
vn 0.5688 0.5782 -0.5849
vn -0.9203 0.3910 -0.0128
vn -0.5718 0.5812 0.5790
vn -0.5753 0.5803 -0.5764
vn -0.9219 0.3873 0.0078
vn 0.7157 -0.1866 -0.6730
vn 0.6804 -0.1104 0.7245
vn 0.0579 0.7059 0.7059
vn 0.0579 0.7059 -0.7059
vn 0.6840 -0.1260 -0.7185
vn 0.7453 -0.1947 0.6376
vn 0.5874 0.5635 0.5809
vn 0.9218 0.3873 0.0160
vn 0.5795 0.5727 -0.5798
vn -0.7070 -0.7070 -0.0200
vn -0.1190 0.9929 -0.0000
vn -0.7072 0.7070 -0.0000
vn -0.9929 0.1189 -0.0000
vn 0.9777 0.2101 -0.0000
vn 0.9777 -0.2101 -0.0000
vn 1.0000 0.0000 -0.0000
vn 0.9930 0.1180 -0.0000
vn 0.1177 0.9930 -0.0000
vn -0.5180 -0.5631 -0.6438
vn -0.5190 -0.5662 0.6403
vn 0.8466 0.5128 0.1426
vn 0.0000 1.0000 -0.0000
vn 0.8466 0.5128 -0.1425
vn 0.8930 0.0719 0.4444
vn 0.3607 0.6597 0.6593
vn 0.9026 0.1937 0.3844
vn 0.3607 0.6596 -0.6594
vn 0.8938 0.0674 -0.4433
vn 0.9014 0.1970 -0.3856
vn -0.7401 -0.1801 -0.6480
vn -0.7235 -0.1774 0.6671
vn 0.9191 0.0584 -0.3896
vn 0.8932 0.1311 0.4302
vn 0.5786 -0.5676 -0.5857
vn 0.5788 -0.5673 0.5859
vn -0.5952 -0.5475 0.5882
vn -0.5846 -0.5700 -0.5774
vn -0.5623 0.5972 0.5720
vn 0.5666 0.5919 0.5733
vn 0.6062 0.5719 -0.5527
vn -0.5456 0.6036 -0.5814
vn 0.5877 -0.5876 -0.5562
vn 0.5410 -0.6007 0.5887
vn -0.5897 -0.5751 0.5671
vn -0.5700 -0.5872 -0.5747
vn -0.5729 0.5861 -0.5729
vn -0.5716 0.5635 0.5964
vn 0.5938 0.5562 0.5814
vn 0.5916 0.5609 -0.5791
vn 0.5681 -0.5900 -0.5737
vn 0.5528 -0.5976 0.5808
vn -0.5830 -0.5741 0.5749
vn -0.5944 -0.5675 -0.5697
vn -0.5858 0.5685 0.5776
vn 0.5806 0.5624 0.5887
vn 0.5742 0.5754 -0.5824
vn -0.5790 0.5826 -0.5704
vn -0.5984 -0.5615 -0.5714
vn 0.5525 -0.5933 -0.5854
vn 0.5656 -0.5834 0.5828
vn -0.6002 -0.5534 0.5775
vn -0.5846 0.5849 0.5622
vn 0.5572 0.5858 0.5886
vn 0.5706 0.5778 -0.5835
vn -0.5889 0.5773 -0.5657
vn 0.6885 -0.4637 -0.5576
vn 0.6773 -0.4771 0.5600
vn -0.4204 -0.6792 0.6016
vn -0.4243 -0.6819 -0.5959
vn -0.7813 0.2208 0.5839
vn 0.2686 0.7705 0.5781
vn 0.2663 0.7747 -0.5735
vn -0.7801 0.2362 -0.5793
vn 0.7977 -0.1928 -0.5715
vn 0.7974 -0.1932 0.5717
vn -0.2328 -0.7822 0.5778
vn -0.2327 -0.7822 -0.5779
vn -0.7829 -0.0397 0.6209
vn -0.0849 0.8286 0.5534
vn -0.0851 0.8286 -0.5534
vn -0.7830 -0.0394 -0.6207
vn 0.7570 0.3057 -0.5775
vn 0.7539 0.3093 0.5796
vn 0.2841 -0.7583 0.5867
vn 0.3054 -0.7572 -0.5773
vn -0.7635 -0.3160 0.5632
vn -0.3317 0.7363 0.5897
vn -0.3059 0.7589 -0.5749
vn -0.7631 -0.3073 -0.5685
vn 0.6976 0.4537 -0.5545
vn 0.7130 0.4157 0.5646
vn 0.4340 -0.6797 0.5914
vn 0.4398 -0.6773 -0.5898
vn -0.4158 -0.6735 0.6112
vn -0.6803 0.4641 0.5673
vn -0.6819 0.4710 -0.5597
vn -0.4559 -0.6586 -0.5986
vn 0.3216 0.7505 -0.5773
vn 0.3256 0.7470 0.5797
vn 0.7512 -0.3242 0.5749
vn 0.7513 -0.3220 -0.5760
vn -0.3186 -0.7507 0.5787
vn -0.7505 0.3216 0.5773
vn -0.7505 0.3216 -0.5773
vn -0.3217 -0.7504 -0.5774
vn 0.0978 0.8274 -0.5530
vn 0.0980 0.8274 0.5530
vn 0.7814 -0.0494 0.6221
vn 0.7814 -0.0494 -0.6221
vn 0.2251 -0.7848 0.5774
vn -0.7998 -0.1828 0.5717
vn -0.7998 -0.1828 -0.5718
vn 0.2251 -0.7848 -0.5774
vn -0.2643 0.7731 -0.5767
vn -0.2602 0.7772 0.5730
vn 0.7800 0.2374 0.5790
vn 0.7818 0.2042 -0.5892
vn 0.4253 -0.6851 -0.5913
vn 0.4183 -0.6865 0.5948
vn -0.6978 -0.4521 0.5555
vn -0.6678 -0.4838 -0.5657
vn 0.6002 0.5694 -0.5618
vn -0.5340 0.5994 -0.5963
vn -0.5791 0.5767 0.5762
vn 0.5925 0.5692 0.5701
vn 0.5858 -0.5823 0.5637
vn -0.5590 -0.5885 0.5841
vn -0.5686 -0.5776 -0.5857
vn 0.5989 -0.5538 -0.5784
vn -0.5697 0.5779 -0.5844
vn -0.5690 0.5702 0.5925
vn 0.6084 0.5340 0.5871
vn 0.6009 0.5454 -0.5844
vn 0.6072 -0.5851 0.5376
vn -0.5181 -0.6122 0.5973
vn -0.5289 -0.6067 -0.5935
vn 0.6151 -0.5824 -0.5315
vn -0.5252 0.6110 -0.5924
vn -0.5257 0.6111 0.5918
vn 0.6003 0.5934 0.5363
vn 0.6114 0.5841 -0.5339
vn 0.5952 -0.5422 0.5931
vn -0.5860 -0.5607 0.5850
vn -0.5756 -0.5706 -0.5857
vn 0.5976 -0.5421 -0.5907
vn 0.5972 0.5505 -0.5833
vn -0.5650 0.5823 -0.5846
vn -0.5764 0.5785 0.5771
vn 0.5802 0.5781 0.5737
vn 0.6022 -0.5695 -0.5594
vn 0.5821 -0.5842 0.5656
vn -0.5790 -0.5769 0.5761
vn -0.5368 -0.5967 -0.5964
# 488 vertex normals

vt 0.5921 0.1444 0.0000
vt 0.4797 0.1444 0.0000
vt 0.4797 0.1127 0.0000
vt 0.5921 0.1127 0.0000
vt 0.6956 0.8693 0.0000
vt 0.6615 0.8693 0.0000
vt 0.6615 0.8376 0.0000
vt 0.6956 0.8376 0.0000
vt 0.3521 0.4113 0.0000
vt 0.3521 0.4430 0.0000
vt 0.2398 0.4430 0.0000
vt 0.2398 0.4113 0.0000
vt 0.3521 0.4747 0.0000
vt 0.2398 0.4747 0.0000
vt 0.4849 0.6354 0.0000
vt 0.5178 0.6342 0.0000
vt 0.5178 0.7465 0.0000
vt 0.4837 0.7465 0.0000
vt 0.6615 0.9010 0.0000
vt 0.6956 0.9010 0.0000
vt 0.5909 0.1749 0.0000
vt 0.4797 0.1760 0.0000
vt 0.2857 0.8644 0.0000
vt 0.3174 0.8644 0.0000
vt 0.3162 0.8973 0.0000
vt 0.2857 0.8985 0.0000
vt 0.2540 0.8985 0.0000
vt 0.2540 0.8644 0.0000
vt 0.6964 0.2706 0.0000
vt 0.6964 0.3046 0.0000
vt 0.5840 0.3046 0.0000
vt 0.5840 0.2706 0.0000
vt 0.7370 0.6232 0.0000
vt 0.6496 0.6232 0.0000
vt 0.6496 0.5948 0.0000
vt 0.7370 0.5948 0.0000
vt 0.4139 0.7037 0.0000
vt 0.4139 0.7377 0.0000
vt 0.3264 0.7377 0.0000
vt 0.3264 0.7037 0.0000
vt 0.8262 0.9388 0.0000
vt 0.8262 0.9105 0.0000
vt 0.8603 0.9105 0.0000
vt 0.8603 0.9388 0.0000
vt 0.7370 0.6516 0.0000
vt 0.6512 0.6499 0.0000
vt 0.7371 0.5571 0.0000
vt 0.6496 0.5571 0.0000
vt 0.6496 0.5287 0.0000
vt 0.7371 0.5287 0.0000
vt 0.8262 0.8821 0.0000
vt 0.8603 0.8821 0.0000
vt 0.1007 0.7508 0.0000
vt 0.1007 0.6638 0.0000
vt 0.1326 0.6649 0.0000
vt 0.1348 0.7506 0.0000
vt 0.7366 0.5850 0.0000
vt 0.6496 0.5855 0.0000
vt 0.1628 0.2636 0.0000
vt 0.1628 0.2352 0.0000
vt 0.2518 0.2352 0.0000
vt 0.2518 0.2636 0.0000
vt 0.2518 0.2920 0.0000
vt 0.1628 0.2920 0.0000
vt 0.8888 0.7297 0.0000
vt 0.8865 0.7265 0.0000
vt 0.8876 0.7254 0.0000
vt 0.8932 0.7309 0.0000
vt 0.8832 0.7242 0.0000
vt 0.8821 0.7198 0.0000
vt 0.3156 0.7305 0.0000
vt 0.3123 0.7327 0.0000
vt 0.3112 0.7317 0.0000
vt 0.3167 0.7261 0.0000
vt 0.3100 0.7360 0.0000
vt 0.3057 0.7372 0.0000
vt 0.6597 0.1729 0.0000
vt 0.6574 0.1696 0.0000
vt 0.6585 0.1686 0.0000
vt 0.6641 0.1741 0.0000
vt 0.6541 0.1674 0.0000
vt 0.6530 0.1630 0.0000
vt 0.9377 0.7242 0.0000
vt 0.9344 0.7265 0.0000
vt 0.9333 0.7254 0.0000
vt 0.9388 0.7198 0.0000
vt 0.9321 0.7297 0.0000
vt 0.9278 0.7309 0.0000
vt 0.7308 0.4638 0.0000
vt 0.7330 0.4671 0.0000
vt 0.7320 0.4681 0.0000
vt 0.7264 0.4626 0.0000
vt 0.7363 0.4693 0.0000
vt 0.7375 0.4737 0.0000
vt 0.8844 0.7286 0.0000
vt 0.3144 0.7349 0.0000
vt 0.7363 0.5127 0.0000
vt 0.7330 0.5149 0.0000
vt 0.7320 0.5139 0.0000
vt 0.7375 0.5083 0.0000
vt 0.7308 0.5182 0.0000
vt 0.7264 0.5194 0.0000
vt 0.6553 0.1718 0.0000
vt 0.9365 0.7286 0.0000
vt 0.7352 0.4649 0.0000
vt 0.7352 0.5170 0.0000
vt 0.7066 0.0362 0.0000
vt 0.5943 0.0362 0.0000
vt 0.5943 0.0078 0.0000
vt 0.7066 0.0078 0.0000
vt 0.9036 0.9105 0.0000
vt 0.8695 0.9105 0.0000
vt 0.8695 0.8821 0.0000
vt 0.9036 0.8821 0.0000
vt 0.4886 0.2108 0.0000
vt 0.5113 0.2197 0.0000
vt 0.4963 0.2188 0.0000
vt 0.4869 0.2125 0.0000
vt 0.5922 0.3484 0.0000
vt 0.6056 0.3461 0.0000
vt 0.5962 0.3524 0.0000
vt 0.5899 0.3619 0.0000
vt 0.1659 0.8785 0.0000
vt 0.1681 0.8919 0.0000
vt 0.1619 0.8825 0.0000
vt 0.1524 0.8762 0.0000
vt 0.1601 0.8842 0.0000
vt 0.1375 0.8753 0.0000
vt 0.5922 0.3989 0.0000
vt 0.5899 0.3854 0.0000
vt 0.5962 0.3949 0.0000
vt 0.6056 0.4011 0.0000
vt 0.6071 0.6291 0.0000
vt 0.6062 0.6141 0.0000
vt 0.6151 0.6368 0.0000
vt 0.6134 0.6385 0.0000
vt 0.6378 0.6457 0.0000
vt 0.6229 0.6448 0.0000
vt 0.6094 0.6425 0.0000
vt 0.5979 0.3931 0.0000
vt 0.6205 0.4020 0.0000
vt 0.1524 0.9312 0.0000
vt 0.1375 0.9321 0.0000
vt 0.1601 0.9232 0.0000
vt 0.1619 0.9249 0.0000
vt 0.1659 0.9289 0.0000
vt 0.1681 0.9154 0.0000
vt 0.4806 0.2031 0.0000
vt 0.4797 0.1882 0.0000
vt 0.4829 0.2166 0.0000
vt 0.6205 0.3453 0.0000
vt 0.5980 0.3542 0.0000
vt 0.8695 0.9388 0.0000
vt 0.9036 0.9388 0.0000
vt 0.5943 0.0646 0.0000
vt 0.7066 0.0646 0.0000
vt 0.5966 0.5681 0.0000
vt 0.5966 0.5964 0.0000
vt 0.4843 0.5964 0.0000
vt 0.4843 0.5681 0.0000
vt 0.5909 0.5538 0.0000
vt 0.5961 0.5412 0.0000
vt 0.5955 0.5495 0.0000
vt 0.5918 0.5547 0.0000
vt 0.5848 0.9335 0.0000
vt 0.5834 0.9261 0.0000
vt 0.5870 0.9313 0.0000
vt 0.5922 0.9349 0.0000
vt 0.6379 0.5218 0.0000
vt 0.6305 0.5232 0.0000
vt 0.6357 0.5195 0.0000
vt 0.6392 0.5143 0.0000
vt 0.6347 0.5186 0.0000
vt 0.6397 0.5061 0.0000
vt 0.5866 0.5583 0.0000
vt 0.5783 0.5588 0.0000
vt 0.5940 0.5570 0.0000
vt 0.5829 0.9178 0.0000
vt 0.5879 0.9304 0.0000
vt 0.6006 0.9354 0.0000
vt 0.6222 0.5238 0.0000
vt 0.5879 0.8837 0.0000
vt 0.5829 0.8964 0.0000
vt 0.5834 0.8880 0.0000
vt 0.5870 0.8828 0.0000
vt 0.5941 0.5038 0.0000
vt 0.5955 0.5112 0.0000
vt 0.5919 0.5060 0.0000
vt 0.5867 0.5025 0.0000
vt 0.2419 0.4861 0.0000
vt 0.2494 0.4848 0.0000
vt 0.2441 0.4884 0.0000
vt 0.2405 0.4935 0.0000
vt 0.2451 0.4893 0.0000
vt 0.2399 0.5019 0.0000
vt 0.5922 0.8792 0.0000
vt 0.6006 0.8787 0.0000
vt 0.5848 0.8806 0.0000
vt 0.5962 0.5196 0.0000
vt 0.5910 0.5070 0.0000
vt 0.5784 0.5019 0.0000
vt 0.2576 0.4843 0.0000
vt 0.5966 0.6248 0.0000
vt 0.4843 0.6248 0.0000
vt 0.9417 0.3536 0.0000
vt 0.9133 0.3536 0.0000
vt 0.9133 0.3196 0.0000
vt 0.9417 0.3196 0.0000
vt 0.8849 0.3536 0.0000
vt 0.8849 0.3196 0.0000
vt 0.8175 0.0816 0.0000
vt 0.7316 0.0816 0.0000
vt 0.7316 0.0665 0.0000
vt 0.8175 0.0665 0.0000
vt 0.6415 0.2312 0.0000
vt 0.6415 0.2463 0.0000
vt 0.3577 0.2463 0.0000
vt 0.3577 0.2312 0.0000
vt 0.8175 0.0966 0.0000
vt 0.7321 0.0962 0.0000
vt 0.7987 0.3757 0.0000
vt 0.7111 0.3757 0.0000
vt 0.7111 0.3606 0.0000
vt 0.7987 0.3606 0.0000
vt 0.0622 0.5851 0.0000
vt 0.0622 0.3013 0.0000
vt 0.0773 0.3013 0.0000
vt 0.0773 0.5851 0.0000
vt 0.0229 0.6418 0.0000
vt 0.0229 0.3013 0.0000
vt 0.0379 0.3013 0.0000
vt 0.0379 0.6418 0.0000
vt 0.6415 0.2614 0.0000
vt 0.3577 0.2614 0.0000
vt 0.7987 0.3907 0.0000
vt 0.7111 0.3907 0.0000
vt 0.0471 0.5851 0.0000
vt 0.0471 0.3013 0.0000
vt 0.0078 0.6418 0.0000
vt 0.0078 0.3013 0.0000
vt 0.1527 0.4481 0.0000
vt 0.1524 0.5110 0.0000
vt 0.1224 0.5109 0.0000
vt 0.1226 0.4479 0.0000
vt 0.1529 0.3886 0.0000
vt 0.1230 0.3884 0.0000
vt 0.1533 0.3301 0.0000
vt 0.1232 0.3300 0.0000
vt 0.1534 0.2678 0.0000
vt 0.1236 0.2678 0.0000
vt 0.8169 0.7069 0.0000
vt 0.8169 0.6501 0.0000
vt 0.8401 0.6501 0.0000
vt 0.8401 0.7069 0.0000
vt 0.2071 0.6766 0.0000
vt 0.2179 0.6638 0.0000
vt 0.2160 0.6761 0.0000
vt 0.2094 0.6805 0.0000
vt 0.5420 0.6684 0.0000
vt 0.5485 0.6748 0.0000
vt 0.5387 0.6768 0.0000
vt 0.5341 0.6655 0.0000
vt 0.2095 0.6956 0.0000
vt 0.2050 0.6881 0.0000
vt 0.2142 0.6880 0.0000
vt 0.2161 0.6999 0.0000
vt 0.5481 0.6867 0.0000
vt 0.5387 0.7016 0.0000
vt 0.5388 0.6891 0.0000
vt 0.5450 0.6834 0.0000
vt 0.7957 0.7385 0.0000
vt 0.7957 0.7616 0.0000
vt 0.7623 0.7616 0.0000
vt 0.7623 0.7385 0.0000
vt 0.7947 0.7838 0.0000
vt 0.7622 0.7848 0.0000
vt 0.5650 0.6598 0.0000
vt 0.5744 0.6449 0.0000
vt 0.5744 0.6573 0.0000
vt 0.5681 0.6631 0.0000
vt 0.6945 0.0828 0.0000
vt 0.6870 0.0873 0.0000
vt 0.6869 0.0781 0.0000
vt 0.6988 0.0761 0.0000
vt 0.5711 0.6781 0.0000
vt 0.5646 0.6717 0.0000
vt 0.5744 0.6697 0.0000
vt 0.5791 0.6810 0.0000
vt 0.6756 0.0854 0.0000
vt 0.6627 0.0747 0.0000
vt 0.6750 0.0765 0.0000
vt 0.6794 0.0830 0.0000
vt 0.5840 0.6925 0.0000
vt 0.5695 0.6824 0.0000
vt 0.7110 0.0739 0.0000
vt 0.6985 0.0850 0.0000
vt 0.6872 0.0976 0.0000
vt 0.0088 0.7942 0.0000
vt 0.0310 0.7932 0.0000
vt 0.0310 0.8499 0.0000
vt 0.0078 0.8499 0.0000
vt 0.0542 0.8499 0.0000
vt 0.0542 0.7932 0.0000
vt 0.2182 0.7121 0.0000
vt 0.2072 0.6995 0.0000
vt 0.1947 0.6881 0.0000
vt 0.5292 0.6540 0.0000
vt 0.5436 0.6640 0.0000
vt 0.7937 0.6501 0.0000
vt 0.7937 0.7069 0.0000
vt 0.7276 0.7848 0.0000
vt 0.7276 0.7616 0.0000
vt 0.7276 0.7385 0.0000
vt 0.6437 0.1863 0.0000
vt 0.6227 0.1862 0.0000
vt 0.6227 0.0739 0.0000
vt 0.6437 0.0739 0.0000
vt 0.4944 0.8487 0.0000
vt 0.4944 0.7806 0.0000
vt 0.5154 0.7806 0.0000
vt 0.5154 0.8487 0.0000
vt 0.3875 0.4425 0.0000
vt 0.3877 0.4632 0.0000
vt 0.3617 0.4631 0.0000
vt 0.3618 0.4421 0.0000
vt 0.6021 0.1858 0.0000
vt 0.6017 0.0739 0.0000
vt 0.4734 0.8487 0.0000
vt 0.4734 0.7806 0.0000
vt 0.4231 0.9202 0.0000
vt 0.3783 0.9202 0.0000
vt 0.3783 0.8992 0.0000
vt 0.4231 0.8992 0.0000
vt 0.3875 0.4841 0.0000
vt 0.3620 0.4837 0.0000
vt 0.4231 0.9412 0.0000
vt 0.3783 0.9412 0.0000
vt 0.4312 0.6944 0.0000
vt 0.3728 0.6942 0.0000
vt 0.3728 0.6525 0.0000
vt 0.4313 0.6524 0.0000
vt 0.8166 0.8814 0.0000
vt 0.7652 0.8814 0.0000
vt 0.7652 0.8593 0.0000
vt 0.8166 0.8593 0.0000
vt 0.8166 0.9035 0.0000
vt 0.7652 0.9035 0.0000
vt 0.1988 0.9556 0.0000
vt 0.1992 0.9286 0.0000
vt 0.2208 0.9293 0.0000
vt 0.2208 0.9558 0.0000
vt 0.1771 0.9550 0.0000
vt 0.1771 0.9282 0.0000
vt 0.8000 0.5059 0.0000
vt 0.7864 0.5068 0.0000
vt 0.8070 0.4982 0.0000
vt 0.8086 0.4999 0.0000
vt 0.4696 0.1232 0.0000
vt 0.4638 0.1317 0.0000
vt 0.4622 0.1301 0.0000
vt 0.4706 0.1097 0.0000
vt 0.4552 0.1374 0.0000
vt 0.4417 0.1382 0.0000
vt 0.2303 0.2111 0.0000
vt 0.2245 0.2196 0.0000
vt 0.2229 0.2180 0.0000
vt 0.2311 0.1975 0.0000
vt 0.2159 0.2253 0.0000
vt 0.2023 0.2261 0.0000
vt 0.7999 0.4634 0.0000
vt 0.8086 0.4695 0.0000
vt 0.8070 0.4711 0.0000
vt 0.7863 0.4626 0.0000
vt 0.0905 0.6914 0.0000
vt 0.0845 0.7001 0.0000
vt 0.0828 0.6985 0.0000
vt 0.0913 0.6779 0.0000
vt 0.0557 0.6985 0.0000
vt 0.0540 0.7001 0.0000
vt 0.0480 0.6915 0.0000
vt 0.0471 0.6779 0.0000
vt 0.8123 0.5037 0.0000
vt 0.8144 0.4908 0.0000
vt 0.4675 0.1354 0.0000
vt 0.2282 0.2233 0.0000
vt 0.8123 0.4656 0.0000
vt 0.8143 0.4786 0.0000
vt 0.0883 0.7037 0.0000
vt 0.0754 0.7059 0.0000
vt 0.0502 0.7038 0.0000
vt 0.0631 0.7059 0.0000
vt 0.2738 0.8012 0.0000
vt 0.2738 0.8257 0.0000
vt 0.2227 0.8257 0.0000
vt 0.2227 0.8012 0.0000
vt 0.5721 0.8432 0.0000
vt 0.5758 0.8323 0.0000
vt 0.5754 0.8395 0.0000
vt 0.5728 0.8440 0.0000
vt 0.7175 0.0553 0.0000
vt 0.7166 0.0489 0.0000
vt 0.7192 0.0535 0.0000
vt 0.7230 0.0565 0.0000
vt 0.7774 0.3501 0.0000
vt 0.7718 0.3510 0.0000
vt 0.7756 0.3484 0.0000
vt 0.7782 0.3446 0.0000
vt 0.7749 0.3477 0.0000
vt 0.7786 0.3384 0.0000
vt 0.5690 0.8470 0.0000
vt 0.5629 0.8474 0.0000
vt 0.5745 0.8459 0.0000
vt 0.7162 0.0418 0.0000
vt 0.7199 0.0526 0.0000
vt 0.7292 0.0569 0.0000
vt 0.7657 0.3513 0.0000
vt 0.7199 0.0121 0.0000
vt 0.7162 0.0229 0.0000
vt 0.7166 0.0158 0.0000
vt 0.7192 0.0113 0.0000
vt 0.5745 0.7998 0.0000
vt 0.5754 0.8062 0.0000
vt 0.5728 0.8017 0.0000
vt 0.5690 0.7987 0.0000
vt 0.4732 0.7705 0.0000
vt 0.4677 0.7714 0.0000
vt 0.4715 0.7688 0.0000
vt 0.4741 0.7650 0.0000
vt 0.4708 0.7681 0.0000
vt 0.4744 0.7589 0.0000
vt 0.7231 0.0082 0.0000
vt 0.7292 0.0078 0.0000
vt 0.7175 0.0094 0.0000
vt 0.5758 0.8134 0.0000
vt 0.5721 0.8025 0.0000
vt 0.5629 0.7983 0.0000
vt 0.4615 0.7718 0.0000
vt 0.2738 0.8502 0.0000
vt 0.2227 0.8502 0.0000
vt 0.5869 0.7254 0.0000
vt 0.6114 0.7254 0.0000
vt 0.6114 0.7935 0.0000
vt 0.5869 0.7935 0.0000
vt 0.6359 0.7254 0.0000
vt 0.6359 0.7935 0.0000
vt 0.3604 0.6734 0.0000
vt 0.2745 0.6729 0.0000
vt 0.2752 0.6524 0.0000
vt 0.3614 0.6524 0.0000
vt 0.3717 0.7470 0.0000
vt 0.3717 0.7680 0.0000
vt 0.3045 0.7680 0.0000
vt 0.3036 0.7470 0.0000
vt 0.3600 0.6932 0.0000
vt 0.2746 0.6936 0.0000
vt 0.3717 0.7890 0.0000
vt 0.3048 0.7879 0.0000
vt 0.4636 0.0078 0.0000
vt 0.4636 0.0288 0.0000
vt 0.3589 0.0288 0.0000
vt 0.3589 0.0078 0.0000
vt 0.1363 0.7801 0.0000
vt 0.1362 0.8011 0.0000
vt 0.0682 0.8011 0.0000
vt 0.0682 0.7801 0.0000
vt 0.4636 0.0498 0.0000
vt 0.3589 0.0498 0.0000
vt 0.7385 0.2169 0.0000
vt 0.6509 0.2169 0.0000
vt 0.6507 0.1959 0.0000
vt 0.7384 0.1959 0.0000
vt 0.1354 0.8212 0.0000
vt 0.0682 0.8221 0.0000
vt 0.7379 0.2373 0.0000
vt 0.6516 0.2370 0.0000
vt 0.1127 0.4511 0.0000
vt 0.0865 0.4511 0.0000
vt 0.0865 0.4301 0.0000
vt 0.1127 0.4301 0.0000
vt 0.1127 0.4721 0.0000
vt 0.0868 0.4718 0.0000
vt 0.1065 0.3023 0.0000
vt 0.1084 0.3051 0.0000
vt 0.1076 0.3059 0.0000
vt 0.1028 0.3013 0.0000
vt 0.1112 0.3069 0.0000
vt 0.1122 0.3106 0.0000
vt 0.7538 0.2227 0.0000
vt 0.7519 0.2199 0.0000
vt 0.7528 0.2190 0.0000
vt 0.7575 0.2236 0.0000
vt 0.7491 0.2180 0.0000
vt 0.7482 0.2143 0.0000
vt 0.1118 0.4151 0.0000
vt 0.1090 0.4170 0.0000
vt 0.1081 0.4161 0.0000
vt 0.1128 0.4114 0.0000
vt 0.1071 0.4198 0.0000
vt 0.1034 0.4208 0.0000
vt 0.1102 0.3032 0.0000
vt 0.7491 0.1873 0.0000
vt 0.7519 0.1854 0.0000
vt 0.7528 0.1863 0.0000
vt 0.7482 0.1910 0.0000
vt 0.7538 0.1826 0.0000
vt 0.7575 0.1816 0.0000
vt 0.7501 0.2217 0.0000
vt 0.8764 0.0330 0.0000
vt 0.8744 0.0302 0.0000
vt 0.8753 0.0293 0.0000
vt 0.8801 0.0340 0.0000
vt 0.8717 0.0283 0.0000
vt 0.8707 0.0246 0.0000
vt 0.1071 0.3798 0.0000
vt 0.1090 0.3825 0.0000
vt 0.1081 0.3834 0.0000
vt 0.1034 0.3788 0.0000
vt 0.1118 0.3845 0.0000
vt 0.1128 0.3882 0.0000
vt 0.1108 0.4188 0.0000
vt 0.7501 0.1836 0.0000
vt 0.8726 0.0320 0.0000
vt 0.1108 0.3807 0.0000
vt 0.3690 0.9155 0.0000
vt 0.3480 0.9154 0.0000
vt 0.3480 0.8644 0.0000
vt 0.3690 0.8644 0.0000
vt 0.0892 0.9174 0.0000
vt 0.0946 0.9227 0.0000
vt 0.0905 0.9215 0.0000
vt 0.0884 0.9183 0.0000
vt 0.7664 0.4374 0.0000
vt 0.7686 0.4405 0.0000
vt 0.7644 0.4394 0.0000
vt 0.7632 0.4352 0.0000
vt 0.5313 0.7837 0.0000
vt 0.5335 0.7870 0.0000
vt 0.5293 0.7858 0.0000
vt 0.5282 0.7815 0.0000
vt 0.5323 0.7828 0.0000
vt 0.5376 0.7882 0.0000
vt 0.0851 0.9161 0.0000
vt 0.0839 0.9120 0.0000
vt 0.0863 0.9204 0.0000
vt 0.7621 0.4311 0.0000
vt 0.7673 0.4364 0.0000
vt 0.7727 0.4416 0.0000
vt 0.5270 0.7774 0.0000
vt 0.7672 0.4052 0.0000
vt 0.7618 0.4106 0.0000
vt 0.7629 0.4064 0.0000
vt 0.7661 0.4042 0.0000
vt 0.1213 0.9186 0.0000
vt 0.1245 0.9164 0.0000
vt 0.1234 0.9206 0.0000
vt 0.1191 0.9217 0.0000
vt 0.0121 0.7200 0.0000
vt 0.0089 0.7222 0.0000
vt 0.0101 0.7179 0.0000
vt 0.0143 0.7168 0.0000
vt 0.0131 0.7210 0.0000
vt 0.0078 0.7264 0.0000
vt 0.7683 0.4010 0.0000
vt 0.7726 0.3999 0.0000
vt 0.7641 0.4022 0.0000
vt 0.1149 0.9229 0.0000
vt 0.1203 0.9175 0.0000
vt 0.1256 0.9122 0.0000
vt 0.0185 0.7157 0.0000
vt 0.3277 0.9148 0.0000
vt 0.3270 0.8644 0.0000
vt 0.7523 0.1472 0.0000
vt 0.7516 0.1268 0.0000
vt 0.8197 0.1268 0.0000
vt 0.8197 0.1478 0.0000
vt 0.7516 0.1058 0.0000
vt 0.8197 0.1058 0.0000
vt 0.3258 0.8551 0.0000
vt 0.3258 0.7983 0.0000
vt 0.3486 0.7983 0.0000
vt 0.3486 0.8551 0.0000
vt 0.8145 0.5407 0.0000
vt 0.7464 0.5407 0.0000
vt 0.7464 0.5179 0.0000
vt 0.8145 0.5179 0.0000
vt 0.8211 0.8499 0.0000
vt 0.7983 0.8499 0.0000
vt 0.7983 0.7937 0.0000
vt 0.8211 0.7932 0.0000
vt 0.7763 0.7939 0.0000
vt 0.7755 0.8499 0.0000
vt 0.6628 0.6600 0.0000
vt 0.6635 0.7160 0.0000
vt 0.5954 0.7160 0.0000
vt 0.5954 0.6592 0.0000
vt 0.7464 0.5635 0.0000
vt 0.8145 0.5635 0.0000
vt 0.3030 0.7983 0.0000
vt 0.3030 0.8551 0.0000
vt 0.7618 0.7291 0.0000
vt 0.7618 0.6615 0.0000
vt 0.7839 0.6617 0.0000
vt 0.7846 0.7291 0.0000
vt 0.7390 0.7291 0.0000
vt 0.7390 0.6610 0.0000
vt 0.7297 0.6610 0.0000
vt 0.7297 0.7291 0.0000
vt 0.6729 0.7291 0.0000
vt 0.6729 0.6610 0.0000
vt 0.5401 0.9208 0.0000
vt 0.5401 0.8980 0.0000
vt 0.5736 0.8981 0.0000
vt 0.5736 0.9209 0.0000
vt 0.5736 0.9436 0.0000
vt 0.5407 0.9431 0.0000
vt 0.7692 0.6407 0.0000
vt 0.7464 0.6407 0.0000
vt 0.7464 0.5726 0.0000
vt 0.7692 0.5726 0.0000
vt 0.7560 0.7943 0.0000
vt 0.7560 0.8624 0.0000
vt 0.7235 0.8622 0.0000
vt 0.7225 0.7944 0.0000
vt 0.8686 0.5735 0.0000
vt 0.8695 0.6055 0.0000
vt 0.8020 0.6055 0.0000
vt 0.8012 0.5726 0.0000
vt 0.7915 0.5732 0.0000
vt 0.7920 0.6407 0.0000
vt 0.4324 0.9220 0.0000
vt 0.4651 0.9220 0.0000
vt 0.4648 0.9445 0.0000
vt 0.4324 0.9448 0.0000
vt 0.4324 0.8992 0.0000
vt 0.4644 0.8998 0.0000
vt 0.5030 0.9325 0.0000
vt 0.4746 0.9325 0.0000
vt 0.4746 0.8984 0.0000
vt 0.5296 0.9001 0.0000
vt 0.5308 0.9319 0.0000
vt 0.8821 0.6969 0.0000
vt 0.9105 0.6969 0.0000
vt 0.9105 0.7309 0.0000
vt 0.2286 0.7368 0.0000
vt 0.2278 0.7031 0.0000
vt 0.3167 0.7031 0.0000
vt 0.6530 0.1400 0.0000
vt 0.7419 0.1400 0.0000
vt 0.7415 0.1741 0.0000
vt 0.9388 0.6969 0.0000
vt 0.7375 0.4910 0.0000
vt 0.6490 0.4910 0.0000
vt 0.6493 0.4630 0.0000
vt 0.6490 0.5194 0.0000
vt 0.7053 0.9282 0.0000
vt 0.7049 0.8718 0.0000
vt 0.7390 0.8718 0.0000
vt 0.7390 0.9002 0.0000
vt 0.7390 0.9286 0.0000
vt 0.6063 0.5333 0.0000
vt 0.6403 0.5333 0.0000
vt 0.6403 0.6457 0.0000
vt 0.4797 0.1856 0.0000
vt 0.5921 0.1856 0.0000
vt 0.5921 0.2197 0.0000
vt 0.5829 0.9071 0.0000
vt 0.6169 0.9071 0.0000
vt 0.6169 0.9354 0.0000
vt 0.6057 0.5239 0.0000
vt 0.6057 0.4113 0.0000
vt 0.6397 0.4115 0.0000
vt 0.5963 0.5304 0.0000
vt 0.4837 0.5303 0.0000
vt 0.4838 0.5019 0.0000
vt 0.4837 0.5586 0.0000
vt 0.3522 0.4843 0.0000
vt 0.3524 0.5184 0.0000
vt 0.2398 0.5184 0.0000
vt 0.6169 0.8787 0.0000
vt 0.2181 0.7218 0.0000
vt 0.1616 0.7218 0.0000
vt 0.1616 0.6883 0.0000
vt 0.7218 0.0739 0.0000
vt 0.7223 0.1305 0.0000
vt 0.6877 0.1308 0.0000
vt 0.6530 0.0750 0.0000
vt 0.6552 0.1305 0.0000
vt 0.2177 0.6530 0.0000
vt 0.1611 0.6537 0.0000
vt 0.7162 0.0324 0.0000
vt 0.7843 0.0324 0.0000
vt 0.7843 0.0569 0.0000
vt 0.7787 0.3002 0.0000
vt 0.7105 0.3512 0.0000
vt 0.7105 0.3002 0.0000
vt 0.5759 0.8229 0.0000
vt 0.5248 0.8229 0.0000
vt 0.5247 0.7983 0.0000
vt 0.5247 0.8474 0.0000
vt 0.4233 0.7719 0.0000
vt 0.4233 0.7037 0.0000
vt 0.4743 0.7037 0.0000
vt 0.7843 0.0078 0.0000
vt 0.5699 0.3856 0.0000
vt 0.5844 0.4119 0.0000
vt 0.5785 0.4156 0.0000
vt 0.4831 0.4156 0.0000
vt 0.4831 0.3475 0.0000
vt 0.5693 0.3480 0.0000
vt 0.4910 0.4929 0.0000
vt 0.4851 0.4892 0.0000
vt 0.5002 0.4631 0.0000
vt 0.4999 0.4250 0.0000
vt 0.5852 0.4259 0.0000
vt 0.5864 0.4929 0.0000
vt 0.1127 0.3694 0.0000
vt 0.0865 0.3696 0.0000
vt 0.0865 0.3021 0.0000
vt 0.7482 0.2026 0.0000
vt 0.8163 0.2026 0.0000
vt 0.8163 0.2236 0.0000
vt 0.0871 0.4202 0.0000
vt 0.0865 0.3998 0.0000
vt 0.1128 0.3998 0.0000
vt 0.8163 0.1816 0.0000
vt 0.8707 0.0078 0.0000
vt 0.9383 0.0078 0.0000
vt 0.9388 0.0337 0.0000
vt 0.0866 0.3789 0.0000
vt 0.4020 0.7812 0.0000
vt 0.4224 0.7819 0.0000
vt 0.4228 0.8494 0.0000
vt 0.3811 0.8489 0.0000
vt 0.3811 0.7813 0.0000
vt 0.7618 0.4209 0.0000
vt 0.8299 0.4209 0.0000
vt 0.8299 0.4419 0.0000
vt 0.5777 0.7888 0.0000
vt 0.5273 0.7202 0.0000
vt 0.5777 0.7214 0.0000
vt 0.1046 0.9229 0.0000
vt 0.1046 0.8718 0.0000
vt 0.1256 0.8718 0.0000
vt 0.0836 0.8718 0.0000
vt 0.0589 0.7157 0.0000
vt 0.0589 0.7838 0.0000
vt 0.0078 0.7838 0.0000
vt 0.8299 0.3999 0.0000
vt 0.2942 0.7690 0.0000
vt 0.2936 0.7912 0.0000
vt 0.2262 0.7920 0.0000
vt 0.2261 0.7464 0.0000
vt 0.2939 0.7464 0.0000
vt 0.7014 0.3452 0.0000
vt 0.7014 0.3736 0.0000
vt 0.5902 0.3736 0.0000
vt 0.1688 0.9037 0.0000
vt 0.1677 0.9037 0.0000
vt 0.5891 0.3736 0.0000
vt 0.7014 0.4020 0.0000
vt 0.1349 0.9321 0.0000
vt 0.1349 0.9037 0.0000
vt 0.1349 0.8752 0.0000
vt 0.1519 0.6548 0.0000
vt 0.1369 0.6547 0.0000
vt 0.1218 0.6547 0.0000
vt 0.1230 0.1214 0.0000
vt 0.1527 0.1217 0.0000
vt 0.5497 0.6389 0.0000
vt 0.5561 0.6707 0.0000
vt 0.5270 0.6433 0.0000
vt 0.5858 0.7022 0.0000
vt 0.5632 0.7065 0.0000
vt 0.5570 0.6758 0.0000
vt 0.5566 0.6733 0.0000
vt 0.5407 0.7112 0.0000
vt 0.5722 0.6342 0.0000
vt 0.3710 0.6942 0.0000
vt 0.3709 0.6733 0.0000
vt 0.3711 0.6526 0.0000
vt 0.4554 0.6735 0.0000
vt 0.4554 0.6945 0.0000
vt 0.4555 0.6525 0.0000
vt 0.8121 0.4847 0.0000
vt 0.7470 0.5069 0.0000
vt 0.7470 0.4847 0.0000
vt 0.7470 0.4626 0.0000
vt 0.0693 0.7036 0.0000
vt 0.0692 0.5943 0.0000
vt 0.0913 0.5943 0.0000
vt 0.0475 0.5947 0.0000
vt 0.7609 0.2908 0.0000
vt 0.7610 0.2466 0.0000
vt 0.7832 0.2466 0.0000
vt 0.7831 0.2687 0.0000
vt 0.7831 0.2908 0.0000
vt 0.7060 0.2686 0.0000
vt 0.7061 0.2466 0.0000
vt 0.7063 0.2904 0.0000
vt 0.8147 0.4847 0.0000
vt 0.0693 0.7062 0.0000
vt 0.7523 0.4163 0.0000
vt 0.7523 0.4323 0.0000
vt 0.6490 0.4323 0.0000
vt 0.6490 0.4113 0.0000
vt 0.7444 0.4113 0.0000
vt 0.7523 0.4483 0.0000
vt 0.7444 0.4533 0.0000
vt 0.6490 0.4533 0.0000
vt 0.1784 0.7730 0.0000
vt 0.1785 0.7313 0.0000
vt 0.2161 0.7318 0.0000
vt 0.2164 0.7731 0.0000
vt 0.5858 0.4142 0.0000
vt 0.5858 0.4143 0.0000
vt 0.5857 0.4144 0.0000
vt 0.7515 0.4125 0.0000
vt 0.7517 0.4127 0.0000
vt 0.4839 0.4917 0.0000
vt 0.4838 0.4915 0.0000
vt 0.7517 0.4519 0.0000
vt 0.7515 0.4521 0.0000
vt 0.4979 0.0434 0.0000
vt 0.4973 0.0078 0.0000
vt 0.5850 0.0078 0.0000
vt 0.5850 0.0759 0.0000
vt 0.4803 0.0759 0.0000
vt 0.4831 0.3381 0.0000
vt 0.4841 0.2709 0.0000
vt 0.5703 0.2706 0.0000
vt 0.5703 0.3055 0.0000
vt 0.5878 0.3381 0.0000
vt 0.7181 0.7595 0.0000
vt 0.7181 0.7805 0.0000
vt 0.6811 0.7803 0.0000
vt 0.6811 0.7385 0.0000
vt 0.7181 0.7385 0.0000
vt 0.6461 0.7799 0.0000
vt 0.6456 0.7385 0.0000
vt 0.0941 0.1482 0.0000
vt 0.0954 0.2920 0.0000
vt 0.0078 0.2916 0.0000
vt 0.0091 0.0078 0.0000
vt 0.3496 0.0094 0.0000
vt 0.3483 0.2931 0.0000
vt 0.2625 0.2927 0.0000
vt 0.2629 0.1464 0.0000
vt 0.2330 0.0918 0.0000
vt 0.1789 0.0696 0.0000
vt 0.1241 0.0929 0.0000
vt 0.4749 0.6424 0.0000
vt 0.1911 0.6437 0.0000
vt 0.1907 0.5561 0.0000
vt 0.3345 0.5573 0.0000
vt 0.3899 0.5274 0.0000
vt 0.4131 0.4726 0.0000
vt 0.3910 0.4185 0.0000
vt 0.1896 0.3032 0.0000
vt 0.4734 0.3019 0.0000
vt 0.4690 0.1906 0.0000
vt 0.4705 0.1898 0.0000
vt 0.4707 0.2155 0.0000
vt 0.3583 0.2155 0.0000
vt 0.3583 0.1474 0.0000
vt 0.4031 0.1474 0.0000
vt 0.4148 0.1686 0.0000
vt 0.2090 0.4534 0.0000
vt 0.2302 0.4650 0.0000
vt 0.2304 0.5098 0.0000
vt 0.1623 0.5101 0.0000
vt 0.1623 0.3981 0.0000
vt 0.1877 0.3976 0.0000
vt 0.1870 0.3993 0.0000
vt 0.3583 0.1382 0.0000
vt 0.3587 0.1115 0.0000
vt 0.4088 0.0894 0.0000
vt 0.4195 0.0699 0.0000
vt 0.4710 0.0704 0.0000
vt 0.2311 0.1143 0.0000
vt 0.1628 0.2260 0.0000
vt 0.1631 0.1746 0.0000
vt 0.1828 0.1643 0.0000
vt 0.2047 0.1138 0.0000
vt 0.7517 0.4521 0.0000
vt 0.5858 0.4144 0.0000
vt 0.4837 0.4916 0.0000
vt 0.7517 0.4126 0.0000
vt 0.1443 0.7360 0.0000
vt 0.1440 0.7680 0.0000
vt 0.1441 0.7520 0.0000
vt 0.9518 0.3819 0.0000
vt 0.8844 0.3819 0.0000
vt 0.8844 0.3629 0.0000
vt 0.9518 0.3629 0.0000
vt 0.9916 0.6057 0.0000
vt 0.9922 0.6223 0.0000
vt 0.9268 0.6236 0.0000
vt 0.9254 0.6057 0.0000
vt 0.8080 0.3486 0.0000
vt 0.8755 0.3486 0.0000
vt 0.8741 0.3798 0.0000
vt 0.8080 0.3811 0.0000
vt 0.7573 0.9726 0.0000
vt 0.7573 0.9411 0.0000
vt 0.7739 0.9408 0.0000
vt 0.7762 0.9719 0.0000
vt 0.8983 0.8410 0.0000
vt 0.8972 0.8726 0.0000
vt 0.8318 0.8725 0.0000
vt 0.8308 0.8410 0.0000
vt 0.0872 0.7157 0.0000
vt 0.0872 0.7482 0.0000
vt 0.0692 0.7472 0.0000
vt 0.0682 0.7157 0.0000
vt 0.9664 0.5640 0.0000
vt 0.9009 0.5619 0.0000
vt 0.9021 0.5458 0.0000
vt 0.9678 0.5458 0.0000
vt 0.6262 0.9106 0.0000
vt 0.6931 0.9106 0.0000
vt 0.6929 0.9284 0.0000
vt 0.6262 0.9295 0.0000
vt 0.9050 0.3924 0.0000
vt 0.9063 0.4227 0.0000
vt 0.8393 0.4227 0.0000
vt 0.8394 0.3902 0.0000
vt 0.4907 0.8884 0.0000
vt 0.4746 0.8890 0.0000
vt 0.4746 0.8583 0.0000
vt 0.4924 0.8581 0.0000
vt 0.4638 0.8581 0.0000
vt 0.4649 0.8899 0.0000
vt 0.3982 0.8899 0.0000
vt 0.3982 0.8592 0.0000
vt 0.0260 0.9680 0.0000
vt 0.0078 0.9688 0.0000
vt 0.0078 0.9364 0.0000
vt 0.0267 0.9362 0.0000
vt 0.9824 0.4096 0.0000
vt 0.9157 0.4096 0.0000
vt 0.9157 0.3924 0.0000
vt 0.9820 0.3908 0.0000
vt 0.9748 0.8154 0.0000
vt 0.9752 0.8340 0.0000
vt 0.9077 0.8340 0.0000
vt 0.9081 0.8154 0.0000
vt 0.9158 0.6156 0.0000
vt 0.9165 0.6467 0.0000
vt 0.8498 0.6467 0.0000
vt 0.8496 0.6148 0.0000
vt 0.9599 0.9284 0.0000
vt 0.9599 0.9601 0.0000
vt 0.9414 0.9593 0.0000
vt 0.9428 0.9282 0.0000
vt 0.8298 0.0969 0.0000
vt 0.8965 0.0962 0.0000
vt 0.8965 0.1286 0.0000
vt 0.8291 0.1286 0.0000
vt 0.0363 0.9362 0.0000
vt 0.0551 0.9364 0.0000
vt 0.0549 0.9684 0.0000
vt 0.0363 0.9687 0.0000
vt 0.9746 0.7407 0.0000
vt 0.9751 0.7589 0.0000
vt 0.9077 0.7589 0.0000
vt 0.9080 0.7402 0.0000
vt 0.8146 0.9137 0.0000
vt 0.8153 0.9313 0.0000
vt 0.7482 0.9313 0.0000
vt 0.7488 0.9129 0.0000
vt 0.0081 0.8593 0.0000
vt 0.0746 0.8593 0.0000
vt 0.0736 0.8904 0.0000
vt 0.0078 0.8906 0.0000
vt 0.6370 0.9707 0.0000
vt 0.6370 0.9385 0.0000
vt 0.6546 0.9391 0.0000
vt 0.6557 0.9703 0.0000
vt 0.8981 0.7578 0.0000
vt 0.8983 0.7902 0.0000
vt 0.8312 0.7900 0.0000
vt 0.8308 0.7578 0.0000
vt 0.7476 0.9413 0.0000
vt 0.7477 0.9726 0.0000
vt 0.7293 0.9732 0.0000
vt 0.7293 0.9408 0.0000
vt 0.9798 0.8906 0.0000
vt 0.9129 0.8906 0.0000
vt 0.9130 0.8728 0.0000
vt 0.9795 0.8718 0.0000
vt 0.9734 0.0717 0.0000
vt 0.9735 0.0906 0.0000
vt 0.9060 0.0906 0.0000
vt 0.9060 0.0716 0.0000
vt 0.9363 0.1993 0.0000
vt 0.9369 0.2270 0.0000
vt 0.8695 0.2270 0.0000
vt 0.8698 0.1987 0.0000
vt 0.2431 0.6821 0.0000
vt 0.2272 0.6902 0.0000
vt 0.2272 0.6530 0.0000
vt 0.2461 0.6545 0.0000
vt 0.7931 0.2334 0.0000
vt 0.8600 0.2329 0.0000
vt 0.8600 0.2706 0.0000
vt 0.7926 0.2706 0.0000
vt 0.1786 0.6127 0.0000
vt 0.1806 0.6409 0.0000
vt 0.1617 0.6422 0.0000
vt 0.1617 0.6045 0.0000
vt 0.9684 0.5078 0.0000
vt 0.9009 0.5078 0.0000
vt 0.9009 0.4888 0.0000
vt 0.9684 0.4888 0.0000
vt 0.9684 0.4318 0.0000
vt 0.9684 0.4508 0.0000
vt 0.9009 0.4508 0.0000
vt 0.9009 0.4318 0.0000
vt 0.9370 0.2364 0.0000
vt 0.9370 0.2633 0.0000
vt 0.8695 0.2633 0.0000
vt 0.8695 0.2364 0.0000
vt 0.1617 0.5952 0.0000
vt 0.1617 0.5561 0.0000
vt 0.1778 0.5662 0.0000
vt 0.1805 0.5930 0.0000
vt 0.8555 0.3002 0.0000
vt 0.8555 0.3393 0.0000
vt 0.7880 0.3393 0.0000
vt 0.7880 0.3002 0.0000
vt 0.0865 0.5299 0.0000
vt 0.1053 0.5321 0.0000
vt 0.1025 0.5588 0.0000
vt 0.0865 0.5690 0.0000
vt 0.6646 0.3329 0.0000
vt 0.5971 0.3329 0.0000
vt 0.5971 0.3139 0.0000
vt 0.6646 0.3139 0.0000
vt 0.2446 0.9011 0.0000
vt 0.2454 0.9187 0.0000
vt 0.1782 0.9187 0.0000
vt 0.1783 0.8998 0.0000
vt 0.8240 0.4928 0.0000
vt 0.8914 0.4928 0.0000
vt 0.8903 0.5242 0.0000
vt 0.8240 0.5253 0.0000
vt 0.6724 0.9702 0.0000
vt 0.6724 0.9379 0.0000
vt 0.6899 0.9387 0.0000
vt 0.6913 0.9700 0.0000
vt 0.8931 0.1571 0.0000
vt 0.8931 0.1896 0.0000
vt 0.8259 0.1894 0.0000
vt 0.8257 0.1571 0.0000
vt 0.4508 0.7812 0.0000
vt 0.4508 0.8137 0.0000
vt 0.4319 0.8137 0.0000
vt 0.4318 0.7812 0.0000
vt 0.9796 0.9187 0.0000
vt 0.9129 0.9187 0.0000
vt 0.9132 0.9014 0.0000
vt 0.9795 0.8998 0.0000
vt 0.9709 0.0434 0.0000
vt 0.9712 0.0621 0.0000
vt 0.9037 0.0621 0.0000
vt 0.9037 0.0431 0.0000
vt 0.9450 0.5734 0.0000
vt 0.9458 0.5962 0.0000
vt 0.8787 0.5962 0.0000
vt 0.8788 0.5720 0.0000
vt 0.1784 0.3797 0.0000
vt 0.1628 0.3872 0.0000
vt 0.1628 0.3492 0.0000
vt 0.1798 0.3570 0.0000
vt 0.6462 0.7903 0.0000
vt 0.7129 0.7898 0.0000
vt 0.7130 0.8283 0.0000
vt 0.6456 0.8283 0.0000
vt 0.1628 0.3013 0.0000
vt 0.1804 0.3084 0.0000
vt 0.1803 0.3325 0.0000
vt 0.1628 0.3399 0.0000
vt 0.3061 0.5466 0.0000
vt 0.2386 0.5466 0.0000
vt 0.2388 0.5278 0.0000
vt 0.3061 0.5276 0.0000
vt 0.9701 0.1378 0.0000
vt 0.9701 0.1567 0.0000
vt 0.9026 0.1567 0.0000
vt 0.9026 0.1378 0.0000
vt 0.8724 0.7164 0.0000
vt 0.8726 0.7488 0.0000
vt 0.8051 0.7488 0.0000
vt 0.8051 0.7162 0.0000
vt 0.1030 0.9646 0.0000
vt 0.0842 0.9648 0.0000
vt 0.0842 0.9322 0.0000
vt 0.1032 0.9322 0.0000
vt 0.8914 0.4512 0.0000
vt 0.8914 0.4837 0.0000
vt 0.8240 0.4837 0.0000
vt 0.8240 0.4512 0.0000
vt 0.3310 0.9573 0.0000
vt 0.3310 0.9248 0.0000
vt 0.3500 0.9248 0.0000
vt 0.3500 0.9573 0.0000
vt 0.9684 0.5363 0.0000
vt 0.9009 0.5363 0.0000
vt 0.9009 0.5173 0.0000
vt 0.9684 0.5173 0.0000
vt 0.4252 0.2706 0.0000
vt 0.4252 0.2895 0.0000
vt 0.3577 0.2895 0.0000
vt 0.3577 0.2706 0.0000
vt 0.2292 0.5196 0.0000
vt 0.2292 0.5466 0.0000
vt 0.1617 0.5466 0.0000
vt 0.1617 0.5196 0.0000
vt 0.1024 0.5103 0.0000
vt 0.0865 0.5206 0.0000
vt 0.0865 0.4814 0.0000
vt 0.1053 0.4835 0.0000
vt 0.2132 0.7823 0.0000
vt 0.2132 0.8216 0.0000
vt 0.1457 0.8216 0.0000
vt 0.1457 0.7823 0.0000
vt 0.1782 0.1002 0.0000
vt 0.1811 0.1270 0.0000
vt 0.1623 0.1291 0.0000
vt 0.1623 0.0899 0.0000
vt 0.9701 0.1852 0.0000
vt 0.9026 0.1852 0.0000
vt 0.9026 0.1663 0.0000
vt 0.9701 0.1663 0.0000
vt 0.9083 0.8448 0.0000
vt 0.9746 0.8433 0.0000
vt 0.9747 0.8623 0.0000
vt 0.9077 0.8623 0.0000
vt 0.8914 0.5344 0.0000
vt 0.8914 0.5627 0.0000
vt 0.8252 0.5617 0.0000
vt 0.8240 0.5344 0.0000
vt 0.0078 0.6889 0.0000
vt 0.0078 0.6513 0.0000
vt 0.0252 0.6590 0.0000
vt 0.0267 0.6872 0.0000
vt 0.7937 0.0078 0.0000
vt 0.8612 0.0078 0.0000
vt 0.8607 0.0449 0.0000
vt 0.7937 0.0454 0.0000
vt 0.3589 0.0591 0.0000
vt 0.3778 0.0609 0.0000
vt 0.3744 0.0880 0.0000
vt 0.3589 0.0962 0.0000
vt 0.0737 0.9098 0.0000
vt 0.0748 0.9267 0.0000
vt 0.0078 0.9267 0.0000
vt 0.0080 0.9077 0.0000
vt 0.5468 0.0856 0.0000
vt 0.5473 0.1035 0.0000
vt 0.4803 0.1035 0.0000
vt 0.4808 0.0853 0.0000
vt 0.5082 0.8584 0.0000
vt 0.5740 0.8570 0.0000
vt 0.5731 0.8886 0.0000
vt 0.5071 0.8886 0.0000
vt 0.7008 0.9702 0.0000
vt 0.7008 0.9379 0.0000
vt 0.7187 0.9384 0.0000
vt 0.7198 0.9700 0.0000
vt 0.8977 0.7999 0.0000
vt 0.8981 0.8317 0.0000
vt 0.8311 0.8317 0.0000
vt 0.8308 0.7994 0.0000
vt 0.1295 0.9418 0.0000
vt 0.1309 0.9720 0.0000
vt 0.1127 0.9726 0.0000
vt 0.1127 0.9408 0.0000
vt 0.3216 0.9425 0.0000
vt 0.2546 0.9425 0.0000
vt 0.2551 0.9244 0.0000
vt 0.3213 0.9243 0.0000
vt 0.9905 0.6598 0.0000
vt 0.9917 0.6751 0.0000
vt 0.9260 0.6751 0.0000
vt 0.9277 0.6587 0.0000
vt 0.8644 0.2802 0.0000
vt 0.9306 0.2802 0.0000
vt 0.9288 0.3095 0.0000
vt 0.8660 0.3102 0.0000
vt 0.4746 0.9731 0.0000
vt 0.4746 0.9419 0.0000
vt 0.4899 0.9428 0.0000
vt 0.4926 0.9720 0.0000
vt 0.9166 0.6558 0.0000
vt 0.9163 0.6876 0.0000
vt 0.8506 0.6870 0.0000
vt 0.8496 0.6558 0.0000
vt 0.1400 0.9414 0.0000
vt 0.1582 0.9418 0.0000
vt 0.1565 0.9717 0.0000
vt 0.1400 0.9731 0.0000
vt 0.9919 0.6494 0.0000
vt 0.9260 0.6494 0.0000
vt 0.9271 0.6335 0.0000
vt 0.9903 0.6330 0.0000
vt 0.9684 0.4603 0.0000
vt 0.9684 0.4793 0.0000
vt 0.9009 0.4793 0.0000
vt 0.9012 0.4606 0.0000
vt 0.2426 0.8599 0.0000
vt 0.2448 0.8903 0.0000
vt 0.1777 0.8903 0.0000
vt 0.1793 0.8600 0.0000
vt 0.8017 0.9717 0.0000
vt 0.7858 0.9724 0.0000
vt 0.7858 0.9408 0.0000
vt 0.8047 0.9414 0.0000
vt 0.5855 0.8380 0.0000
vt 0.6515 0.8376 0.0000
vt 0.6520 0.8696 0.0000
vt 0.5846 0.8696 0.0000
vt 0.2118 0.4284 0.0000
vt 0.2096 0.3982 0.0000
vt 0.2283 0.3976 0.0000
vt 0.2283 0.4296 0.0000
vt 0.9730 0.1006 0.0000
vt 0.9735 0.1191 0.0000
vt 0.9060 0.1191 0.0000
vt 0.9060 0.1001 0.0000
vt 0.9084 0.7885 0.0000
vt 0.9744 0.7869 0.0000
vt 0.9745 0.8059 0.0000
vt 0.9072 0.8059 0.0000
vt 0.1689 0.8308 0.0000
vt 0.1686 0.8633 0.0000
vt 0.1026 0.8614 0.0000
vt 0.1019 0.8308 0.0000
vt 0.9318 0.9282 0.0000
vt 0.9318 0.9608 0.0000
vt 0.9129 0.9608 0.0000
vt 0.9129 0.9282 0.0000
vt 0.8942 0.0545 0.0000
vt 0.8941 0.0869 0.0000
vt 0.8268 0.0871 0.0000
vt 0.8268 0.0545 0.0000
vt 0.9396 0.2728 0.0000
vt 0.9582 0.2733 0.0000
vt 0.9571 0.3039 0.0000
vt 0.9396 0.3052 0.0000
vt 0.5030 0.8980 0.0000
vt 0.7048 0.9002 0.0000
vt 0.4018 0.8494 0.0000
vt 0.2261 0.7692 0.0000
vt 0.1381 0.1212 0.0000
vt 0.2168 0.7523 0.0000
vt 0.6456 0.7594 0.0000
vt 0.3365 0.3881 0.0000
vt 0.1904 0.3886 0.0000
vt 0.1462 0.7329 0.0000
vt 0.1463 0.7328 0.0000
vt 0.1464 0.7327 0.0000
vt 0.1486 0.7311 0.0000
vt 0.1482 0.7731 0.0000
vt 0.1461 0.7714 0.0000
vt 0.1460 0.7713 0.0000
vt 0.1459 0.7712 0.0000
# 1267 texture coords

o prefab_doors_lvl001
g prefab_doors_lvl001
s 16
f 1/1/1 2/2/2 3/3/3 4/4/4 
f 2/5/2 5/6/5 6/7/6 3/8/3 
f 6/9/6 5/10/5 7/11/7 8/12/8 
f 7/11/7 5/10/5 9/13/9 10/14/10 
f 11/15/11 10/16/10 9/17/9 12/18/12 
f 9/19/9 5/6/5 2/5/2 12/20/12 
f 11/21/11 12/22/12 2/2/2 1/1/1 
f 7/23/7 10/24/10 11/25/11 1/26/1 
f 4/27/4 8/28/8 7/23/7 1/26/1 
f 3/29/3 6/30/6 8/31/8 4/32/4 
f 13/33/13 14/34/14 15/35/15 16/36/4 
f 15/37/15 17/38/16 18/39/8 16/40/4 
f 18/41/8 19/42/7 13/43/13 16/44/4 
f 13/33/13 20/45/17 21/46/18 14/34/14 
f 22/47/19 19/48/7 18/49/8 17/50/16 
f 19/42/7 23/51/20 20/52/17 13/43/13 
f 23/53/20 24/54/21 21/55/18 20/56/17 
f 19/48/7 22/47/19 24/57/21 23/58/20 
f 25/59/2 26/60/3 27/61/22 28/62/23 
f 29/63/24 30/64/25 25/59/2 28/62/23 
f 31/65/26 32/66/27 33/67/28 34/68/29 
f 33/67/28 32/66/27 35/69/30 36/70/31 
f 35/71/30 37/72/32 38/73/33 36/74/31 
f 38/73/33 37/72/32 39/75/34 40/76/35 
f 41/77/36 42/78/37 43/79/38 44/80/39 
f 43/79/38 42/78/37 45/81/40 46/82/41 
f 45/83/40 47/84/42 48/85/43 46/86/41 
f 48/85/43 47/84/42 49/87/44 50/88/45 
f 39/89/34 51/90/46 52/91/47 40/92/35 
f 52/91/47 51/90/46 31/93/26 34/94/29 
f 53/95/48 35/69/30 32/66/27 31/65/26 
f 53/96/48 39/75/34 37/72/32 35/71/30 
f 49/97/44 54/98/49 55/99/50 50/100/45 
f 55/99/50 54/98/49 41/101/36 44/102/39 
f 56/103/51 45/81/40 42/78/37 41/77/36 
f 56/104/51 49/87/44 47/84/42 45/83/40 
f 51/90/46 39/89/34 53/105/48 31/93/26 
f 54/98/49 49/97/44 56/106/51 41/101/36 
f 57/107/13 58/108/2 59/109/3 60/110/4 
f 58/111/2 61/112/5 62/113/6 59/114/3 
f 63/115/52 64/116/53 65/117/54 66/118/55 
f 67/119/56 65/120/54 68/121/57 69/122/58 
f 67/123/56 69/124/58 70/125/59 71/126/60 
f 72/127/61 73/128/62 71/126/60 70/125/59 
f 74/129/63 75/130/64 76/131/65 77/132/66 
f 77/133/66 78/134/67 79/135/68 80/136/69 
f 79/135/68 81/137/70 82/138/71 80/136/69 
f 74/139/63 77/133/66 80/136/69 82/138/71 
f 83/140/72 78/141/67 77/132/66 76/131/65 
f 82/142/71 81/143/70 84/144/73 85/145/74 
f 74/146/63 82/142/71 85/145/74 75/147/64 
f 71/148/60 73/149/62 63/115/52 66/118/55 
f 67/150/56 71/148/60 66/118/55 65/117/54 
f 65/120/54 64/151/53 86/152/75 68/121/57 
f 87/153/9 61/112/5 58/111/2 88/154/25 
f 88/155/25 58/108/2 57/107/13 89/156/76 
f 90/157/6 91/158/5 92/159/7 93/160/8 
f 94/161/77 95/162/78 96/163/79 97/164/80 
f 98/165/81 96/166/79 99/167/82 100/168/83 
f 98/169/81 100/170/83 101/171/84 102/172/85 
f 103/173/86 104/174/87 102/172/85 101/171/84 
f 102/175/85 104/176/87 94/161/77 97/164/80 
f 98/177/81 102/175/85 97/164/80 96/163/79 
f 96/166/79 95/178/78 105/179/88 99/167/82 
f 105/179/88 106/180/89 100/168/83 99/167/82 
f 100/170/83 106/181/89 103/173/86 101/171/84 
f 107/182/90 108/183/91 109/184/92 110/185/93 
f 111/186/94 109/187/92 112/188/95 113/189/96 
f 111/190/94 113/191/96 114/192/97 115/193/98 
f 116/194/99 117/195/100 115/193/98 114/192/97 
f 115/196/98 117/197/100 107/182/90 110/185/93 
f 111/198/94 115/196/98 110/185/93 109/184/92 
f 109/187/92 108/199/91 118/200/101 112/188/95 
f 118/200/101 119/201/102 113/189/96 112/188/95 
f 113/191/96 119/202/102 116/194/99 114/192/97 
f 92/159/7 91/158/5 120/203/9 121/204/103 
f 120/205/9 91/206/5 122/207/2 123/208/25 
f 122/207/2 91/206/5 90/209/6 124/210/3 
f 125/211/13 126/212/104 127/213/105 128/214/4 
f 129/215/8 130/216/7 125/217/13 128/218/4 
f 125/211/13 131/219/106 132/220/107 126/212/104 
f 133/221/108 134/222/2 135/223/3 136/224/109 
f 134/225/2 137/226/5 138/227/6 135/228/3 
f 137/229/5 130/230/7 129/231/8 138/232/6 
f 130/216/7 139/233/103 131/234/106 125/217/13 
f 140/235/110 141/236/25 134/222/2 133/221/108 
f 141/237/25 142/238/9 137/226/5 134/225/2 
f 137/229/5 142/239/9 139/240/103 130/230/7 
f 143/241/111 144/242/112 145/243/113 146/244/114 
f 147/245/115 143/241/111 146/244/114 148/246/116 
f 149/247/117 147/245/115 148/246/116 150/248/118 
f 151/249/119 149/247/117 150/248/118 152/250/120 
f 153/251/13 154/252/2 155/253/3 156/254/4 
f 157/255/121 158/256/122 159/257/123 160/258/124 
f 161/259/125 162/260/126 163/261/127 159/262/123 
f 164/263/128 165/264/129 163/265/127 166/266/130 
f 167/267/131 168/268/132 166/269/130 169/270/133 
f 170/271/8 171/272/134 172/273/135 173/274/136 
f 172/273/135 171/272/134 174/275/137 175/276/138 
f 176/277/139 177/278/140 178/279/141 179/280/142 
f 180/281/143 181/282/144 182/283/145 178/284/141 
f 183/285/146 184/286/147 182/287/145 185/288/148 
f 186/289/149 187/290/150 185/291/148 188/292/151 
f 185/288/148 187/293/150 189/294/152 183/285/146 
f 188/292/151 185/291/148 182/283/145 181/282/144 
f 179/280/142 178/279/141 182/287/145 184/286/147 
f 178/284/141 177/295/140 190/296/153 180/281/143 
f 190/296/153 191/297/154 181/282/144 180/281/143 
f 181/282/144 191/297/154 186/289/149 188/292/151 
f 174/298/137 171/299/134 192/300/5 193/301/155 
f 194/302/6 192/300/5 171/299/134 170/303/8 
f 166/266/130 168/304/132 195/305/156 164/263/128 
f 195/305/156 196/306/157 165/264/129 164/263/128 
f 169/270/133 166/269/130 163/261/127 162/260/126 
f 165/264/129 196/306/157 157/255/121 160/258/124 
f 160/258/124 159/257/123 163/265/127 165/264/129 
f 159/262/123 158/307/122 197/308/158 161/259/125 
f 198/309/25 154/252/2 153/251/13 199/310/76 
f 172/273/135 175/276/138 199/311/76 153/312/13 
f 156/313/4 173/274/136 172/273/135 153/312/13 
f 200/314/159 201/315/160 202/316/161 203/317/8 
f 202/318/161 204/319/13 205/320/4 203/321/8 
f 206/322/162 207/323/163 201/324/160 200/325/159 
f 208/326/164 209/327/165 202/316/161 201/315/160 
f 209/328/165 210/329/76 204/319/13 202/318/161 
f 204/330/13 211/331/166 212/332/167 205/333/4 
f 207/323/163 213/334/168 208/335/164 201/324/160 
f 210/336/76 214/337/169 211/331/166 204/330/13 
f 215/338/170 216/339/171 217/340/172 218/341/173 
f 219/342/174 220/343/2 221/344/3 222/345/175 
f 223/346/176 224/347/25 220/343/2 219/342/174 
f 225/348/177 226/349/178 227/350/179 228/351/180 
f 229/352/181 230/353/182 226/349/178 225/348/177 
f 231/354/183 232/355/184 233/356/185 234/357/186 
f 231/358/183 235/359/187 236/360/188 232/361/184 
f 237/362/189 238/363/190 236/360/188 235/359/187 
f 239/364/191 240/365/192 241/366/193 242/367/194 
f 243/368/195 244/369/196 241/366/193 240/365/192 
f 243/370/195 245/371/197 246/372/198 244/373/196 
f 237/374/189 247/375/199 248/376/200 238/377/190 
f 249/378/201 250/379/202 239/380/191 242/381/194 
f 251/382/203 231/354/183 234/357/186 252/383/204 
f 251/384/203 237/362/189 235/359/187 231/358/183 
f 253/385/205 243/368/195 240/365/192 239/364/191 
f 253/386/205 254/387/206 245/371/197 243/370/195 
f 251/388/203 252/389/204 247/375/199 237/374/189 
f 253/390/205 239/380/191 250/379/202 254/391/206 
f 255/392/6 256/393/5 257/394/7 258/395/8 
f 259/396/207 260/397/208 261/398/209 262/399/210 
f 263/400/211 261/401/209 264/402/212 265/403/213 
f 263/404/211 265/405/213 266/406/214 267/407/215 
f 268/408/216 269/409/217 267/407/215 266/406/214 
f 267/410/215 269/411/217 259/396/207 262/399/210 
f 263/412/211 267/410/215 262/399/210 261/398/209 
f 261/401/209 260/413/208 270/414/218 264/402/212 
f 270/414/218 271/415/219 265/403/213 264/402/212 
f 265/405/213 271/416/219 268/408/216 266/406/214 
f 272/417/220 273/418/221 274/419/222 275/420/223 
f 276/421/224 274/422/222 277/423/225 278/424/226 
f 276/425/224 278/426/226 279/427/227 280/428/228 
f 281/429/229 282/430/230 280/428/228 279/427/227 
f 280/431/228 282/432/230 272/417/220 275/420/223 
f 276/433/224 280/431/228 275/420/223 274/419/222 
f 274/422/222 273/434/221 283/435/231 277/423/225 
f 283/435/231 284/436/232 278/424/226 277/423/225 
f 278/426/226 284/437/232 281/429/229 279/427/227 
f 257/394/7 256/393/5 285/438/9 286/439/103 
f 285/440/9 256/441/5 287/442/2 288/443/25 
f 287/442/2 256/441/5 255/444/6 289/445/3 
f 290/446/233 291/447/234 292/448/235 293/449/236 
f 294/450/56 295/451/237 290/452/233 293/453/236 
f 296/454/238 297/455/239 291/447/234 290/446/233 
f 295/451/237 298/456/240 296/457/238 290/452/233 
f 299/458/6 300/459/241 301/460/242 302/461/243 
f 303/462/244 304/463/245 300/464/241 299/465/6 
f 305/466/246 306/467/247 301/460/242 300/459/241 
f 307/468/248 304/469/245 303/470/244 308/471/249 
f 300/464/241 304/463/245 309/472/250 305/473/246 
f 307/468/248 310/474/251 309/475/250 304/469/245 
f 311/476/13 312/477/252 313/478/253 314/479/4 
f 311/476/13 315/480/254 316/481/255 312/477/252 
f 317/482/256 318/483/257 319/484/258 320/485/259 
f 319/484/258 318/483/257 321/486/260 322/487/261 
f 321/488/260 323/489/262 324/490/263 322/491/261 
f 324/490/263 323/489/262 325/492/264 326/493/265 
f 325/494/264 327/495/266 328/496/267 326/497/265 
f 328/496/267 327/495/266 317/498/256 320/499/259 
f 318/483/257 317/482/256 329/500/268 321/486/260 
f 330/501/269 331/502/270 332/503/271 333/504/272 
f 332/503/271 331/502/270 334/505/273 335/506/274 
f 329/507/268 325/492/264 323/489/262 321/488/260 
f 334/508/273 336/509/275 337/510/276 335/511/274 
f 337/510/276 336/509/275 338/512/277 339/513/278 
f 338/514/277 340/515/279 341/516/280 339/517/278 
f 341/516/280 340/515/279 330/518/269 333/519/272 
f 327/495/266 325/494/264 329/520/268 317/498/256 
f 342/521/281 334/505/273 331/502/270 330/501/269 
f 342/522/281 338/512/277 336/509/275 334/508/273 
f 340/515/279 338/514/277 342/523/281 330/518/269 
f 343/524/282 344/525/283 345/526/284 346/527/8 
f 347/528/285 348/529/286 349/530/287 350/531/288 
f 351/532/289 352/533/290 353/534/291 349/535/287 
f 354/536/292 355/537/293 353/538/291 352/539/290 
f 356/540/294 357/541/295 355/537/293 354/536/292 
f 355/542/293 357/543/295 347/528/285 350/531/288 
f 350/531/288 349/530/287 353/544/291 355/542/293 
f 349/535/287 348/545/286 358/546/296 351/532/289 
f 358/546/296 359/547/297 352/533/290 351/532/289 
f 352/539/290 359/548/297 356/540/294 354/536/292 
f 360/549/298 361/550/299 362/551/300 363/552/301 
f 364/553/302 365/554/303 366/555/304 362/556/300 
f 367/557/305 368/558/306 366/559/304 365/560/303 
f 369/561/307 370/562/308 368/558/306 367/557/305 
f 368/563/306 370/564/308 360/549/298 363/552/301 
f 363/552/301 362/551/300 366/565/304 368/563/306 
f 362/556/300 361/566/299 371/567/309 364/553/302 
f 371/567/309 372/568/310 365/554/303 364/553/302 
f 365/560/303 372/569/310 369/561/307 367/557/305 
f 345/526/284 344/525/283 373/570/311 374/571/312 
f 373/572/311 344/573/283 375/574/313 376/575/314 
f 375/574/313 344/573/283 343/576/282 377/577/3 
f 378/578/315 379/579/2 380/580/3 381/581/4 
f 379/582/2 382/583/316 383/584/6 380/585/3 
f 383/586/6 382/587/316 384/588/317 385/589/318 
f 386/590/319 384/588/317 382/587/316 387/591/320 
f 386/592/319 387/593/320 388/594/25 389/595/321 
f 387/596/320 382/583/316 379/582/2 388/597/25 
f 388/598/25 379/579/2 378/578/315 389/599/321 
f 378/600/315 384/601/317 386/602/319 389/603/321 
f 381/604/4 385/605/318 384/601/317 378/600/315 
f 380/606/3 383/607/6 385/608/318 381/609/4 
f 390/610/322 391/611/323 392/612/324 393/613/325 
f 393/613/325 394/614/326 395/615/327 390/610/322 
f 396/616/5 397/617/328 391/618/323 390/619/322 
f 391/620/323 397/621/328 398/622/329 392/623/324 
f 399/624/330 400/625/331 395/626/327 394/627/326 
f 395/628/327 400/629/331 396/616/5 390/619/322 
f 396/630/5 401/631/332 398/632/329 397/633/328 
f 396/630/5 400/634/331 399/635/330 401/631/332 
f 22/636/19 17/637/16 15/638/15 21/639/18 24/640/21 
f 33/67/28 36/70/31 26/641/3 25/642/2 402/643/5 34/68/29 
f 40/76/35 403/644/333 27/645/22 26/646/3 36/74/31 38/73/33 
f 43/79/38 46/82/41 30/647/25 29/648/24 404/649/334 44/80/39 
f 48/85/43 50/88/45 402/643/5 25/642/2 30/650/25 46/86/41 
f 40/92/35 52/91/47 34/94/29 402/651/5 405/652/335 403/653/333 
f 44/102/39 404/654/334 405/652/335 402/651/5 50/100/45 55/99/50 
f 403/655/333 404/656/334 29/657/24 28/658/23 27/659/22 
f 78/134/67 87/660/9 88/661/25 89/662/76 81/137/70 79/135/68 
f 64/116/53 63/115/52 73/149/62 60/663/4 59/664/3 62/665/6 
f 106/180/89 105/179/88 95/178/78 406/666/13 92/667/7 121/668/103 
f 121/669/103 120/670/9 123/671/25 104/174/87 103/173/86 106/181/89 
f 118/200/101 108/199/91 406/672/13 122/673/2 124/674/3 119/201/102 
f 406/672/13 95/162/78 94/161/77 104/176/87 123/675/25 122/673/2 
f 116/194/99 119/202/102 124/676/3 90/677/6 93/678/8 117/195/100 
f 117/197/100 93/679/8 92/667/7 406/666/13 108/183/91 107/182/90 
f 195/305/156 168/304/132 194/680/6 170/681/8 173/682/136 196/306/157 
f 190/296/153 177/295/140 198/683/25 199/684/76 175/685/138 191/297/154 
f 193/686/155 187/290/150 186/289/149 191/297/154 175/685/138 174/687/137 
f 155/688/3 158/256/122 157/255/121 196/306/157 173/682/136 156/689/4 
f 271/415/219 270/414/218 260/413/208 407/690/13 257/691/7 286/692/103 
f 288/693/25 269/409/217 268/408/216 271/416/219 286/694/103 285/695/9 
f 283/435/231 273/434/221 407/696/13 287/697/2 289/698/3 284/436/232 
f 407/696/13 260/397/208 259/396/207 269/411/217 288/699/25 287/697/2 
f 281/429/229 284/437/232 289/700/3 255/701/6 258/702/8 282/430/230 
f 282/432/230 258/703/8 257/691/7 407/690/13 273/418/221 272/417/220 
f 408/704/336 409/705/337 410/706/338 294/707/56 293/708/236 292/709/235 
f 411/710/339 412/711/340 413/712/341 297/713/239 296/714/238 298/715/240 
f 320/485/259 319/484/258 322/487/261 314/716/4 313/717/253 414/718/342 
f 322/491/261 324/490/263 326/493/265 415/719/7 311/720/13 314/721/4 
f 326/497/265 328/496/267 320/499/259 414/722/342 416/723/343 415/724/7 
f 415/719/7 333/504/272 332/503/271 335/506/274 315/725/254 311/720/13 
f 335/511/274 337/510/276 339/513/278 417/726/344 316/727/255 315/728/254 
f 339/517/278 341/516/280 333/519/272 415/724/7 416/723/343 417/729/344 
f 416/730/343 414/731/342 313/732/253 316/733/255 417/734/344 
f 359/547/297 348/545/286 418/735/345 345/736/284 374/737/312 
f 376/738/314 357/541/295 356/540/294 359/548/297 374/739/312 373/740/311 
f 371/567/309 361/566/299 418/741/345 375/742/313 377/743/3 372/568/310 
f 418/741/345 348/529/286 347/528/285 357/543/295 376/744/314 375/742/313 
f 369/561/307 372/569/310 377/745/3 343/746/282 346/747/8 370/562/308 
f 370/564/308 346/748/8 345/736/284 418/735/345 361/550/299 360/549/298 
f 401/749/332 399/750/330 394/751/326 392/752/324 398/753/329 
f 64/151/53 62/754/6 61/755/5 419/756/346 86/152/75 
f 69/124/58 420/757/347 421/758/348 72/127/61 70/125/59 
f 421/758/348 420/757/347 75/147/64 85/145/74 84/144/73 
f 419/756/346 420/759/347 69/122/58 68/121/57 86/152/75 
f 75/130/64 420/759/347 419/756/346 83/140/72 76/131/65 
f 61/755/5 87/760/9 78/141/67 83/140/72 419/756/346 
f 84/144/73 81/143/70 89/761/76 57/762/13 421/758/348 
f 60/763/4 73/128/62 72/127/61 421/758/348 57/762/13 
f 145/243/113 144/242/112 140/764/110 133/765/108 136/766/109 
f 151/249/119 152/250/120 127/767/105 132/768/107 
f 154/769/2 422/770/349 197/308/158 158/307/122 155/771/3 
f 189/294/152 187/293/150 193/772/155 192/773/5 423/774/350 
f 423/774/350 424/775/351 184/286/147 183/285/146 189/294/152 
f 194/776/6 168/268/132 167/267/131 423/774/350 192/773/5 
f 162/260/126 424/775/351 423/774/350 167/267/131 169/270/133 
f 422/770/349 424/775/351 162/260/126 161/259/125 197/308/158 
f 184/286/147 424/775/351 422/770/349 176/277/139 179/280/142 
f 176/277/139 422/770/349 154/769/2 198/777/25 177/278/140 
f 216/339/171 213/778/168 207/779/163 206/780/162 217/340/172 
f 211/781/166 214/782/169 215/338/170 218/341/173 212/783/167 
f 425/784/352 233/356/185 232/355/184 221/785/3 220/786/2 
f 244/373/196 246/372/198 425/784/352 220/786/2 224/787/25 
f 248/376/200 426/788/353 226/789/178 230/790/182 238/377/190 
f 426/788/353 249/378/201 242/381/194 227/791/179 226/789/178 
f 427/792/354 428/793/355 223/794/176 219/795/174 222/796/175 
f 225/797/177 228/798/180 428/793/355 427/792/354 229/799/181 
f 252/383/204 234/357/186 233/356/185 425/784/352 429/800/5 
f 254/387/206 429/800/5 425/784/352 246/372/198 245/371/197 
f 248/376/200 247/375/199 252/389/204 429/801/5 426/788/353 
f 254/391/206 250/379/202 249/378/201 426/788/353 429/801/5 
f 430/802/356 431/803/357 295/804/237 294/805/56 410/806/338 
f 431/803/357 432/807/358 411/808/339 298/809/240 295/804/237 
f 413/810/341 408/811/336 292/812/235 297/813/239 
f 433/814/351 434/815/359 435/816/360 410/706/338 409/705/337 
f 435/817/360 436/818/361 430/802/356 410/806/338 
f 437/819/362 438/820/363 439/820/351 412/711/340 411/710/339 
f 432/807/358 440/821/364 437/822/362 411/808/339 
f 441/823/365 308/824/249 303/825/244 299/826/6 302/827/243 
f 305/828/246 309/829/250 310/830/251 442/831/366 306/832/247 
f 301/833/242 306/834/247 442/835/366 441/836/365 302/837/243 
f 310/838/251 308/839/249 441/836/365 442/835/366 
f 145/840/113 136/841/109 135/842/3 138/843/6 129/844/8 128/845/4 127/846/105 152/847/120 150/848/118 148/849/116 146/850/114 
f 142/851/9 141/852/25 140/853/110 144/854/112 143/855/111 147/856/115 149/857/117 131/858/106 139/859/103 
f 217/860/172 206/861/162 200/862/159 203/863/8 205/864/4 212/865/167 218/866/173 
f 215/867/170 214/868/169 210/869/76 209/870/165 208/871/164 213/872/168 216/873/171 
f 230/874/182 229/875/181 427/876/354 222/877/175 221/878/3 232/361/184 236/360/188 238/363/190 
f 227/879/179 242/367/194 241/366/193 244/369/196 224/880/25 223/881/176 428/882/355 228/883/180 
f 437/822/362 440/821/364 443/884/367 
f 435/816/360 434/815/359 444/885/368 
f 437/819/362 443/886/367 438/820/363 
f 435/817/360 444/887/368 436/818/361 
f 430/888/356 432/889/358 431/890/357 
f 445/891/369 446/892/370 447/893/371 448/894/372 
f 449/895/373 450/896/374 451/897/375 452/898/376 
f 448/899/372 447/900/371 449/901/373 452/902/376 
f 446/903/370 450/904/374 449/905/373 447/906/371 
f 445/907/369 451/908/375 450/909/374 446/910/370 
f 448/911/372 452/912/376 451/913/375 445/914/369 
f 453/915/377 454/916/378 455/917/379 456/918/380 
f 457/919/381 458/920/382 459/921/383 460/922/384 
f 455/923/379 458/924/382 457/925/381 456/926/380 
f 455/927/379 454/928/378 459/929/383 458/930/382 
f 453/931/377 460/932/384 459/933/383 454/934/378 
f 453/935/377 456/936/380 457/937/381 460/938/384 
f 461/939/385 462/940/386 463/941/387 464/942/388 
f 465/943/389 466/944/390 467/945/391 468/946/392 
f 463/947/387 465/948/389 468/949/392 464/950/388 
f 462/951/386 466/952/390 465/953/389 463/954/387 
f 462/955/386 461/956/385 467/957/391 466/958/390 
f 461/959/385 464/960/388 468/961/392 467/962/391 
f 469/963/393 470/964/394 471/965/395 472/966/396 
f 473/967/397 474/968/398 475/969/399 476/970/400 
f 469/971/393 472/972/396 473/973/397 476/974/400 
f 471/975/395 474/976/398 473/977/397 472/978/396 
f 470/979/394 475/980/399 474/981/398 471/982/395 
f 469/983/393 476/984/400 475/985/399 470/986/394 
f 477/987/401 478/988/402 479/989/403 480/990/404 
f 481/991/405 482/992/406 483/993/407 484/994/408 
f 479/995/403 481/996/405 484/997/408 480/998/404 
f 479/999/403 478/1000/402 482/1001/406 481/1002/405 
f 478/1003/402 477/1004/401 483/1005/407 482/1006/406 
f 480/1007/404 484/1008/408 483/1009/407 477/1010/401 
f 485/1011/409 486/1012/410 487/1013/411 488/1014/412 
f 489/1015/413 490/1016/414 491/1017/415 492/1018/416 
f 487/1019/411 489/1020/413 492/1021/416 488/1022/412 
f 486/1023/410 490/1024/414 489/1025/413 487/1026/411 
f 485/1027/409 491/1028/415 490/1029/414 486/1030/410 
f 485/1031/409 488/1032/412 492/1033/416 491/1034/415 
f 493/1035/417 494/1036/418 495/1037/419 496/1038/420 
f 497/1039/421 498/1040/422 499/1041/423 500/1042/424 
f 496/1043/420 495/1044/419 497/1045/421 500/1046/424 
f 494/1047/418 498/1048/422 497/1049/421 495/1050/419 
f 493/1051/417 499/1052/423 498/1053/422 494/1054/418 
f 496/1055/420 500/1056/424 499/1057/423 493/1058/417 
f 501/1059/425 502/1060/426 503/1061/427 504/1062/428 
f 505/1063/429 506/1064/430 507/1065/431 508/1066/432 
f 503/1067/427 505/1068/429 508/1069/432 504/1070/428 
f 503/1071/427 502/1072/426 506/1073/430 505/1074/429 
f 502/1075/426 501/1076/425 507/1077/431 506/1078/430 
f 501/1079/425 504/1080/428 508/1081/432 507/1082/431 
f 509/1083/433 510/1084/434 511/1085/435 512/1086/436 
f 513/1087/437 514/1088/438 515/1089/439 516/1090/440 
f 511/1091/435 513/1092/437 516/1093/440 512/1094/436 
f 511/1095/435 510/1096/434 514/1097/438 513/1098/437 
f 509/1099/433 515/1100/439 514/1101/438 510/1102/434 
f 512/1103/436 516/1104/440 515/1105/439 509/1106/433 
f 517/1107/441 518/1108/442 519/1109/443 520/1110/444 
f 521/1111/445 522/1112/446 523/1113/447 524/1114/448 
f 519/1115/443 521/1116/445 524/1117/448 520/1118/444 
f 519/1119/443 518/1120/442 522/1121/446 521/1122/445 
f 517/1123/441 523/1124/447 522/1125/446 518/1126/442 
f 520/1127/444 524/1128/448 523/1129/447 517/1130/441 
f 525/1131/449 526/1132/450 527/1133/451 528/1134/452 
f 529/1135/453 530/1136/454 531/1137/455 532/1138/456 
f 527/1139/451 530/1140/454 529/1141/453 528/1142/452 
f 526/1143/450 531/1144/455 530/1145/454 527/1146/451 
f 526/1147/450 525/1148/449 532/1149/456 531/1150/455 
f 525/1151/449 528/1152/452 529/1153/453 532/1154/456 
f 533/1155/457 534/1156/458 535/1157/459 536/1158/460 
f 537/1159/461 538/1160/462 539/1161/463 540/1162/464 
f 533/1163/457 536/1164/460 537/1165/461 540/1166/464 
f 535/1167/459 538/1168/462 537/1169/461 536/1170/460 
f 534/1171/458 539/1172/463 538/1173/462 535/1174/459 
f 533/1175/457 540/1176/464 539/1177/463 534/1178/458 
f 541/1179/465 542/1180/466 543/1181/467 544/1182/468 
f 545/1183/469 546/1184/470 547/1185/471 548/1186/472 
f 544/1187/468 543/1188/467 545/1189/469 548/1190/472 
f 542/1191/466 546/1192/470 545/1193/469 543/1194/467 
f 541/1195/465 547/1196/471 546/1197/470 542/1198/466 
f 541/1199/465 544/1200/468 548/1201/472 547/1202/471 
f 549/1203/473 550/1204/474 551/1205/475 552/1206/476 
f 553/1207/477 554/1208/478 555/1209/479 556/1210/480 
f 551/1211/475 553/1212/477 556/1213/480 552/1214/476 
f 551/1215/475 550/1216/474 554/1217/478 553/1218/477 
f 550/1219/474 549/1220/473 555/1221/479 554/1222/478 
f 552/1223/476 556/1224/480 555/1225/479 549/1226/473 
f 557/1227/481 558/1228/482 559/1229/483 560/1230/484 
f 561/1231/485 562/1232/486 563/1233/487 564/1234/488 
f 560/1235/484 562/1236/486 561/1237/485 557/1238/481 
f 559/1239/483 563/1240/487 562/1241/486 560/1242/484 
f 558/1243/482 564/1244/488 563/1245/487 559/1246/483 
f 558/1247/482 557/1248/481 561/1249/485 564/1250/488 
f 15/638/15 14/1251/14 21/639/18 
f 403/655/333 405/1252/335 404/656/334 
f 313/732/253 312/1253/252 316/733/255 
f 359/547/297 358/546/296 348/545/286 
f 394/751/326 393/1254/325 392/752/324 
f 127/767/105 126/1255/104 132/768/107 
f 292/812/235 291/1256/234 297/813/239 
f 310/838/251 307/1257/248 308/839/249 
f 151/1258/119 132/1259/107 131/858/106 
f 149/857/117 151/1258/119 131/858/106 
f 430/888/356 436/1260/361 444/1261/368 434/1262/359 433/1262/351 409/1263/337 408/811/336 413/810/341 412/1264/340 439/1265/351 438/1265/363 443/1266/367 440/1267/364 432/889/358 
# 419 polygons - 15 triangles

