#File written by RizomUV 2025.0.101.g577a16f3. Compilation :Sep 18 2025,15:37:21
#begin vertices
v -1.1559 -29.2195 1.9222
v -1.3269 -29.1854 -1.9222
v 8.1681 -29.1854 -1.9222
v 8.1681 -29.1854 1.9222
v 24.9858 -29.1854 -1.9222
v 25.1542 -29.2191 1.9222
v 41.5679 -29.1854 -1.9222
v 41.7355 -29.2188 1.9222
v 51.9403 -29.1854 -1.9222
v 52.1098 -29.2142 1.9222
v -1.1592 20.0243 1.9222
v 8.2217 37.4478 1.9222
v 8.0548 37.4804 -1.9222
v -1.3269 20.0581 -1.9222
v 25.477 44.5142 1.9222
v 25.3066 44.5465 -1.9222
v 42.727 37.4682 1.9222
v 42.5586 37.5018 -1.9222
v 52.1085 20.0232 1.9222
v 51.9403 20.0581 -1.9222
v 0.8125 -27.2438 1.9222
v 8.1665 -27.2169 1.9222
v 9.6205 35.8935 1.9222
v 0.8094 19.5281 1.9222
v 25.1561 -27.2506 1.9222
v 25.478 42.3874 1.9222
v 41.735 -27.2503 1.9222
v 41.3281 35.9132 1.9222
v 50.1412 -27.2465 1.9222
v 50.14 19.5274 1.9222
v 49.9718 -27.2169 -1.9222
v 41.5679 -27.2169 -1.9222
v 41.1598 35.9467 -1.9222
v 49.9718 19.5623 -1.9222
v 24.9858 -27.2169 -1.9222
v 25.3078 42.4197 -1.9222
v 8.1681 -27.2169 -1.9222
v 9.4536 35.9261 -1.9222
v 0.6416 -27.2169 -1.9222
v 0.6416 19.5618 -1.9222
v -1.1559 -29.2195 3.8907
v 8.1681 -29.1854 3.8907
v 8.1665 -27.2169 3.8907
v 0.8125 -27.2438 3.8907
v 25.1542 -29.2191 3.8907
v 25.1561 -27.2506 3.8907
v 41.7355 -29.2188 3.8907
v 41.735 -27.2503 3.8907
v 52.1098 -29.2142 3.8907
v 50.1412 -27.2465 3.8907
v 52.1085 20.0232 3.8907
v 50.14 19.5274 3.8907
v 42.727 37.4682 3.8907
v 41.3281 35.9132 3.8907
v 25.477 44.5142 3.8907
v 25.478 42.3874 3.8907
v 8.2217 37.4478 3.8907
v 9.6205 35.8935 3.8907
v -1.1592 20.0243 3.8907
v 0.8094 19.5281 3.8907
v 8.1681 -29.1854 -3.8907
v -1.3269 -29.1854 -3.8907
v 0.6416 -27.2169 -3.8907
v 8.1681 -27.2169 -3.8907
v -1.3269 20.0581 -3.8907
v 0.6416 19.5618 -3.8907
v 8.0548 37.4804 -3.8907
v 9.4536 35.9261 -3.8907
v 25.3066 44.5465 -3.8907
v 25.3078 42.4197 -3.8907
v 42.5586 37.5018 -3.8907
v 41.1598 35.9467 -3.8907
v 51.9403 20.0581 -3.8907
v 49.9718 19.5623 -3.8907
v 51.9403 -29.1854 -3.8907
v 49.9718 -27.2169 -3.8907
v 41.5679 -29.1854 -3.8907
v 41.5679 -27.2169 -3.8907
v 24.9858 -29.1854 -3.8907
v 24.9858 -27.2169 -3.8907
v -0.3381 -13.5686 3.724
v -0.3381 -13.5686 -3.7563
v 12.4572 -13.5686 -3.7563
v 12.4572 -13.5686 3.724
v 25.2525 -13.5686 -3.7563
v 25.2525 -13.5686 3.724
v 38.0478 -13.5686 -3.7563
v 38.0478 -13.5686 3.724
v 50.843 -13.5686 -3.7563
v 50.843 -13.5686 3.724
v -0.3381 -9.6316 3.724
v 12.4572 -9.6316 3.724
v 12.4572 -9.6316 -3.7563
v -0.3381 -9.6316 -3.7563
v 25.2525 -9.6316 3.724
v 25.2525 -9.6316 -3.7563
v 38.0478 -9.6316 3.724
v 38.0478 -9.6316 -3.7563
v 50.843 -9.6316 3.724
v 50.843 -9.6316 -3.7563
v 40.6532 -0.4409 3.5827
v 40.6532 -0.4409 -2.7638
v 42.3729 -0.4409 -3.1522
v 42.3729 -0.4409 4.0059
v 44.0926 -0.4409 -3.1522
v 44.0926 -0.4409 4.0241
v 45.8122 -0.4409 -3.1522
v 45.8122 -0.4409 4.0059
v 47.5319 -0.4409 -2.7638
v 47.5319 -0.4409 3.5827
v 40.6532 1.0945 3.5827
v 42.3729 1.0945 4.0059
v 42.3729 1.0945 -3.1522
v 40.6532 1.0945 -2.7638
v 44.0926 1.0945 4.0241
v 44.0926 1.0945 -3.1522
v 45.8122 1.0945 4.0059
v 45.8122 1.0945 -3.1522
v 47.5319 1.0945 3.5827
v 47.5319 1.0945 -2.7638
v -0.3381 15.4085 3.724
v -0.3381 15.4085 -3.7563
v 12.4572 15.4085 -3.7563
v 12.4572 15.4085 3.724
v 25.2525 15.4085 -3.7563
v 25.2525 15.4085 3.724
v 38.0478 15.4085 -3.7563
v 38.0478 15.4085 3.724
v 50.843 15.4085 -3.7563
v 50.843 15.4085 3.724
v -0.3381 19.3455 3.724
v 12.4572 19.3455 3.724
v 12.4572 19.3455 -3.7563
v -0.3381 19.3455 -3.7563
v 25.2525 19.3455 3.724
v 25.2525 19.3455 -3.7563
v 38.0478 19.3455 3.724
v 38.0478 19.3455 -3.7563
v 50.843 19.3455 3.724
v 50.843 19.3455 -3.7563
v 1.0787 -28.9627 2.7801
v 1.0787 -28.9672 -2.9238
v 6.1395 -28.9731 -2.9249
v 6.1395 -28.968 2.7789
v 1.0787 23.7797 3.183
v 6.1395 32.8111 3.3266
v 6.1395 32.806 -2.3773
v 1.0787 23.7753 -2.5209
v 6.8618 -28.9686 2.7793
v 6.669 -28.9737 -2.9246
v 11.7298 -28.9797 -2.917
v 11.7298 -28.9741 2.7869
v 6.8618 34.3365 3.3432
v 11.7298 37.2739 3.4292
v 11.7298 36.4321 -2.278
v 6.669 34.3314 -2.3607
v 45.6463 -29.0038 2.9973
v 45.3747 -29.0076 -2.7065
v 50.4355 -29.0088 -2.6645
v 50.4355 -29.0059 3.0394
v 45.6463 31.8109 3.5545
v 50.4355 22.486 3.5662
v 50.4355 22.483 -2.1377
v 45.3747 31.8071 -2.1494
v 12.2324 -28.9747 2.7881
v 12.2324 -28.9803 -2.9158
v 17.2932 -28.9861 -2.8997
v 17.0854 -28.9802 2.8042
v 12.2324 38.1701 3.4389
v 17.0854 39.7626 3.4997
v 17.2932 39.7567 -2.2041
v 12.2324 38.1645 -2.265
v 17.7603 -28.9807 2.8061
v 17.7603 -28.9866 -2.8978
v 22.8211 -28.992 -2.8738
v 22.8211 -28.9861 2.8301
v 17.7603 41.1572 3.5063
v 22.8211 42.4871 3.543
v 22.8211 42.4811 -2.1608
v 17.7603 41.1513 -2.1976
v 23.195 -28.9864 2.8321
v 23.195 -28.9924 -2.8718
v 28.2558 -28.9971 -2.8409
v 28.2558 -28.9914 2.863
v 23.195 43.2351 3.5444
v 28.2558 43.2301 3.5597
v 28.2558 43.2244 -2.1442
v 23.195 43.2292 -2.1595
v 28.7852 -28.9919 2.8665
v 28.7852 -28.9976 -2.8374
v 33.8461 -29.0016 -2.8009
v 33.8461 -28.9963 2.903
v 28.7852 42.4206 3.5621
v 33.8461 40.6467 3.5645
v 33.8461 40.6414 -2.1394
v 28.7852 42.4149 -2.1418
v 34.3487 -28.9967 2.9069
v 34.3487 -29.0019 -2.797
v 39.4095 -29.0051 -2.7565
v 39.4095 -29.0004 2.9474
v 34.3487 40.7501 3.5631
v 39.4095 38.659 3.5534
v 39.4095 38.6543 -2.1505
v 34.3487 40.1184 -2.1387
v 40.2735 -29.0007 2.9512
v 39.6612 -29.0053 -2.7527
v 44.9374 -29.0075 -2.7102
v 44.9374 -29.0036 2.9937
v 40.2735 37.174 3.5578
v 44.9374 32.3812 3.5542
v 44.9374 32.3773 -2.1497
v 39.6612 37.1694 -2.1461
#end vertices

#begin 468 textures vertices 
vt 0.5424005 0.2055768 0
vt 0.5431926 0.2233929 0
vt 0.4991917 0.2233926 0
vt 0.4991918 0.2055772 0
vt 0.4212565 0.2233927 0
vt 0.4204761 0.2055766 0
vt 0.3444132 0.2233928 0
vt 0.3436365 0.2055767 0
vt 0.2963463 0.2233929 0
vt 0.2955608 0.205577 0
vt 0.2960929 0.004100433 0
vt 0.3877813 0.005651574 0
vt 0.3872461 0.02347635 0
vt 0.2955608 0.02192551 0
vt 0.4741877 0.005053952 0
vt 0.4736369 0.02287895 0
vt 0.56053 0.003906267 0
vt 0.5599855 0.02173111 0
vt 0.6523204 0.004100433 0
vt 0.6517711 0.02192514 0
vt 0.0336528 0.03351092 0
vt 0.06632322 0.03271862 0
vt 0.07170388 0.3258873 0
vt 0.03120111 0.2504147 0
vt 0.1456046 0.03181494 0
vt 0.1446166 0.3559873 0
vt 0.2228526 0.03349985 0
vt 0.218057 0.3272124 0
vt 0.2605963 0.03553488 0
vt 0.2594403 0.2522335 0
vt 0.3061942 0.3057971 0
vt 0.3436861 0.3045559 0
vt 0.3443438 0.5980698 0
vt 0.3038043 0.5225276 0
vt 0.4210934 0.3038827 0
vt 0.4172454 0.6280437 0
vt 0.4994254 0.3056469 0
vt 0.4907051 0.599152 0
vt 0.5331327 0.3073399 0
vt 0.5320487 0.5242099 0
vt 0.01628936 0.02310097 0
vt 0.06286936 0.01448437 0
vt 0.06449735 0.02348056 0
vt 0.02531512 0.03194477 0
vt 0.1457025 0.01314087 0
vt 0.1456575 0.02244127 0
vt 0.2263416 0.01520658 0
vt 0.2248853 0.02451271 0
vt 0.278114 0.02515561 0
vt 0.2688626 0.03361761 0
vt 0.2775935 0.2561186 0
vt 0.2684179 0.2536942 0
vt 0.2304216 0.3412045 0
vt 0.2240323 0.3338503 0
vt 0.1445249 0.3746984 0
vt 0.1446183 0.3648389 0
vt 0.05919708 0.3397674 0
vt 0.06569586 0.332523 0
vt 0.01296778 0.2540775 0
vt 0.02217875 0.2517756 0
vt 0.5031305 0.2874393 0
vt 0.5506624 0.2970692 0
vt 0.5414288 0.3055462 0
vt 0.5016085 0.2967281 0
vt 0.5501979 0.5280944 0
vt 0.5410231 0.5256694 0
vt 0.5030786 0.6131342 0
vt 0.496685 0.6057867 0
vt 0.4171789 0.6467556 0
vt 0.4172596 0.6368956 0
vt 0.3318442 0.6119587 0
vt 0.3383397 0.6047078 0
vt 0.285567 0.5261902 0
vt 0.2947802 0.5238889 0
vt 0.2888386 0.2952998 0
vt 0.2978898 0.3040749 0
vt 0.3404824 0.2861982 0
vt 0.342019 0.2952483 0
vt 0.4212616 0.2852109 0
vt 0.4211815 0.2945108 0
vt 0.5327398 0.1621725 0
vt 0.5327398 0.196837 0
vt 0.4734449 0.196837 0
vt 0.4734449 0.1621725 0
vt 0.4141501 0.196837 0
vt 0.4141501 0.1621725 0
vt 0.3548552 0.196837 0
vt 0.3548552 0.1621725 0
vt 0.2955608 0.196837 0
vt 0.2955608 0.1621725 0
vt 0.2955608 0.03196012 0
vt 0.3548556 0.03196012 0
vt 0.3548556 0.06662468 0
vt 0.2955608 0.06662468 0
vt 0.4141505 0.03196012 0
vt 0.4141505 0.06662468 0
vt 0.4734454 0.03196012 0
vt 0.4734454 0.06662468 0
vt 0.5327398 0.03196012 0
vt 0.5327398 0.06662468 0
vt 0.7301314 0.1468027 0
vt 0.7301314 0.1173923 0
vt 0.7381006 0.1155924 0
vt 0.7381006 0.1487639 0
vt 0.7460699 0.1155924 0
vt 0.7460699 0.1488482 0
vt 0.7540387 0.1155924 0
vt 0.7540387 0.1487639 0
vt 0.762008 0.1173923 0
vt 0.762008 0.1468027 0
vt 0.762008 0.1049866 0
vt 0.7540387 0.1069477 0
vt 0.7540387 0.07377628 0
vt 0.762008 0.07557617 0
vt 0.7460694 0.1070321 0
vt 0.7460694 0.07377628 0
vt 0.7381006 0.1069477 0
vt 0.7381006 0.07377628 0
vt 0.7301313 0.1049866 0
vt 0.7301313 0.07557617 0
vt 0.5327398 0.1187684 0
vt 0.5327398 0.1534329 0
vt 0.4734449 0.1534329 0
vt 0.4734449 0.1187684 0
vt 0.4141501 0.1534329 0
vt 0.4141501 0.1187684 0
vt 0.3548552 0.1534329 0
vt 0.3548552 0.1187684 0
vt 0.2955608 0.1534329 0
vt 0.2955608 0.1187684 0
vt 0.2955608 0.07536424 0
vt 0.3548556 0.07536424 0
vt 0.3548556 0.1100288 0
vt 0.2955608 0.1100288 0
vt 0.4141505 0.07536424 0
vt 0.4141505 0.1100288 0
vt 0.4734454 0.07536424 0
vt 0.4734454 0.1100288 0
vt 0.5327398 0.07536424 0
vt 0.5327398 0.1100288 0
vt 0.7708887 0.1002139 0
vt 0.7708887 0.0737814 0
vt 0.7943411 0.07377628 0
vt 0.7943411 0.1002084 0
vt 0.7305157 0.03884127 0
vt 0.7784958 0.03884127 0
vt 0.7781086 0.06527097 0
vt 0.7301313 0.06527101 0
vt 0.7810936 0.6113025 0
vt 0.7810936 0.6377502 0
vt 0.7576559 0.6369227 0
vt 0.7585488 0.6105053 0
vt 0.1804993 0.7549744 0
vt 0.1542327 0.7570769 0
vt 0.1542327 0.7303429 0
vt 0.1795643 0.7285433 0
vt 0.7763086 0.5080093 0
vt 0.7763086 0.5344713 0
vt 0.752892 0.5331614 0
vt 0.7541493 0.5067588 0
vt 0.7307327 0.003906254 0
vt 0.7793115 0.003929375 0
vt 0.7792946 0.0303619 0
vt 0.7301313 0.0303619 0
vt 0.7586182 0.6736932 0
vt 0.7576558 0.6472782 0
vt 0.7810954 0.6464989 0
vt 0.7810954 0.672949 0
vt 0.7538078 0.4363595 0
vt 0.7774727 0.4368907 0
vt 0.7774727 0.4633403 0
vt 0.752892 0.4627761 0
vt 0.7864014 0.1924548 0
vt 0.7864014 0.2188874 0
vt 0.762949 0.2187762 0
vt 0.762949 0.1923436 0
vt 0.7771405 0.5697143 0
vt 0.752892 0.5698908 0
vt 0.7528921 0.5434587 0
vt 0.7771405 0.5432818 0
vt 0.7811082 0.7535644 0
vt 0.7811082 0.779997 0
vt 0.7576558 0.7798538 0
vt 0.7576558 0.7534213 0
vt 0.1533364 0.7920281 0
vt 0.1298841 0.792099 0
vt 0.1298841 0.7656665 0
vt 0.1533364 0.7655956 0
vt 0.7811087 0.7181261 0
vt 0.7811087 0.7445586 0
vt 0.7576559 0.7443895 0
vt 0.7576559 0.7179569 0
vt 0.7777436 0.4982563 0
vt 0.7528919 0.4982592 0
vt 0.7528925 0.4718267 0
vt 0.7777436 0.4718238 0
vt 0.7811082 0.6826803 0
vt 0.7811082 0.7091128 0
vt 0.7576558 0.7089251 0
vt 0.7576558 0.6824926 0
vt 0.7528919 0.4003658 0
vt 0.7782431 0.4014776 0
vt 0.7772878 0.4278928 0
vt 0.7528919 0.4269503 0
vt 0.7544211 0.1948463 0
vt 0.7544211 0.2214307 0
vt 0.7301313 0.2186252 0
vt 0.7329525 0.1923436 0
vt 0.7321451 0.1574086 0
vt 0.7631358 0.1574841 0
vt 0.7631613 0.1839166 0
vt 0.7301312 0.1839166 0
vt 0.06161596 0.005162576 0
vt 0.007736681 0.02125885 0
vt 0.1034181 0.9521375 0
vt 0.1212511 0.9519794 0
vt 0.5592128 0.2950627 0
vt 0.5045954 0.2784342 0
vt 0.1457483 0.003906256 0
vt 0.4213406 0.275976 0
vt 0.2277592 0.006182131 0
vt 0.339286 0.2768625 0
vt 0.726426 0.3463753 0
vt 0.2866099 0.02300811 0
vt 0.280343 0.2932888 0
vt 0.7442587 0.3465088 0
vt 0.5592128 0.529485 0
vt 0.1212505 0.7237794 0
vt 0.1034181 0.7239361 0
vt 0.003906295 0.2553667 0
vt 0.05315104 0.3464678 0
vt 0.5091055 0.6198376 0
vt 0.1445172 0.3836671 0
vt 0.4171841 0.6557246 0
vt 0.7100172 0.2923848 0
vt 0.7875566 0.3733706 0
vt 0.2364443 0.3479104 0
vt 0.5327398 0.2320425 0
vt 0.752892 0.3733706 0
vt 0.3258016 0.6186617 0
vt 0.473445 0.2320425 0
vt 0.2866099 0.2575112 0
vt 0.7264263 0.5745471 0
vt 0.7693121 0.2923848 0
vt 0.7442587 0.5747088 0
vt 0.2765053 0.5274799 0
vt 0.828607 0.2923848 0
vt 0.4141501 0.2320425 0
vt 0.8879019 0.2923848 0
vt 0.3548552 0.2320425 0
vt 0.9471963 0.2923848 0
vt 0.752892 0.3463753 0
vt 0.7875566 0.3463753 0
vt 0.2955608 0.2320425 0
vt 0.5327398 0.250287 0
vt 0.752892 0.3916151 0
vt 0.7100172 0.3106293 0
vt 0.7875566 0.3916151 0
vt 0.7693121 0.3106293 0
vt 0.473445 0.250287 0
vt 0.828607 0.3106293 0
vt 0.4141501 0.250287 0
vt 0.8879019 0.3106293 0
vt 0.3548552 0.250287 0
vt 0.9471963 0.3106293 0
vt 0.752892 0.3646198 0
vt 0.7875566 0.3646198 0
vt 0.2955608 0.250287 0
vt 0.3037678 0.2590378 0
vt 0.2955608 0.2590378 0
vt 0.4451265 0.2590378 0
vt 0.3691257 0.2590378 0
vt 0.4157161 0.2590378 0
vt 0.3609557 0.2590378 0
vt 0.3117375 0.2590378 0
vt 0.3529864 0.2590378 0
vt 0.3197068 0.2590378 0
vt 0.3450176 0.2590378 0
vt 0.3279139 0.2590378 0
vt 0.3776051 0.2590378 0
vt 0.4070155 0.2590378 0
vt 0.3368476 0.2590378 0
vt 0.3691257 0.266153 0
vt 0.4157161 0.266153 0
vt 0.2955608 0.266153 0
vt 0.4451265 0.266153 0
vt 0.3037678 0.266153 0
vt 0.3609557 0.266153 0
vt 0.3117375 0.266153 0
vt 0.3529864 0.266153 0
vt 0.3197068 0.266153 0
vt 0.3450176 0.266153 0
vt 0.3279139 0.266153 0
vt 0.3776051 0.266153 0
vt 0.4070155 0.266153 0
vt 0.3368476 0.266153 0
vt 0.785721 0.3193801 0
vt 0.7264261 0.3193801 0
vt 0.7647959 0.2299252 0
vt 0.9625465 0.2648603 0
vt 0.7301313 0.2299252 0
vt 0.9032516 0.2648603 0
vt 0.8450158 0.3193801 0
vt 0.8439567 0.2648603 0
vt 0.9043107 0.3193801 0
vt 0.7846618 0.2648603 0
vt 0.9636051 0.3193801 0
vt 0.7264261 0.58351 0
vt 0.7610907 0.58351 0
vt 0.7253674 0.2648603 0
vt 0.9625465 0.2831048 0
vt 0.7301313 0.2481698 0
vt 0.7264261 0.3376246 0
vt 0.7647959 0.2481698 0
vt 0.785721 0.3376246 0
vt 0.9032516 0.2831048 0
vt 0.8450158 0.3376246 0
vt 0.8439567 0.2831048 0
vt 0.9043107 0.3376246 0
vt 0.7846618 0.2831048 0
vt 0.9636051 0.3376246 0
vt 0.7264261 0.6017545 0
vt 0.7610907 0.6017545 0
vt 0.7253674 0.2831048 0
vt 0.2405116 0.9878507 0
vt 0.6480522 0.9756764 0
vt 0.263964 0.9878263 0
vt 0.09491471 0.717121 0
vt 0.7212952 0.003933635 0
vt 0.06848312 0.7168983 0
vt 0.6216214 0.9759343 0
vt 0.6978429 0.00390625 0
vt 0.7212974 0.2483555 0
vt 0.06848312 0.9613202 0
vt 0.2639658 0.7434048 0
vt 0.09491471 0.9615425 0
vt 0.2405116 0.701548 0
vt 0.6480522 0.6893737 0
vt 0.6216209 0.6896317 0
vt 0.6978429 0.2902089 0
vt 0.656556 0.9730989 0
vt 0.682987 0.6570958 0
vt 0.6791149 0.9730739 0
vt 0.7142321 0.6658135 0
vt 0.02735863 0.6719337 0
vt 0.6877858 0.6655544 0
vt 0.6565559 0.657378 0
vt 0.003906278 0.6719062 0
vt 0.02736042 0.9653084 0
vt 0.6877858 0.9589291 0
vt 0.6791165 0.6796992 0
vt 0.7142321 0.9591882 0
vt 0.656556 0.6660837 0
vt 0.682987 0.3500806 0
vt 0.6565782 0.3542378 0
vt 0.003906278 0.9750464 0
vt 0.1907597 0.9960938 0
vt 0.7491518 0.8512544 0
vt 0.2129543 0.9960858 0
vt 0.6131472 0.7044544 0
vt 0.05965136 0.7057865 0
vt 0.5866865 0.7041946 0
vt 0.7227208 0.8515382 0
vt 0.03619823 0.7057826 0
vt 0.05965136 0.9876206 0
vt 0.586686 0.9860287 0
vt 0.2129543 0.7142517 0
vt 0.6131472 0.9862885 0
vt 0.1907557 0.7574619 0
vt 0.7491518 0.6126225 0
vt 0.7227208 0.6129068 0
vt 0.03619472 0.944414 0
vt 0.4898207 0.9576667 0
vt 0.6480693 0.6803039 0
vt 0.5123102 0.957642 0
vt 0.4813167 0.6531329 0
vt 0.6588357 0.03039829 0
vt 0.4548857 0.6528507 0
vt 0.6216209 0.6805987 0
vt 0.6353833 0.03037217 0
vt 0.6588365 0.3415696 0
vt 0.4548857 0.964022 0
vt 0.512311 0.6464708 0
vt 0.4813167 0.9643042 0
vt 0.4898207 0.6390885 0
vt 0.6480689 0.3617256 0
vt 0.6216209 0.3620204 0
vt 0.6353833 0.3489505 0
vt 0.1060647 0.7151884 0
vt 0.09756065 0.7077779 0
vt 0.1295173 0.7151645 0
vt 0.6131168 0.3704859 0
vt 0.1618058 0.39245 0
vt 0.5866859 0.3701947 0
vt 0.07112972 0.7080689 0
vt 0.1383532 0.392426 0
vt 0.1618058 0.7174932 0
vt 0.5866859 0.6952379 0
vt 0.1295173 0.3901212 0
vt 0.6131168 0.6955291 0
vt 0.1060647 0.3839569 0
vt 0.09756065 0.3765465 0
vt 0.07113018 0.3768379 0
vt 0.1383532 0.723657 0
vt 0.03884131 0.6969756 0
vt 0.2669427 0.6927186 0
vt 0.06229407 0.6969539 0
vt 0.03033721 0.328667 0
vt 0.231676 0.3707443 0
vt 0.00390625 0.3283785 0
vt 0.2405117 0.693 0
vt 0.2082232 0.370724 0
vt 0.231676 0.7054438 0
vt 0.00390625 0.6630779 0
vt 0.06229407 0.3622549 0
vt 0.03033722 0.6633659 0
vt 0.03884164 0.3622774 0
vt 0.2669427 0.3580203 0
vt 0.2405117 0.3583017 0
vt 0.2082235 0.7054222 0
vt 0.5543975 0.8848363 0
vt 0.6268793 0.3531203 0
vt 0.5778509 0.8848175 0
vt 0.1991899 0.3847701 0
vt 0.5916133 0.03038908 0
vt 0.1727589 0.3844863 0
vt 0.6004482 0.353396 0
vt 0.5681599 0.03037218 0
vt 0.5916133 0.3613385 0
vt 0.1727589 0.7154357 0
vt 0.5778509 0.5538682 0
vt 0.1991899 0.7157195 0
vt 0.5543979 0.5620881 0
vt 0.6268793 0.03037217 0
vt 0.6004482 0.03064779 0
vt 0.5681603 0.3531204 0
vt 0.5221091 0.9337496 0
vt 0.3691014 0.9616408 0
vt 0.5455622 0.9337342 0
vt 0.3018778 0.599133 0
vt 0.3338348 0.6343377 0
vt 0.2754467 0.5988603 0
vt 0.3426701 0.9618993 0
vt 0.3103817 0.6343246 0
vt 0.3338348 0.9546636 0
vt 0.2754837 0.9191862 0
vt 0.5455622 0.6105053 0
vt 0.3018778 0.922362 0
vt 0.5221098 0.6201956 0
vt 0.3691014 0.6480869 0
vt 0.3426701 0.6483454 0
vt 0.3103824 0.9478785 0
vt 0.6676717 0.3105919 0
vt 0.7179223 0.6038561 0
vt 0.6892857 0.3105803 0
vt 0.4041883 0.6631714 0
vt 0.4375208 0.6645041 0
vt 0.3776052 0.6629078 0
vt 0.691491 0.6041155 0
vt 0.4130695 0.6644957 0
vt 0.4375208 0.9711781 0
vt 0.3776052 0.9695818 0
vt 0.6892857 0.003906264 0
vt 0.4041883 0.9698454 0
vt 0.6676718 0.02611587 0
vt 0.7179223 0.3193801 0
vt 0.691491 0.3196395 0
vt 0.4130695 0.9489718 0
#end 468 textures vertices 

#begin 170 normals 
vn -0.6996 -0.7144 0.0123
vn -0.7129 -0.7012 0.0128
vn -0 -1 -0
vn 0.0008 -1 -0
vn 0 -1 -0.0044
vn -0.001 -1 -0.0044
vn 0 -1 -0.0043
vn 0.0002 -1 -0.0043
vn 0.7027 -0.7112 -0.0182
vn 0.7112 -0.7028 -0.0182
vn -0.9694 0.2445 0.0223
vn -0.6667 0.7451 0.0176
vn -0.6709 0.7413 0.0177
vn -0.9695 0.2443 0.0221
vn 0.0049 1 0.004
vn -0.0058 1 0.0044
vn 0.6718 0.7407 -0.0115
vn 0.6656 0.7462 -0.0113
vn 0.9699 0.2427 -0.0201
vn 0.9691 0.2457 -0.0201
vn 0.5764 0.5784 0.5772
vn -0.0006 0.7064 0.7078
vn 0.5149 -0.5721 0.6385
vn 0.7319 -0.1845 0.656
vn 0.0007 0.7073 0.7069
vn 0.0004 -0.7757 0.631
vn -0.0002 0.7071 0.7071
vn -0.5148 -0.5722 0.6384
vn -0.5775 0.5771 0.5774
vn -0.7318 -0.1843 0.6561
vn -0.5774 0.5774 -0.5774
vn -0 0.7071 -0.7071
vn -0.5147 -0.5723 -0.6384
vn -0.7318 -0.1843 -0.6561
vn 0 0.7071 -0.7071
vn 0.0004 -0.7757 -0.631
vn 0.5148 -0.572 -0.6385
vn 0.5774 0.5774 -0.5774
vn 0.7319 -0.1845 -0.656
vn -0.5764 -0.5784 0.5772
vn 0.0006 -0.7064 0.7078
vn -0.0006 0.7077 0.7065
vn 0.3003 0.3014 0.905
vn -0.0007 -0.7073 0.7069
vn 0.0007 0.7069 0.7073
vn 0.0002 -0.7071 0.7071
vn 0.5775 -0.5771 0.5774
vn -0.3017 0.3015 0.9045
vn 0.7319 0.1843 0.6561
vn -0.6229 -0.1568 0.7665
vn 0.5148 0.5723 0.6384
vn -0.4085 -0.4542 0.7917
vn -0.0004 0.7758 0.631
vn 0.0003 -0.5959 0.803
vn -0.5149 0.5721 0.6385
vn 0.4089 -0.4543 0.7915
vn -0.7319 0.1845 0.656
vn 0.6228 -0.157 0.7665
vn -0 -0.7071 -0.7071
vn -0.5774 -0.5774 -0.5774
vn 0.3015 0.3015 -0.9045
vn -0.7319 0.1845 -0.656
vn 0.6228 -0.157 -0.7665
vn -0.5148 0.5721 -0.6385
vn 0.4089 -0.4543 -0.7915
vn -0.0004 0.7758 -0.631
vn 0.0003 -0.5959 -0.803
vn 0.5148 0.5723 -0.6383
vn -0.4085 -0.4542 -0.7917
vn 0.7319 0.1843 -0.656
vn -0.6228 -0.1568 -0.7665
vn 0.5774 -0.5774 -0.5774
vn -0.3015 0.3015 -0.9045
vn 0 -0.7071 -0.7071
vn -0.5774 -0.5774 0.5774
vn 0 -0.7071 0.7071
vn 0.5774 -0.5774 0.5774
vn -0.5774 0.5774 0.5774
vn 0 0.7071 0.7071
vn 0.5774 0.5774 0.5774
vn -0.6349 -0.5912 0.4975
vn -0.6307 -0.5899 -0.5041
vn -0.081 -0.683 -0.7259
vn -0.0918 -0.6822 0.7254
vn 0 -0.7048 0.7094
vn 0.081 -0.683 -0.7259
vn 0.0918 -0.6821 0.7254
vn 0.6307 -0.59 -0.5041
vn 0.6348 -0.5911 0.4976
vn -0.6349 0.5912 0.4975
vn -0.0918 0.6822 0.7254
vn -0.081 0.683 -0.7259
vn -0.6307 0.5899 -0.5041
vn 0 0.7048 0.7094
vn 0.0918 0.6821 0.7254
vn 0.081 0.683 -0.7259
vn 0.6348 0.5911 0.4976
vn 0.6307 0.59 -0.5041
vn -0.578 -0.5787 0.5753
vn -0.5773 -0.5753 -0.5795
vn 0.5765 -0.5756 -0.5799
vn 0.5776 -0.5798 0.5746
vn -0.7371 0.1865 0.6496
vn 0.2112 0.8104 0.5465
vn 0.2136 0.8168 -0.5358
vn -0.7261 0.1956 -0.6592
vn -0.5678 -0.581 0.5832
vn -0.5873 -0.5731 -0.5715
vn 0.5769 -0.5755 -0.5796
vn 0.5772 -0.5799 0.575
vn -0.6839 0.3852 0.6196
vn 0.3942 0.762 0.5137
vn 0.4776 0.6455 -0.596
vn -0.6703 0.4463 -0.5929
vn -0.5651 -0.5825 0.5843
vn -0.5895 -0.5722 -0.5701
vn 0.5789 -0.5754 -0.5777
vn 0.5755 -0.5795 0.577
vn -0.1737 0.8197 0.5458
vn 0.7248 0.1726 0.6669
vn 0.7385 0.19 -0.6469
vn -0.2307 0.8131 -0.5344
vn -0.5791 -0.5794 0.5736
vn -0.5763 -0.5746 -0.5812
vn 0.5886 -0.5737 -0.5696
vn 0.5651 -0.5819 0.5849
vn -0.6532 0.4685 0.5948
vn 0.4689 0.6696 0.576
vn 0.5047 0.6662 -0.549
vn -0.6453 0.4779 -0.5959
vn -0.5794 -0.5795 0.573
vn -0.5758 -0.5745 -0.5818
vn 0.5777 -0.5756 -0.5787
vn 0.5764 -0.5797 0.5759
vn -0.6394 0.4896 0.5929
vn 0.502 0.6508 0.5696
vn 0.5057 0.6559 -0.5604
vn -0.637 0.4947 -0.5913
vn -0.5798 -0.5796 0.5726
vn -0.5754 -0.5744 -0.5822
vn 0.5782 -0.5758 -0.5781
vn 0.5761 -0.5796 0.5764
vn -0.5773 0.5756 0.5792
vn 0.5762 0.5747 0.5811
vn 0.5789 0.5794 -0.5737
vn -0.5769 0.5797 -0.5754
vn -0.58 -0.5797 0.5723
vn -0.5751 -0.5745 -0.5825
vn 0.5785 -0.5758 -0.5778
vn 0.5758 -0.5794 0.5768
vn -0.4784 0.6731 0.564
vn 0.653 0.4613 0.6007
vn 0.6555 0.4667 -0.5937
vn -0.4788 0.6766 -0.5594
vn -0.5802 -0.5797 0.5722
vn -0.5749 -0.5745 -0.5826
vn 0.5788 -0.5759 -0.5774
vn 0.5756 -0.5793 0.5772
vn -0.4511 0.7192 0.5284
vn 0.6639 0.4418 0.6034
vn 0.6435 0.486 -0.5914
vn -0.5063 0.6268 -0.5922
vn -0.5459 -0.5857 0.599
vn -0.6076 -0.5694 -0.5537
vn 0.5788 -0.5757 -0.5775
vn 0.5753 -0.5792 0.5775
vn -0.2653 0.7843 0.5608
vn 0.7159 0.2884 0.6358
vn 0.7151 0.3188 -0.6221
vn -0.3854 0.7568 -0.5279
#end 170 normals 

#begin 186 faces
o doors_lvl2
g doors_lvl2
s 2
f 1/1/1 2/2/2 3/3/3 4/4/4 
f 4/4/4 3/3/3 5/5/5 6/6/6 
f 6/6/6 5/5/5 7/7/7 8/8/8 
f 8/8/8 7/7/7 9/9/9 10/10/10 
s 4
f 11/11/11 12/12/12 13/13/13 14/14/14 
f 12/12/12 15/15/15 16/16/16 13/13/13 
f 15/15/15 17/17/17 18/18/18 16/16/16 
f 17/17/17 19/19/19 20/20/20 18/18/18 
s 8
f 21/21/21 22/22/22 23/23/23 24/24/24 
f 22/22/22 25/25/25 26/26/26 23/23/23 
f 25/25/25 27/27/27 28/28/28 26/26/26 
f 27/27/27 29/29/29 30/30/30 28/28/28 
s 16
f 10/223/10 9/226/9 20/245/20 19/243/19 
s 32
f 31/31/31 32/32/32 33/33/33 34/34/34 
f 32/32/32 35/35/35 36/36/36 33/33/33 
f 35/35/35 37/37/35 38/38/37 36/36/36 
f 37/37/35 39/39/38 40/40/39 38/38/37 
s 64
f 2/216/2 1/215/1 11/229/11 14/228/14 
s off
f 41/41/40 42/42/41 43/43/42 44/44/43 
f 42/42/41 45/45/44 46/46/45 43/43/42 
f 45/45/44 47/47/46 48/48/27 46/46/45 
f 47/47/46 49/49/47 50/50/48 48/48/27 
f 49/49/47 51/51/49 52/52/50 50/50/48 
f 51/51/49 53/53/51 54/54/52 52/52/50 
f 53/53/51 55/55/53 56/56/54 54/54/52 
f 55/55/53 57/57/55 58/58/56 56/56/54 
f 57/57/55 59/59/57 60/60/58 58/58/56 
f 59/59/57 41/41/40 44/44/43 60/60/58 
f 61/61/59 62/62/60 63/63/61 64/64/35 
f 62/62/60 65/65/62 66/66/63 63/63/61 
f 65/65/62 67/67/64 68/68/65 66/66/63 
f 67/67/64 69/69/66 70/70/67 68/68/65 
f 69/69/66 71/71/68 72/72/69 70/70/67 
f 71/71/68 73/73/70 74/74/71 72/72/69 
f 73/73/70 75/75/72 76/76/73 74/74/71 
f 75/75/72 77/77/74 78/78/32 76/76/73 
f 77/77/74 79/79/74 80/80/35 78/78/32 
f 79/79/74 61/61/59 64/64/35 80/80/35 
f 1/214/1 4/213/4 42/42/41 41/41/40 
f 4/213/4 6/219/6 45/45/44 42/42/41 
f 6/219/6 8/221/8 47/47/46 45/45/44 
f 8/221/8 10/224/10 49/49/47 47/47/46 
f 10/224/10 19/242/19 51/51/49 49/49/47 
f 19/242/19 17/237/17 53/53/51 51/51/49 
f 17/237/17 15/233/15 55/55/53 53/53/51 
f 15/233/15 12/231/12 57/57/55 55/55/53 
f 12/231/12 11/230/11 59/59/57 57/57/55 
f 11/230/11 1/214/1 41/41/40 59/59/57 
f 22/22/22 21/21/21 44/44/43 43/43/42 
f 21/21/21 24/24/24 60/60/58 44/44/43 
f 24/24/24 23/23/23 58/58/56 60/60/58 
f 23/23/23 26/26/26 56/56/54 58/58/56 
f 26/26/26 28/28/28 54/54/52 56/56/54 
f 28/28/28 30/30/30 52/52/50 54/54/52 
f 30/30/30 29/29/29 50/50/48 52/52/50 
f 29/29/29 27/27/27 48/48/27 50/50/48 
f 27/27/27 25/25/25 46/46/45 48/48/27 
f 25/25/25 22/22/22 43/43/42 46/46/45 
f 3/218/3 2/217/2 62/62/60 61/61/59 
f 2/217/2 14/227/14 65/65/62 62/62/60 
f 14/227/14 13/232/13 67/67/64 65/65/62 
f 13/232/13 16/234/16 69/69/66 67/67/64 
f 16/234/16 18/240/18 71/71/68 69/69/66 
f 18/240/18 20/246/20 73/73/70 71/71/68 
f 20/246/20 9/225/9 75/75/72 73/73/70 
f 9/225/9 7/222/7 77/77/74 75/75/72 
f 7/222/7 5/220/5 79/79/74 77/77/74 
f 5/220/5 3/218/3 61/61/59 79/79/74 
f 39/39/38 37/37/35 64/64/35 63/63/61 
f 37/37/35 35/35/35 80/80/35 64/64/35 
f 35/35/35 32/32/32 78/78/32 80/80/35 
f 32/32/32 31/31/31 76/76/73 78/78/32 
f 31/31/31 34/34/34 74/74/71 76/76/73 
f 34/34/34 33/33/33 72/72/69 74/74/71 
f 33/33/33 36/36/36 70/70/67 72/72/69 
f 36/36/36 38/38/37 68/68/65 70/70/67 
f 38/38/37 40/40/39 66/66/63 68/68/65 
f 40/40/39 39/39/38 63/63/61 66/66/63 
s 2
f 81/81/75 82/82/60 83/83/74 84/84/76 
f 84/84/76 83/83/74 85/85/74 86/86/76 
f 86/86/76 85/85/74 87/87/74 88/88/76 
f 88/88/76 87/87/74 89/89/72 90/90/77 
s 4
f 91/91/78 92/92/79 93/93/35 94/94/31 
f 92/92/79 95/95/79 96/96/35 93/93/35 
f 95/95/79 97/97/79 98/98/35 96/96/35 
f 97/97/79 99/99/80 100/100/38 98/98/35 
s 8
f 81/235/75 84/244/76 92/259/79 91/257/78 
f 84/244/76 86/247/76 95/261/79 92/259/79 
f 86/247/76 88/249/76 97/263/79 95/261/79 
f 88/249/76 90/251/77 99/265/80 97/263/79 
s 16
f 90/252/77 89/253/72 100/267/38 99/266/80 
s 32
f 89/254/72 87/250/74 98/264/35 100/268/38 
f 87/250/74 85/248/74 96/262/35 98/264/35 
f 85/248/74 83/241/74 93/260/35 96/262/35 
f 83/241/74 82/238/60 94/255/31 93/260/35 
s 64
f 82/239/60 81/236/75 91/258/78 94/256/31 
s 2
f 101/101/81 102/102/82 103/103/83 104/104/84 
f 104/104/84 103/103/83 105/105/74 106/106/85 
f 106/106/85 105/105/74 107/107/86 108/108/87 
f 108/108/87 107/107/86 109/109/88 110/110/89 
s 4
f 111/111/90 112/112/91 113/113/92 114/114/93 
f 112/112/91 115/115/94 116/116/35 113/113/92 
f 115/115/94 117/117/95 118/118/96 116/116/35 
f 117/117/95 119/119/97 120/120/98 118/118/96 
s 8
f 101/270/81 104/269/84 112/287/91 111/285/90 
f 104/269/84 106/275/85 115/289/94 112/287/91 
f 106/275/85 108/277/87 117/291/95 115/289/94 
f 108/277/87 110/279/89 119/293/97 117/291/95 
s 16
f 110/280/89 109/281/88 120/295/98 119/294/97 
s 32
f 109/282/88 107/278/86 118/292/96 120/296/98 
f 107/278/86 105/276/74 116/290/35 118/292/96 
f 105/276/74 103/274/83 113/288/92 116/290/35 
f 103/274/83 102/272/82 114/283/93 113/288/92 
s 64
f 102/273/82 101/271/81 111/286/90 114/284/93 
s 2
f 121/121/75 122/122/60 123/123/74 124/124/76 
f 124/124/76 123/123/74 125/125/74 126/126/76 
f 126/126/76 125/125/74 127/127/74 128/128/76 
f 128/128/76 127/127/74 129/129/72 130/130/77 
s 4
f 131/131/78 132/132/79 133/133/35 134/134/31 
f 132/132/79 135/135/79 136/136/35 133/133/35 
f 135/135/79 137/137/79 138/138/35 136/136/35 
f 137/137/79 139/139/80 140/140/38 138/138/35 
s 8
f 121/298/75 124/297/76 132/315/79 131/313/78 
f 124/297/76 126/303/76 135/317/79 132/315/79 
f 126/303/76 128/305/76 137/319/79 135/317/79 
f 128/305/76 130/307/77 139/321/80 137/319/79 
s 16
f 130/308/77 129/309/72 140/323/38 139/322/80 
s 32
f 129/310/72 127/306/74 138/320/35 140/324/38 
f 127/306/74 125/304/74 136/318/35 138/320/35 
f 125/304/74 123/302/74 133/316/35 136/318/35 
f 123/302/74 122/300/60 134/311/31 133/316/35 
s 64
f 122/301/60 121/299/75 131/314/78 134/312/31 
s 2
f 141/141/99 142/142/100 143/143/101 144/144/102 
s 4
f 145/145/103 146/146/104 147/147/105 148/148/106 
s 8
f 141/327/99 144/325/102 146/337/104 145/335/103 
s 16
f 144/326/102 143/331/101 147/339/105 146/338/104 
s 32
f 143/332/101 142/329/100 148/333/106 147/340/105 
s 64
f 142/330/100 141/328/99 145/336/103 148/334/106 
s 2
f 149/149/107 150/150/108 151/151/109 152/152/110 
s 4
f 153/153/111 154/154/112 155/155/113 156/156/114 
s 8
f 149/343/107 152/341/110 154/353/112 153/351/111 
s 16
f 152/342/110 151/347/109 155/355/113 154/354/112 
s 32
f 151/348/109 150/345/108 156/349/114 155/356/113 
s 64
f 150/346/108 149/344/107 153/352/111 156/350/114 
s 2
f 157/157/115 158/158/116 159/159/117 160/160/118 
s 4
f 161/161/119 162/162/120 163/163/121 164/164/122 
s 8
f 157/359/115 160/357/118 162/369/120 161/367/119 
s 16
f 160/358/118 159/363/117 163/371/121 162/370/120 
s 32
f 159/364/117 158/361/116 164/365/122 163/372/121 
s 64
f 158/362/116 157/360/115 161/368/119 164/366/122 
s 2
f 165/165/123 166/166/124 167/167/125 168/168/126 
s 4
f 169/169/127 170/170/128 171/171/129 172/172/130 
s 8
f 165/375/123 168/373/126 170/385/128 169/383/127 
s 16
f 168/374/126 167/379/125 171/387/129 170/386/128 
s 32
f 167/380/125 166/377/124 172/381/130 171/388/129 
s 64
f 166/378/124 165/376/123 169/384/127 172/382/130 
s 2
f 173/173/131 174/174/132 175/175/133 176/176/134 
s 4
f 177/177/135 178/178/136 179/179/137 180/180/138 
s 8
f 173/391/131 176/389/134 178/401/136 177/399/135 
s 16
f 176/390/134 175/395/133 179/403/137 178/402/136 
s 32
f 175/396/133 174/393/132 180/397/138 179/404/137 
s 64
f 174/394/132 173/392/131 177/400/135 180/398/138 
s 2
f 181/181/139 182/182/140 183/183/141 184/184/142 
s 4
f 185/185/143 186/186/144 187/187/145 188/188/146 
s 8
f 181/407/139 184/405/142 186/417/144 185/415/143 
s 16
f 184/406/142 183/411/141 187/419/145 186/418/144 
s 32
f 183/412/141 182/409/140 188/413/146 187/420/145 
s 64
f 182/410/140 181/408/139 185/416/143 188/414/146 
s 2
f 189/189/147 190/190/148 191/191/149 192/192/150 
s 4
f 193/193/151 194/194/152 195/195/153 196/196/154 
s 8
f 189/423/147 192/421/150 194/433/152 193/431/151 
s 16
f 192/422/150 191/427/149 195/435/153 194/434/152 
s 32
f 191/428/149 190/425/148 196/429/154 195/436/153 
s 64
f 190/426/148 189/424/147 193/432/151 196/430/154 
s 2
f 197/197/155 198/198/156 199/199/157 200/200/158 
s 4
f 201/201/159 202/202/160 203/203/161 204/204/162 
s 8
f 197/439/155 200/437/158 202/449/160 201/447/159 
s 16
f 200/438/158 199/443/157 203/451/161 202/450/160 
s 32
f 199/444/157 198/441/156 204/445/162 203/452/161 
s 64
f 198/442/156 197/440/155 201/448/159 204/446/162 
s 2
f 205/205/163 206/206/164 207/207/165 208/208/166 
s 4
f 209/209/167 210/210/168 211/211/169 212/212/170 
s 8
f 205/455/163 208/453/166 210/465/168 209/463/167 
s 16
f 208/454/166 207/459/165 211/467/169 210/466/168 
s 32
f 207/460/165 206/457/164 212/461/170 211/468/169 
s 64
f 206/458/164 205/456/163 209/464/167 212/462/170 
#end 186 faces

#ZOMPROPERTIES_04{
#ZOMPROPERTIES_04 table {Mesh table {SymPlane table {Point vector3d 0 0 0 Normal vector3d 1 0 0 Threshold double 0.01 
#ZOMPROPERTIES_04 Enabled bool false EdgeID int -1 SymEdgeID int -1 UPos double 0.5 LocalMode bool false } RootGroup C
#ZOMPROPERTIES_04 SubMeshGroup {Children table {Tile_0_0 CSubMeshGroup {Children table {} BBoxUV box3d 0 0 0 0 0 0 BBo
#ZOMPROPERTIES_04 x3D box3d 0 0 0 0 0 0 Area3D double 0 AreaUV double 0 IsRoot bool false Properties table {Selected b
#ZOMPROPERTIES_04 ool false Box box3d 0 1 0 1 0 1 U int 0 V int 0 NU int 0 NV int 0 Pack table {BoxFrameEdit bool fals
#ZOMPROPERTIES_04 e Behavior string "Free" Locked bool false Scaling table {Optimization string "Fill" } } Hotspot tab
#ZOMPROPERTIES_04 le {} } IsTile bool true PolyIDs ints { 113 108 109 110 111 112 104 105 106 107 144 150 138 180 132 
#ZOMPROPERTIES_04 174 163 162 156 168 95 90 131 126 151 157 169 175 139 181 96 97 98 99 100 101 102 103 133 145 12 17 
#ZOMPROPERTIES_04 86 87 88 89 127 128 129 130 91 92 93 94 122 123 124 125 0 1 2 3 146 148 134 136 147 4 5 6 7 182 137 
#ZOMPROPERTIES_04 140 142 152 184 154 178 149 176 183 135 172 170 160 158 143 164 166 141 185 118 119 120 121 82 83 84
#ZOMPROPERTIES_04  85 114 115 116 117 78 79 80 81 155 177 153 179 171 161 173 159 165 167 8 50 26 46 45 44 43 42 41 40
#ZOMPROPERTIES_04  39 38 47 18 48 27 19 57 56 10 52 24 53 23 54 22 55 11 51 9 21 20 25 49 13 73 33 63 62 61 60 59 58 6
#ZOMPROPERTIES_04 7 66 65 64 35 71 34 36 70 69 15 75 31 76 30 77 29 68 16 74 14 28 37 32 72 } } } BBoxUV box3d 0 0 0 0
#ZOMPROPERTIES_04  0 0 BBox3D box3d 0 0 0 0 0 0 Area3D double 0 AreaUV double 0 IsRoot bool true Properties table {Sel
#ZOMPROPERTIES_04 ected bool false Box box3d 0 1 0 1 0 1 U int 0 V int 0 NU int 1 NV int 1 Pack table {Rotate table {I
#ZOMPROPERTIES_04 nitial string "Automatic" Min double 0 Max double 90 Step double 0 } ResolutionDivisor int 0 MapReso
#ZOMPROPERTIES_04 lution int 2048 UsePixelUnit bool true PaddingSize double 0.0078125 MarginSize double 0.00390625 Pad
#ZOMPROPERTIES_04 dingSizePx int 16 MarginSizePx int 8 Scaling table {TexelDensity double 1024 Mode int 2 Optimization
#ZOMPROPERTIES_04  string "Fill" } MaxMutations int 1 Strategy string "Efficient" Sides string "Closed" } Hotspot tabl
#ZOMPROPERTIES_04 e {} Tiling vector3d 1 1 1 TileRatioMode string "1:1" } IsTile bool false PolyIDs ints { } } Maps ta
#ZOMPROPERTIES_04 ble {Pin CDataMap {PrimType string "Vertex" Size int 1 DefaultValue double 0 ScaleType string "Norma
#ZOMPROPERTIES_04 lized" MergeMode string "Max" MinValue double 0 MaxValue double 1 Data doubles { r 468 0 } } Density
#ZOMPROPERTIES_04  CDataMap {PrimType string "Polygon" Size int 1 DefaultValue double 1 ScaleType string "Log" MergeMo
#ZOMPROPERTIES_04 de string "Average" MinValue double 0.1 MaxValue double 4 Data doubles { r 186 1 } } Protect CDataMa
#ZOMPROPERTIES_04 p {PrimType string "Vertex" Size int 1 DefaultValue double 0 ScaleType string "Normalized" MergeMode
#ZOMPROPERTIES_04  string "Average" MinValue double -1 MaxValue double 1 Data doubles { r 468 0 } } } } }
#ZOMPROPERTIES_04}


#ZOMSCENE_01{
#ZOMSCENE_01 CScene {Settings table {AxisSystem table {UpVector string "y" } Unit string "cm" TexelDensityDisplay
#ZOMSCENE_01 Unit string "tx/cm" } Root CXForm {doors_lvl2 CPrim {PolyRange table {Low int 0 High int 185 } } } }
#ZOMSCENE_01 
#ZOMSCENE_01}

#begin 0 fatal error vertex (that RizomUV cannot handle)
#end 0 fatal error vertex (that RizomUV cannot handle)

#begin 0 error vertex
#end 0 error vertex
