#File written by RizomUV 2025.0.101.g577a16f3. Compilation :Sep 18 2025,15:37:21
#begin vertices
v -27.7061 0.5558 15.8629
v -27.7061 0.5558 6.0204
v 27.846 0.5558 6.0204
v 27.846 0.5558 15.8629
v -27.7061 4.4928 6.0204
v -23.1671 4.4928 12.5821
v -14.0891 4.4928 15.8629
v 27.846 4.4928 15.8629
v 27.846 4.4928 6.0204
v -23.1671 3.1804 15.8629
v -27.7061 3.1804 12.5821
v -23.9236 4.274 13.1289
v -26.941 4.5624 10.6731
v -25.4366 3.8366 14.2225
v -21.4374 4.5131 15.2824
v -23.9494 3.4361 15.5162
v -26.5713 2.1962 15.0427
v -26.9496 3.3991 13.1289
v -26.2953 1.81 26.8942
v -26.2953 1.81 17.0517
v 29.2359 0.2887 17.0517
v 29.2359 0.2887 26.8942
v -26.1875 5.7455 26.8942
v 29.3437 4.2242 26.8942
v 29.3437 4.2242 17.0517
v -26.1875 5.7455 17.0517
v -26.7874 0.5558 4.8417
v -26.7874 0.5558 -5.0008
v 28.7646 0.5558 -5.0008
v 28.7646 0.5558 4.8417
v -26.7874 4.4928 4.8417
v 28.7646 4.4928 4.8417
v 28.7646 4.4928 -5.0008
v -26.7874 3.1185 -5.0008
v -27.5447 -0.0623 -6.2154
v -27.5447 -0.0045 -16.0579
v 29.445 1.1845 -16.0579
v 29.445 1.1845 -6.2154
v -27.6376 3.8737 -6.2154
v 29.3567 5.1205 -6.2154
v 29.3567 5.1234 -16.0579
v -29.445 3.9193 -16.0579
v -26.7874 0.5558 -17.2023
v -26.7874 0.5558 -27.0448
v 28.7646 0.5558 -27.0448
v 28.7646 0.5558 -17.2023
v -26.7874 4.4928 -17.2023
v 28.7646 4.4928 -17.2023
v 28.7646 4.4928 -27.0448
v -26.7874 4.4928 -27.0448
v -26.3564 -5.7455 27.3841
v -26.3564 -5.7455 -27.3841
v -21.5215 -5.7455 -27.3841
v -21.5215 -5.7455 27.3841
v -26.3564 3.0091 27.3841
v -21.5215 3.0091 27.3841
v -21.5215 3.0091 -27.3841
v -26.3564 3.0091 -27.3841
v -26.6171 -5.0543 -26.7236
v 28.1511 -5.0543 -26.7236
v 28.1511 -5.0543 -21.8888
v -26.6171 -5.0543 -21.8888
v -26.6171 3.7003 -26.7236
v -26.6171 3.7003 -21.8888
v 28.1511 3.7003 -21.8888
v 28.1511 3.7003 -26.7236
v -26.6171 -5.0543 21.435
v 28.1511 -5.0543 21.435
v 28.1511 -5.0543 26.2698
v -26.6171 -5.0543 26.2698
v -26.6171 3.7003 21.435
v -26.6171 3.7003 26.2698
v 28.1511 3.7003 26.2698
v 28.1511 3.7003 21.435
v 23.6214 -5.7455 27.3841
v 23.6214 -5.7455 -27.3841
v 28.4562 -5.7455 -27.3841
v 28.4562 -5.7455 27.3841
v 23.6214 3.0091 27.3841
v 28.4562 3.0091 27.3841
v 28.4562 3.0091 -27.3841
v 23.6214 3.0091 -27.3841
#end vertices

#begin 243 textures vertices 
vt 0.3291637 0.2680028 0
vt 0.9643829 0.6401164 0
vt 0.00390625 0.3256307 0
vt 0.00390625 0.2680028 0
vt 0.9643829 0.6631675 0
vt 0.0413795 0.6802655 0
vt 0.09789579 0.6802655 0
vt 0.6708369 0.3733054 0
vt 0.7284647 0.3733054 0
vt 0.03416125 0.5835592 0
vt 0.1361446 0.5822688 0
vt 0.03820494 0.6756361 0
vt 0.01686419 0.6837778 0
vt 0.0318559 0.6663774 0
vt 0.05627767 0.668838 0
vt 0.03010018 0.58687 0
vt 0.01307552 0.5868564 0
vt 0.1389759 0.5871027 0
vt 0.6626286 0.1357068 0
vt 0.6626286 0.1933346 0
vt 0.3373716 0.1933346 0
vt 0.3373716 0.1357068 0
vt 0.003906266 0.3339031 0
vt 0.3291633 0.3339031 0
vt 0.3291633 0.3915309 0
vt 0.003906266 0.3915309 0
vt 0.6626284 0.2675074 0
vt 0.6626284 0.3251352 0
vt 0.3373715 0.3251352 0
vt 0.3373715 0.2675074 0
vt 0.004006261 0.1357068 0
vt 0.3292627 0.1362658 0
vt 0.3292627 0.1938936 0
vt 0.003906265 0.1938936 0
vt 0.3376609 0.06980653 0
vt 0.3376535 0.1274353 0
vt 0.003906298 0.1274343 0
vt 0.003906469 0.06980653 0
vt 0.01448061 0.00390625 0
vt 0.348262 0.003908336 0
vt 0.3482623 0.06153616 0
vt 0.003906295 0.06153616 0
vt 0.6626284 0.2016071 0
vt 0.6626284 0.2592349 0
vt 0.3373715 0.2592349 0
vt 0.3373715 0.2016071 0
vt 0.3373715 0.3334076 0
vt 0.6626284 0.3334076 0
vt 0.6626284 0.3910354 0
vt 0.3373715 0.3910354 0
vt 0.3457949 0.9295682 0
vt 0.3457949 0.6089005 0
vt 0.3741032 0.6089005 0
vt 0.3741032 0.9295682 0
vt 0.3824612 0.6089005 0
vt 0.4107696 0.6089005 0
vt 0.4107696 0.9295682 0
vt 0.3824612 0.9295682 0
vt 0.5291265 0.9295682 0
vt 0.5291265 0.6089005 0
vt 0.5574343 0.6089005 0
vt 0.5574343 0.9295682 0
vt 0.4924602 0.6089005 0
vt 0.5207679 0.6089005 0
vt 0.5207679 0.9295682 0
vt 0.4924602 0.9295682 0
vt 0.5657929 0.9295682 0
vt 0.5657929 0.6089005 0
vt 0.5941006 0.6089005 0
vt 0.5941006 0.9295682 0
vt 0.4557938 0.6089005 0
vt 0.4841016 0.6089005 0
vt 0.4841016 0.9295682 0
vt 0.4557938 0.9295682 0
vt 0.6024592 0.9295682 0
vt 0.6024592 0.6089005 0
vt 0.6307669 0.6089005 0
vt 0.6307669 0.9295682 0
vt 0.4191275 0.6089005 0
vt 0.4474353 0.6089005 0
vt 0.4474353 0.9295682 0
vt 0.4191275 0.9295682 0
vt 0.003906305 0.2597307 0
vt 0.03048189 0.2213118 0
vt 0.08363409 0.2021026 0
vt 0.329164 0.2021029 0
vt 0.3291639 0.2597308 0
vt 0.003907082 0.2597308 0
vt 0.003912397 0.6401164 0
vt 0.329172 0.6401164 0
vt 0.3291658 0.6631648 0
vt 0.08363583 0.6631669 0
vt 0.03048409 0.6554833 0
vt 0.003906306 0.6401207 0
vt 0.6708456 0.2253906 0
vt 0.7284685 0.2253906 0
vt 0.7284752 0.225394 0
vt 0.7092629 0.2407632 0
vt 0.6708435 0.2484439 0
vt 0.6708368 0.2484399 0
vt 0.003906262 0.5781801 0
vt 0.09656307 0.5822688 0
vt 0.07779916 0.7394372 0
vt 0.3329122 0.5694839 0
vt 0.3291637 0.3256307 0
vt 0.08615773 0.7025483 0
vt 0.6768679 0.003906268 0
vt 0.7284647 0.3502543 0
vt 0.6391254 0.6401164 0
vt 0.7040996 0.6713323 0
vt 0.3562002 0.003906268 0
vt 0.6708369 0.3502543 0
vt 0.6391254 0.6631675 0
vt 0.1233919 0.5895746 0
vt 0.3377005 0.6089011 0
vt 0.6708369 0.1941917 0
vt 0.003906275 0.7081587 0
vt 0.02169438 0.5959185 0
vt 0.1447193 0.5977632 0
vt 0.04554152 0.5907317 0
vt 0.08852539 0.5835592 0
vt 0.1522703 0.5877214 0
vt 0.7284647 0.1941747 0
vt 0.3329122 0.5778134 0
vt 0.1605766 0.5781801 0
vt 0.9871752 0.4899827 0
vt 0.1713821 0.6713323 0
vt 0.6619182 0.4899827 0
vt 0.1631097 0.6713323 0
vt 0.9871752 0.4587668 0
vt 0.1054819 0.6713323 0
vt 0.22901 0.6713323 0
vt 0.6619181 0.4587668 0
vt 0.9871752 0.4818178 0
vt 0.1054819 0.6943833 0
vt 0.6619181 0.5130337 0
vt 0.1631097 0.6943833 0
vt 0.9871752 0.5130337 0
vt 0.1713821 0.6943833 0
vt 0.22901 0.6943833 0
vt 0.6619182 0.4818178 0
vt 0.9960938 0.1292654 0
vt 0.6708369 0.3190384 0
vt 0.6708369 0.1292654 0
vt 0.2254834 0.5781801 0
vt 0.964853 0.6169445 0
vt 0.1684093 0.5861493 0
vt 0.7284647 0.3190384 0
vt 0.6396956 0.6089005 0
vt 0.9644819 0.6319446 0
vt 0.1704842 0.6010097 0
vt 0.6708369 0.1523166 0
vt 0.2286711 0.6010097 0
vt 0.9960938 0.1523166 0
vt 0.6708369 0.3420895 0
vt 0.7284647 0.3420895 0
vt 0.6391255 0.6319446 0
vt 0.003946062 0.6089005 0
vt 0.7296321 0.1629277 0
vt 0.6666594 0.5776846 0
vt 0.6720552 0.1604814 0
vt 0.6773129 0.6008814 0
vt 0.6708368 0.1859785 0
vt 0.003906277 0.6319521 0
vt 0.7294288 0.1859785 0
vt 0.3376876 0.6319521 0
vt 0.6708437 0.2172427 0
vt 0.7284715 0.2172427 0
vt 0.3329569 0.6008814 0
vt 0.9916343 0.3993079 0
vt 0.6708369 0.2878225 0
vt 0.6663775 0.3993079 0
vt 0.7284647 0.2566066 0
vt 0.9871749 0.5211986 0
vt 0.6708369 0.2566066 0
vt 0.7284647 0.2878225 0
vt 0.661918 0.5211986 0
vt 0.9871749 0.5442498 0
vt 0.6708369 0.2796577 0
vt 0.6663775 0.422359 0
vt 0.7284647 0.2796577 0
vt 0.9916343 0.422359 0
vt 0.6708369 0.3108736 0
vt 0.7284647 0.3108736 0
vt 0.661918 0.5442498 0
vt 0.2655908 0.6713323 0
vt 0.3373716 0.3993079 0
vt 0.2372824 0.6713323 0
vt 0.6664626 0.06980654 0
vt 0.3022571 0.6713323 0
vt 0.3457949 0.06980654 0
vt 0.6580393 0.3993079 0
vt 0.2739487 0.6713323 0
vt 0.3022571 0.7225905 0
vt 0.3457949 0.1210647 0
vt 0.2372824 0.7225905 0
vt 0.6664626 0.1210647 0
vt 0.2655908 0.7225905 0
vt 0.3373716 0.4505661 0
vt 0.6580393 0.4505661 0
vt 0.2739487 0.7225905 0
vt 0.7135139 0.003906268 0
vt 0.003906277 0.5187212 0
vt 0.6852061 0.003906268 0
vt 0.6535799 0.5182257 0
vt 0.07779916 0.688179 0
vt 0.3329122 0.5182257 0
vt 0.324574 0.5187212 0
vt 0.04949141 0.688179 0
vt 0.6852061 0.05516444 0
vt 0.6535799 0.5694839 0
vt 0.7135139 0.05516444 0
vt 0.003906277 0.5699793 0
vt 0.324574 0.5699793 0
vt 0.04949141 0.7394372 0
vt 0.1144655 0.7025483 0
vt 0.003906277 0.4592623 0
vt 0.324574 0.4592623 0
vt 0.6757918 0.6713323 0
vt 0.7040996 0.7225905 0
vt 0.3562002 0.05516444 0
vt 0.08615773 0.7538064 0
vt 0.6768679 0.05516444 0
vt 0.1144655 0.7538064 0
vt 0.003906277 0.5105205 0
vt 0.324574 0.5105205 0
vt 0.6757918 0.7225905 0
vt 0.6674332 0.6713323 0
vt 0.3329122 0.4587668 0
vt 0.6391255 0.6713323 0
vt 0.324574 0.3998034 0
vt 0.7031086 0.06336516 0
vt 0.003906277 0.3998034 0
vt 0.6535799 0.4587668 0
vt 0.6748008 0.06336516 0
vt 0.7031086 0.1146233 0
vt 0.003906277 0.4510616 0
vt 0.6391255 0.7225905 0
vt 0.324574 0.4510616 0
vt 0.6674332 0.7225905 0
vt 0.3329122 0.510025 0
vt 0.6535799 0.510025 0
vt 0.6748008 0.1146233 0
#end 243 textures vertices 

#begin 41 normals 
vn 1 0 -0
vn -0.5774 -0.5774 -0.5774
vn 0.5774 -0.5774 -0.5774
vn 0.5774 -0.5774 0.5774
vn -0.5691 0.0819 -0.8182
vn -0.0802 0.9893 0.1222
vn -0.0023 0.7071 0.7071
vn 0.5774 0.5774 0.5774
vn 0.5774 0.5774 -0.5774
vn -0.0816 0.3646 0.9276
vn -0.7384 -0.5439 0.3987
vn -0.8218 0.5327 0.2024
vn 0.3371 0.858 -0.3875
vn -0.5128 0.8493 0.125
vn -0.3994 0.7619 0.5099
vn -0.075 0.8614 0.5024
vn -0.4101 0.77 0.4888
vn -0.4899 0.6367 0.5955
vn -0.011 0.8673 0.4977
vn -0.5929 -0.5613 0.5774
vn -0.5929 -0.5613 -0.5774
vn 0.5613 -0.5929 -0.5774
vn 0.5613 -0.5929 0.5774
vn -0.5613 0.5929 0.5774
vn 0.5929 0.5613 0.5774
vn 0.5929 0.5613 -0.5774
vn -0.5613 0.5929 -0.5774
vn -0.5774 -0.5774 0.5774
vn -0.5704 0.6196 0.5391
vn 0.5708 0.5851 -0.5761
vn -0.591 0.5247 -0.6127
vn -0.5637 -0.5921 0.5759
vn -0.4164 -0.6784 -0.6053
vn 0.5898 -0.5648 -0.5773
vn 0.59 -0.5644 0.5774
vn -0.5315 0.5727 0.6242
vn 0.5645 0.5899 0.5774
vn 0.5648 0.5897 -0.5774
vn -0.7578 0.4204 -0.499
vn -0.5774 0.5774 0.5774
vn -0.5774 0.5774 -0.5774
#end 41 normals 

#begin 63 faces
o bridge_basic
g bridge_basic
s 1
f 1/1/1 2/105/2 3/3/3 4/4/4 
f 5/83/5 6/84/6 7/85/7 8/86/8 9/87/9 5/88/1 
s 2
f 1/89/1 4/90/4 8/91/8 7/92/7 10/93/10 1/94/11 
s 4
f 4/112/4 3/108/3 9/9/9 8/8/8 
s 2
f 3/109/3 2/2/2 5/5/1 9/113/9 
s 4
f 2/95/2 1/96/1 1/97/11 11/98/12 5/99/5 5/100/1 
s 1
f 12/12/13 13/13/14 14/14/15 15/15/16 
f 12/12/13 6/6/6 5/117/5 13/13/14 
f 12/12/13 15/15/16 7/7/7 6/6/6 
s 2
f 16/16/17 15/120/16 14/118/15 17/17/18 
f 16/16/17 10/10/10 7/121/7 15/120/16 
f 16/16/17 17/17/18 1/101/11 10/10/10 
f 18/18/19 17/122/18 14/119/15 13/114/14 
f 18/18/19 11/11/12 1/125/11 17/122/18 
f 18/18/19 13/114/14 5/102/5 11/11/12 
f 19/19/20 20/20/21 21/21/22 22/22/23 
s 4
f 23/23/24 24/24/25 25/25/26 26/26/27 
s 8
f 19/128/20 22/126/23 24/138/25 23/136/24 
s 16
f 22/127/23 21/132/22 25/140/26 24/139/25 
s 32
f 21/133/22 20/130/21 26/134/27 25/141/26 
s 64
f 20/131/21 19/129/20 23/137/24 26/135/27 
s 2
f 27/27/28 28/28/2 29/29/3 30/30/4 
s 4
f 31/31/29 32/32/8 33/33/30 34/34/31 
s 8
f 27/144/28 30/142/4 32/154/8 31/152/29 
s 16
f 30/143/4 29/148/3 33/156/30 32/155/8 
s 32
f 29/149/3 28/146/2 34/150/31 33/157/30 
s 64
f 28/147/2 27/145/28 31/153/29 34/151/31 
s 2
f 35/35/32 36/36/33 37/37/34 38/38/35 
s 4
f 39/39/36 40/40/37 41/41/38 42/42/39 
s 8
f 35/158/32 38/115/35 40/166/37 39/164/36 
s 16
f 38/116/35 37/123/34 41/168/38 40/167/37 
s 32
f 37/124/34 36/160/33 42/162/39 41/169/38 
s 64
f 36/161/33 35/159/32 39/165/36 42/163/39 
s 2
f 43/43/28 44/44/2 45/45/3 46/46/4 
s 4
f 47/47/40 48/48/8 49/49/9 50/50/41 
s 8
f 43/172/28 46/170/4 48/182/8 47/180/40 
s 16
f 46/171/4 45/176/3 49/184/9 48/183/8 
s 32
f 45/177/3 44/174/2 50/178/41 49/185/9 
s 64
f 44/175/2 43/173/28 47/181/40 50/179/41 
s 2
f 51/51/28 52/52/2 53/53/3 54/54/4 
s 4
f 55/55/40 56/56/8 57/57/9 58/58/41 
s 8
f 51/188/28 54/186/4 56/198/8 55/196/40 
s 16
f 54/187/4 53/192/3 57/200/9 56/199/8 
s 32
f 53/193/3 52/190/2 58/194/41 57/201/9 
s 64
f 52/191/2 51/189/28 55/197/40 58/195/41 
s 2
f 59/59/2 60/60/3 61/61/4 62/62/28 
s 4
f 63/63/41 64/64/40 65/65/8 66/66/9 
s 8
f 59/204/2 62/202/28 64/212/40 63/210/41 
s 16
f 62/203/28 61/208/4 65/214/8 64/213/40 
s 32
f 61/209/4 60/206/3 66/103/9 65/215/8 
s 64
f 60/207/3 59/205/2 63/211/41 66/104/9 
s 2
f 67/67/2 68/68/3 69/69/4 70/70/28 
s 4
f 71/71/41 72/72/40 73/73/8 74/74/9 
s 8
f 67/106/2 70/216/28 72/224/40 71/222/41 
s 16
f 70/217/28 69/218/4 73/226/8 72/225/40 
s 32
f 69/219/4 68/110/3 74/220/9 73/227/8 
s 64
f 68/111/3 67/107/2 71/223/41 74/221/9 
s 2
f 75/75/28 76/76/2 77/77/3 78/78/4 
s 4
f 79/79/40 80/80/8 81/81/9 82/82/41 
s 8
f 75/230/28 78/228/4 80/240/8 79/238/40 
s 16
f 78/229/4 77/234/3 81/242/9 80/241/8 
s 32
f 77/235/3 76/232/2 82/236/41 81/243/9 
s 64
f 76/233/2 75/231/28 79/239/40 82/237/41 
#end 63 faces

#ZOMPROPERTIES_04{
#ZOMPROPERTIES_04 table {Mesh table {SymPlane table {Point vector3d 0 0 0 Normal vector3d 1 0 0 Threshold double 0.01 
#ZOMPROPERTIES_04 Enabled bool false EdgeID int -1 SymEdgeID int -1 UPos double 0.5 LocalMode bool false } RootGroup C
#ZOMPROPERTIES_04 SubMeshGroup {Children table {Tile_0_0 CSubMeshGroup {Children table {} BBoxUV box3d 0 0 0 0 0 0 BBo
#ZOMPROPERTIES_04 x3D box3d 0 0 0 0 0 0 Area3D double 0 AreaUV double 0 IsRoot bool false Properties table {Selected b
#ZOMPROPERTIES_04 ool false Box box3d 0 1 0 1 0 1 U int 0 V int 0 NU int 0 NV int 0 Pack table {BoxFrameEdit bool fals
#ZOMPROPERTIES_04 e Behavior string "Free" Locked bool false Scaling table {Optimization string "Fill" } } Hotspot tab
#ZOMPROPERTIES_04 le {} } IsTile bool true PolyIDs ints { 12 13 14 9 10 11 5 6 8 7 26 18 20 3 38 36 24 30 32 53 49 55 
#ZOMPROPERTIES_04 47 61 59 43 41 25 2 19 17 37 35 23 4 29 31 57 52 51 45 58 46 40 39 50 48 60 42 62 56 44 54 1 34 21 3
#ZOMPROPERTIES_04 3 15 16 0 22 27 28 } } } BBoxUV box3d 0 0 0 0 0 0 BBox3D box3d 0 0 0 0 0 0 Area3D double 0 AreaUV do
#ZOMPROPERTIES_04 uble 0 IsRoot bool true Properties table {Selected bool false Box box3d 0 1 0 1 0 1 U int 0 V int 0 
#ZOMPROPERTIES_04 NU int 1 NV int 1 Pack table {Rotate table {Initial string "Automatic" Min double 0 Max double 90 St
#ZOMPROPERTIES_04 ep double 0 } ResolutionDivisor int 0 MapResolution int 2048 UsePixelUnit bool true PaddingSize doub
#ZOMPROPERTIES_04 le 0.0078125 MarginSize double 0.00390625 PaddingSizePx int 16 MarginSizePx int 8 Scaling table {Tex
#ZOMPROPERTIES_04 elDensity double 1024 Mode int 2 Optimization string "Fill" } MaxMutations int 1 Strategy string "Ef
#ZOMPROPERTIES_04 ficient" Sides string "Closed" } Hotspot table {} Tiling vector3d 1 1 1 TileRatioMode string "1:1" }
#ZOMPROPERTIES_04  IsTile bool false PolyIDs ints { } } Maps table {Pin CDataMap {PrimType string "Vertex" Size int 1 
#ZOMPROPERTIES_04 DefaultValue double 0 ScaleType string "Normalized" MergeMode string "Max" MinValue double 0 MaxValu
#ZOMPROPERTIES_04 e double 1 Data doubles { r 243 0 } } Density CDataMap {PrimType string "Polygon" Size int 1 Default
#ZOMPROPERTIES_04 Value double 1 ScaleType string "Log" MergeMode string "Average" MinValue double 0.1 MaxValue double
#ZOMPROPERTIES_04  4 Data doubles { r 63 1 } } Protect CDataMap {PrimType string "Vertex" Size int 1 DefaultValue doub
#ZOMPROPERTIES_04 le 0 ScaleType string "Normalized" MergeMode string "Average" MinValue double -1 MaxValue double 1 D
#ZOMPROPERTIES_04 ata doubles { r 243 0 } } } } }
#ZOMPROPERTIES_04}


#ZOMSCENE_01{
#ZOMSCENE_01 CScene {Settings table {AxisSystem table {UpVector string "y" } Unit string "cm" TexelDensityDisplay
#ZOMSCENE_01 Unit string "tx/cm" } Root CXForm {bridge_basic CPrim {PolyRange table {Low int 0 High int 62 } } } 
#ZOMSCENE_01 }
#ZOMSCENE_01}

#begin 0 fatal error vertex (that RizomUV cannot handle)
#end 0 fatal error vertex (that RizomUV cannot handle)

#begin 0 error vertex
#end 0 error vertex
