#File written by RizomUV 2025.0.101.g577a16f3. Compilation :Sep 18 2025,15:37:21
#begin vertices
v -31.9174 7.6146 -31.9261
v -31.8105 7.6146 -0.0811
v 0 7.6146 -0
v 0.0076 7.6146 -31.7553
v -62.5537 7.6146 -32.0592
v -62.5537 7.6146 -0.0533
v -32.0046 7.6146 -62.5537
v -62.5537 7.6146 -62.5537
v 0.0623 7.6146 -62.5537
v 31.8733 7.6146 -31.765
v 32.0879 7.6146 -62.5537
v 31.8105 7.6146 0.0811
v 31.9174 7.6146 31.9261
v 62.5537 7.6146 32.0592
v 62.5537 7.6146 0.0533
v -0.0076 7.6146 31.7553
v 62.5537 7.6146 -31.984
v 62.5537 7.6146 -62.5537
v 31.8213 -5.6461 -31.8344
v 0.0235 -5.6461 -31.7785
v 0.0573 -5.6461 -62.5537
v 32.0519 -5.6461 -62.5537
v 31.7987 -5.6461 -0.0026
v 0 -5.6461 -0
v 62.5537 -5.6461 -32.0185
v 62.5537 -5.6461 0.0119
v 62.5537 -5.6461 -62.5537
v -0.0234 -5.6461 31.7785
v -31.8213 -5.6461 31.8344
v -31.7987 -5.6461 0.0025
v 31.7878 -5.6461 31.8289
v -31.7878 -5.6461 -31.8289
v -31.9699 -5.6461 -62.5537
v -62.5537 -5.6461 32.0185
v -62.5537 -5.6461 -0.0119
v -62.5537 -5.6461 -32.031
v -62.5537 -5.6461 -62.5537
v 31.9699 -5.6461 62.5537
v -0.0573 -5.6461 62.5537
v 62.5537 -5.6461 32.031
v 62.5537 -5.6461 62.5537
v -32.0518 -5.6461 62.5537
v -62.5537 -5.6461 62.5537
v -31.8733 7.6146 31.765
v -32.0879 7.6146 62.5537
v -0.0623 7.6146 62.5537
v -62.5537 7.6146 31.984
v -62.5537 7.6146 62.5537
v 32.0046 7.6146 62.5537
v 62.5537 7.6146 62.5537
#end vertices

#begin 90 textures vertices 
vt 0.1243879 0.3754615 0
vt 0.1248083 0.2502265 0
vt 0.2499076 0.2499076 0
vt 0.2499375 0.3747898 0
vt 0.003906291 0.375985 0
vt 0.003906291 0.2501172 0
vt 0.124045 0.4959089 0
vt 0.003906291 0.4959089 0
vt 0.2501526 0.4959089 0
vt 0.3752539 0.374828 0
vt 0.3760979 0.4959089 0
vt 0.3750069 0.2495887 0
vt 0.3754273 0.1243537 0
vt 0.495909 0.1238302 0
vt 0.495909 0.249698 0
vt 0.2498777 0.1250254 0
vt 0.495909 0.3756892 0
vt 0.495909 0.4959089 0
vt 0.8752342 0.1247143 0
vt 0.7501848 0.1249341 0
vt 0.2378949 0.749867 0
vt 0.2378949 0.6240437 0
vt 0.8751453 0.2498974 0
vt 0.7500924 0.2499076 0
vt 0.00390625 0.6241751 0
vt 0.00390625 0.7501392 0
vt 0.2378949 0.5040911 0
vt 0.7500004 0.3748811 0
vt 0.6249506 0.3751009 0
vt 0.6250395 0.2499174 0
vt 0.8751025 0.3750793 0
vt 0.6250824 0.1247359 0
vt 0.2378949 0.8758186 0
vt 0.1166689 0.8760097 0
vt 0.1166689 0.7500456 0
vt 0.1166689 0.6241259 0
vt 0.1166689 0.5040911 0
vt 0.1251323 0.6243662 0
vt 0.1251323 0.7503177 0
vt 0.00390625 0.8760589 0
vt 0.1251323 0.5040911 0
vt 0.1251323 0.8761407 0
vt 0.1251323 0.9960937 0
vt 0.1245613 0.1249872 0
vt 0.1237174 0.003906258 0
vt 0.1772819 0.7503374 0
vt 0.003906291 0.124126 0
vt 0.003906291 0.003906258 0
vt 0.1772819 0.6242297 0
vt 0.1772819 0.5040911 0
vt 0.2496626 0.003906258 0
vt 0.3757703 0.003906258 0
vt 0.1772819 0.8762826 0
vt 0.06451927 0.9960937 0
vt 0.06451927 0.875874 0
vt 0.06451927 0.7498828 0
vt 0.06451927 0.624015 0
vt 0.1857453 0.9960937 0
vt 0.1857453 0.875955 0
vt 0.1857453 0.7498474 0
vt 0.1857453 0.6239021 0
vt 0.05605584 0.504091 0
vt 0.05605584 0.6243107 0
vt 0.05605584 0.750302 0
vt 0.495909 0.003906258 0
vt 0.05605584 0.8761698 0
vt 0.05605584 0.9960937 0
vt 0.9960937 0.4959089 0
vt 0.8758186 0.4959089 0
vt 0.7498671 0.4959089 0
vt 0.6240441 0.4959089 0
vt 0.5040911 0.4959089 0
vt 0.5040911 0.3758249 0
vt 0.5040911 0.2498608 0
vt 0.5040911 0.1239411 0
vt 0.5040911 0.00390625 0
vt 0.6243662 0.00390625 0
vt 0.7503178 0.00390625 0
vt 0.8761411 0.00390625 0
vt 0.9960938 0.00390625 0
vt 0.9960937 0.1239903 0
vt 0.9960937 0.2499544 0
vt 0.9960937 0.3758741 0
vt 0.00390625 0.9960937 0
vt 0.1166689 0.9960937 0
vt 0.1772819 0.9960937 0
vt 0.00390625 0.504091 0
vt 0.1857453 0.5040911 0
vt 0.2378949 0.9960937 0
vt 0.06451927 0.5040911 0
#end 90 textures vertices 

#begin 21 normals 
vn -0 1 -0
vn -0 1 0
vn 0 1 -0
vn 0 1 0
vn -0.7071 0.7071 -0
vn 0 0.7071 -0.7071
vn -0.5774 0.5774 -0.5774
vn 0.7071 0.7071 -0
vn 0.5774 0.5774 -0.5774
vn 0 -1 -0
vn 0 -0.7071 -0.7071
vn 0.7071 -0.7071 -0
vn 0.5774 -0.5774 -0.5774
vn -0.7071 -0.7071 -0
vn -0.5774 -0.5774 -0.5774
vn 0 -0.7071 0.7071
vn 0.5774 -0.5774 0.5774
vn -0.5774 -0.5774 0.5774
vn 0 0.7071 0.7071
vn -0.5774 0.5774 0.5774
vn 0.5774 0.5774 0.5774
#end 21 normals 

#begin 48 faces
o prefab_green_water
g prefab_green_water
s 1
f 1/1/1 2/2/2 3/3/3 4/4/4 
f 1/1/1 5/5/5 6/6/5 2/2/2 
f 1/1/1 7/7/6 8/8/7 5/5/5 
f 1/1/1 4/4/4 9/9/6 7/7/6 
f 4/4/4 10/10/3 11/11/6 9/9/6 
f 4/4/4 3/3/3 12/12/3 10/10/3 
f 12/12/3 13/13/4 14/14/8 15/15/8 
f 12/12/3 3/3/3 16/16/1 13/13/4 
f 12/12/3 15/15/8 17/17/8 10/10/3 
f 10/10/3 17/17/8 18/18/9 11/11/6 
f 19/19/10 20/20/10 21/78/11 22/79/11 
f 19/19/10 23/23/10 24/24/10 20/20/10 
f 19/19/10 25/81/12 26/82/12 23/23/10 
f 19/19/10 22/79/11 27/80/13 25/81/12 
f 24/24/10 28/28/10 29/29/10 30/30/10 
f 24/24/10 23/23/10 31/31/10 28/28/10 
f 24/24/10 30/30/10 32/32/10 20/20/10 
f 20/20/10 32/32/10 33/77/11 21/78/11 
f 30/30/10 29/29/10 34/73/14 35/74/14 
f 30/30/10 35/74/14 36/75/14 32/32/10 
f 32/32/10 36/75/14 37/76/15 33/77/11 
f 31/31/10 38/69/16 39/70/16 28/28/10 
f 31/31/10 40/83/12 41/68/17 38/69/16 
f 31/31/10 23/23/10 26/82/12 40/83/12 
f 28/28/10 39/70/16 42/71/16 29/29/10 
f 29/29/10 42/71/16 43/72/18 34/73/14 
f 44/44/3 16/16/1 3/3/3 2/2/2 
f 44/44/3 45/45/19 46/51/19 16/16/1 
f 44/44/3 47/47/5 48/48/20 45/45/19 
f 44/44/3 2/2/2 6/6/5 47/47/5 
f 16/16/1 46/51/19 49/52/19 13/13/4 
f 13/13/4 49/52/19 50/65/21 14/14/8 
s 4
f 34/34/14 47/55/5 6/56/5 35/35/14 
f 34/34/14 43/85/18 48/54/20 47/55/5 
s 2
f 33/33/11 7/59/6 9/60/6 21/21/11 
f 33/33/11 37/89/15 8/58/7 7/59/6 
s 4
f 25/25/12 17/63/8 15/64/8 26/26/12 
f 25/25/12 27/87/13 18/62/9 17/63/8 
s 2
f 38/38/16 49/49/19 46/46/19 39/39/16 
f 38/38/16 41/41/17 50/50/21 49/49/19 
s 4
f 5/57/5 36/36/14 35/35/14 6/56/5 
f 5/57/5 8/90/7 37/37/15 36/36/14 
f 14/66/8 40/40/12 26/26/12 15/64/8 
f 14/66/8 50/67/21 41/84/17 40/40/12 
s 2
f 45/53/19 42/42/16 39/39/16 46/46/19 
f 45/53/19 48/86/20 43/43/18 42/42/16 
f 9/60/6 11/61/6 22/22/11 21/21/11 
f 11/61/6 18/88/9 27/27/13 22/22/11 
#end 48 faces

#ZOMPROPERTIES_04{
#ZOMPROPERTIES_04 table {Mesh table {SymPlane table {Point vector3d 0 0 0 Normal vector3d 1 0 0 Threshold double 0.01 
#ZOMPROPERTIES_04 Enabled bool false EdgeID int -1 SymEdgeID int -1 UPos double 0.5 LocalMode bool false } RootGroup C
#ZOMPROPERTIES_04 SubMeshGroup {Children table {Tile_0_0 CSubMeshGroup {Children table {} BBoxUV box3d 0 0 0 0 0 0 BBo
#ZOMPROPERTIES_04 x3D box3d 0 0 0 0 0 0 Area3D double 0 AreaUV double 0 IsRoot bool false Properties table {Selected b
#ZOMPROPERTIES_04 ool false Box box3d 0 1 0 1 0 1 U int 0 V int 0 NU int 0 NV int 0 Pack table {BoxFrameEdit bool fals
#ZOMPROPERTIES_04 e Behavior string "Free" Locked bool false Scaling table {Optimization string "Fill" } } Hotspot tab
#ZOMPROPERTIES_04 le {} } IsTile bool true PolyIDs ints { 32 40 41 33 34 46 47 35 38 44 45 39 36 42 43 37 0 5 8 9 4 6 
#ZOMPROPERTIES_04 31 30 27 28 29 1 26 7 3 2 10 17 20 19 18 25 24 21 22 23 12 15 11 16 14 13 } } } BBoxUV box3d 0 0 0 0
#ZOMPROPERTIES_04  0 0 BBox3D box3d 0 0 0 0 0 0 Area3D double 0 AreaUV double 0 IsRoot bool true Properties table {Sel
#ZOMPROPERTIES_04 ected bool false Box box3d 0 1 0 1 0 1 U int 0 V int 0 NU int 1 NV int 1 Pack table {Rotate table {I
#ZOMPROPERTIES_04 nitial string "Automatic" Min double 0 Max double 90 Step double 0 } ResolutionDivisor int 0 MapReso
#ZOMPROPERTIES_04 lution int 2048 UsePixelUnit bool true PaddingSize double 0.0078125 MarginSize double 0.00390625 Pad
#ZOMPROPERTIES_04 dingSizePx int 16 MarginSizePx int 8 Scaling table {TexelDensity double 1024 Mode int 2 Optimization
#ZOMPROPERTIES_04  string "Fill" } MaxMutations int 1 Strategy string "Efficient" Sides string "Closed" } Hotspot tabl
#ZOMPROPERTIES_04 e {} Tiling vector3d 1 1 1 TileRatioMode string "1:1" } IsTile bool false PolyIDs ints { } } Maps ta
#ZOMPROPERTIES_04 ble {Pin CDataMap {PrimType string "Vertex" Size int 1 DefaultValue double 0 ScaleType string "Norma
#ZOMPROPERTIES_04 lized" MergeMode string "Max" MinValue double 0 MaxValue double 1 Data doubles { r 90 0 } } Density 
#ZOMPROPERTIES_04 CDataMap {PrimType string "Polygon" Size int 1 DefaultValue double 1 ScaleType string "Log" MergeMod
#ZOMPROPERTIES_04 e string "Average" MinValue double 0.1 MaxValue double 4 Data doubles { r 48 1 } } Protect CDataMap 
#ZOMPROPERTIES_04 {PrimType string "Vertex" Size int 1 DefaultValue double 0 ScaleType string "Normalized" MergeMode s
#ZOMPROPERTIES_04 tring "Average" MinValue double -1 MaxValue double 1 Data doubles { r 90 0 } } } } }
#ZOMPROPERTIES_04}


#ZOMSCENE_01{
#ZOMSCENE_01 CScene {Settings table {AxisSystem table {UpVector string "y" } Unit string "cm" TexelDensityDisplay
#ZOMSCENE_01 Unit string "tx/cm" } Root CXForm {prefab_green_water CPrim {PolyRange table {Low int 0 High int 47 
#ZOMSCENE_01 } } } }
#ZOMSCENE_01}

#begin 0 fatal error vertex (that RizomUV cannot handle)
#end 0 fatal error vertex (that RizomUV cannot handle)

#begin 0 error vertex
#end 0 error vertex
