#File written by RizomUV 2025.0.101.g577a16f3. Compilation :Sep 18 2025,15:37:21
#begin vertices
v -27.776 -15.7721 -14.4702
v 0 -15.7721 -14.4702
v 0 -15.7721 -4.6277
v -27.776 -15.7721 -4.6277
v -27.776 -11.8351 -14.4702
v -27.776 -13.2093 -4.6277
v 0 -12.5222 -4.6277
v 0 -11.8351 -14.4702
v -28.5333 -16.3902 -3.4131
v 0 -15.7659 -3.413
v 0 -15.7371 6.4295
v -28.5333 -16.3324 6.4295
v -28.6263 -12.4542 -3.4131
v -30.4337 -12.4085 6.4295
v 0 -11.7853 6.4295
v 0 -11.8279 -3.4131
v -28.3275 -15.6657 14.4669
v -24.3905 -15.6657 14.4669
v -24.3905 -11.7288 14.4702
v -28.3275 -11.7288 14.4702
v -28.3275 -15.179 -13.4445
v -28.3275 -11.2421 -13.4085
v -24.3905 -11.2421 -13.4085
v -24.3905 -15.179 -13.4445
v -28.064 -15.3307 -14.1893
v -21.4199 -15.3307 -14.1893
v -21.4199 -15.3307 -8.5391
v -28.064 -15.3307 -8.5391
v -28.064 16.3902 -14.1893
v -28.064 16.3902 -8.5391
v -21.4199 16.3902 -8.5391
v -21.4199 16.3902 -14.1893
v -27.685 -14.8369 13.9512
v -24.7452 -14.8369 13.9512
v -24.7452 -11.736 14.1229
v -27.685 -11.736 14.1229
v -27.685 11.0026 -11.2158
v -27.685 14.1035 -9.5318
v -24.7452 14.1035 -9.5318
v -24.7452 11.0026 -11.2158
v 27.776 -15.7721 -14.4702
v 27.776 -15.7721 -4.6277
v 27.776 -11.8351 -14.4702
v 27.776 -13.2093 -4.6277
v 28.5333 -16.3902 -3.4131
v 28.5333 -16.3324 6.4295
v 28.6263 -12.4542 -3.4131
v 30.4337 -12.4085 6.4295
v 28.3275 -15.6657 14.4669
v 28.3275 -11.7288 14.4702
v 24.3905 -11.7288 14.4702
v 24.3905 -15.6657 14.4669
v 28.3275 -15.179 -13.4445
v 24.3905 -15.179 -13.4445
v 24.3905 -11.2421 -13.4085
v 28.3275 -11.2421 -13.4085
v 28.064 -15.3307 -14.1893
v 28.064 -15.3307 -8.5391
v 21.4199 -15.3307 -8.5391
v 21.4199 -15.3307 -14.1893
v 28.064 16.3902 -14.1893
v 21.4199 16.3902 -14.1893
v 21.4199 16.3902 -8.5391
v 28.064 16.3902 -8.5391
v 27.685 -14.8369 13.9512
v 27.685 -11.736 14.1229
v 24.7452 -11.736 14.1229
v 24.7452 -14.8369 13.9512
v 27.685 11.0026 -11.2158
v 24.7452 11.0026 -11.2158
v 24.7452 14.1035 -9.5318
v 27.685 14.1035 -9.5318
#end vertices

#begin 208 textures vertices 
vt 0.1002559 0.381366 0
vt 0.1002559 0.6532691 0
vt 0.003906258 0.6532691 0
vt 0.003906258 0.381366 0
vt 0.5477952 0.2750472 0
vt 0.5478781 0.3723314 0
vt 0.2758922 0.371863 0
vt 0.2758922 0.2752789 0
vt 0.00390625 0.1096625 0
vt 0.2832895 0.1096818 0
vt 0.2832895 0.2060318 0
vt 0.003912316 0.2060147 0
vt 0.5821824 0.00390625 0
vt 0.5998706 0.1002587 0
vt 0.3018885 0.1002851 0
vt 0.3018885 0.003933635 0
vt 0.9295599 0.2221691 0
vt 0.9295599 0.2607089 0
vt 0.891021 0.2607089 0
vt 0.891021 0.2221691 0
vt 0.9149357 0.5481634 0
vt 0.8763952 0.5481634 0
vt 0.8763952 0.5096235 0
vt 0.9149357 0.5096235 0
vt 0.4034871 0.4696837 0
vt 0.4034871 0.5347237 0
vt 0.3481765 0.5347237 0
vt 0.3481765 0.4696837 0
vt 0.7959529 0.8437682 0
vt 0.8512635 0.8437682 0
vt 0.8512635 0.9088082 0
vt 0.7959529 0.9088082 0
vt 0.6913217 0.09737568 0
vt 0.6913217 0.06859757 0
vt 0.7217233 0.06859757 0
vt 0.7217233 0.09737568 0
vt 0.6437344 0.09737568 0
vt 0.6091919 0.09737568 0
vt 0.6091919 0.06859757 0
vt 0.6437344 0.06859757 0
vt 0.1002559 0.9251722 0
vt 0.003906258 0.9251722 0
vt 0.003989153 0.2750472 0
vt 0.003906278 0.3723314 0
vt 0.5626728 0.1096625 0
vt 0.5626668 0.2060147 0
vt 0.02159457 0.00390625 0
vt 0.003906281 0.1002587 0
vt 0.9154975 0.2699844 0
vt 0.9154975 0.3085233 0
vt 0.8769576 0.3085233 0
vt 0.8769576 0.2699844 0
vt 0.8606442 0.8437682 0
vt 0.899184 0.8437682 0
vt 0.899184 0.8823087 0
vt 0.8606442 0.8823087 0
vt 0.8857444 0.4449322 0
vt 0.8857444 0.5002428 0
vt 0.8207044 0.5002428 0
vt 0.8207044 0.4449322 0
vt 0.847706 0.6952595 0
vt 0.912746 0.6952595 0
vt 0.912746 0.7505701 0
vt 0.847706 0.7505701 0
vt 0.6530695 0.09899921 0
vt 0.6530695 0.06859757 0
vt 0.6818476 0.06859757 0
vt 0.6818476 0.09899921 0
vt 0.8606442 0.8915835 0
vt 0.8894223 0.8915835 0
vt 0.8894223 0.9261261 0
vt 0.8606442 0.9261261 0
vt 0.1681659 0.4291813 0
vt 0.1859892 0.8274547 0
vt 0.1726662 0.9228788 0
vt 0.7136598 0.381366 0
vt 0.4417567 0.381366 0
vt 0.440069 0.4291813 0
vt 0.4417567 0.4199058 0
vt 0.7136598 0.4199058 0
vt 0.2108358 0.928208 0
vt 0.2108358 0.8309238 0
vt 0.1681659 0.4542689 0
vt 0.440069 0.460995 0
vt 0.02329207 0.2154187 0
vt 0.7959528 0.6972971 0
vt 0.8000442 0.7935624 0
vt 0.1482032 0.9416182 0
vt 0.1482029 0.6622349 0
vt 0.3024307 0.2269634 0
vt 0.1096625 0.6613917 0
vt 0.1096625 0.9416856 0
vt 0.8385835 0.7932221 0
vt 0.8385835 0.6952595 0
vt 0.003906288 0.2534414 0
vt 0.3016387 0.26564 0
vt 0.9957736 0.3971169 0
vt 0.9732723 0.6859777 0
vt 0.9739119 0.6474441 0
vt 0.9960938 0.3878414 0
vt 0.9960938 0.3493016 0
vt 0.6080668 0.2221691 0
vt 0.6087064 0.2607027 0
vt 0.9957736 0.4356567 0
vt 0.8813369 0.2221691 0
vt 0.7228236 0.3493016 0
vt 0.7228236 0.3878414 0
vt 0.7006418 0.6474441 0
vt 0.7003222 0.6859833 0
vt 0.7228235 0.3971169 0
vt 0.7228235 0.4356567 0
vt 0.8816565 0.2607083 0
vt 0.8825851 0.1096625 0
vt 0.915212 0.6380634 0
vt 0.915212 0.5827528 0
vt 0.8673967 0.3400872 0
vt 0.8673967 0.2750472 0
vt 0.9140869 0.05921688 0
vt 0.9140869 0.003906281 0
vt 0.8825851 0.1747025 0
vt 0.6035666 0.05921688 0
vt 0.5568764 0.2750472 0
vt 0.5568764 0.3400872 0
vt 0.6046917 0.5827528 0
vt 0.6046917 0.6380634 0
vt 0.5720648 0.1096625 0
vt 0.5720648 0.1747025 0
vt 0.6035666 0.003906281 0
vt 0.9149956 0.1839169 0
vt 0.7910742 0.4920673 0
vt 0.8116469 0.4696837 0
vt 0.5960788 0.5732787 0
vt 0.5960788 0.5445006 0
vt 0.5039982 0.5101861 0
vt 0.5245709 0.5325696 0
vt 0.9149956 0.212695 0
vt 0.8570942 0.5101861 0
vt 0.2429828 0.5445006 0
vt 0.2429828 0.5732787 0
vt 0.458551 0.4696837 0
vt 0.4483074 0.5026724 0
vt 0.5720648 0.1839169 0
vt 0.5720648 0.212695 0
vt 0.8673377 0.5431748 0
vt 0.1698536 0.381366 0
vt 0.8919395 0.7965154 0
vt 0.7965155 0.8098384 0
vt 0.7119722 0.4291813 0
vt 0.7999845 0.834685 0
vt 0.7119722 0.4542689 0
vt 0.1698536 0.4199058 0
vt 0.8972687 0.834685 0
vt 0.1604223 0.3831189 0
vt 0.3390357 0.4698374 0
vt 0.2427703 0.465746 0
vt 0.5818079 0.2268556 0
vt 0.2407327 0.5083767 0
vt 0.5996209 0.26564 0
vt 0.1219214 0.381366 0
vt 0.3386953 0.5083767 0
vt 0.7388621 0.6952594 0
vt 0.6046916 0.6474441 0
vt 0.7003222 0.6952594 0
vt 0.6525069 0.9210338 0
vt 0.7866774 0.6952594 0
vt 0.6910405 0.9203942 0
vt 0.6432251 0.6480838 0
vt 0.7481376 0.6952594 0
vt 0.7866774 0.9682095 0
vt 0.6910461 0.6474441 0
vt 0.7003222 0.9685296 0
vt 0.6525069 0.6477637 0
vt 0.7388621 0.9685296 0
vt 0.6046916 0.9207143 0
vt 0.6432307 0.9210338 0
vt 0.7481376 0.9682095 0
vt 0.4278424 0.5827528 0
vt 0.5400003 0.5827528 0
vt 0.3628024 0.5827528 0
vt 0.5306196 0.5827528 0
vt 0.353588 0.5827528 0
vt 0.475309 0.5827528 0
vt 0.5953109 0.5827528 0
vt 0.288548 0.5827528 0
vt 0.353588 0.8932732 0
vt 0.475309 0.8932732 0
vt 0.3628024 0.8932732 0
vt 0.5306196 0.8932732 0
vt 0.4278424 0.8932732 0
vt 0.5400003 0.8932732 0
vt 0.5953109 0.8932732 0
vt 0.288548 0.8932732 0
vt 0.2790738 0.5827528 0
vt 0.2081058 0.4646209 0
vt 0.2502957 0.5827528 0
vt 0.1659158 0.8279604 0
vt 0.4658348 0.5827528 0
vt 0.1882994 0.8073877 0
vt 0.2304893 0.4851936 0
vt 0.4370567 0.5827528 0
vt 0.4658348 0.9256837 0
vt 0.1989046 0.4646209 0
vt 0.2502957 0.9358488 0
vt 0.1659158 0.4748644 0
vt 0.2790738 0.9358488 0
vt 0.2081058 0.8177169 0
vt 0.2410945 0.8279604 0
vt 0.4370567 0.9256837 0
#end 208 textures vertices 

#begin 52 normals 
vn -0.5774 -0.5774 -0.5774
vn 0 -0.7071 -0.7071
vn 0 -0.7071 0.7071
vn -0.5774 -0.5774 0.5774
vn -0.5704 0.6196 -0.5391
vn -0.591 0.5247 0.6127
vn 0 0.6877 0.726
vn 0 0.7313 -0.682
vn -0.5637 -0.5921 -0.5759
vn -0 -0.7031 -0.711
vn 0 -0.7013 0.7128
vn -0.4164 -0.6784 0.6053
vn -0.5315 0.5727 -0.6242
vn -0.7578 0.4204 0.499
vn -0 0.7132 0.701
vn 0 0.7104 -0.7038
vn -0.5765 -0.583 0.5725
vn 0.5765 -0.583 0.5725
vn 0.5782 0.5716 0.5822
vn -0.5782 0.5716 0.5822
vn -0.5778 -0.5694 -0.5847
vn -0.5769 0.5852 -0.5698
vn 0.5769 0.5852 -0.5698
vn 0.5778 -0.5694 -0.5847
vn 0.5774 -0.5774 -0.5774
vn 0.5774 -0.5774 0.5774
vn -0.5774 0.5774 -0.5773
vn -0.5773 0.5774 0.5774
vn 0.5774 0.5773 0.5774
vn 0.5774 0.5774 -0.5773
vn -0.548 -0.7833 0.2934
vn 0.548 -0.7833 0.2937
vn 0.6293 0.2613 0.7319
vn -0.6293 0.2613 0.7319
vn -0.5949 -0.1101 -0.7963
vn -0.5619 0.8211 -0.1006
vn 0.5619 0.8211 -0.1005
vn 0.5948 -0.11 -0.7963
vn 0.5704 0.6196 -0.5391
vn 0.591 0.5247 0.6127
vn 0.5637 -0.5921 -0.5759
vn 0.4164 -0.6784 0.6053
vn 0.5315 0.5727 -0.6242
vn 0.7578 0.4204 0.499
vn -0.5774 0.5773 0.5774
vn 0.5773 0.5774 0.5774
vn 0.548 -0.7833 0.2934
vn -0.548 -0.7833 0.2937
vn 0.5949 -0.1101 -0.7963
vn -0.5948 -0.11 -0.7963
vn -0.5619 0.8211 -0.1005
vn 0.5619 0.8211 -0.1006
#end 52 normals 

#begin 56 faces
o bridge_end
g bridge_end
s 2
f 1/1/1 2/2/2 3/3/3 4/4/4 
s 4
f 5/5/5 6/6/6 7/7/7 8/8/8 
s 8
f 1/76/1 5/80/5 8/79/8 2/77/2 
s 64
f 4/74/4 6/82/6 5/81/5 1/75/1 
s 2
f 9/9/9 10/10/10 11/11/11 12/12/12 
s 4
f 13/13/13 14/14/14 15/15/15 16/16/16 
s 8
f 9/88/9 13/92/13 16/91/16 10/89/10 
s 64
f 12/86/12 14/94/14 13/93/13 9/87/9 
s 2
f 17/17/17 18/18/18 19/19/19 20/20/20 
s 4
f 21/21/21 22/22/22 23/23/23 24/24/24 
s 8
f 17/100/17 21/107/21 24/106/24 18/101/18 
s 16
f 18/102/18 24/105/24 23/112/23 19/103/19 
s 32
f 19/104/19 23/111/23 22/110/22 20/97/20 
s 64
f 20/98/20 22/109/22 21/108/21 17/99/17 
s 2
f 25/25/1 26/26/25 27/27/26 28/28/4 
s 4
f 29/29/27 30/30/28 31/31/29 32/32/30 
s 8
f 25/116/1 29/123/27 32/122/30 26/117/25 
s 16
f 26/118/25 32/121/30 31/128/29 27/119/26 
s 32
f 27/120/26 31/127/29 30/126/28 28/113/4 
s 64
f 28/114/4 30/125/28 29/124/27 25/115/1 
s 2
f 33/33/31 34/34/32 35/35/33 36/36/34 
s 4
f 37/37/35 38/38/36 39/39/37 40/40/38 
s 8
f 33/132/31 37/139/35 40/138/38 34/133/32 
s 16
f 34/134/32 40/137/38 39/144/37 35/135/33 
s 32
f 35/136/33 39/143/37 38/142/36 36/129/34 
s 64
f 36/130/34 38/141/36 37/140/35 33/131/31 
s 32
f 3/78/3 7/84/7 6/83/6 4/73/4 
f 11/90/11 15/96/15 14/95/14 12/85/12 
s 2
f 41/41/25 42/42/26 3/3/3 2/2/2 
s 4
f 43/43/39 8/8/8 7/7/7 44/44/40 
s 8
f 41/145/25 2/77/2 8/79/8 43/151/39 
s 64
f 42/147/26 41/146/25 43/152/39 44/149/40 
s 2
f 45/45/41 46/46/42 11/11/11 10/10/10 
s 4
f 47/47/43 16/16/16 15/15/15 48/48/44 
s 8
f 45/153/41 10/89/10 16/91/16 47/159/43 
s 64
f 46/155/42 45/154/41 47/160/43 48/157/44 
s 2
f 49/49/18 50/50/19 51/51/20 52/52/17 
s 4
f 53/53/24 54/54/21 55/55/22 56/56/23 
s 8
f 49/163/18 52/161/17 54/173/21 53/171/24 
s 16
f 52/162/17 51/167/20 55/175/22 54/174/21 
s 32
f 51/168/20 50/165/19 56/169/23 55/176/22 
s 64
f 50/166/19 49/164/18 53/172/24 56/170/23 
s 2
f 57/57/25 58/58/26 59/59/4 60/60/1 
s 4
f 61/61/30 62/62/27 63/63/45 64/64/46 
s 8
f 57/179/25 60/177/1 62/189/27 61/187/30 
s 16
f 60/178/1 59/183/4 63/191/45 62/190/27 
s 32
f 59/184/4 58/181/26 64/185/46 63/192/45 
s 64
f 58/182/26 57/180/25 61/188/30 64/186/46 
s 2
f 65/65/47 66/66/33 67/67/34 68/68/48 
s 4
f 69/69/49 70/70/50 71/71/51 72/72/52 
s 8
f 65/195/47 68/193/48 70/205/50 69/203/49 
s 16
f 68/194/48 67/199/34 71/207/51 70/206/50 
s 32
f 67/200/34 66/197/33 72/201/52 71/208/51 
s 64
f 66/198/33 65/196/47 69/204/49 72/202/52 
s 32
f 3/78/3 42/148/26 44/150/40 7/84/7 
f 11/90/11 46/156/42 48/158/44 15/96/15 
#end 56 faces

#ZOMPROPERTIES_04{
#ZOMPROPERTIES_04 table {Mesh table {SymPlane table {Point vector3d 0 0 0 Normal vector3d 1 0 0 Threshold double 0.01 
#ZOMPROPERTIES_04 Enabled bool false EdgeID int -1 SymEdgeID int -1 UPos double 0.5 LocalMode bool false } RootGroup C
#ZOMPROPERTIES_04 SubMeshGroup {Children table {Tile_0_0 CSubMeshGroup {Children table {} BBoxUV box3d 0 0 0 0 0 0 BBo
#ZOMPROPERTIES_04 x3D box3d 0 0 0 0 0 0 Area3D double 0 AreaUV double 0 IsRoot bool false Properties table {Selected b
#ZOMPROPERTIES_04 ool false Box box3d 0 1 0 1 0 1 U int 0 V int 0 NU int 0 NV int 0 Pack table {BoxFrameEdit bool fals
#ZOMPROPERTIES_04 e Behavior string "Free" Locked bool false Scaling table {Optimization string "Fill" } } Hotspot tab
#ZOMPROPERTIES_04 le {} } IsTile bool true PolyIDs ints { 20 48 21 49 36 8 37 9 31 3 42 14 43 15 35 7 53 51 23 25 24 5
#ZOMPROPERTIES_04 2 22 50 40 12 13 11 41 39 10 38 26 54 17 45 19 47 16 18 46 44 2 30 6 34 27 55 0 28 1 29 4 32 5 33 } 
#ZOMPROPERTIES_04 } } BBoxUV box3d 0 0 0 0 0 0 BBox3D box3d 0 0 0 0 0 0 Area3D double 0 AreaUV double 0 IsRoot bool tr
#ZOMPROPERTIES_04 ue Properties table {Selected bool false Box box3d 0 1 0 1 0 1 U int 0 V int 0 NU int 1 NV int 1 Pac
#ZOMPROPERTIES_04 k table {Rotate table {Initial string "Automatic" Min double 0 Max double 90 Step double 0 } Resolut
#ZOMPROPERTIES_04 ionDivisor int 0 MapResolution int 2048 UsePixelUnit bool true PaddingSize double 0.0078125 MarginSi
#ZOMPROPERTIES_04 ze double 0.00390625 PaddingSizePx int 16 MarginSizePx int 8 Scaling table {TexelDensity double 1024
#ZOMPROPERTIES_04  Mode int 2 Optimization string "Fill" } MaxMutations int 1 Strategy string "Efficient" Sides string
#ZOMPROPERTIES_04  "Closed" } Hotspot table {} Tiling vector3d 1 1 1 TileRatioMode string "1:1" } IsTile bool false Po
#ZOMPROPERTIES_04 lyIDs ints { } } Maps table {Pin CDataMap {PrimType string "Vertex" Size int 1 DefaultValue double 0
#ZOMPROPERTIES_04  ScaleType string "Normalized" MergeMode string "Max" MinValue double 0 MaxValue double 1 Data doubl
#ZOMPROPERTIES_04 es { r 208 0 } } Density CDataMap {PrimType string "Polygon" Size int 1 DefaultValue double 1 ScaleT
#ZOMPROPERTIES_04 ype string "Log" MergeMode string "Average" MinValue double 0.1 MaxValue double 4 Data doubles { r 5
#ZOMPROPERTIES_04 6 1 } } Protect CDataMap {PrimType string "Vertex" Size int 1 DefaultValue double 0 ScaleType string
#ZOMPROPERTIES_04  "Normalized" MergeMode string "Average" MinValue double -1 MaxValue double 1 Data doubles { r 208 0
#ZOMPROPERTIES_04  } } } } }
#ZOMPROPERTIES_04}


#ZOMSCENE_01{
#ZOMSCENE_01 CScene {Settings table {AxisSystem table {UpVector string "y" } Unit string "cm" TexelDensityDisplay
#ZOMSCENE_01 Unit string "tx/cm" } Root CXForm {bridge_end CPrim {PolyRange table {Low int 0 High int 55 } } } }
#ZOMSCENE_01}

#begin 0 fatal error vertex (that RizomUV cannot handle)
#end 0 fatal error vertex (that RizomUV cannot handle)

#begin 0 error vertex
#end 0 error vertex
