#File written by RizomUV 2025.0.101.g577a16f3. Compilation :Sep 18 2025,15:37:21
#begin vertices
v -17.8879 49.6133 17.8879
v 17.8879 49.6133 17.8879
v 17.8879 49.6133 -17.8879
v -17.8879 49.6133 -17.8879
v -17.8879 33.7129 17.8879
v -17.8879 33.7129 -17.8879
v 17.8879 33.7129 -17.8879
v 17.8879 33.7129 17.8879
v -18.9358 49.6518 18.9358
v -18.9358 38.2638 18.9358
v 18.9358 38.7655 18.9358
v 18.9358 49.6518 18.9358
v 18.9358 39.1028 -18.9358
v 18.9358 49.6518 -18.9358
v -18.9358 38.7337 -18.9358
v -18.9358 49.6518 -18.9358
v -17.8879 -33.7514 15.6132
v -17.0729 -33.7514 17.0729
v -15.6132 -33.7514 17.8879
v 17.8879 -33.7514 17.8879
v 17.8879 -33.7514 -17.8879
v -17.8879 -33.7514 -17.8879
v -17.8879 -49.6518 17.8879
v -17.8879 -49.6518 -17.8879
v 17.8879 -49.6518 -17.8879
v 17.8879 -49.6518 17.8879
v -18.9358 -36.2157 18.9358
v -18.9358 -38.6144 18.9358
v 18.9358 -38.6104 18.9358
v 18.0666 -37.0849 18.9358
v 16.5411 -36.2157 18.9358
v 18.9358 -36.2157 16.5411
v 18.9358 -37.0849 18.0666
v 18.9358 -38.4069 -18.9358
v 18.9358 -36.2157 -18.9358
v -18.9358 -38.8663 -18.9358
v -18.9358 -36.2157 -18.9358
v -14.6564 -33.8706 -15.2552
v -14.6564 -11.2126 -15.2552
v 13.1693 -11.2126 -15.2552
v 13.1693 -33.8706 -15.2552
v -14.6564 -33.8706 12.5705
v 8.6337 -33.8706 12.5705
v 11.5442 -32.2455 12.5705
v 13.1693 -29.3351 12.5705
v 13.1693 -11.2126 12.5705
v -11.7223 -11.2126 12.5705
v -13.6051 -12.2639 12.5705
v -14.6564 -14.1467 12.5705
v 13.1693 -33.8706 8.0349
v 11.5442 -33.8706 10.9454
v 13.1693 -32.2455 10.9454
v -14.6564 -11.2126 9.6364
v -13.6051 -11.2126 11.5192
v -14.6564 -12.2639 11.5192
v -12.5941 -10.4027 -15.9427
v -12.5941 8.6502 -15.9427
v -11.3384 10.9996 -15.9427
v -8.989 12.2554 -15.9427
v 12.5709 12.2554 -15.9427
v 12.5709 -4.2886 -15.9427
v 10.4413 -8.273 -15.9427
v 6.4568 -10.4027 -15.9427
v -12.5941 -10.4027 11.0485
v 12.5709 -10.4027 11.0485
v 12.5709 7.4978 11.0485
v 10.8663 10.5507 11.0485
v 7.8134 12.2553 11.0485
v -12.5941 12.2553 11.0485
v 10.4413 -10.4027 -13.813
v 12.5709 -10.4027 -9.8286
v 12.5709 -8.273 -13.813
v 12.5709 12.2553 6.2909
v 12.5709 10.5507 9.3438
v -11.3384 12.2554 -14.6869
v -12.5941 12.2554 -12.3375
v 10.8663 12.2553 9.3438
v -12.5941 10.9996 -14.6869
v -13.8685 15.9475 -14.2836
v -13.8685 22.2783 -14.2836
v 4.9746 22.2783 -14.2836
v 8.694 19.2413 -14.2836
v 11.7311 15.5218 -14.2836
v 11.7311 16.6007 11.5943
v 11.7311 22.2783 11.5943
v -5.6731 22.2783 11.5943
v -10.9321 19.3419 11.5943
v -13.8685 13.2321 -14.2836
v 11.7311 13.2321 -14.2836
v 11.7311 13.2321 11.5943
v -13.8685 13.2321 11.5943
v 11.7311 19.2413 -11.2465
v 11.7311 22.2783 -7.5271
v 11.7311 35.8902 -14.2836
v -13.8685 35.8902 -14.2836
v -13.8685 35.8902 11.5943
v 11.7311 35.8902 11.5943
v -13.8685 28.2911 -14.2836
v -13.8685 30.4738 11.5943
v -10.6894 -43.5609 8.3191
v -10.6894 -43.5609 -8.5831
v 8.4006 -43.5609 -8.5831
v 8.4006 -43.5609 8.3191
v -10.6894 46.2035 8.3191
v 8.4006 46.2035 8.3191
v 8.4006 46.2035 -8.5831
v -10.6894 46.2035 -8.5831
v -18.2003 34.4601 18.2003
v -18.6004 35.4174 17.6684
v -18.9358 36.2197 16.8917
v -18.9358 36.2197 -18.9358
v -18.2822 34.656 -18.2822
v 18.413 34.969 18.413
v 18.9358 36.2197 18.9358
v -16.8917 36.2197 18.9358
v -17.6684 35.4174 18.6004
v 18.33 34.7704 -18.33
v 18.9358 36.2197 -18.9358
v -17.3888 -34.4245 18.1741
v -18.7169 -35.7009 18.7169
v 17.6918 -35.4344 18.6036
v 18.0632 -34.1635 18.0632
v -18.1741 -34.4245 17.3888
v 18.6036 -35.4344 17.6918
v -18.1423 -49.6509 18.1423
v -18.6117 -49.6491 18.1534
v -18.9358 -49.6478 17.8136
v -18.9358 -49.6478 -18.9358
v 18.9358 -49.6478 18.9358
v -17.8136 -49.6478 18.9358
v -18.1534 -49.6491 18.6117
v 18.9358 -49.6478 -18.9358
v 11.7311 29.0348 -14.2836
v 11.7311 28.3259 11.5943
v -13.8685 19.3419 8.6579
v -13.8685 22.2783 3.3989
v -11.4616 20.3207 11.145
v -9.973 22.2783 11.0955
v -12.5206 22.2783 10.2463
v -13.1946 18.1806 10.9203
v -13.8685 14.0829 11.5943
v -13.4192 24.236 9.1874
v -13.3698 22.2783 7.6987
v -13.1946 26.376 10.9203
v -13.8685 25.2148 8.6579
v -11.4616 24.236 11.145
v -10.9321 25.2148 11.5943
v -13.4192 20.3207 9.1874
v 11.0828 10.7672 10.7706
v 12.1849 9.4905 10.6624
v 11.5276 11.212 10.0051
v 9.8061 11.8693 10.6624
v 12.2931 10.7672 9.5603
v 12.1849 11.8693 8.2836
v 11.0828 11.9775 9.5603
v -13.7387 -12.1303 12.3991
v -12.9513 -11.4507 12.3324
v -14.013 -11.856 11.927
v -14.4183 -12.9177 12.3324
v -13.7387 -11.384 11.6527
v -14.4183 -11.4507 10.8654
v -14.485 -12.1303 11.6527
v 11.7506 -32.4519 12.3056
v 10.5335 -33.5026 12.2025
v 12.1746 -32.876 11.5758
v 12.8012 -31.2348 12.2025
v 11.7506 -33.6057 11.1518
v 12.8012 -33.5026 9.9347
v 12.9043 -32.4519 11.1518
v -17.2422 -33.8724 17.2422
v -17.7632 -33.9052 16.6651
v -17.5709 -34.179 17.5709
v -16.6651 -33.9052 17.7632
v -17.4495 -34.3426 17.973
v -18.2162 -34.9574 18.2162
v -17.973 -34.3426 17.4495
v -18.5574 -49.3139 18.829
v -18.8152 -48.9969 18.8152
v -18.6153 -49.4606 18.6153
v -18.2344 -49.5854 18.8079
v -18.5285 -49.2405 18.9358
v -18.9358 -48.5257 18.9358
v -18.829 -49.3139 18.5574
v -18.8079 -49.5854 18.2344
v -18.9358 -49.2405 18.5285
v -18.6293 -49.5902 18.3393
v -18.4472 -49.5788 18.4472
v -18.3393 -49.5902 18.6293
v 18.1741 -36.8143 18.7536
v 18.6625 -37.4417 18.6625
v 18.3892 -36.273 18.3892
v 17.6528 -36.2175 18.724
v 18.7536 -36.8143 18.1741
v 18.724 -36.2175 17.6528
v 17.9323 -35.6955 18.556
v 18.2262 -35.2183 18.2262
v 18.556 -35.6955 17.9323
v 10.7152 -8.5469 -15.6082
v 12.1116 -6.8864 -15.4834
v 11.2792 -9.111 -14.6509
v 9.0546 -9.9434 -15.4834
v 10.7152 -10.0683 -14.0869
v 12.1116 -9.9434 -12.4263
v 12.2365 -8.5469 -14.0869
v -11.4999 11.1611 -15.7455
v -12.3233 10.182 -15.6719
v -11.8324 11.4937 -15.181
v -10.5207 11.9845 -15.6719
v -11.4999 12.0582 -14.8484
v -12.3233 11.9845 -13.8693
v -12.3969 11.1611 -14.8484
v 9.212 20.2536 -13.7892
v 7.8687 22.2783 -13.5935
v 10.2479 22.2783 -12.8004
v 10.9895 18.9001 -13.542
v 11.2367 20.2536 -11.7645
v 11.041 22.2783 -10.4212
v 9.212 24.303 -13.7892
v 10.9895 25.6566 -13.542
v 8.694 25.3154 -14.2836
v 11.2367 24.303 -11.7645
v 11.7311 25.3154 -11.2465
v -18.1198 36.8531 18.7324
v -18.6307 37.273 18.6307
v -18.3256 36.2821 18.3256
v -17.668 36.2426 18.65
v -18.017 37.1385 18.9358
v -18.7324 36.8531 18.1198
v -18.65 36.2426 17.668
v -18.9358 37.1385 18.017
v -18.5163 35.6997 17.8898
v -18.2629 35.3711 18.2629
v -17.8898 35.6997 18.5163
v 18.9358 -44.0078 18.9358
v 18.9358 -43.9038 -18.9358
v -18.9358 -44.1386 -18.9358
v -18.9358 -43.2848 18.9358
#end vertices

#begin 383 textures vertices 
vt 0.6759203 0.3658484 0
vt 0.6759203 0.1911739 0
vt 0.8505948 0.1911739 0
vt 0.8505948 0.3658484 0
vt 0.5439884 0.7740859 0
vt 0.3693138 0.7740859 0
vt 0.3693138 0.5994114 0
vt 0.5439884 0.5994114 0
vt 0.01667525 0.008276389 0
vt 0.06043908 0.05413309 0
vt 0.05917944 0.258842 0
vt 0.008225013 0.2945835 0
vt 0.2577417 0.252038 0
vt 0.2950064 0.3000659 0
vt 0.2517109 0.05045062 0
vt 0.3012197 0.0128222 0
vt 0.3093994 0.1120675 0
vt 0.3133791 0.1050141 0
vt 0.3204316 0.1010329 0
vt 0.4840565 0.1009619 0
vt 0.4840565 0.2756556 0
vt 0.3093629 0.2756924 0
vt 0.8505948 0.1819988 0
vt 0.6759203 0.1819988 0
vt 0.6759203 0.007324242 0
vt 0.8505948 0.007324242 0
vt 0.5201129 0.356711 0
vt 0.5271288 0.3428791 0
vt 0.52725 0.5463263 0
vt 0.5209038 0.5350416 0
vt 0.5173672 0.523351 0
vt 0.5110926 0.527665 0
vt 0.522279 0.5305821 0
vt 0.3364553 0.5456587 0
vt 0.3479864 0.5372941 0
vt 0.3358794 0.354753 0
vt 0.345731 0.368605 0
vt 0.9316804 0.8021027 0
vt 0.9316804 0.9127299 0
vt 0.7958221 0.9127299 0
vt 0.7958221 0.8021027 0
vt 0.007324278 0.7564273 0
vt 0.1210385 0.7564258 0
vt 0.135212 0.7644019 0
vt 0.1431884 0.7785748 0
vt 0.1431886 0.8670577 0
vt 0.02165352 0.8670577 0
vt 0.01248506 0.8618983 0
vt 0.007325462 0.85273 0
vt 0.3486556 0.714536 0
vt 0.3407159 0.7284089 0
vt 0.3550222 0.9111477 0
vt 0.8117366 0.4967371 0
vt 0.806596 0.5056947 0
vt 0.6810794 0.9328036 0
vt 0.2649518 0.8820407 0
vt 0.2649484 0.9750691 0
vt 0.2587815 0.986509 0
vt 0.2473414 0.9926758 0
vt 0.1420712 0.9926758 0
vt 0.1420716 0.9119 0
vt 0.152532 0.8924972 0
vt 0.1719357 0.8820373 0
vt 0.3700336 0.3910104 0
vt 0.4930736 0.3910104 0
vt 0.4926691 0.4787486 0
vt 0.4842973 0.4932961 0
vt 0.4697262 0.5016104 0
vt 0.3698848 0.5016598 0
vt 0.7883375 0.5305082 0
vt 0.7987959 0.5499104 0
vt 0.8188039 0.5260179 0
vt 0.9190135 0.6238473 0
vt 0.9107048 0.6384488 0
vt 0.7926275 0.6672426 0
vt 0.7987936 0.6786821 0
vt 0.6842867 0.7844984 0
vt 0.8144972 0.6631247 0
vt 0.9847745 0.1570304 0
vt 0.9846427 0.1879538 0
vt 0.8924229 0.1877032 0
vt 0.8744838 0.1726069 0
vt 0.8599522 0.1543924 0
vt 0.1323627 0.8928938 0
vt 0.1323483 0.9206663 0
vt 0.04730642 0.9206409 0
vt 0.02181428 0.9061414 0
vt 0.2128704 0.7461485 0
vt 0.3378599 0.7461485 0
vt 0.3378599 0.8724967 0
vt 0.2128704 0.8724967 0
vt 0.8892158 0.02202745 0
vt 0.9042906 0.03996325 0
vt 0.09125556 0.08954268 0
vt 0.216245 0.08954268 0
vt 0.216245 0.215891 0
vt 0.09125556 0.215891 0
vt 0.8586235 0.3751647 0
vt 0.8479608 0.5015454 0
vt 0.4048533 0.007324245 0
vt 0.4048533 0.08984887 0
vt 0.3116468 0.08984887 0
vt 0.3116468 0.007324245 0
vt 0.4144199 0.007324245 0
vt 0.5076264 0.007324245 0
vt 0.5076264 0.08984887 0
vt 0.4144199 0.08984887 0
vt 0.07785214 0.07619441 0
vt 0.07524572 0.07204037 0
vt 0.07503359 0.06857112 0
vt 0.2427371 0.06310085 0
vt 0.2341173 0.07175391 0
vt 0.07494593 0.2391993 0
vt 0.06795378 0.2459156 0
vt 0.06931741 0.07374182 0
vt 0.07323101 0.0740013 0
vt 0.2350879 0.2340948 0
vt 0.2431693 0.2418432 0
vt 0.5095438 0.3686386 0
vt 0.5170078 0.3591898 0
vt 0.5146206 0.5234894 0
vt 0.5080112 0.5193213 0
vt 0.5120465 0.3687848 0
vt 0.5125271 0.5239672 0
vt 0.5738859 0.3002275 0
vt 0.5730884 0.3038232 0
vt 0.5690875 0.3052416 0
vt 0.2919015 0.3118637 0
vt 0.5740002 0.5861058 0
vt 0.5711928 0.3065096 0
vt 0.5724172 0.303803 0
vt 0.2926767 0.5905766 0
vt 0.8598007 0.2209063 0
vt 0.1323679 0.950254 0
vt 0.9027587 0.4869737 0
vt 0.8880751 0.4616167 0
vt 0.01893724 0.9109585 0
vt 0.02586903 0.9206355 0
vt 0.0126563 0.9206346 0
vt 0.01008456 0.9009418 0
vt 0.007360904 0.8804816 0
vt 0.8784778 0.4899664 0
vt 0.8881807 0.4830111 0
vt 0.8684415 0.4988378 0
vt 0.8736334 0.4871064 0
vt 0.01893827 0.9303088 0
vt 0.02181658 0.9351252 0
vt 0.8979301 0.489891 0
vt 0.4856866 0.494693 0
vt 0.4911724 0.4887125 0
vt 0.4890972 0.4981226 0
vt 0.4796836 0.500155 0
vt 0.9121029 0.6398367 0
vt 0.9175626 0.6338204 0
vt 0.6828975 0.7858876 0
vt 0.01162787 0.8627555 0
vt 0.01542199 0.8661483 0
vt 0.009519171 0.8648643 0
vt 0.008235003 0.8589615 0
vt 0.8074553 0.5065543 0
vt 0.8108282 0.5028697 0
vt 0.6802221 0.9336604 0
vt 0.1365365 0.7630773 0
vt 0.1306715 0.7578319 0
vt 0.1397961 0.7598172 0
vt 0.1417817 0.7689422 0
vt 0.3420449 0.7297362 0
vt 0.3472567 0.7240265 0
vt 0.3536974 0.9124724 0
vt 0.3124633 0.1040986 0
vt 0.309896 0.1068675 0
vt 0.3105402 0.1021758 0
vt 0.3152317 0.1015306 0
vt 0.5093378 0.3688841 0
vt 0.5134433 0.3647346 0
vt 0.5105852 0.3692268 0
vt 0.5704725 0.3035992 0
vt 0.5682463 0.3023155 0
vt 0.5727821 0.3035618 0
vt 0.5714062 0.3046227 0
vt 0.5696457 0.3038641 0
vt 0.5662033 0.3034951 0
vt 0.5728683 0.3059434 0
vt 0.5716026 0.304941 0
vt 0.5727338 0.3068315 0
vt 0.5724267 0.3039241 0
vt 0.5731532 0.3028428 0
vt 0.5724244 0.3038834 0
vt 0.5190882 0.5333414 0
vt 0.5197659 0.5399534 0
vt 0.5160991 0.5281456 0
vt 0.5174714 0.5280303 0
vt 0.5207662 0.5294819 0
vt 0.5149465 0.527965 0
vt 0.5153464 0.5251581 0
vt 0.5130616 0.5233776 0
vt 0.5136443 0.5255345 0
vt 0.1508112 0.8907764 0
vt 0.1438654 0.8987902 0
vt 0.1465091 0.8864736 0
vt 0.1588258 0.8838304 0
vt 0.7900582 0.5287877 0
vt 0.7970035 0.5368017 0
vt 0.817073 0.5242992 0
vt 0.2597961 0.9875236 0
vt 0.2638914 0.9827987 0
vt 0.2623326 0.9900608 0
vt 0.2550706 0.9916187 0
vt 0.7936421 0.666228 0
vt 0.7977373 0.6709527 0
vt 0.8134759 0.6621115 0
vt 0.8714762 0.1776922 0
vt 0.8776628 0.1876654 0
vt 0.8653104 0.1876444 0
vt 0.8626996 0.1712341 0
vt 0.8942906 0.0190179 0
vt 0.9042648 0.02520377 0
vt 0.8714327 0.1976141 0
vt 0.8626247 0.2040473 0
vt 0.8744204 0.2027014 0
vt 0.9142102 0.01897369 0
vt 0.9193071 0.02195906 0
vt 0.06722292 0.06479072 0
vt 0.06663802 0.05956241 0
vt 0.06989974 0.0690343 0
vt 0.06922533 0.07057479 0
vt 0.06531363 0.06399436 0
vt 0.06618153 0.06706084 0
vt 0.07165472 0.06848785 0
vt 0.06542894 0.06534894 0
vt 0.07345139 0.07097533 0
vt 0.07385917 0.07267235 0
vt 0.07200102 0.07228702 0
vt 0.5549608 0.5601549 0
vt 0.314242 0.5670476 0
vt 0.3148896 0.3326509 0
vt 0.5522535 0.3303987 0
vt 0.6991538 0.7928655 0
vt 0.3021408 0.01211081 0
vt 0.7987918 0.6518419 0
vt 0.8083833 0.6474546 0
vt 0.01590884 0.00732424 0
vt 0.8961603 0.6468548 0
vt 0.007324251 0.2952717 0
vt 0.2958295 0.3008753 0
vt 0.08206663 0.2323552 0
vt 0.7987936 0.7928656 0
vt 0.8084604 0.7885928 0
vt 0.08206663 0.08027646 0
vt 0.2288841 0.07703218 0
vt 0.8084183 0.5451057 0
vt 0.2290392 0.2283686 0
vt 0.6759202 0.7696313 0
vt 0.05603875 0.06108165 0
vt 0.05370937 0.2547057 0
vt 0.8083833 0.6743329 0
vt 0.2542422 0.2571629 0
vt 0.9187882 0.37509 0
vt 0.2565339 0.05374766 0
vt 0.8879905 0.3751516 0
vt 0.359659 0.381544 0
vt 0.5044698 0.3739988 0
vt 0.5038079 0.3744822 0
vt 0.8767732 0.1336459 0
vt 0.5061122 0.5162357 0
vt 0.9044448 0.133544 0
vt 0.3606509 0.5232843 0
vt 0.5747297 0.5870083 0
vt 0.5747297 0.3009971 0
vt 0.9320611 0.3750235 0
vt 0.9848248 0.1437705 0
vt 0.2910921 0.3109191 0
vt 0.8599918 0.1432131 0
vt 0.8597698 0.007527259 0
vt 0.291917 0.5913951 0
vt 0.0073543 0.8763277 0
vt 0.9326213 0.5013121 0
vt 0.5323896 0.3480476 0
vt 0.3403063 0.5486265 0
vt 0.3326251 0.3587922 0
vt 0.3488211 0.6005533 0
vt 0.3470487 0.783261 0
vt 0.2128704 0.600722 0
vt 0.786549 0.8021036 0
vt 0.8119556 0.3750235 0
vt 0.6759212 0.8021027 0
vt 0.4576774 0.7832632 0
vt 0.6760346 0.3750235 0
vt 0.6902476 0.9379629 0
vt 0.2128704 0.7366728 0
vt 0.786549 0.9379631 0
vt 0.3268528 0.7363659 0
vt 0.3691949 0.9191239 0
vt 0.4576774 0.9191243 0
vt 0.6759203 0.5109445 0
vt 0.7976341 0.5108278 0
vt 0.3470464 0.8969743 0
vt 0.6759202 0.9236354 0
vt 0.7689354 0.5200484 0
vt 0.6759203 0.5200477 0
vt 0.9190392 0.6565075 0
vt 0.8256835 0.6569524 0
vt 0.7811881 0.6610759 0
vt 0.9190135 0.514909 0
vt 0.6759209 0.6610752 0
vt 0.8378247 0.5155034 0
vt 0.6759203 0.6518364 0
vt 0.9190392 0.7885095 0
vt 0.8603229 0.133704 0
vt 0.1323369 0.8764403 0
vt 0.1323146 0.9872052 0
vt 0.9709259 0.1335521 0
vt 0.9709259 0.007324219 0
vt 0.8597698 0.2543742 0
vt 0.9846324 0.2543742 0
vt 0.8215155 0.375178 0
vt 0.8215155 0.5015529 0
vt 0.007324219 0.9872052 0
vt 0.9846439 0.2172622 0
vt 0.007363085 0.9607663 0
vt 0.2033039 0.3087919 0
vt 0.5839954 0.4549581 0
vt 0.1100973 0.3087919 0
vt 0.66652 0.007324235 0
vt 0.1005308 0.3065081 0
vt 0.5839954 0.007324235 0
vt 0.66652 0.4549581 0
vt 0.007324264 0.3065081 0
vt 0.1005308 0.7447808 0
vt 0.5839954 0.445597 0
vt 0.1100973 0.7470647 0
vt 0.66652 0.445597 0
vt 0.2033039 0.7470647 0
vt 0.5839954 0.8932308 0
vt 0.66652 0.8932308 0
vt 0.007324264 0.7447808 0
vt 0.9374562 0.007348217 0
vt 0.933986 0.1335577 0
vt 0.8882318 0.4962209 0
vt 0.9080207 0.4986861 0
vt 0.9284672 0.5013274 0
vt 0.01008691 0.9403205 0
vt 0.906126 0.6453357 0
vt 0.9155356 0.6432448 0
vt 0.6794781 0.7893069 0
vt 0.6890495 0.79139 0
vt 0.6773952 0.7797355 0
vt 0.8037674 0.5099245 0
vt 0.8095633 0.5086641 0
vt 0.6781137 0.9357688 0
vt 0.6840162 0.9370535 0
vt 0.6768295 0.9298668 0
vt 0.3363416 0.7349556 0
vt 0.3453071 0.7329944 0
vt 0.3504376 0.9157317 0
vt 0.3595623 0.917718 0
vt 0.3484521 0.9066074 0
vt 0.5087023 0.3727438 0
vt 0.5083679 0.3701474 0
vt 0.5047928 0.3709515 0
vt 0.5739281 0.3085041 0
vt 0.5721087 0.3112125 0
vt 0.5269387 0.5289833 0
vt 0.5338312 0.5359712 0
vt 0.8248785 0.5173527 0
vt 0.8127539 0.5200112 0
vt 0.7943605 0.5244856 0
vt 0.7820445 0.5218415 0
vt 0.8101782 0.5321538 0
vt 0.8180646 0.6580269 0
vt 0.8109283 0.6595841 0
vt 0.7961787 0.663691 0
vt 0.788917 0.6621323 0
vt 0.8094161 0.6667231 0
vt 0.9042349 0.01285169 0
vt 0.887822 0.01023904 0
vt 0.8709489 0.007491233 0
vt 0.9206312 0.01016873 0
vt 0.06125078 0.06691326 0
vt 0.550166 0.5661534 0
vt 0.3175774 0.5708104 0
vt 0.311413 0.3363751 0
vt 0.5450981 0.3230735 0
#end 383 textures vertices 

#begin 222 normals 
vn 0.0138 0.9998 -0.0138
vn -0.0138 0.9998 -0.0138
vn -0.0138 0.9998 0.0138
vn 0.0138 0.9998 0.0138
vn 0 -1 -0
vn -0.7071 0 0.7071
vn -0.7045 -0.0854 0.7045
vn 0 0 1
vn 1 0 -0
vn 0 0 -1
vn -1 0 -0
vn -0.1017 0.9937 0.0479
vn -0.1545 0.9758 0.1545
vn -0.0479 0.9937 0.1017
vn 0 1 -0
vn -0.0014 -1 0.0014
vn -0.0014 -1 -0.0014
vn 0.0014 -1 -0.0014
vn 0.0014 -1 0.0014
vn 0 0.1727 0.985
vn 0.7062 0.0511 0.7062
vn 0.2509 0.193 0.9486
vn 0.0402 0.2026 0.9784
vn 0.9784 0.2026 0.0402
vn 0.9486 0.193 0.2509
vn 0.985 0.1727 0
vn 0 0.1727 -0.985
vn -0.985 0.1727 -0
vn 0 -0 1
vn -0 1 0
vn 0 1 0
vn -0 0 -1
vn 0.0552 0 -0.9985
vn 0.1597 0.1484 -0.9759
vn 0.058 0.0473 -0.9972
vn -0 -0 1
vn -0.0244 -0 0.9997
vn -0.1662 0.1259 0.978
vn 0.9972 0.0473 -0.058
vn 0.9759 0.1484 -0.1597
vn 0.9985 -0 -0.0552
vn -1 -0 -0
vn -0.9985 -0.0269 0.0481
vn 0.0184 0.9997 -0.0184
vn -0.0184 0.9997 -0.0184
vn 0.0184 0.9997 0.0184
vn -0.0184 0.9997 0.0184
vn -0.6444 -0.4118 0.6444
vn -0.9432 -0.2297 0.2401
vn -0.9754 -0.2019 0.0889
vn -0.9854 -0.1705 0
vn -0.9226 -0.3857 0
vn -0 -0.3857 0.9226
vn -0 -0.1705 0.9854
vn -0.0889 -0.2019 0.9754
vn -0.2401 -0.2297 0.9432
vn 0.9226 -0.3857 -0
vn 0.9854 -0.1705 -0
vn 0 -0.3857 -0.9226
vn 0 -0.1705 -0.9854
vn 0.606 0.5153 0.606
vn 0 0.3913 0.9203
vn 0.2274 0.2753 0.9341
vn 0.6267 0.463 0.6267
vn -0.9203 0.3913 -0
vn 0 0.3913 -0.9203
vn 0.9203 0.3913 0
vn 0.9341 0.2753 0.2274
vn -0.0344 -0.9988 0.0344
vn -0.0853 -0.985 0.15
vn -0.1434 -0.9856 0.0893
vn -0.0019 -1 -0.0019
vn 0.0019 -1 0.0019
vn -0.0893 -0.9856 0.1434
vn -0.15 -0.985 0.0853
vn 0.0019 -1 -0.0019
vn 0.058 -0.0473 -0.9972
vn -0 0 1
vn -0.0481 -0.0269 0.9985
vn 0.9972 -0.0473 -0.058
vn 1 -0 -0
vn -0.978 0.1259 0.1662
vn -0.9997 -0 0.0244
vn -0.2898 0.2223 0.9309
vn -0.2128 0 0.9771
vn -0.3537 0 0.9354
vn -0.3708 0.2142 0.9037
vn -0.0481 0.0269 0.9985
vn -0.9309 -0.2223 0.2898
vn -0.9771 0 0.2128
vn -0.9354 0 0.3537
vn -0.9037 -0.2142 0.3708
vn -0.978 -0.1259 0.1662
vn -0.2898 -0.2223 0.9309
vn -0.3708 -0.2142 0.9037
vn -0.1662 -0.1259 0.978
vn -0.9309 0.2223 0.2898
vn -0.9037 0.2142 0.3708
vn -0.9985 0.0269 0.0481
vn 0.4687 0.4687 0.7488
vn 0.6644 0.3424 0.6644
vn 0.5773 0.5774 0.5773
vn 0.3424 0.6644 0.6644
vn 0.3838 0.3838 0.8399
vn 0.6754 0.2962 0.6754
vn 0.2962 0.6754 0.6754
vn 0.7488 0.4687 0.4687
vn 0.6644 0.6644 0.3424
vn 0.8399 0.3838 0.3838
vn 0.6754 0.6754 0.2962
vn 0.4687 0.7488 0.4687
vn 0.3838 0.8399 0.3838
vn -0.4687 0.4687 0.7488
vn -0.3424 0.6644 0.6644
vn -0.5774 0.5774 0.5773
vn -0.6644 0.3424 0.6644
vn -0.3838 0.3837 0.8399
vn -0.2962 0.6754 0.6754
vn -0.6754 0.2962 0.6754
vn -0.4687 0.7488 0.4687
vn -0.6644 0.6644 0.3424
vn -0.3837 0.8399 0.3837
vn -0.6754 0.6754 0.2962
vn -0.7488 0.4687 0.4687
vn -0.8399 0.3837 0.3838
vn 0.4687 -0.4687 0.7488
vn 0.3424 -0.6644 0.6644
vn 0.5774 -0.5773 0.5774
vn 0.6644 -0.3424 0.6644
vn 0.3838 -0.3838 0.8399
vn 0.2962 -0.6754 0.6754
vn 0.6754 -0.2962 0.6754
vn 0.4687 -0.7488 0.4687
vn 0.6644 -0.6644 0.3424
vn 0.3838 -0.8399 0.3838
vn 0.6754 -0.6754 0.2962
vn 0.7488 -0.4687 0.4687
vn 0.8399 -0.3838 0.3838
vn -0.3259 0.8874 0.3259
vn -0.4574 0.8545 0.2461
vn -0.4168 0.8078 0.4168
vn -0.2461 0.8545 0.4574
vn -0.3623 0.7756 0.5169
vn -0.4898 0.7213 0.4898
vn -0.3363 0.7429 0.5787
vn -0.4977 0.7104 0.4977
vn -0.5169 0.7756 0.3623
vn -0.5787 0.7429 0.3363
vn -0.5334 -0.5482 0.6442
vn -0.6411 -0.4219 0.6411
vn -0.496 -0.7127 0.496
vn -0.3596 -0.7971 0.4851
vn -0.5154 -0.4784 0.711
vn -0.6512 -0.3897 0.6512
vn -0.6442 -0.5482 0.5334
vn -0.4851 -0.7971 0.3596
vn -0.711 -0.4784 0.5154
vn -0.1633 -0.9289 0.3324
vn -0.222 -0.9494 0.222
vn -0.3324 -0.9289 0.1633
vn 0.4121 0.3407 0.8451
vn 0.6693 0.3224 0.6693
vn 0.6812 0.2682 0.6812
vn 0.3061 0.2414 0.9209
vn 0.8451 0.3407 0.4121
vn 0.9209 0.2414 0.3061
vn 0.4148 0.1626 0.8953
vn 0.6909 0.2129 0.6909
vn 0.8953 0.1626 0.4148
vn 0.4574 -0.4574 -0.7626
vn 0.6689 -0.3242 -0.6689
vn 0.5774 -0.5774 -0.5774
vn 0.3242 -0.6689 -0.6689
vn 0.3623 -0.3623 -0.8588
vn 0.6797 -0.2756 -0.6797
vn 0.2756 -0.6797 -0.6797
vn 0.4574 -0.7626 -0.4574
vn 0.6689 -0.6689 -0.3242
vn 0.3623 -0.8588 -0.3623
vn 0.6797 -0.6797 -0.2756
vn 0.7626 -0.4574 -0.4574
vn 0.8588 -0.3623 -0.3623
vn -0.4574 0.4574 -0.7626
vn -0.6689 0.3242 -0.6689
vn -0.5774 0.5773 -0.5774
vn -0.3242 0.6689 -0.6689
vn -0.3623 0.3623 -0.8588
vn -0.6797 0.2756 -0.6797
vn -0.2756 0.6797 -0.6797
vn -0.4574 0.7626 -0.4574
vn -0.6689 0.6689 -0.3242
vn -0.3623 0.8588 -0.3623
vn -0.6797 0.6797 -0.2756
vn -0.7626 0.4574 -0.4574
vn -0.8588 0.3623 -0.3623
vn 0.296 0.2771 -0.9141
vn 0.2775 0 -0.9607
vn 0.3311 -0 -0.9436
vn 0.3287 0.2733 -0.904
vn 0.9141 0.2771 -0.296
vn 0.904 0.2733 -0.3287
vn 0.9436 0 -0.3311
vn 0.9607 0 -0.2775
vn 0.296 -0.2771 -0.9141
vn 0.3287 -0.2733 -0.904
vn 0.1597 -0.1484 -0.9759
vn 0.9141 -0.2771 -0.296
vn 0.904 -0.2733 -0.3287
vn 0.9759 -0.1484 -0.1597
vn -0.4225 -0.4025 0.8121
vn -0.647 -0.4036 0.647
vn -0.6822 -0.2632 0.6822
vn -0.3996 -0.2367 0.8856
vn -0.2376 -0.2202 0.9461
vn -0.8121 -0.4025 0.4225
vn -0.8856 -0.2367 0.3996
vn -0.9461 -0.2202 0.2376
vn -0.8942 -0.0719 0.4419
vn -0.704 -0.0934 0.704
vn -0.4419 -0.0719 0.8942
vn -0.6087 -0.5089 0.6087
vn 0.7071 0 0.7071
#end 222 normals 

#begin 194 faces
o Box002
g Box002
s 1
f 1/1/1 2/2/2 3/3/3 4/4/4 
f 5/5/5 6/6/5 7/7/5 8/8/5 
s 2
f 9/9/6 10/10/7 11/11/8 12/12/8 
s 4
f 12/12/9 11/255/9 13/13/9 14/14/9 
s 8
f 14/14/10 13/257/10 15/15/10 16/16/10 
s 2
f 16/16/11 15/259/11 10/254/7 9/9/6 
s 1
f 17/17/12 18/18/13 19/19/14 20/20/15 21/21/15 22/22/15 
f 23/23/16 24/24/17 25/25/18 26/26/19 
s 2
f 27/27/20 28/28/8 29/29/21 30/30/22 31/31/23 
f 32/32/24 33/33/25 29/364/21 34/34/9 35/35/26 
s 4
f 35/35/27 34/279/10 36/36/10 37/37/27 
s 8
f 37/37/28 36/280/11 28/278/11 27/27/28 
s 1
f 38/38/10 39/39/10 40/40/10 41/41/10 
f 42/42/29 43/43/29 44/44/29 45/45/29 46/46/29 47/47/29 48/48/29 49/49/29 
s 2
f 38/283/5 41/281/5 50/50/5 51/51/5 43/292/5 42/290/5 
s 4
f 41/282/9 40/287/9 46/294/9 45/293/9 52/52/9 50/297/9 
s 2
f 40/288/30 39/285/30 53/53/30 54/54/30 47/296/30 46/295/30 
s 4
f 39/286/11 38/284/11 42/291/11 49/289/11 55/55/11 53/298/11 
s 1
f 56/56/10 57/57/10 58/58/10 59/59/10 60/60/10 61/61/10 62/62/10 63/63/10 
f 64/64/8 65/65/8 66/66/8 67/67/8 68/68/8 69/69/8 
s 2
f 56/300/5 63/299/5 70/70/5 71/71/5 65/240/5 64/307/5 
s 4
f 71/251/9 72/72/9 61/306/9 60/304/9 73/73/9 74/74/9 66/243/9 65/241/9 
s 2
f 60/305/31 59/303/31 75/75/31 76/76/31 69/247/31 68/238/31 77/77/31 73/253/31 
s 4
f 76/256/11 78/78/11 57/302/11 56/301/11 64/308/11 69/248/11 
s 1
f 79/79/10 80/80/32 81/81/33 82/82/34 83/83/35 
f 84/84/8 85/85/36 86/86/37 87/87/38 
s 2
f 88/88/5 89/89/5 90/90/5 91/91/5 
s 4
f 83/377/39 92/92/40 93/93/41 85/266/9 84/264/9 
s 2
f 94/94/31 95/95/31 96/96/31 97/97/31 
s 4
f 95/316/11 98/98/42 99/99/43 96/317/11 
s 1
f 100/100/5 101/101/5 102/102/5 103/103/5 
f 104/104/15 105/105/15 106/106/15 107/107/15 
s 2
f 100/323/8 103/321/8 105/333/8 104/331/8 
s 4
f 103/322/9 102/327/9 106/335/9 105/334/9 
s 2
f 102/328/10 101/325/10 107/329/10 106/336/10 
s 4
f 101/326/11 100/324/11 104/332/11 107/330/11 
s 1
f 2/244/2 1/242/1 9/9/44 12/12/45 
f 1/242/1 4/239/4 16/16/46 9/9/44 
f 4/239/4 3/245/3 14/14/47 16/16/46 
f 3/245/3 2/244/2 12/12/45 14/14/47 
s 2
f 108/108/48 109/109/49 110/110/50 111/111/51 112/112/52 
f 113/113/53 114/114/54 115/115/55 116/116/56 108/108/48 
s 4
f 117/117/57 118/118/58 114/114/58 113/113/57 
s 8
f 112/112/59 111/111/60 118/118/60 117/117/59 
s 2
f 20/265/61 19/263/62 119/119/62 120/120/62 27/27/20 31/31/23 121/121/63 122/122/64 
s 8
f 120/120/65 123/123/65 17/262/65 22/261/65 37/37/28 27/27/28 
s 4
f 22/261/66 21/267/66 35/35/27 37/37/27 
s 2
f 21/267/67 20/265/61 122/122/64 124/124/68 32/32/24 35/35/26 
s 1
f 24/272/17 23/269/16 125/125/69 126/126/70 127/127/71 128/128/72 
f 23/269/16 26/268/19 129/129/73 130/130/74 131/131/75 125/125/69 
f 26/268/19 25/275/18 132/132/76 129/129/73 
f 25/275/18 24/272/17 128/128/72 132/132/76 
f 98/319/32 95/315/32 94/314/32 133/133/77 
f 134/134/36 97/311/78 96/318/78 99/320/79 
s 4
f 133/337/80 94/313/9 97/312/9 134/338/81 
f 80/260/42 79/258/11 135/135/82 136/136/83 
s 1
f 137/137/84 138/138/85 139/139/86 140/140/87 
f 137/137/84 87/87/38 86/86/37 138/138/85 
f 137/137/84 140/140/87 141/141/88 87/87/38 
s 4
f 142/142/89 143/143/90 139/339/91 144/144/92 
f 142/142/89 145/145/93 136/136/83 143/143/90 
f 142/142/89 144/144/92 99/99/43 145/145/93 
s 1
f 146/146/94 144/342/95 139/139/86 138/138/85 
f 146/146/94 147/147/96 99/320/79 144/342/95 
f 146/146/94 138/138/85 86/86/37 147/147/96 
s 4
f 148/148/97 140/340/98 139/339/91 143/143/90 
f 148/148/97 135/135/82 141/341/99 140/340/98 
f 148/148/97 143/143/90 136/136/83 135/135/82 
s 8
f 149/149/100 150/150/101 151/151/102 152/152/103 
f 149/149/100 67/67/104 66/66/105 150/150/101 
f 149/149/100 152/152/103 68/68/106 67/67/104 
f 153/153/107 154/154/108 151/344/102 150/343/101 
f 153/153/107 74/74/109 73/73/110 154/154/108 
f 153/153/107 150/343/101 66/243/105 74/74/109 
f 155/155/111 152/346/103 151/345/102 154/347/108 
f 155/155/111 77/77/112 68/238/106 152/346/103 
f 155/155/111 154/347/108 73/253/110 77/77/112 
f 156/156/113 157/157/114 158/158/115 159/159/116 
f 156/156/113 48/48/117 47/47/118 157/157/114 
f 156/156/113 159/159/116 49/49/119 48/48/117 
f 160/160/120 161/161/121 158/349/115 157/348/114 
f 160/160/120 54/54/122 53/53/123 161/161/121 
f 160/160/120 157/348/114 47/296/118 54/54/122 
f 162/162/124 159/351/116 158/350/115 161/352/121 
f 162/162/124 55/55/125 49/289/119 159/351/116 
f 162/162/124 161/352/121 53/298/123 55/55/125 
f 163/163/126 164/164/127 165/165/128 166/166/129 
f 163/163/126 44/44/130 43/43/131 164/164/127 
f 163/163/126 166/166/129 45/45/132 44/44/130 
f 167/167/133 168/168/134 165/354/128 164/353/127 
f 167/167/133 51/51/135 50/50/136 168/168/134 
f 167/167/133 164/353/127 43/292/131 51/51/135 
f 169/169/137 166/356/129 165/355/128 168/357/134 
f 169/169/137 52/52/138 45/293/132 166/356/129 
f 169/169/137 168/357/134 50/297/136 52/52/138 
s 1
f 170/170/139 171/171/140 172/172/141 173/173/142 
f 170/170/139 18/18/13 17/17/12 171/171/140 
f 170/170/139 173/173/142 19/19/14 18/18/13 
f 174/174/143 173/360/142 172/359/141 175/175/144 
f 174/174/143 119/119/145 19/263/14 173/360/142 
f 174/174/143 175/175/144 120/120/146 119/119/145 
f 176/176/147 175/175/144 172/359/141 171/358/140 
f 176/176/147 123/123/148 120/120/146 175/175/144 
f 176/176/147 171/358/140 17/262/12 123/123/148 
f 177/177/149 178/178/150 179/179/151 180/180/152 
f 177/177/149 181/181/153 182/182/154 178/178/150 
f 177/177/149 180/180/152 130/130/74 181/181/153 
f 183/183/155 184/184/156 179/179/151 178/361/150 
f 183/183/155 185/185/157 127/127/71 184/184/156 
f 183/183/155 178/361/150 182/362/154 185/185/157 
f 186/186/158 187/187/159 179/179/151 184/184/156 
f 186/186/158 126/126/70 125/125/69 187/187/159 
f 186/186/158 184/184/156 127/127/71 126/126/70 
f 188/188/160 180/180/152 179/179/151 187/187/159 
f 188/188/160 131/131/75 130/130/74 180/180/152 
f 188/188/160 187/187/159 125/125/69 131/131/75 
s 2
f 189/189/161 190/190/162 191/191/163 192/192/164 
f 189/189/161 30/30/22 29/29/21 190/190/162 
f 189/189/161 192/192/164 31/31/23 30/30/22 
f 193/193/165 194/194/166 191/191/163 190/363/162 
f 193/193/165 33/33/25 32/32/24 194/194/166 
f 193/193/165 190/363/162 29/364/21 33/33/25 
f 195/195/167 192/192/164 191/191/163 196/196/168 
f 195/195/167 121/121/63 31/31/23 192/192/164 
f 195/195/167 196/196/168 122/122/64 121/121/63 
f 197/197/169 196/196/168 191/191/163 194/194/166 
f 197/197/169 124/124/68 122/122/64 196/196/168 
f 197/197/169 194/194/166 32/32/24 124/124/68 
s 8
f 198/198/170 199/199/171 200/200/172 201/201/173 
f 198/198/170 62/62/174 61/61/175 199/199/171 
f 198/198/170 201/201/173 63/63/176 62/62/174 
f 202/202/177 201/368/173 200/367/172 203/203/178 
f 202/202/177 70/70/179 63/299/176 201/368/173 
f 202/202/177 203/203/178 71/71/180 70/70/179 
f 204/204/181 203/369/178 200/366/172 199/365/171 
f 204/204/181 72/72/182 71/251/180 203/369/178 
f 204/204/181 199/365/171 61/306/175 72/72/182 
f 205/205/183 206/206/184 207/207/185 208/208/186 
f 205/205/183 58/58/187 57/57/188 206/206/184 
f 205/205/183 208/208/186 59/59/189 58/58/187 
f 209/209/190 208/373/186 207/372/185 210/210/191 
f 209/209/190 75/75/192 59/303/189 208/373/186 
f 209/209/190 210/210/191 76/76/193 75/75/192 
f 211/211/194 210/374/191 207/371/185 206/370/184 
f 211/211/194 78/78/195 76/256/193 210/374/191 
f 211/211/194 206/370/184 57/302/188 78/78/195 
s 1
f 212/212/196 213/213/197 214/214/198 215/215/199 
f 212/212/196 82/82/34 81/81/33 213/213/197 
f 212/212/196 215/215/199 83/83/35 82/82/34 
s 4
f 216/216/200 215/376/201 214/375/202 217/217/203 
f 216/216/200 92/92/40 83/377/39 215/376/201 
f 216/216/200 217/217/203 93/93/41 92/92/40 
s 1
f 218/218/204 219/219/205 214/214/198 213/213/197 
f 218/218/204 220/220/206 133/133/77 219/219/205 
f 218/218/204 213/213/197 81/81/33 220/220/206 
s 4
f 221/221/207 217/217/203 214/375/202 219/378/208 
f 221/221/207 222/222/209 93/93/41 217/217/203 
f 221/221/207 219/378/208 133/337/80 222/222/209 
s 2
f 223/223/210 224/224/211 225/225/212 226/226/213 
f 223/223/210 227/227/214 10/10/7 224/224/211 
f 223/223/210 226/226/213 115/115/55 227/227/214 
f 228/228/215 229/229/216 225/225/212 224/379/211 
f 228/228/215 230/230/217 110/110/50 229/229/216 
f 228/228/215 224/379/211 10/254/7 230/230/217 
f 231/231/218 232/232/219 225/225/212 229/229/216 
f 231/231/218 109/109/49 108/108/48 232/232/219 
f 231/231/218 229/229/216 110/110/50 109/109/49 
f 233/233/220 226/226/213 225/225/212 232/232/219 
f 233/233/220 116/116/56 115/115/55 226/226/213 
f 233/233/220 232/232/219 108/108/48 116/116/56 
f 10/10/7 227/227/214 115/115/55 114/114/54 11/11/8 
s 4
f 11/255/9 114/114/58 118/118/58 13/13/9 
s 8
f 13/257/10 118/118/60 111/111/60 15/15/10 
s 2
f 15/259/11 111/111/51 110/110/50 230/230/217 10/254/7 
f 108/108/48 5/249/221 8/246/53 113/113/53 
s 4
f 113/113/57 8/246/57 7/252/57 117/117/57 
s 8
f 117/117/59 7/252/59 6/250/59 112/112/59 
s 2
f 112/112/52 6/250/52 5/249/221 108/108/48 
f 29/364/21 234/234/222 235/235/9 34/34/9 
s 4
f 34/279/10 235/381/10 236/236/10 36/36/10 
s 8
f 236/382/11 128/128/11 127/127/11 185/185/11 182/362/11 237/237/11 
s 2
f 237/383/8 182/182/8 181/181/8 130/130/8 129/129/222 234/380/222 
f 234/234/222 129/129/222 132/132/9 235/235/9 
s 4
f 235/381/10 132/132/10 128/128/10 236/236/10 
s 2
f 234/380/222 29/29/21 28/28/8 237/383/8 
s 8
f 237/237/11 28/278/11 36/280/11 236/382/11 
s 1
f 87/87/38 141/141/88 91/276/8 90/310/8 84/84/8 
s 4
f 84/264/9 90/309/9 89/274/9 83/377/39 
s 1
f 83/83/35 89/273/10 88/271/10 79/79/10 
s 4
f 79/258/11 88/270/11 91/277/11 141/341/99 135/135/82 
s 1
f 133/133/77 220/220/206 81/81/33 80/80/32 98/319/32 
s 4
f 98/98/42 80/260/42 136/136/83 145/145/93 99/99/43 
s 1
f 99/320/79 147/147/96 86/86/37 85/85/36 134/134/36 
s 4
f 134/338/81 85/266/9 93/93/41 222/222/209 133/337/80 
#end 194 faces

#ZOMPROPERTIES_04{
#ZOMPROPERTIES_04 table {Mesh table {SymPlane table {Point vector3d 0 0 0 Normal vector3d 1 0 0 Threshold double 0.01 
#ZOMPROPERTIES_04 Enabled bool false EdgeID int -1 SymEdgeID int -1 UPos double 0.5 LocalMode bool false } RootGroup C
#ZOMPROPERTIES_04 SubMeshGroup {Children table {Tile_0_0 CSubMeshGroup {Children table {} BBoxUV box3d 0 0 0 0 0 0 BBo
#ZOMPROPERTIES_04 x3D box3d 0 0 0 0 0 0 Area3D double 0 AreaUV double 0 IsRoot bool false Properties table {Selected b
#ZOMPROPERTIES_04 ool false Box box3d 0 1 0 1 0 1 U int 0 V int 0 NU int 0 NV int 0 Pack table {BoxFrameEdit bool fals
#ZOMPROPERTIES_04 e Behavior string "Free" Locked bool false Scaling table {Optimization string "Fill" } } Hotspot tab
#ZOMPROPERTIES_04 le {} } IsTile bool true PolyIDs ints { 30 31 18 130 128 129 139 137 138 19 70 68 69 25 57 58 56 62 
#ZOMPROPERTIES_04 63 192 53 64 186 24 147 148 146 152 153 190 52 154 188 29 191 60 61 59 65 66 189 55 67 27 193 54 157
#ZOMPROPERTIES_04  155 149 150 151 156 187 21 73 71 72 136 134 135 23 145 143 144 13 79 77 78 88 86 87 15 94 92 93 17 
#ZOMPROPERTIES_04 85 83 84 12 26 28 20 133 131 132 22 76 74 75 142 140 141 14 91 89 90 16 82 80 81 6 97 95 96 1 0 7 35
#ZOMPROPERTIES_04  33 34 32 8 117 118 116 122 124 44 100 98 101 103 45 11 185 180 109 107 110 113 104 105 181 49 115 1
#ZOMPROPERTIES_04 11 48 112 51 50 182 178 9 120 121 119 125 127 126 47 46 10 179 183 114 184 106 108 102 99 123 2 170 
#ZOMPROPERTIES_04 41 42 43 40 173 5 37 38 4 172 39 3 171 36 163 161 164 165 166 167 168 169 158 159 160 162 177 176 17
#ZOMPROPERTIES_04 5 174 } } } BBoxUV box3d 0 0 0 0 0 0 BBox3D box3d 0 0 0 0 0 0 Area3D double 0 AreaUV double 5.5381 I
#ZOMPROPERTIES_04 sRoot bool true Properties table {Selected bool false Box box3d 0 1 0 1 0 1 U int 0 V int 0 NU int 1
#ZOMPROPERTIES_04  NV int 1 Pack table {Rotate table {Initial string "Automatic" Min double 0 Max double 90 Step doubl
#ZOMPROPERTIES_04 e 0 } ResolutionDivisor int 0 MapResolution int 2048 UsePixelUnit bool true PaddingSize double 0.007
#ZOMPROPERTIES_04 8125 MarginSize double 0.00390625 PaddingSizePx int 16 MarginSizePx int 15 Scaling table {TexelDensi
#ZOMPROPERTIES_04 ty double 1024 Mode int 2 Optimization string "Fill" } MaxMutations int 1 Strategy string "Efficient
#ZOMPROPERTIES_04 " Sides string "Closed" } Hotspot table {} Tiling vector3d 1 1 1 TileRatioMode string "1:1" } IsTile
#ZOMPROPERTIES_04  bool false PolyIDs ints { } } Maps table {Pin CDataMap {PrimType string "Vertex" Size int 1 Default
#ZOMPROPERTIES_04 Value double 0 ScaleType string "Normalized" MergeMode string "Max" MinValue double 0 MaxValue doubl
#ZOMPROPERTIES_04 e 1 Data doubles { r 383 0 } } Density CDataMap {PrimType string "Polygon" Size int 1 DefaultValue d
#ZOMPROPERTIES_04 ouble 1 ScaleType string "Log" MergeMode string "Average" MinValue double 0.1 MaxValue double 4 Data
#ZOMPROPERTIES_04  doubles { r 194 1 } } Protect CDataMap {PrimType string "Vertex" Size int 1 DefaultValue double 0 S
#ZOMPROPERTIES_04 caleType string "Normalized" MergeMode string "Average" MinValue double -1 MaxValue double 1 Data do
#ZOMPROPERTIES_04 ubles { r 383 0 } } } } }
#ZOMPROPERTIES_04}


#ZOMSCENE_01{
#ZOMSCENE_01 CScene {Settings table {AxisSystem table {UpVector string "y" } Unit string "cm" TexelDensityDisplay
#ZOMSCENE_01 Unit string "tx/cm" } Root CXForm {Box002 CPrim {PolyRange table {Low int 0 High int 193 } } } }
#ZOMSCENE_01}

#begin 0 fatal error vertex (that RizomUV cannot handle)
#end 0 fatal error vertex (that RizomUV cannot handle)

#begin 0 error vertex
#end 0 error vertex
