#File written by RizomUV 2025.0.101.g577a16f3. Compilation :Sep 18 2025,15:37:21
#begin vertices
v -13.9194 -0 0.9843
v -13.9194 -0 -0
v -11.1355 -2.7839 -0
v -11.1355 -2.7839 0.9843
v -8.3517 -5.5678 -0
v -8.3517 -5.5678 0.9843
v -5.5678 -8.3517 -0
v -5.5678 -8.3517 0.9843
v -2.7839 -11.1355 -0
v -2.7839 -11.1355 0.9843
v 0 -13.9194 -0
v 0 -13.9194 0.9843
v -13.9194 -0 -0.9843
v -11.1355 -2.7839 -0.9843
v -8.3517 -5.5678 -0.9843
v -5.5678 -8.3517 -0.9843
v -2.7839 -11.1355 -0.9843
v 0 -13.9194 -0.9843
v -0 13.9194 0.9843
v 2.7839 11.1355 0.9843
v 2.7839 11.1355 -0
v -0 13.9194 -0
v 5.5678 8.3517 0.9843
v 5.5678 8.3517 -0
v 8.3517 5.5678 0.9843
v 8.3517 5.5678 -0
v 11.1355 2.7839 0.9843
v 11.1355 2.7839 -0
v 13.9194 0 0.9843
v 13.9194 0 -0
v 2.7839 11.1355 -0.9843
v -0 13.9194 -0.9843
v 5.5678 8.3517 -0.9843
v 8.3517 5.5678 -0.9843
v 11.1355 2.7839 -0.9843
v 13.9194 0 -0.9843
v -8.3517 -0 0.9843
v -11.1355 2.7839 0.9843
v -5.5678 -2.7839 0.9843
v -2.7839 -5.5678 0.9843
v 0 -8.3517 0.9843
v 2.7839 -11.1355 0.9843
v -5.5678 2.7839 0.9843
v -8.3517 5.5678 0.9843
v -2.7839 -0 0.9843
v -0 -2.7839 0.9843
v 2.7839 -5.5678 0.9843
v 5.5678 -8.3517 0.9843
v -2.7839 5.5678 0.9843
v -5.5678 8.3517 0.9843
v -0 2.7839 0.9843
v 2.7839 -0 0.9843
v 5.5678 -2.7839 0.9843
v 8.3517 -5.5678 0.9843
v -0 8.3517 0.9843
v -2.7839 11.1355 0.9843
v 2.7839 5.5678 0.9843
v 5.5678 2.7839 0.9843
v 8.3517 -0 0.9843
v 11.1355 -2.7839 0.9843
v 2.7839 -11.1355 -0
v 2.7839 -11.1355 -0.9843
v 5.5678 -8.3517 -0
v 5.5678 -8.3517 -0.9843
v 8.3517 -5.5678 -0
v 8.3517 -5.5678 -0.9843
v 11.1355 -2.7839 -0
v 11.1355 -2.7839 -0.9843
v 0 -8.3517 -0.9843
v -2.7839 -5.5678 -0.9843
v -5.5678 -2.7839 -0.9843
v -8.3517 -0 -0.9843
v -11.1355 2.7839 -0.9843
v 2.7839 -5.5678 -0.9843
v -0 -2.7839 -0.9843
v -2.7839 -0 -0.9843
v -5.5678 2.7839 -0.9843
v -8.3517 5.5678 -0.9843
v 5.5678 -2.7839 -0.9843
v 2.7839 -0 -0.9843
v -0 2.7839 -0.9843
v -2.7839 5.5678 -0.9843
v -5.5678 8.3517 -0.9843
v 8.3517 -0 -0.9843
v 5.5678 2.7839 -0.9843
v 2.7839 5.5678 -0.9843
v -0 8.3517 -0.9843
v -2.7839 11.1355 -0.9843
v -11.1355 2.7839 -0
v -8.3517 5.5678 -0
v -5.5678 8.3517 -0
v -2.7839 11.1355 -0
#end vertices

#begin 144 textures vertices 
vt 0.4681258 0.4768887 0
vt 0.4681258 0.5001008 0
vt 0.3752812 0.5001008 0
vt 0.3752812 0.4768887 0
vt 0.2824383 0.5001008 0
vt 0.2824383 0.4768887 0
vt 0.1895937 0.5001008 0
vt 0.1895937 0.4768887 0
vt 0.09675084 0.5001008 0
vt 0.09675084 0.4768887 0
vt 0.003906261 0.5001008 0
vt 0.003906261 0.4768887 0
vt 0.4681258 0.523313 0
vt 0.3752812 0.523313 0
vt 0.2824383 0.523313 0
vt 0.1895937 0.523313 0
vt 0.09675084 0.523313 0
vt 0.003906261 0.523313 0
vt 0.4768886 0.4768887 0
vt 0.5697332 0.4768887 0
vt 0.5697332 0.5001008 0
vt 0.4768886 0.5001008 0
vt 0.6625761 0.4768887 0
vt 0.6625761 0.5001008 0
vt 0.7554207 0.4768887 0
vt 0.7554207 0.5001008 0
vt 0.8482636 0.4768887 0
vt 0.8482636 0.5001008 0
vt 0.9411082 0.4768887 0
vt 0.9411082 0.5001008 0
vt 0.5697332 0.523313 0
vt 0.4768886 0.523313 0
vt 0.6625761 0.523313 0
vt 0.7554207 0.523313 0
vt 0.8482636 0.523313 0
vt 0.9411082 0.523313 0
vt 0.5697341 0.09675041 0
vt 0.4768912 0.09675166 0
vt 0.6625787 0.09675083 0
vt 0.7554233 0.09675124 0
vt 0.8482678 0.09675166 0
vt 0.9411107 0.09675374 0
vt 0.5697337 0.189595 0
vt 0.4768891 0.1895946 0
vt 0.6625783 0.1895954 0
vt 0.7554228 0.1895958 0
vt 0.8482674 0.1895962 0
vt 0.941112 0.1895967 0
vt 0.5697333 0.2824396 0
vt 0.4768887 0.2824391 0
vt 0.6625779 0.28244 0
vt 0.7554224 0.2824404 0
vt 0.848267 0.2824408 0
vt 0.9411116 0.2824412 0
vt 0.5697329 0.3752841 0
vt 0.47689 0.3752821 0
vt 0.6625774 0.3752846 0
vt 0.755422 0.375285 0
vt 0.8482666 0.3752854 0
vt 0.9411095 0.3752841 0
vt 0.08210394 0.9032492 0
vt 0.05889179 0.9032492 0
vt 0.08210394 0.8104063 0
vt 0.05889179 0.8104063 0
vt 0.08210394 0.7175617 0
vt 0.05889179 0.7175617 0
vt 0.08210394 0.6247188 0
vt 0.05889179 0.6247188 0
vt 0.09675168 0.09675041 0
vt 0.1895963 0.09675083 0
vt 0.2824408 0.09675124 0
vt 0.3752854 0.09675166 0
vt 0.4681283 0.09675374 0
vt 0.09675127 0.189595 0
vt 0.1895958 0.1895954 0
vt 0.2824404 0.1895958 0
vt 0.375285 0.1895962 0
vt 0.4681296 0.1895967 0
vt 0.09675085 0.2824396 0
vt 0.1895954 0.28244 0
vt 0.28244 0.2824404 0
vt 0.3752846 0.2824408 0
vt 0.4681292 0.2824412 0
vt 0.09675043 0.3752841 0
vt 0.189595 0.3752846 0
vt 0.2824396 0.375285 0
vt 0.3752842 0.3752854 0
vt 0.4681271 0.3752841 0
vt 0.0271184 0.9032492 0
vt 0.0271184 0.8104063 0
vt 0.0271184 0.7175617 0
vt 0.0271184 0.6247188 0
vt 0.9411112 0.003909168 0
vt 0.1053161 0.9960937 0
vt 0.003907525 0.3752821 0
vt 0.5697362 0.003907501 0
vt 0.4768916 0.003907084 0
vt 0.00390625 0.9960938 0
vt 0.8482666 0.003908751 0
vt 0.003906275 0.2824391 0
vt 0.0271184 0.9960937 0
vt 0.6625791 0.00390625 0
vt 0.7554237 0.003906667 0
vt 0.08210394 0.9960937 0
vt 0.4681287 0.003909168 0
vt 0.05033055 0.9960937 0
vt 0.05033055 0.8104063 0
vt 0.3752842 0.003908751 0
vt 0.2824413 0.003906667 0
vt 0.1895967 0.00390625 0
vt 0.09675377 0.003907501 0
vt 0.05889179 0.9960938 0
vt 0.003909193 0.003907084 0
vt 0.0271184 0.5318742 0
vt 0.05033055 0.7175617 0
vt 0.4768895 0.4681266 0
vt 0.00390625 0.5318742 0
vt 0.5697341 0.468127 0
vt 0.662577 0.4681291 0
vt 0.7554216 0.4681295 0
vt 0.8482645 0.4681283 0
vt 0.9411091 0.4681287 0
vt 0.1053161 0.5318742 0
vt 0.08210394 0.5318742 0
vt 0.4681267 0.4681287 0
vt 0.05033055 0.5318742 0
vt 0.3752821 0.4681283 0
vt 0.2824392 0.4681295 0
vt 0.1895946 0.4681291 0
vt 0.09675168 0.468127 0
vt 0.05889179 0.5318742 0
vt 0.003907109 0.4681266 0
vt 0.00390625 0.9032492 0
vt 0.1053161 0.9032492 0
vt 0.00390625 0.8104063 0
vt 0.1053161 0.8104063 0
vt 0.00390625 0.7175617 0
vt 0.1053161 0.7175617 0
vt 0.00390625 0.6247188 0
vt 0.1053161 0.6247188 0
vt 0.003908776 0.09675166 0
vt 0.003906692 0.1895946 0
vt 0.05033055 0.9032492 0
vt 0.05033055 0.6247188 0
#end 144 textures vertices 

#begin 26 normals 
vn -0.8165 -0 0.5774
vn -1 -0 -0
vn -0.7071 -0.7071 -0
vn -0.5 -0.5 0.7071
vn 0 -1 -0
vn 0 -0.8165 0.5774
vn -0.8165 -0 -0.5774
vn -0.5 -0.5 -0.7071
vn 0 -0.8165 -0.5774
vn -0 0.8165 0.5774
vn 0.5 0.5 0.7071
vn 0.7071 0.7071 -0
vn -0 1 -0
vn 0.8165 0 0.5774
vn 1 0 -0
vn 0.5 0.5 -0.7071
vn -0 0.8165 -0.5774
vn 0.8165 0 -0.5774
vn 0 0 1
vn -0.5 0.5 0.7071
vn 0.5 -0.5 0.7071
vn 0.7071 -0.7071 -0
vn 0.5 -0.5 -0.7071
vn 0 0 -1
vn -0.5 0.5 -0.7071
vn -0.7071 0.7071 -0
#end 26 normals 

#begin 90 faces
o Box001
g Box001
s 2
f 1/1/1 2/2/2 3/3/3 4/4/4 
f 4/4/4 3/3/3 5/5/3 6/6/4 
f 6/6/4 5/5/3 7/7/3 8/8/4 
f 8/8/4 7/7/3 9/9/3 10/10/4 
f 10/10/4 9/9/3 11/11/5 12/12/6 
f 2/2/2 13/13/7 14/14/8 3/3/3 
f 3/3/3 14/14/8 15/15/8 5/5/3 
f 5/5/3 15/15/8 16/16/8 7/7/3 
f 7/7/3 16/16/8 17/17/8 9/9/3 
f 9/9/3 17/17/8 18/18/9 11/11/5 
s 4
f 19/19/10 20/20/11 21/21/12 22/22/13 
f 20/20/11 23/23/11 24/24/12 21/21/12 
f 23/23/11 25/25/11 26/26/12 24/24/12 
f 25/25/11 27/27/11 28/28/12 26/26/12 
f 27/27/11 29/29/14 30/30/15 28/28/12 
f 22/22/13 21/21/12 31/31/16 32/32/17 
f 21/21/12 24/24/12 33/33/16 31/31/16 
f 24/24/12 26/26/12 34/34/16 33/33/16 
f 26/26/12 28/28/12 35/35/16 34/34/16 
f 28/28/12 30/30/15 36/36/18 35/35/16 
s 8
f 1/97/1 4/96/4 37/37/19 38/38/20 
f 4/96/4 6/102/4 39/39/19 37/37/19 
f 6/102/4 8/103/4 40/40/19 39/39/19 
f 8/103/4 10/99/4 41/41/19 40/40/19 
f 10/99/4 12/93/6 42/42/21 41/41/19 
f 38/38/20 37/37/19 43/43/19 44/44/20 
f 37/37/19 39/39/19 45/45/19 43/43/19 
f 39/39/19 40/40/19 46/46/19 45/45/19 
f 40/40/19 41/41/19 47/47/19 46/46/19 
f 41/41/19 42/42/21 48/48/21 47/47/19 
f 44/44/20 43/43/19 49/49/19 50/50/20 
f 43/43/19 45/45/19 51/51/19 49/49/19 
f 45/45/19 46/46/19 52/52/19 51/51/19 
f 46/46/19 47/47/19 53/53/19 52/52/19 
f 47/47/19 48/48/21 54/54/21 53/53/19 
f 50/50/20 49/49/19 55/55/19 56/56/20 
f 49/49/19 51/51/19 57/57/19 55/55/19 
f 51/51/19 52/52/19 58/58/19 57/57/19 
f 52/52/19 53/53/19 59/59/19 58/58/19 
f 53/53/19 54/54/21 60/60/21 59/59/19 
f 56/56/20 55/55/19 20/118/11 19/116/10 
f 55/55/19 57/57/19 23/119/11 20/118/11 
f 57/57/19 58/58/19 25/120/11 23/119/11 
f 58/58/19 59/59/19 27/121/11 25/120/11 
f 59/59/19 60/60/21 29/122/14 27/121/11 
s 16
f 12/94/6 11/104/5 61/61/22 42/134/21 
f 11/104/5 18/112/9 62/62/23 61/61/22 
f 42/134/21 61/61/22 63/63/22 48/136/21 
f 61/61/22 62/62/23 64/64/23 63/63/22 
f 48/136/21 63/63/22 65/65/22 54/138/21 
f 63/63/22 64/64/23 66/66/23 65/65/22 
f 54/138/21 65/65/22 67/67/22 60/140/21 
f 65/65/22 66/66/23 68/68/23 67/67/22 
f 60/140/21 67/67/22 30/124/15 29/123/14 
f 67/67/22 68/68/23 36/131/18 30/124/15 
s 32
f 18/113/9 17/111/8 69/69/24 62/141/23 
f 17/111/8 16/110/8 70/70/24 69/69/24 
f 16/110/8 15/109/8 71/71/24 70/70/24 
f 15/109/8 14/108/8 72/72/24 71/71/24 
f 14/108/8 13/105/7 73/73/25 72/72/24 
f 62/141/23 69/69/24 74/74/24 64/142/23 
f 69/69/24 70/70/24 75/75/24 74/74/24 
f 70/70/24 71/71/24 76/76/24 75/75/24 
f 71/71/24 72/72/24 77/77/24 76/76/24 
f 72/72/24 73/73/25 78/78/25 77/77/24 
f 64/142/23 74/74/24 79/79/24 66/100/23 
f 74/74/24 75/75/24 80/80/24 79/79/24 
f 75/75/24 76/76/24 81/81/24 80/80/24 
f 76/76/24 77/77/24 82/82/24 81/81/24 
f 77/77/24 78/78/25 83/83/25 82/82/24 
f 66/100/23 79/79/24 84/84/24 68/95/23 
f 79/79/24 80/80/24 85/85/24 84/84/24 
f 80/80/24 81/81/24 86/86/24 85/85/24 
f 81/81/24 82/82/24 87/87/24 86/86/24 
f 82/82/24 83/83/25 88/88/25 87/87/24 
f 68/95/23 84/84/24 35/130/16 36/132/18 
f 84/84/24 85/85/24 34/129/16 35/130/16 
f 85/85/24 86/86/24 33/128/16 34/129/16 
f 86/86/24 87/87/24 31/127/16 33/128/16 
f 87/87/24 88/88/25 32/125/17 31/127/16 
s 64
f 13/106/7 2/101/2 89/89/26 73/143/25 
f 2/101/2 1/98/1 38/133/20 89/89/26 
f 73/143/25 89/89/26 90/90/26 78/107/25 
f 89/89/26 38/133/20 44/135/20 90/90/26 
f 78/107/25 90/90/26 91/91/26 83/115/25 
f 90/90/26 44/135/20 50/137/20 91/91/26 
f 83/115/25 91/91/26 92/92/26 88/144/25 
f 91/91/26 50/137/20 56/139/20 92/92/26 
f 88/144/25 92/92/26 22/114/13 32/126/17 
f 92/92/26 56/139/20 19/117/10 22/114/13 
#end 90 faces

#ZOMPROPERTIES_04{
#ZOMPROPERTIES_04 table {Mesh table {SymPlane table {Point vector3d 0 0 0 Normal vector3d 1 0 0 Threshold double 0.01 
#ZOMPROPERTIES_04 Enabled bool false EdgeID int -1 SymEdgeID int -1 UPos double 0.5 LocalMode bool false } RootGroup C
#ZOMPROPERTIES_04 SubMeshGroup {Children table {Tile_0_0 CSubMeshGroup {Children table {} BBoxUV box3d 0 0 0 0 0 0 BBo
#ZOMPROPERTIES_04 x3D box3d 0 0 0 0 0 0 Area3D double 0 AreaUV double 0 IsRoot bool false Properties table {Selected b
#ZOMPROPERTIES_04 ool false Box box3d 0 1 0 1 0 1 U int 0 V int 0 NU int 0 NV int 0 Pack table {BoxFrameEdit bool fals
#ZOMPROPERTIES_04 e Behavior string "Free" Locked bool false Scaling table {Optimization string "Fill" } } Hotspot tab
#ZOMPROPERTIES_04 le {} } IsTile bool true PolyIDs ints { 0 1 2 3 4 9 8 7 6 5 10 15 16 17 18 19 14 13 12 11 80 82 84 8
#ZOMPROPERTIES_04 6 88 89 87 85 83 81 45 47 49 51 53 54 52 50 48 46 55 60 65 70 75 76 77 78 79 74 69 64 59 58 57 56 62
#ZOMPROPERTIES_04  67 72 68 66 61 63 73 71 20 25 30 35 40 41 42 43 44 39 34 29 24 23 22 21 27 32 37 33 31 26 28 38 36 
#ZOMPROPERTIES_04 } } } BBoxUV box3d 0 0 0 0 0 0 BBox3D box3d 0 0 0 0 0 0 Area3D double 0 AreaUV double 0 IsRoot bool 
#ZOMPROPERTIES_04 true Properties table {Selected bool false Box box3d 0 1 0 1 0 1 U int 0 V int 0 NU int 1 NV int 1 P
#ZOMPROPERTIES_04 ack table {Rotate table {Initial string "Automatic" Min double 0 Max double 90 Step double 0 } Resol
#ZOMPROPERTIES_04 utionDivisor int 0 MapResolution int 2048 UsePixelUnit bool true PaddingSize double 0.0078125 Margin
#ZOMPROPERTIES_04 Size double 0.00390625 PaddingSizePx int 16 MarginSizePx int 8 Scaling table {TexelDensity double 10
#ZOMPROPERTIES_04 24 Mode int 2 Optimization string "Fill" } MaxMutations int 1 Strategy string "Efficient" Sides stri
#ZOMPROPERTIES_04 ng "Closed" } Hotspot table {} Tiling vector3d 1 1 1 TileRatioMode string "1:1" } IsTile bool false 
#ZOMPROPERTIES_04 PolyIDs ints { } } Maps table {Pin CDataMap {PrimType string "Vertex" Size int 1 DefaultValue double
#ZOMPROPERTIES_04  0 ScaleType string "Normalized" MergeMode string "Max" MinValue double 0 MaxValue double 1 Data dou
#ZOMPROPERTIES_04 bles { r 144 0 } } Density CDataMap {PrimType string "Polygon" Size int 1 DefaultValue double 1 Scal
#ZOMPROPERTIES_04 eType string "Log" MergeMode string "Average" MinValue double 0.1 MaxValue double 4 Data doubles { r
#ZOMPROPERTIES_04  90 1 } } Protect CDataMap {PrimType string "Vertex" Size int 1 DefaultValue double 0 ScaleType stri
#ZOMPROPERTIES_04 ng "Normalized" MergeMode string "Average" MinValue double -1 MaxValue double 1 Data doubles { r 144
#ZOMPROPERTIES_04  0 } } } } }
#ZOMPROPERTIES_04}


#ZOMSCENE_01{
#ZOMSCENE_01 CScene {Settings table {AxisSystem table {UpVector string "y" } Unit string "cm" TexelDensityDisplay
#ZOMSCENE_01 Unit string "tx/cm" } Root CXForm {Box001 CPrim {PolyRange table {Low int 0 High int 89 } } } }
#ZOMSCENE_01}

#begin 0 fatal error vertex (that RizomUV cannot handle)
#end 0 fatal error vertex (that RizomUV cannot handle)

#begin 0 error vertex
#end 0 error vertex
